<?xml version="1.0" encoding="utf-8"?>
<!-- Generator: Adobe Illustrator 17.1.0, SVG Export Plug-In . SVG Version: 6.00 Build 0)  -->
<!DOCTYPE svg PUBLIC "-//W3C//DTD SVG 1.0//EN" "http://www.w3.org/TR/2001/REC-SVG-20010904/DTD/svg10.dtd">
<svg version="1.0" id="_x35_8_1_" xmlns="http://www.w3.org/2000/svg" xmlns:xlink="http://www.w3.org/1999/xlink" x="0px" y="0px"
	 viewBox="0 0 250 250" enable-background="new 0 0 250 250" xml:space="preserve">
<g id="_x33_1_1_">
	<g>
		<path fill-rule="evenodd" clip-rule="evenodd" fill="#00AEAD" d="M157.9,63c-6.5-5.3-14-8-22.5-8l-23.9,0
			c-11.9,0-32.6,6.7-32.6,29c0,5.6,2.4,9.9,6.7,12.5c2.2,1.5,4.6,2.3,6.9,2.3c2.3,0,4.6-0.8,6.8-2.2c4.5-2.6,6.8-7,6.7-12.4
			c0,0,0.9-0.9,5.5-0.9h22.6c2.9,0,5.4,0.7,7.4,2.1c2.2,1.4,3.4,4.2,3.2,8.6c-0.4,8.8-4.5,5.8-21.1,15c-2.1,1-4,2.3-5.4,3.7
			c-8,6.8-12,15.8-12,26.8v0c0,5.3,2.1,9.5,6.5,12.6c2.3,1.3,4.7,2,7,2c2.3,0,4.7-0.7,7-2.1c4.4-3,6.7-7.2,6.7-12.5v0
			c0-2.4,0.4-3.1,0.4-3.1c0.3-0.4,0.3-0.5,0.3-1c0,0,0.2-0.4,0.8-0.9c-1.7,0.6,10.8-3.8,19.1-8.5c12.3-6.3,17.9-17.8,17.9-32
			c0-1.3-0.2-2.6-0.4-3.7C169.9,78.1,165.3,68.9,157.9,63z M120,164.7c-8.2,0-14.9,6.7-14.9,14.9c0,8.2,6.7,14.9,14.9,14.9
			c8.2,0,14.9-6.7,14.9-14.9C134.9,171.3,128.3,164.7,120,164.7z M125,6C59.3,6,6,59.3,6,125c0,65.7,53.3,119,119,119
			s119-53.3,119-119C244,59.3,190.7,6,125,6z M125,224.5c-55,0-99.5-44.6-99.5-99.5S70,25.5,125,25.5S224.5,70,224.5,125
			S180,224.5,125,224.5z"/>
	</g>
</g>
</svg>
