<?xml version="1.0" encoding="utf-8"?>
<!-- Generator: Adobe Illustrator 17.1.0, SVG Export Plug-In . SVG Version: 6.00 Build 0)  -->
<!DOCTYPE svg PUBLIC "-//W3C//DTD SVG 1.0//EN" "http://www.w3.org/TR/2001/REC-SVG-20010904/DTD/svg10.dtd">
<svg version="1.0" id="Camada_1" xmlns="http://www.w3.org/2000/svg" xmlns:xlink="http://www.w3.org/1999/xlink" x="0px" y="0px"
	 viewBox="0 0 105 115" enable-background="new 0 0 105 115" xml:space="preserve">
<path fill="#E1E1D3" d="M83.5,61.4c0-1.8-1.4-3.2-3.2-3.2c-1.9,0-3.2,1.5-3.2,3.2c0,1.8,1.4,3.1,3.2,3.1
	C82.1,64.6,83.5,63.2,83.5,61.4z M93.6,61.4c0-1.8-1.4-3.2-3.2-3.2s-3.2,1.5-3.2,3.2c0,1.8,1.4,3.1,3.2,3.1S93.6,63.2,93.6,61.4z
	 M101.8,85.8c-0.4,0.6-0.7,1.1-1.2,1.7c0,0.1,0,0.3,0,0.4c0,3.2-3.5,6.4-7.1,6.4c-3.8,0-6.5-3.3-6.5-6.4c0-0.4,0.1-0.8,0.1-1.2
	c0.2-0.7,0.5-1.3,0.9-1.9c0.1-0.2,0.3-0.4,0.5-0.5c0.1-0.1,0.1-0.1,0.2-0.2c0.1-0.1,0.3-0.2,0.4-0.4c0.1-0.1,0.1-0.1,0.2-0.2
	c0.2-0.1,0.3-0.2,0.5-0.3c0.1-0.1,0.1-0.1,0.2-0.1c0.2-0.1,0.5-0.2,0.8-0.4c0.5-1.3-0.2-2.4-0.4-2.6c-0.4-0.5-0.7-0.8-0.9-0.8
	c-0.2,0.1-0.4,0.1-0.5,0.2h-0.1c-0.2,0.1-0.4,0.2-0.5,0.2l0,0c-0.4,0.2-0.7,0.4-1,0.6l0,0l0,0c-0.7,0.4-1.2,1-1.8,1.6
	c-1.5,1.8-2.4,3.8-2.4,6.1c0,5.1,4.2,9.3,9.3,9.3c5.2,0,9.3-4.1,9.3-9.3C102.1,87.4,101.9,86.6,101.8,85.8z M86.6,79.2
	c1-3.2,4.1-5.6,7.6-5.6c0.8,0,1.5,0.1,2.2,0.3c-2-2.1-4.7-3.3-7.7-3.3c-5.9,0-10.7,4.8-10.7,10.7c0,3.4,1.6,6.5,4.1,8.4
	c-0.1-0.6-0.2-1.2-0.2-1.8c0-2.5,1-5,2.6-6.9C85.1,80.3,85.8,79.7,86.6,79.2z M86.7,96.7c-2.6,2.4-5.5,4.5-8.7,6.4
	C72.7,92.5,60.8,65.7,60.8,40c9,0.1,17.3,2.4,24,6.7c7,4.4,11.6,10.5,13.4,17.7c1,3.8,1.1,7.7,0.4,11.6c-0.3-0.2-0.7-0.4-1-0.6l0,0
	l0,0c-0.1-0.1-0.2-0.1-0.3-0.1l0,0c-0.1-0.1-0.2-0.1-0.3-0.1H97c-0.1-0.1-0.2-0.1-0.4-0.1l0,0c-0.2-0.1-0.5-0.1-0.8-0.2h-0.1
	c-0.1,0-0.2-0.1-0.3-0.1s-0.1,0-0.1,0c-0.1,0-0.2,0-0.3,0c-0.1,0-0.1,0-0.1,0c-0.1,0-0.2,0-0.2,0c-0.1,0-0.1,0-0.1,0h-0.1h-0.1
	c-0.1,0-0.1,0-0.1,0s-0.1,0-0.2,0c-0.1,0-0.1,0-0.2,0c-0.1,0-0.1,0-0.2,0s-0.1,0-0.2,0c-0.1,0-0.1,0-0.2,0c-0.1,0-0.1,0-0.2,0.1
	c-0.1,0-0.1,0-0.2,0.1c-0.1,0-0.1,0-0.2,0.1c-0.1,0-0.1,0-0.2,0.1c-0.1,0-0.1,0.1-0.2,0.1c-0.1,0-0.1,0.1-0.2,0.1
	c-0.1,0-0.1,0.1-0.2,0.1c-0.1,0-0.1,0.1-0.2,0.1c-0.1,0-0.1,0.1-0.2,0.1c-0.1,0-0.1,0.1-0.2,0.1s-0.1,0.1-0.2,0.1
	c-0.1,0-0.1,0.1-0.1,0.1C91,75.9,91,76,90.9,76c-0.1,0-0.1,0.1-0.1,0.1c-0.1,0.1-0.1,0.1-0.2,0.1c-0.1,0-0.1,0.1-0.1,0.1
	c-0.1,0.1-0.1,0.1-0.2,0.1c-0.1,0-0.1,0.1-0.1,0.1c-0.1,0.1-0.1,0.1-0.2,0.1c-0.1,0.1-0.1,0.1-0.1,0.1c-0.1,0.1-0.1,0.1-0.1,0.1
	c-0.1,0.1-0.1,0.1-0.1,0.1L89.6,77c-0.1,0.1-0.1,0.1-0.1,0.1c-0.1,0.1-0.1,0.1-0.1,0.1c-0.1,0.1-0.1,0.1-0.1,0.1
	c-0.1,0.1-0.1,0.1-0.1,0.1c-0.1,0.1-0.1,0.1-0.1,0.1C89,77.6,89,77.6,89,77.6c-0.1,0.1-0.1,0.1-0.1,0.1c-0.1,0.1-0.1,0.1-0.1,0.1
	c-0.1,0.1-0.1,0.1-0.1,0.2c-0.1,0.1-0.1,0.1-0.1,0.1c-0.1,0.1-0.1,0.1-0.1,0.2s-0.1,0.1-0.1,0.1c-0.1,0.1-0.1,0.1-0.1,0.2
	c0,0.1-0.1,0.1-0.1,0.1c-0.1,0.1-0.1,0.1-0.1,0.2c0,0.1-0.1,0.1-0.1,0.1c0,0.1-0.1,0.1-0.1,0.2c0,0,0,0,0,0.1
	c0.4-0.2,0.9-0.4,1.3-0.5l0.3-0.5h0.1c0.7,0,1.4,0.5,2,1.4c0.8,1.3,1,2.7,0.4,4l-0.1,0.2L91.7,84c-1.3,0.4-2.2,1.2-2.7,2.2
	c0,0.1,0.1,0.1,0.1,0.1c0.1,0.1,0.1,0.1,0.1,0.1c0.1,0.1,0.1,0.1,0.1,0.1c0.1,0.1,0.1,0.1,0.1,0.1c0.1,0.1,0.1,0.1,0.1,0.1
	c0.1,0.1,0.1,0.1,0.1,0.1c0.1,0.1,0.1,0.1,0.1,0.1c0.1,0.1,0.1,0.1,0.1,0.1c0.1,0.1,0.1,0.1,0.1,0.1c0.1,0.1,0.1,0.1,0.1,0.1
	c0.1,0.1,0.1,0.1,0.1,0.1c0.1,0.1,0.1,0.1,0.1,0.1c0.1,0.1,0.1,0.1,0.2,0.1c0.1,0.1,0.1,0.1,0.1,0.1c0.1,0.1,0.1,0.1,0.2,0.1
	c0.1,0,0.1,0.1,0.1,0.1c0.1,0.1,0.1,0.1,0.2,0.1c0.1,0,0.1,0.1,0.1,0.1c0.1,0.1,0.1,0.1,0.2,0.1c0.1,0,0.1,0.1,0.1,0.1
	c0.1,0,0.1,0.1,0.2,0.1c0.1,0,0.1,0.1,0.1,0.1c0.1,0,0.1,0.1,0.2,0.1c0.1,0,0.1,0.1,0.2,0.1c0.1,0,0.1,0.1,0.2,0.1
	c0.1,0,0.1,0.1,0.2,0.1c0.1,0,0.1,0.1,0.2,0.1c0.1,0,0.1,0.1,0.2,0.1c0.1,0,0.1,0.1,0.2,0.1s0.1,0,0.2,0.1c0.1,0,0.1,0,0.2,0.1
	c0.1,0,0.1,0,0.2,0.1h0.1c-0.5,0.8-1.1,1.6-1.7,2.4c-0.3,0.4-0.6,0.7-0.8,1.1l0,0c0.2,0.1,0.4,0.2,0.5,0.3c0,0,0,0,0.1,0
	c0.1,0.1,0.2,0.1,0.2,0.1s0,0,0.1,0c0.1,0.1,0.2,0.1,0.3,0.1l0,0c0.4,0.1,0.8,0.2,1.3,0.2c0.1-0.1,0.2-0.2,0.3-0.4
	c1-1.3,1.9-2.5,2.6-3.8c0.2-0.1,0.5-0.1,0.7-0.2l0,0l0,0c4.3-1.8,4.7-6.1,4.7-6.1c0-0.3,0.1-0.6,0.1-0.8c0-1.3-0.4-2.5-1.1-3.6
	c1.1-4.7,1.1-9.6-0.1-14.3c-2.1-7.7-7-14.3-14.4-19.1c-7.3-4.6-16.3-7-25.9-7c-0.9,0-1.9,0-2.7,0.1c1.3-2.2,2.3-4.6,3-7.1
	c1.9-6.3,2-12.7,0.1-18.1c-2.2-5.7-5.8-9.5-10.4-10.9c-1.3-0.4-2.5-0.5-3.8-0.5c-6.2,0-12.7,4.3-17,11.3c-3.9-2-7.9-2.9-11.8-2.9
	c-4.8,0-8.9,1.8-11.7,4.8c-3.2,3.6-4.2,8.7-2.8,14.5c1.4,5.6,4.9,11,9.8,15.3c3.2,2.7,6.8,4.9,10.4,6.2c-2.9,2.4-5.5,4.9-7.6,7.7
	c-7,9-9.4,19.2-7,28.8c2.1,7.7,7,14.3,14.4,19.1c7.3,4.6,16.3,7,25.9,7c4.9,0,9.8-0.7,14.6-1.9c9.6-2.5,18.2-7.1,24.8-13.4
	C88.1,97.6,87.4,97.2,86.7,96.7L86.7,96.7z M46.7,3.6c1.1,0,2.2,0.2,3,0.5c8.2,2.5,12.1,14.1,8.4,26.1c-0.8,2.8-2.1,5.5-3.6,7.9
	c-1.9,0.2-3.6,0.5-5.5,0.8h-0.1c-0.3,0.1-0.5,0.1-0.8,0.2c-0.1,0-0.1,0-0.2,0.1c-0.2,0.1-0.5,0.1-0.7,0.2h-0.1
	c0.7-7.3-3.2-15.6-10.4-21.9c-1.6-1.4-3.3-2.6-5.2-3.7C35.7,7.5,41.3,3.6,46.7,3.6z M24.8,104.2c-7-4.4-11.6-10.5-13.4-17.7
	c-2.5-9.6,0.6-19.7,7.5-28c-1.4,11.3-1.6,31.4,11.1,48.3C28.1,106.1,26.5,105.2,24.8,104.2z M26,48.7c-3.9-1.2-7.7-3.3-11.2-6.3
	c-4.6-4-7.8-9-9-14.1C4.6,23.4,5.4,19,8.1,15.9c2.4-2.6,5.8-3.9,9.9-3.9c3.4,0,7.1,1,10.6,2.6c-1,1.9-1.9,3.9-2.5,6
	c-1.6,5.2-1.9,10.5-0.9,15.3c0.8,4.1,2.5,7.6,5,10.1C28.7,46.8,27.4,47.7,26,48.7z M28.4,21.2c0.6-1.9,1.3-3.8,2.3-5.6
	c1.7,1,3.2,2.2,4.7,3.4c6.8,5.9,10.5,14.1,9.4,20.7c-4.4,1.2-8.6,2.8-12.5,4.9C27.3,39.9,25.6,30.4,28.4,21.2z M50.4,110.8
	c-5.9-8.9-18.6-32.5-16.3-64.3c3.5-1.9,7.4-3.3,11.5-4.4c-0.3,12.2,0.5,45.1,17,67.2C58.5,110.2,54.4,110.8,50.4,110.8z"/>
</svg>
