<?xml version="1.0" encoding="utf-8"?>
<!-- Generator: Adobe Illustrator 17.1.0, SVG Export Plug-In . SVG Version: 6.00 Build 0)  -->
<!DOCTYPE svg PUBLIC "-//W3C//DTD SVG 1.0//EN" "http://www.w3.org/TR/2001/REC-SVG-20010904/DTD/svg10.dtd">
<svg version="1.0" id="Layer_1" xmlns="http://www.w3.org/2000/svg" xmlns:xlink="http://www.w3.org/1999/xlink" x="0px" y="0px"
	 viewBox="0 0 150 150" enable-background="new 0 0 150 150" xml:space="preserve">
<path fill="#109BCB" stroke="#109BCB" stroke-width="6" stroke-miterlimit="10" d="M72,142.8c-2.2-0.3-4.3-0.5-6.4-0.9
	c-12.2-1.9-22.8-7.1-31.7-15.6c-8.6-8.2-14.3-18.1-16.9-29.7c-0.2-0.9-0.6-1.3-1.5-1.4C9.6,94,5.4,89,5.4,83.3c0-6.1,4-11,10-12.2
	c0.9-0.2,1.4-0.6,1.6-1.5c5.4-23.1,24.7-41.2,48-45.1c2.1-0.4,4.2-0.4,6.3-0.7c0.4-0.1,0.9-0.1,1.3-0.1c-0.6-3.2-4.3-9.4-7.6-8.8
	c-1.5,0.3-3,1-4.3,1.9c-1.4,0.9-2.8,1-3.7-0.1c-0.9-1.2-0.7-2.5,0.6-3.6c4.6-4.1,11.9-4,16.4,0.2c0.4,0.4,0.8,0.9,1.3,1.5
	c0.4-0.6,0.7-0.9,1-1.4c5.3-7.2,15.6-8.4,22.2-2.5c1.4,1.2,1.7,2.6,0.6,3.7c-1,1.2-2.3,1.2-3.7-0.1c-6.2-5-15.3,1.4-17.1,9.2
	c1.2,0.1,2.5,0.3,3.6,0.4c22,3.1,37.8,14.7,47.2,34.7c1.6,3.4,2.5,7.2,3.7,10.8c0.3,0.8,0.6,1.3,1.5,1.4c5.5,1.2,8.8,4.5,9.9,10
	c0.1,0.3,0.2,0.5,0.3,0.8c0,0.9,0,1.7,0,2.5c-0.1,0.4-0.2,0.7-0.3,1c-0.9,5-4.8,8.8-9.7,9.7c-0.9,0.1-1.4,0.6-1.6,1.5
	c-2,8.9-5.9,16.9-11.7,24c-9.7,11.7-22,18.9-37,21.3c-2.1,0.4-4.2,0.6-6.3,0.9C75.9,142.8,74,142.8,72,142.8z M15.8,75.9
	c-0.6,0.2-1.1,0.4-1.5,0.6c-3.1,1.6-4.6,5-3.8,8.4c0.9,3.5,3.9,5.8,7.5,5.8c2,0,2.7,0.5,3.1,2.5c0.1,0.4,0.1,0.7,0.2,1.1
	c6.6,32.9,41.7,52.2,73.1,40c18.8-7.4,30.1-21.3,34.4-41c0.4-2.1,1.1-2.6,3.2-2.6c3.2,0.1,6.1-1.9,7.2-5c1.4-4-1-8.9-5-9.5
	c0,0.7,0.1,1.4,0,2.2c-0.1,1.2-0.9,1.9-2.1,2.1c-1.2,0.1-2.1-0.4-2.5-1.5c-0.1-0.4-0.1-0.8-0.3-1.2c-0.7-3.5-1.2-7.2-2.2-10.7
	c-7.9-26.6-35.5-43.3-62.6-37.6c-21.2,4.5-35.2,17.4-42,38c-1.2,3.6-1.5,7.6-2.2,11.3c-0.3,1.4-1.2,2.2-2.7,2
	c-1.3-0.1-2.1-1.1-2-2.5C15.6,77.6,15.7,76.9,15.8,75.9z"/>
<path fill="#109BCB" stroke="#109BCB" stroke-width="5" stroke-miterlimit="10" d="M74.7,118.9c-11-0.6-19.2-5.6-24.1-15.8
	c-0.1-0.3-0.3-0.6-0.4-0.9c-0.5-1.4,0-2.7,1.2-3.2c1.2-0.5,2.5,0.1,3.2,1.4c1.4,2.3,2.6,4.8,4.4,6.8c10.5,11.3,29.2,8.2,35.6-5.9
	c0.1-0.4,0.3-0.8,0.5-1.2c0.6-1.2,1.8-1.6,3-1.2c1.2,0.5,1.7,1.4,1.4,2.7c-0.1,0.4-0.2,0.8-0.4,1.2c-4.5,9.4-11.8,14.8-22.2,15.9
	C76.4,118.8,75.6,118.9,74.7,118.9z"/>
<path fill="#109BCB" stroke="#109BCB" stroke-width="5" stroke-miterlimit="10" d="M47.6,63.4c6.6,0,12.1,5.3,12.3,11.9
	c0,1.7-0.7,2.7-2.2,2.7c-1.5,0.1-2.3-0.7-2.5-2.5c-0.4-4.3-3.1-7-7.2-7.4c-3.4-0.3-6.7,2.1-7.6,5.6c-0.1,0.6-0.1,1.3-0.3,1.9
	c-0.2,1.7-1.2,2.5-2.7,2.4c-1.4-0.1-2.2-1.1-2.2-2.7C35.3,68.8,40.9,63.4,47.6,63.4z"/>
<path fill="#109BCB" stroke="#109BCB" stroke-width="5" stroke-miterlimit="10" d="M102.1,63.4c6.6-0.1,12.3,5.3,12.4,11.7
	c0,1.8-0.7,2.8-2.2,2.9c-1.6,0.1-2.5-0.8-2.6-2.7c-0.4-3.8-2.7-6.6-6.4-7.1c-4.5-0.6-8.3,2.5-8.7,7.3c-0.1,1.7-0.9,2.5-2.5,2.5
	c-1.4-0.1-2.3-1-2.2-2.7C90.1,68.7,95.4,63.5,102.1,63.4z"/>
</svg>
