<?xml version="1.0" encoding="utf-8"?>
<!-- Generator: Adobe Illustrator 16.0.0, SVG Export Plug-In . SVG Version: 6.00 Build 0)  -->
<!DOCTYPE svg PUBLIC "-//W3C//DTD SVG 1.1//EN" "http://www.w3.org/Graphics/SVG/1.1/DTD/svg11.dtd">
<svg version="1.1" id="Layer_1" xmlns="http://www.w3.org/2000/svg" xmlns:xlink="http://www.w3.org/1999/xlink" x="0px" y="0px"
	 width="200px" height="200px" viewBox="0 0 200 200" enable-background="new 0 0 200 200" xml:space="preserve">
<path fill-rule="evenodd" clip-rule="evenodd" fill="#0D9BC9" d="M95.761,194c-3.041-0.402-6.092-0.746-9.122-1.22
	c-17.351-2.695-32.408-10.143-45.11-22.213c-12.246-11.639-20.274-25.756-24.041-42.248c-0.288-1.265-0.868-1.796-2.148-2.053
	C6.962,124.595,1.02,117.56,1,109.416c-0.021-8.571,5.755-15.644,14.239-17.321c1.319-0.26,1.968-0.792,2.284-2.15
	c7.668-32.918,35.02-58.662,68.237-64.214c2.966-0.495,5.987-0.653,8.983-0.975c0.628-0.067,1.254-0.161,1.889-0.244
	c-0.828-4.553-6.132-8.332-10.858-7.479c-2.163,0.39-4.29,1.483-6.197,2.645c-2.089,1.273-3.974,1.447-5.252-0.112
	c-1.328-1.624-1.022-3.54,0.828-5.171c6.606-5.828,16.881-5.68,23.319,0.358c0.617,0.578,1.114,1.284,1.839,2.131
	c0.615-0.828,1.031-1.384,1.443-1.944c7.559-10.287,22.137-11.955,31.59-3.614c1.963,1.732,2.313,3.694,0.947,5.302
	c-1.396,1.641-3.275,1.606-5.361-0.103c-8.822-7.221-21.75-3.072-24.162,8.03c1.723,0.202,3.438,0.364,5.139,0.606
	c31.234,4.436,53.697,20.905,67.18,49.386c2.303,4.864,3.551,10.236,5.186,15.405c0.371,1.17,0.795,1.807,2.104,2.094
	c7.752,1.704,12.527,6.423,14.102,14.276c0.074,0.376,0.264,0.73,0.398,1.095c0,1.181,0,2.361,0,3.542
	c-0.154,0.493-0.357,0.979-0.453,1.483c-1.361,7.054-6.785,12.508-13.879,13.788c-1.363,0.244-1.971,0.831-2.271,2.165
	c-2.854,12.665-8.369,24.082-16.605,34.098c-13.74,16.713-31.303,26.908-52.723,30.31c-2.961,0.471-5.943,0.805-8.914,1.197
	C101.27,194,98.516,194,95.761,194z M15.724,98.882c-0.879,0.354-1.546,0.562-2.155,0.881c-4.377,2.293-6.579,7.197-5.39,11.955
	c1.23,4.92,5.539,8.209,10.692,8.157c2.862-0.026,3.822,0.758,4.42,3.604c0.109,0.513,0.245,1.019,0.348,1.533
	c9.421,46.741,59.408,74.274,103.941,56.872c26.75-10.455,42.863-30.288,48.871-58.348c0.633-2.966,1.547-3.727,4.549-3.676
	c4.611,0.079,8.729-2.764,10.291-7.107c2.082-5.793-1.48-12.673-7.066-13.549c0,1.03,0.084,2.065-0.016,3.078
	c-0.174,1.735-1.303,2.74-2.932,2.968c-1.664,0.232-2.93-0.56-3.559-2.16c-0.211-0.54-0.246-1.147-0.363-1.726
	c-1.02-5.058-1.652-10.231-3.123-15.155c-11.285-37.855-50.527-61.613-89.147-53.392c-30.098,6.407-50.064,24.808-59.724,54.044
	c-1.708,5.168-2.161,10.748-3.197,16.137c-0.395,2.044-1.757,3.063-3.771,2.841c-1.826-0.204-2.937-1.54-2.892-3.547
	C15.523,101.263,15.632,100.236,15.724,98.882z"/>
<path fill-rule="evenodd" clip-rule="evenodd" fill="#0D9BC9" d="M99.66,160.053c-15.65-0.842-27.328-8.021-34.278-22.464
	c-0.198-0.413-0.397-0.827-0.548-1.259c-0.715-2.041-0.006-3.886,1.758-4.607c1.79-0.736,3.462,0.103,4.573,1.947
	c1.984,3.288,3.69,6.886,6.266,9.655c14.994,16.137,41.559,11.64,50.682-8.412c0.246-0.539,0.457-1.094,0.744-1.604
	c0.896-1.594,2.592-2.281,4.176-1.634c1.678,0.682,2.381,1.991,2.098,3.775c-0.09,0.572-0.285,1.146-0.533,1.673
	c-6.313,13.445-16.766,21.112-31.617,22.625C101.938,159.856,100.892,159.939,99.66,160.053z"/>
<path fill-rule="evenodd" clip-rule="evenodd" fill="#0D9BC9" d="M61.044,81.053c9.467-0.004,17.272,7.583,17.416,16.933
	c0.039,2.438-1.075,3.812-3.154,3.896c-2.136,0.089-3.302-1.073-3.542-3.53c-0.598-6.111-4.39-9.988-10.259-10.482
	c-4.816-0.405-9.492,2.988-10.839,7.925c-0.238,0.875-0.252,1.809-0.371,2.714c-0.312,2.361-1.623,3.539-3.752,3.369
	c-1.958-0.154-3.083-1.553-3.067-3.813C43.545,88.696,51.435,81.057,61.044,81.053z"/>
<path fill-rule="evenodd" clip-rule="evenodd" fill="#0D9BC9" d="M138.625,81.063c9.434-0.127,17.539,7.523,17.664,16.667
	c0.033,2.599-1.041,4.027-3.125,4.149c-2.24,0.132-3.486-1.146-3.725-3.827c-0.484-5.449-3.945-9.28-9.076-10.05
	c-6.439-0.967-11.838,3.549-12.369,10.346c-0.188,2.43-1.371,3.613-3.52,3.535c-2.082-0.077-3.244-1.479-3.199-3.861
	C121.459,88.615,129.053,81.192,138.625,81.063z"/>
</svg>
