<?xml version="1.0" encoding="utf-8"?>
<!-- Generator: Adobe Illustrator 17.1.0, SVG Export Plug-In . SVG Version: 6.00 Build 0)  -->
<!DOCTYPE svg PUBLIC "-//W3C//DTD SVG 1.0//EN" "http://www.w3.org/TR/2001/REC-SVG-20010904/DTD/svg10.dtd">
<svg version="1.0" id="Camada_1" xmlns="http://www.w3.org/2000/svg" xmlns:xlink="http://www.w3.org/1999/xlink" x="0px" y="0px"
	 viewBox="0 0 147 147" enable-background="new 0 0 147 147" xml:space="preserve">
<g id="Ellipse_6_copy_5">
	<g>
		<ellipse fill-rule="evenodd" clip-rule="evenodd" fill="#5DBED6" cx="73.8" cy="73.5" rx="72.2" ry="72.5"/>
	</g>
</g>
<g id="Shape_18">
	<g>
		<path fill-rule="evenodd" clip-rule="evenodd" fill="#FFFFFF" d="M112.7,79.3c2.2-1.8,3.9-3.5,5-4.8c1.9-2.3,2.3-4.4,1.3-6.1
			c-0.8-1.4-2.7-1.9-4.1-1.1L64.9,95.9c-1.5,0.8-1.9,2.7-1.1,4.1c1,1.7,3,2.4,6,2c1.8-0.3,4-0.9,6.7-1.9c5.3-2,12-5.2,18.8-9.2
			C102.1,87,108.3,82.9,112.7,79.3z M87.2,112l-4-6.8c-0.8-1.3-2.4-1.8-3.8-1s-1.8,2.4-1,3.8l4,6.8c0.8,1.3,2.4,1.8,3.8,1
			C87.5,115,87.9,113.3,87.2,112z M96.6,107.9c-0.8-1.3-2.4-1.8-3.8-1c-1.3,0.8-1.8,2.4-1,3.8l4.3,7.4c0.8,1.3,2.4,1.8,3.8,1
			c1.3-0.8,1.8-2.4,1-3.8L96.6,107.9z M88.4,99.1C88.4,99.1,88.4,99.1,88.4,99.1c-1.3,0.8-1.8,2.4-1,3.8l0.8,1.3
			c0.8,1.3,2.4,1.8,3.8,1c0,0,0,0,0,0c1.3-0.8,1.8-2.4,1-3.8l-0.8-1.3C91.4,98.8,89.7,98.4,88.4,99.1z M126.8,98.6l-0.7-1.1
			c-0.8-1.3-2.4-1.8-3.8-1c0,0,0,0,0,0c-1.3,0.8-1.8,2.4-1,3.8l0.7,1.1c0.8,1.3,2.4,1.8,3.8,1c0,0,0,0,0,0
			C127.1,101.6,127.5,99.9,126.8,98.6z M108.9,108.9c-0.8-1.3-2.4-1.8-3.8-1c0,0,0,0,0,0c-1.3,0.8-1.8,2.4-1,3.8l0.7,1.1
			c0.8,1.3,2.4,1.8,3.8,1c0,0,0,0,0,0c1.3-0.8,1.8-2.4,1-3.8L108.9,108.9z M90.7,118.4c-0.8-1.3-2.4-1.8-3.8-1c0,0,0,0,0,0
			c-1.3,0.8-1.8,2.4-1,3.8l0.7,1.1c0.8,1.3,2.4,1.8,3.8,1c0,0,0,0,0,0c1.3-0.8,1.8-2.4,1-3.8L90.7,118.4z M105.5,102.8l-5.1-8.8
			c-0.8-1.3-2.4-1.8-3.8-1c-1.3,0.8-1.8,2.4-1,3.8l5.1,8.8c0.8,1.3,2.4,1.8,3.8,1C105.8,105.8,106.3,104.1,105.5,102.8z M110.8,91.6
			c-0.8-1.3-2.4-1.8-3.8-1c-1.3,0.8-1.8,2.4-1,3.8l5.8,10.1c0.8,1.3,2.4,1.8,3.8,1c1.3-0.8,1.8-2.4,1-3.8L110.8,91.6z M122.1,90.6
			l-4-6.8c-0.8-1.3-2.4-1.8-3.8-1c-1.3,0.8-1.8,2.4-1,3.8l4,6.8c0.8,1.3,2.4,1.8,3.8,1S122.9,91.9,122.1,90.6z M112.9,63.8
			c1.5-0.8,1.9-2.7,1.1-4.1c0,0-0.1-0.1-0.1-0.1c-8.1-13.8-25.2-19.3-39.6-13.3c-1.8-3-5.9-8.6-13.1-10.9c-7.1-2.3-15.1-1-23.7,4
			c-2,1.2-5.5,3.1-9.4,5.3c-20.5,11.6-12.4,7-13.2,7.8c-1.6,1.6-1.6,4.2,0,5.8c1.5,1.5,4,1.6,5.6,0.3c1.7-1.2,4.2-2.5,11.8-6.8
			c4-2.2,7.4-4.2,9.5-5.4c6.5-3.7,12.2-4.8,16.9-3.3c4.7,1.5,7.5,5.3,8.6,7.2c-12.5,9.5-16.3,27.1-8.3,41.1c0.8,1.4,2.7,1.9,4.1,1.1
			L112.9,63.8C112.9,63.8,112.9,63.8,112.9,63.8z M62.7,85.7c-5.1-11.8-0.6-25.8,10.8-32.4c11.4-6.6,25.8-3.4,33.5,6.9L62.7,85.7z"
			/>
	</g>
</g>
</svg>
