<?xml version="1.0" encoding="utf-8"?>
<!-- Generator: Adobe Illustrator 17.1.0, SVG Export Plug-In . SVG Version: 6.00 Build 0)  -->
<!DOCTYPE svg PUBLIC "-//W3C//DTD SVG 1.0//EN" "http://www.w3.org/TR/2001/REC-SVG-20010904/DTD/svg10.dtd">
<svg version="1.0" id="Camada_1" xmlns="http://www.w3.org/2000/svg" xmlns:xlink="http://www.w3.org/1999/xlink" x="0px" y="0px"
	 viewBox="0 0 202 88" enable-background="new 0 0 202 88" xml:space="preserve">
<g>
	<path fill="#FFFFFF" d="M41.4,45.4c-0.5,1.5-1.2,2.8-2.1,4c-0.9,1.2-1.9,2.2-3.1,3.1c-1.2,0.9-2.5,1.7-3.9,2.3
		c-1.4,0.6-2.9,1.1-4.4,1.4c-1.5,0.3-3.1,0.5-4.7,0.5c-3.1,0-6.1-0.5-9.1-1.4c-3-0.9-5.8-2.2-8.4-3.8c0,0.2,0,0.5,0,1
		c0,0.4,0,0.9-0.1,1.4c0,0.5-0.1,0.9-0.1,1.3c0,0.4-0.1,0.6-0.2,0.8c0,0.1-0.2,0.2-0.5,0.2c-0.3,0.1-0.5,0.1-0.6,0.1
		c-0.2,0-0.3-0.1-0.4-0.4c-0.1-0.3-0.2-0.5-0.2-0.9c0-0.3-0.1-0.6-0.1-1c0-0.3,0-0.5-0.1-0.7c-0.2-2.4-0.4-4.8-0.5-7.2
		c-0.2-2.4-0.2-4.8-0.2-7.2c0-3.5,0.2-6.9,0.5-10.4s0.9-6.9,1.6-10.3c0-0.2,0.1-0.6,0.2-1.1c0.1-0.5,0.2-1.1,0.4-1.6
		C5.6,15,5.7,14.5,5.8,14c0.1-0.5,0.2-0.8,0.3-0.9c0.1-0.1,0.2-0.2,0.4-0.3c0.2,0,0.4-0.1,0.5-0.1c0.3,0,0.5,0.1,0.6,0.2
		c0.1,0.1,0.1,0.3,0.1,0.6c0,1.1-0.1,2.1-0.2,3.1s-0.3,2-0.3,3c-0.2,2-0.4,4.1-0.5,6.1c-0.1,2-0.2,4-0.4,6c-0.1,3-0.3,6-0.3,9
		c-0.1,3-0.2,6-0.3,9c0.8,0.3,1.5,0.6,2.3,0.9c0.8,0.3,1.6,0.6,2.3,0.9c1.9,0.6,3.8,1.1,5.8,1.4c1.9,0.4,3.9,0.5,5.9,0.5
		c2,0,4-0.3,6-0.8c2-0.5,3.8-1.4,5.4-2.5c1.6-1.1,2.9-2.5,3.9-4.2c1-1.7,1.5-3.6,1.5-5.9c0-1.4-0.2-2.7-0.7-3.9
		c-0.5-1.2-1.1-2.3-1.9-3.3s-1.7-1.8-2.8-2.5c-1.1-0.7-2.3-1.3-3.5-1.7c-0.9,0.4-1.8,0.8-2.8,1.1c-1,0.3-2,0.6-3,0.9
		c-1,0.2-2,0.4-3,0.6c-1,0.1-2,0.2-2.9,0.2c-0.5,0-1,0-1.7-0.1c-0.7-0.1-1.3-0.2-2-0.4c-0.6-0.2-1.2-0.5-1.6-0.9
		c-0.4-0.4-0.7-0.9-0.7-1.5c0-0.8,0.3-1.4,1-1.8c0.7-0.5,1.5-0.8,2.4-1c0.9-0.2,1.9-0.4,2.8-0.5s1.7-0.1,2.2-0.1
		c1.3,0,2.7,0.1,4,0.2c1.3,0.1,2.6,0.3,3.9,0.6c0.8-0.4,1.6-0.9,2.3-1.5c0.7-0.6,1.4-1.2,2-1.9c0.6-0.7,1-1.5,1.4-2.3
		c0.3-0.9,0.5-1.8,0.5-2.8c0-2.2-0.4-4-1.3-5.5c-0.9-1.5-2.1-2.7-3.5-3.7c-1.5-0.9-3.1-1.6-5-2c-1.8-0.4-3.7-0.6-5.6-0.6
		S15.6,5.7,13.6,6c-1.9,0.3-3.8,0.7-5.6,1.2C7.2,7.5,6.4,7.8,5.4,8.1C4.5,8.5,3.6,8.6,2.7,8.6c-0.1,0-0.2,0-0.3,0
		c-0.1,0-0.2,0-0.3-0.1L1.7,8.3c0,0-0.1,0-0.1-0.1c0-0.1,0.1-0.3,0.3-0.5c0.2-0.2,0.4-0.3,0.7-0.5C2.8,7.1,3.1,7,3.3,6.9
		c0.3-0.1,0.4-0.2,0.5-0.3C6.4,5.5,9,4.5,11.7,3.7c2.7-0.8,5.4-1.2,8.3-1.2c2.4,0,4.6,0.3,6.8,0.8C28.9,4,30.9,4.8,32.5,6
		c1.7,1.2,3,2.7,4,4.6s1.5,4.1,1.5,6.8c0,2-0.5,3.9-1.5,5.6s-2.4,3.1-4.1,4.2c3,1.2,5.4,2.9,7.1,5.1c1.7,2.2,2.5,5,2.5,8.3
		C42.1,42.4,41.9,44,41.4,45.4z M20.9,27.1c-0.3,0-0.8,0-1.5,0.1c-0.7,0-1.4,0.1-2.1,0.3c-0.7,0.1-1.4,0.3-2,0.5s-0.9,0.4-1,0.7
		c0.4,0.3,0.9,0.5,1.5,0.6c0.6,0,1.1,0.1,1.6,0.1c0.6,0,1.3,0,2-0.1c0.7-0.1,1.4-0.2,2.1-0.3c0.7-0.1,1.4-0.3,2.1-0.5
		c0.7-0.2,1.3-0.4,1.8-0.7C23.9,27.3,22.4,27.1,20.9,27.1z"/>
	<path fill="#FFFFFF" d="M68.7,47.4c-0.1,0.2-0.1,0.4-0.2,0.6c-0.4,1.5-1,2.8-1.6,4.1c-0.7,1.2-1.4,2.3-2.4,3.1
		c-0.9,0.9-2,1.5-3.3,2c-1.3,0.5-2.7,0.7-4.4,0.7c-1.8,0-3.5-0.3-5-0.9c-1.5-0.6-2.8-1.4-3.8-2.5s-1.9-2.4-2.4-3.8
		c-0.6-1.5-0.8-3.1-0.8-4.9c0-1.3,0.2-2.6,0.6-4c0.4-1.4,0.9-2.7,1.7-3.8c0.7-1.2,1.7-2.1,2.8-2.9c1.1-0.8,2.4-1.1,3.9-1.1
		c1.1,0,2.1,0.2,3,0.5c0.9,0.3,1.7,0.8,2.3,1.4c0.7,0.6,1.2,1.4,1.5,2.3c0.4,0.9,0.5,1.9,0.5,2.9c0,1.2-0.2,2.3-0.6,3.4
		c-0.4,1.1-0.9,2.1-1.5,3.1c-0.6,1-1.4,1.8-2.2,2.6c-0.8,0.8-1.7,1.5-2.7,2.1c-0.4,0.3-0.8,0.5-1.2,0.8s-0.9,0.4-1.3,0.6
		c0.9,0.6,1.8,1,2.8,1.2c1,0.2,2,0.3,3.1,0.3c2.3,0,4.2-0.6,5.7-1.7s2.7-2.8,3.5-5c0-0.1,0.1-0.3,0.1-0.5c0-0.2,0.1-0.4,0.2-0.6
		c0.1-0.2,0.1-0.4,0.2-0.5c0.1-0.2,0.2-0.3,0.2-0.4c0-0.1,0.2-0.2,0.5-0.3s0.4-0.2,0.6-0.2c0.1,0,0.2,0,0.3,0.1c0,0.2,0,0.3,0,0.5
		c0,0.1,0,0.3,0,0.4C68.8,47.1,68.8,47.3,68.7,47.4z M57.1,37.9c-0.8-0.8-1.9-1.1-3.5-1.1c-1,0-1.8,0.3-2.5,1
		c-0.7,0.6-1.3,1.4-1.8,2.3c-0.5,0.9-0.8,1.9-1,2.9c-0.2,1-0.3,1.9-0.3,2.7c0,2.5,0.8,4.7,2.3,6.6c0.1-0.1,0.2-0.2,0.4-0.3
		c0.1-0.1,0.3-0.2,0.4-0.3c0.9-0.6,1.8-1.2,2.7-1.9c0.9-0.7,1.6-1.5,2.3-2.4c0.7-0.9,1.2-1.8,1.6-2.8c0.4-1,0.6-2.1,0.6-3.2
		C58.3,39.9,57.9,38.7,57.1,37.9z"/>
	<path fill="#FFFFFF" d="M90.4,47.4c-0.1,0.2-0.1,0.4-0.2,0.6c-0.4,1.5-1,2.8-1.6,4.1c-0.7,1.2-1.4,2.3-2.4,3.1
		c-0.9,0.9-2,1.5-3.3,2c-1.3,0.5-2.7,0.7-4.4,0.7c-1.8,0-3.5-0.3-5-0.9c-1.5-0.6-2.8-1.4-3.8-2.5s-1.9-2.4-2.4-3.8
		c-0.6-1.5-0.8-3.1-0.8-4.9c0-1.3,0.2-2.6,0.6-4c0.4-1.4,0.9-2.7,1.7-3.8c0.7-1.2,1.7-2.1,2.8-2.9c1.1-0.8,2.4-1.1,3.9-1.1
		c1.1,0,2.1,0.2,3,0.5c0.9,0.3,1.7,0.8,2.3,1.4c0.7,0.6,1.2,1.4,1.5,2.3c0.4,0.9,0.5,1.9,0.5,2.9c0,1.2-0.2,2.3-0.6,3.4
		c-0.4,1.1-0.9,2.1-1.5,3.1c-0.6,1-1.4,1.8-2.2,2.6c-0.8,0.8-1.7,1.5-2.7,2.1c-0.4,0.3-0.8,0.5-1.2,0.8s-0.9,0.4-1.3,0.6
		c0.9,0.6,1.8,1,2.8,1.2c1,0.2,2,0.3,3.1,0.3c2.3,0,4.2-0.6,5.7-1.7s2.7-2.8,3.5-5c0-0.1,0.1-0.3,0.1-0.5c0-0.2,0.1-0.4,0.2-0.6
		c0.1-0.2,0.1-0.4,0.2-0.5c0.1-0.2,0.2-0.3,0.2-0.4c0-0.1,0.2-0.2,0.5-0.3s0.4-0.2,0.6-0.2c0.1,0,0.2,0,0.3,0.1c0,0.2,0,0.3,0,0.5
		c0,0.1,0,0.3,0,0.4C90.5,47.1,90.5,47.3,90.4,47.4z M78.9,37.9c-0.8-0.8-1.9-1.1-3.5-1.1c-1,0-1.8,0.3-2.5,1
		c-0.7,0.6-1.3,1.4-1.8,2.3C70.6,41,70.2,42,70,43c-0.2,1-0.3,1.9-0.3,2.7c0,2.5,0.8,4.7,2.3,6.6c0.1-0.1,0.2-0.2,0.4-0.3
		c0.1-0.1,0.3-0.2,0.4-0.3c0.9-0.6,1.8-1.2,2.7-1.9c0.9-0.7,1.6-1.5,2.3-2.4c0.7-0.9,1.2-1.8,1.6-2.8c0.4-1,0.6-2.1,0.6-3.2
		C80,39.9,79.6,38.7,78.9,37.9z"/>
	<path fill="#FFFFFF" d="M129.1,45.4c-0.5,1.5-1.2,2.8-2.1,4c-0.9,1.2-1.9,2.2-3.1,3.1c-1.2,0.9-2.5,1.7-3.9,2.3
		c-1.4,0.6-2.9,1.1-4.4,1.4c-1.5,0.3-3.1,0.5-4.7,0.5c-3.1,0-6.1-0.5-9.1-1.4c-3-0.9-5.8-2.2-8.4-3.8c0,0.2,0,0.5,0,1
		c0,0.4,0,0.9-0.1,1.4c0,0.5-0.1,0.9-0.1,1.3c0,0.4-0.1,0.6-0.2,0.8c0,0.1-0.2,0.2-0.5,0.2c-0.3,0.1-0.5,0.1-0.6,0.1
		c-0.2,0-0.3-0.1-0.4-0.4c-0.1-0.3-0.2-0.5-0.2-0.9c0-0.3-0.1-0.6-0.1-1c0-0.3,0-0.5-0.1-0.7c-0.2-2.4-0.4-4.8-0.5-7.2
		c-0.2-2.4-0.2-4.8-0.2-7.2c0-3.5,0.2-6.9,0.5-10.4s0.9-6.9,1.6-10.3c0-0.2,0.1-0.6,0.2-1.1c0.1-0.5,0.2-1.1,0.4-1.6
		c0.1-0.6,0.3-1.1,0.4-1.6c0.1-0.5,0.2-0.8,0.3-0.9c0.1-0.1,0.2-0.2,0.4-0.3c0.2,0,0.4-0.1,0.5-0.1c0.3,0,0.5,0.1,0.6,0.2
		c0.1,0.1,0.1,0.3,0.1,0.6c0,1.1-0.1,2.1-0.2,3.1s-0.3,2-0.3,3c-0.2,2-0.4,4.1-0.5,6.1c-0.1,2-0.2,4-0.4,6c-0.1,3-0.3,6-0.3,9
		c-0.1,3-0.2,6-0.3,9c0.8,0.3,1.5,0.6,2.3,0.9c0.8,0.3,1.6,0.6,2.3,0.9c1.9,0.6,3.8,1.1,5.8,1.4s3.9,0.5,5.9,0.5c2,0,4-0.3,6-0.8
		c2-0.5,3.8-1.4,5.4-2.5c1.6-1.1,2.9-2.5,3.9-4.2c1-1.7,1.5-3.6,1.5-5.9c0-1.4-0.2-2.7-0.7-3.9c-0.5-1.2-1.1-2.3-1.9-3.3
		s-1.7-1.8-2.8-2.5c-1.1-0.7-2.3-1.3-3.5-1.7c-0.9,0.4-1.8,0.8-2.8,1.1c-1,0.3-2,0.6-3,0.9c-1,0.2-2,0.4-3,0.6c-1,0.1-2,0.2-2.9,0.2
		c-0.5,0-1,0-1.7-0.1c-0.7-0.1-1.3-0.2-2-0.4c-0.6-0.2-1.2-0.5-1.6-0.9c-0.4-0.4-0.7-0.9-0.7-1.5c0-0.8,0.3-1.4,1-1.8
		c0.7-0.5,1.5-0.8,2.4-1c0.9-0.2,1.9-0.4,2.8-0.5s1.7-0.1,2.2-0.1c1.3,0,2.7,0.1,4,0.2c1.3,0.1,2.6,0.3,3.9,0.6
		c0.8-0.4,1.6-0.9,2.3-1.5s1.4-1.2,2-1.9c0.6-0.7,1-1.5,1.4-2.3c0.3-0.9,0.5-1.8,0.5-2.8c0-2.2-0.4-4-1.3-5.5
		c-0.9-1.5-2.1-2.7-3.5-3.7s-3.1-1.6-5-2c-1.8-0.4-3.7-0.6-5.6-0.6s-3.8,0.2-5.7,0.5c-1.9,0.3-3.8,0.7-5.6,1.2
		c-0.8,0.3-1.7,0.6-2.7,0.9c-0.9,0.3-1.8,0.5-2.8,0.5c-0.1,0-0.2,0-0.3,0c-0.1,0-0.2,0-0.3-0.1l-0.3-0.2c0,0-0.1,0-0.1-0.1
		c0-0.1,0.1-0.3,0.3-0.5c0.2-0.2,0.4-0.3,0.7-0.5C90.5,7.1,90.8,7,91,6.9c0.3-0.1,0.4-0.2,0.5-0.3c2.6-1.2,5.2-2.1,7.8-2.9
		c2.7-0.8,5.4-1.2,8.3-1.2c2.4,0,4.6,0.3,6.8,0.8c2.2,0.6,4.1,1.5,5.8,2.7c1.7,1.2,3,2.7,4,4.6s1.5,4.1,1.5,6.8c0,2-0.5,3.9-1.5,5.6
		s-2.4,3.1-4.1,4.2c3,1.2,5.4,2.9,7.1,5.1c1.7,2.2,2.5,5,2.5,8.3C129.8,42.4,129.6,44,129.1,45.4z M108.6,27.1c-0.3,0-0.8,0-1.5,0.1
		c-0.7,0-1.4,0.1-2.1,0.3c-0.7,0.1-1.4,0.3-2,0.5s-0.9,0.4-1,0.7c0.4,0.3,0.9,0.5,1.5,0.6s1.1,0.1,1.6,0.1c0.6,0,1.3,0,2-0.1
		c0.7-0.1,1.4-0.2,2.1-0.3c0.7-0.1,1.4-0.3,2.1-0.5c0.7-0.2,1.3-0.4,1.8-0.7C111.6,27.3,110.1,27.1,108.6,27.1z"/>
	<path fill="#FFFFFF" d="M155,55.4c-0.2,0-0.4,0-0.6,0c-0.7,0-1.3-0.1-1.8-0.4c-0.6-0.2-1.1-0.6-1.6-1c-0.5-0.4-0.9-0.8-1.3-1.4
		c-0.4-0.5-0.7-1-1-1.6c-0.4,1-0.9,2-1.5,3c-0.6,1-1.3,1.9-2.1,2.7c-0.8,0.8-1.7,1.5-2.7,2c-1,0.5-2.1,0.8-3.3,0.8
		c-1.4,0-2.6-0.3-3.5-0.8c-1-0.6-1.7-1.3-2.3-2.2c-0.6-0.9-1-1.9-1.3-3.1c-0.3-1.2-0.4-2.3-0.4-3.6c0-1,0.1-2.1,0.3-3.3
		c0.2-1.2,0.6-2.4,1-3.5c0.4-1.2,1-2.3,1.6-3.4c0.6-1.1,1.4-2.1,2.2-2.9c0.8-0.9,1.8-1.5,2.8-2s2.1-0.8,3.3-0.8c0.4,0,1,0.1,1.6,0.2
		s1.3,0.4,1.9,0.7c0.6,0.3,1.1,0.6,1.6,1c0.4,0.4,0.7,0.9,0.7,1.4c0,0.1-0.1,0.3-0.2,0.5c-0.1,0.2-0.3,0.3-0.5,0.3
		c-0.1,0-0.3-0.1-0.6-0.3c-0.2-0.2-0.5-0.5-0.9-0.7c-0.4-0.3-0.8-0.5-1.4-0.7c-0.5-0.2-1.2-0.3-2-0.3c-0.9,0-1.8,0.2-2.5,0.7
		c-0.8,0.5-1.5,1.1-2.1,1.8c-0.6,0.8-1.2,1.6-1.7,2.6c-0.5,1-0.9,1.9-1.2,2.9c-0.3,1-0.6,2-0.8,2.9c-0.2,1-0.3,1.8-0.3,2.6
		c0,0.7,0.1,1.5,0.2,2.3c0.1,0.8,0.3,1.5,0.7,2.2c0.3,0.7,0.8,1.2,1.4,1.6c0.6,0.4,1.4,0.6,2.3,0.6c0.9,0,1.8-0.3,2.5-0.8
		c0.8-0.5,1.4-1.1,2-1.9c0.6-0.7,1.1-1.6,1.6-2.4c0.4-0.9,0.8-1.7,1.1-2.4c0.3-0.7,0.5-1.3,0.7-1.8c0.2-0.5,0.3-1.1,0.3-1.8v-1.7
		c0-0.3,0-0.6,0.1-0.9c0.1-0.3,0.2-0.6,0.3-0.8c0.1-0.3,0.3-0.5,0.6-0.6c0.2-0.2,0.5-0.3,0.8-0.3c0.4,0,0.6,0.1,0.8,0.2
		c0.2,0.1,0.4,0.3,0.5,0.6c0.1,0.2,0.2,0.5,0.2,0.8c0,0.3,0,0.5,0,0.8c0,0.5,0,1-0.1,1.5c-0.1,0.5-0.2,1-0.3,1.5
		c0,0.1-0.1,0.3-0.1,0.4c0,0.1-0.1,0.3-0.1,0.5c0,0.9,0.1,1.7,0.3,2.4c0.2,0.7,0.5,1.2,1,1.8c0.4,0.5,0.9,0.9,1.5,1.3
		c0.6,0.4,1.3,0.7,2,1.1l0.6,1C155.3,55.2,155.2,55.3,155,55.4z"/>
	<path fill="#FFFFFF" d="M180.3,42.9c-0.3,0.2-0.6,0.4-0.9,0.5c-0.3,0.2-0.7,0.3-1,0.4c-0.3,0.1-0.6,0.2-0.9,0.2
		c0,0.3,0.1,0.6,0.1,0.9c0,0.3,0,0.6,0,1c0,1.7-0.2,3.3-0.7,4.8c-0.5,1.5-1.2,2.8-2.2,3.9c-1,1.1-2.1,2-3.5,2.6c-1.4,0.6-3,1-4.8,1
		c-1.8,0-3.4-0.4-4.8-1.3c-1.4-0.9-2.6-2-3.5-3.4c-1-1.4-1.8-3-2.4-4.8c-0.6-1.8-1.1-3.6-1.5-5.5c-0.4-1.9-0.6-3.7-0.8-5.5
		c-0.1-1.8-0.2-3.4-0.2-4.7c0-0.9,0-1.9,0.1-3.1s0.2-2.6,0.4-4c0.2-1.4,0.4-2.9,0.7-4.5c0.3-1.6,0.6-3.1,1-4.6
		c0.4-1.5,0.9-2.9,1.5-4.3c0.6-1.3,1.3-2.5,2-3.5c0.8-1,1.6-1.8,2.6-2.4c1-0.6,2-0.9,3.3-0.9c1.3,0,2.4,0.3,3.3,0.9
		c0.8,0.6,1.5,1.4,2,2.3c0.5,0.9,0.8,2,1,3.1c0.2,1.1,0.3,2.3,0.3,3.3c0,2.2-0.3,4.5-0.8,7c-0.5,2.5-1.2,4.9-2.1,7.4
		c-0.9,2.4-2,4.8-3.2,7c-1.2,2.2-2.5,4.2-3.9,5.9c-0.4,0.5-0.9,1.1-1.5,1.6c-0.5,0.6-1.2,0.9-1.9,1c0.3,1.1,0.7,2.2,1.1,3.4
		c0.5,1.2,1.1,2.2,1.8,3.2c0.7,1,1.6,1.7,2.6,2.3c1,0.6,2.2,0.9,3.5,0.9c1.4,0,2.6-0.3,3.6-0.8c1-0.5,1.9-1.3,2.5-2.2
		c0.7-0.9,1.2-1.9,1.5-3.1c0.3-1.2,0.5-2.4,0.5-3.6v-1.1c-0.7,0-1.6-0.1-2.5-0.2c-0.9-0.1-1.8-0.4-2.6-0.7c-0.8-0.3-1.5-0.8-2-1.4
		c-0.5-0.6-0.8-1.4-0.8-2.4c0-1.1,0.4-1.9,1.1-2.6c0.7-0.6,1.6-1,2.6-1c0.8,0,1.6,0.2,2.3,0.6c0.7,0.4,1.3,0.9,1.9,1.5
		c0.5,0.6,1,1.3,1.4,2c0.4,0.7,0.7,1.5,0.9,2.1c0.4-0.1,0.7-0.2,1.1-0.3c0.4-0.1,0.8-0.2,1.1-0.2c0,0,0.2,0,0.3,0c0.2,0,0.3,0,0.5,0
		c0.2,0,0.3,0.1,0.5,0.1c0.1,0,0.2,0.1,0.2,0.2C180.8,42.5,180.6,42.7,180.3,42.9z M168.5,13.9c-0.1-0.8-0.2-1.6-0.5-2.4
		c-0.3-0.7-0.7-1.4-1.2-1.9c-0.5-0.5-1.2-0.8-2.1-0.8c-1.1,0-2,0.5-2.9,1.4c-0.8,0.9-1.6,2.1-2.2,3.6c-0.6,1.5-1.1,3.1-1.6,4.9
		c-0.4,1.8-0.8,3.6-1,5.3c-0.3,1.7-0.4,3.3-0.6,4.8c-0.1,1.5-0.2,2.6-0.2,3.4c0,2.1,0.1,4.2,0.4,6.2c0.3,2,0.5,4.1,0.8,6.1
		c0.2-0.2,0.4-0.4,0.5-0.5c0.1-0.2,0.3-0.3,0.4-0.5c1.5-1.8,2.8-3.8,4.1-6c1.2-2.2,2.3-4.5,3.2-6.9c0.9-2.4,1.6-4.8,2.1-7.3
		s0.8-4.8,0.8-7.2C168.6,15.4,168.6,14.7,168.5,13.9z M174,41.3c-0.2-0.5-0.5-0.9-0.8-1.3c-0.3-0.4-0.7-0.8-1.1-1
		c-0.4-0.3-0.9-0.4-1.4-0.4c-0.4,0-0.7,0.1-1,0.2c-0.3,0.1-0.5,0.4-0.5,0.9c0,0.6,0.2,1.1,0.6,1.4c0.4,0.4,0.9,0.7,1.4,0.9
		c0.6,0.2,1.2,0.4,1.8,0.5c0.6,0.1,1.2,0.1,1.6,0.1C174.5,42.2,174.3,41.8,174,41.3z"/>
	<path fill="#FFFFFF" d="M199.7,63.4c-0.2,1.9-0.5,4-1,6.1c-0.5,2.1-1,4.3-1.8,6.4c-0.7,2.1-1.6,4.1-2.6,5.8c-1,1.7-2.2,3.1-3.6,4.2
		c-1.3,1.1-2.9,1.6-4.6,1.6c-1,0-1.9-0.2-2.7-0.5c-0.8-0.3-1.5-0.8-2-1.4c-0.5-0.6-1-1.3-1.2-2.1c-0.3-0.8-0.4-1.8-0.4-2.8
		c0-1.7,0.3-3.6,1-5.5c0.7-1.9,1.6-3.8,2.6-5.6c1.1-1.8,2.3-3.5,3.6-5.1c1.3-1.6,2.6-3,3.8-4.2c0.5-0.5,1-0.9,1.5-1.3
		c0.5-0.4,1.2-0.6,1.9-0.6c0,0,0.1,0,0.2,0c0.1,0,0.1,0,0.2,0.1c0,0.1,0.1,0.2,0.1,0.4c0,0.1-0.1,0.2-0.2,0.4
		c-0.1,0.2-0.2,0.3-0.4,0.5c-0.1,0.2-0.3,0.3-0.5,0.5c-0.2,0.1-0.3,0.3-0.3,0.3c-0.7,0.7-1.5,1.6-2.4,2.5c-0.8,1-1.6,2-2.5,3.1
		c-0.8,1.1-1.6,2.2-2.3,3.4c-0.7,1.2-1.4,2.4-2,3.6c-0.6,1.2-1,2.4-1.3,3.6c-0.3,1.2-0.5,2.3-0.5,3.5c0,1.4,0.3,2.5,0.9,3.3
		c0.6,0.8,1.6,1.2,3.1,1.2c1,0,1.8-0.3,2.7-0.9c0.8-0.6,1.5-1.4,2.2-2.4c0.7-1,1.3-2.2,1.8-3.5c0.5-1.3,1-2.8,1.4-4.2
		c0.4-1.5,0.8-3,1.1-4.5c0.3-1.5,0.6-3,0.8-4.3c0.2-1.4,0.3-2.6,0.4-3.8c0.1-1.1,0.1-2.1,0.1-2.8c0-1.6-0.1-3.1-0.2-4.7
		c-0.1-1.6-0.3-3.1-0.6-4.7c-0.4,1.1-0.8,2.1-1.4,3c-0.6,0.9-1.3,1.7-2.1,2.4c-0.8,0.7-1.7,1.2-2.7,1.6c-1,0.4-2.1,0.6-3.3,0.6
		c-1.3,0-2.4-0.2-3.4-0.7c-0.9-0.5-1.7-1.1-2.2-1.9c-0.6-0.8-1-1.7-1.2-2.8c-0.3-1.1-0.4-2.2-0.4-3.4c0-0.3,0-0.7,0.1-1.3
		c0-0.6,0.1-1.2,0.2-2c0.1-0.7,0.2-1.4,0.3-2.2c0.1-0.8,0.3-1.5,0.5-2.1c0.2-0.6,0.4-1.1,0.7-1.5c0.3-0.4,0.6-0.6,1-0.6
		c0.3,0,0.4,0.1,0.4,0.4c0,0.7-0.1,1.3-0.3,1.9c-0.2,0.6-0.3,1.3-0.5,1.9c-0.3,1.5-0.4,3.1-0.4,4.6c0,0.8,0.1,1.7,0.2,2.5
		c0.1,0.8,0.3,1.6,0.7,2.3c0.3,0.7,0.8,1.2,1.5,1.7c0.6,0.4,1.5,0.7,2.5,0.7c1.1,0,2.1-0.2,2.9-0.7c0.8-0.4,1.6-1,2.2-1.7
		c0.6-0.7,1.1-1.5,1.5-2.5c0.4-0.9,0.7-1.9,0.9-2.9c0.2-1,0.4-2,0.5-3c0.1-1,0.1-2,0.1-2.8c0-0.5,0.2-0.8,0.5-1.2
		c0.3-0.3,0.7-0.5,1.1-0.5c0.4,0,0.7,0.1,0.9,0.3c0.2,0.2,0.4,0.5,0.5,0.8c0.1,0.4,0.3,0.7,0.4,1.1c0.1,0.4,0.2,0.8,0.3,1.1
		c0.6,2.7,1.1,5.4,1.4,8.1c0.3,2.7,0.5,5.5,0.5,8.2C200,59.9,199.9,61.5,199.7,63.4z"/>
</g>
</svg>
