<?xml version="1.0" encoding="utf-8"?>
<!-- Generator: Adobe Illustrator 17.1.0, SVG Export Plug-In . SVG Version: 6.00 Build 0)  -->
<!DOCTYPE svg PUBLIC "-//W3C//DTD SVG 1.0//EN" "http://www.w3.org/TR/2001/REC-SVG-20010904/DTD/svg10.dtd">
<svg version="1.0" id="Camada_1" xmlns="http://www.w3.org/2000/svg" xmlns:xlink="http://www.w3.org/1999/xlink" x="0px" y="0px"
	 viewBox="0 0 500 220" enable-background="new 0 0 500 220" xml:space="preserve">
<g enable-background="new    ">
	<path fill="#FFFFFF" d="M103.2,110.5c-1.2,3.6-3,6.9-5.1,9.8c-2.2,2.9-4.7,5.5-7.7,7.7c-3,2.3-6.2,4.1-9.7,5.7s-7.1,2.7-10.9,3.4
		c-3.8,0.8-7.6,1.1-11.5,1.1c-7.6,0-15.1-1.1-22.4-3.4s-14.3-5.5-20.8-9.4c0,0.5,0,1.3,0,2.4c0,1-0.1,2.2-0.2,3.4
		c-0.1,1.2-0.2,2.3-0.3,3.2c-0.1,0.9-0.3,1.5-0.5,1.9c-0.1,0.2-0.5,0.4-1.1,0.6c-0.6,0.2-1.1,0.3-1.4,0.3c-0.4,0-0.7-0.3-0.9-0.9
		c-0.2-0.6-0.4-1.3-0.5-2.2s-0.2-1.5-0.2-2.4c0-0.8-0.1-1.3-0.1-1.6c-0.5-6-0.9-11.8-1.3-17.7c-0.4-5.9-0.6-11.7-0.6-17.7
		c0-8.5,0.4-17.1,1.3-25.6c0.9-8.4,2.2-17,3.8-25.5c0.1-0.5,0.3-1.3,0.6-2.7c0.3-1.3,0.5-2.7,0.9-4.1c0.3-1.4,0.6-2.7,0.9-3.9
		c0.3-1.2,0.5-2,0.7-2.3c0.2-0.3,0.5-0.6,1-0.7c0.5-0.1,0.9-0.2,1.3-0.2c0.8,0,1.2,0.2,1.5,0.5c0.2,0.3,0.3,0.8,0.3,1.4
		c0,2.6-0.2,5.1-0.5,7.7c-0.3,2.5-0.6,5-0.8,7.5c-0.5,5-0.9,10.1-1.2,15c-0.3,4.9-0.6,9.9-0.9,14.8C16.5,84.1,16.2,91.6,16,99
		c-0.2,7.4-0.4,14.9-0.7,22.3c2,0.7,3.8,1.4,5.8,2.4c2,0.8,3.8,1.5,5.8,2.3c4.7,1.4,9.5,2.7,14.3,3.6s9.7,1.3,14.5,1.3
		c5,0,10-0.7,14.9-2.1c4.9-1.3,9.4-3.4,13.3-6.1c3.9-2.8,7.1-6.2,9.6-10.3c2.5-4.1,3.7-9.1,3.7-14.6c0-3.5-0.6-6.7-1.6-9.7
		c-1.1-3-2.7-5.7-4.6-8.1c-2-2.5-4.3-4.5-7-6.3c-2.7-1.7-5.6-3.2-8.6-4.2c-2.2,1-4.4,2-6.8,2.8c-2.4,0.8-4.8,1.5-7.4,2.2
		c-2.5,0.6-5,1-7.5,1.3c-2.5,0.3-4.9,0.5-7.2,0.5c-1.1,0-2.6-0.1-4.2-0.2c-1.6-0.1-3.3-0.5-4.8-1c-1.5-0.5-2.9-1.2-4-2.2
		c-1.1-0.9-1.6-2.2-1.6-3.7c0-2,0.8-3.4,2.5-4.5c1.6-1.1,3.6-2,6-2.6c2.3-0.6,4.6-1,6.9-1.1c2.3-0.1,4.1-0.3,5.5-0.3
		c3.3,0,6.6,0.2,9.9,0.5c3.3,0.3,6.5,0.8,9.7,1.4c2.1-1,3.9-2.4,5.8-3.7c1.9-1.4,3.4-3,4.8-4.7c1.4-1.7,2.5-3.7,3.4-5.8
		c0.8-2.2,1.2-4.4,1.2-6.8c0-5.3-1.1-9.9-3.3-13.6s-5.1-6.8-8.7-9.1c-3.8-2.8-7.9-4.5-12.4-5.6S53.4,12,48.8,12s-9.4,0.4-14,1.1
		c-4.7,0.8-9.3,1.7-13.8,3.1c-2.1,0.6-4.3,1.3-6.6,2.2c-2.3,0.8-4.5,1.1-6.8,1.1c-0.3,0-0.6,0-0.8,0c-0.2,0-0.5-0.1-0.8-0.2
		l-0.7-0.5c-0.1,0-0.2-0.1-0.2-0.3c0-0.3,0.2-0.7,0.7-1.1s1-0.7,1.6-1.1c0.6-0.3,1.2-0.7,1.9-1c0.6-0.3,1-0.5,1.3-0.6
		c6.3-2.9,12.8-5.2,19.3-7.2s13.4-2.9,20.4-2.9c5.9,0,11.4,0.7,16.9,2.1c5.3,1.4,10.2,3.6,14.3,6.6c4.2,3,7.5,6.8,10,11.4
		c2.5,4.6,3.7,10.2,3.7,16.7c0,5-1.2,9.7-3.7,13.9c-2.5,4.2-5.9,7.7-10.1,10.4c7.4,3.1,13.3,7.3,17.5,12.7
		c4.2,5.5,6.3,12.2,6.3,20.5C105.2,102.9,104.4,106.9,103.2,110.5z M52.6,65.3c-0.7,0-2,0.1-3.6,0.2c-1.6,0.1-3.4,0.3-5.2,0.6
		c-1.7,0.3-3.4,0.7-4.8,1.1c-1.4,0.4-2.3,1-2.6,1.7c1,0.8,2.3,1.3,3.6,1.3c1.4,0.1,2.8,0.1,4.1,0.1c1.5,0,3.2-0.1,4.9-0.3
		c1.7-0.2,3.5-0.5,5.1-0.8c1.7-0.3,3.4-0.8,5-1.3s3.2-1,4.5-1.6C60.1,65.6,56.4,65.3,52.6,65.3z"/>
	<path fill="#FFFFFF" d="M170.8,115.5c-0.1,0.4-0.3,0.9-0.6,1.3c-1,3.7-2.4,7-4,10.1c-1.6,3-3.6,5.6-5.9,7.7c-2.4,2.2-5,3.7-8.1,4.8
		c-3.1,1.1-6.7,1.6-10.8,1.6c-4.5,0-8.6-0.7-12.3-2.2c-3.7-1.4-6.8-3.5-9.5-6.1c-2.6-2.7-4.6-5.8-6-9.5c-1.4-3.7-2.1-7.7-2.1-12.2
		c0-3.2,0.4-6.5,1.3-9.9c0.9-3.5,2.3-6.6,4.1-9.5c1.9-2.9,4.1-5.2,6.9-7.1s6-2.8,9.6-2.8c2.7,0,5.1,0.4,7.3,1.2
		c2.2,0.8,4.1,2.1,5.8,3.6c1.6,1.5,2.9,3.4,3.7,5.6c0.9,2.2,1.3,4.6,1.3,7.3c0,2.9-0.4,5.7-1.3,8.3c-0.9,2.7-2.2,5.2-3.7,7.6
		c-1.5,2.4-3.4,4.5-5.5,6.5c-2.1,2-4.3,3.7-6.6,5.1c-0.9,0.6-1.9,1.2-3,1.9c-1,0.6-2.2,1-3.1,1.4c2.2,1.4,4.4,2.5,6.9,3
		s4.9,0.8,7.5,0.8c5.8,0,10.5-1.4,14.2-4.3c3.7-2.9,6.7-7,8.6-12.3c0.1-0.3,0.2-0.7,0.3-1.1c0.1-0.4,0.2-0.9,0.4-1.3
		c0.1-0.5,0.3-0.9,0.5-1.3c0.2-0.4,0.4-0.7,0.6-0.9c0.1-0.2,0.5-0.4,1.1-0.8c0.6-0.4,1.1-0.5,1.3-0.5c0.3,0,0.5,0.1,0.8,0.3
		c0,0.4,0,0.8,0.1,1.1c0.1,0.3,0.1,0.7,0.1,1C171,114.6,171,115.1,170.8,115.5z M142.2,92c-2-1.9-4.8-2.8-8.6-2.8
		c-2.5,0-4.5,0.8-6.3,2.4c-1.7,1.5-3.2,3.5-4.4,5.8c-1.1,2.3-2.1,4.7-2.6,7.3c-0.6,2.6-0.8,4.8-0.8,6.7c0,6.2,2,11.6,5.8,16.4
		c0.3-0.3,0.6-0.5,0.9-0.7c0.3-0.2,0.7-0.4,1-0.7c2.3-1.3,4.4-3,6.6-4.7c2.2-1.7,4-3.7,5.8-5.9c1.6-2.2,3-4.4,4.1-6.9
		c1-2.5,1.5-5.1,1.5-8C145.1,96.8,144,93.9,142.2,92z"/>
	<path fill="#FFFFFF" d="M224.6,115.5c-0.1,0.4-0.3,0.9-0.6,1.3c-1,3.7-2.4,7-4,10.1c-1.6,3-3.6,5.6-5.9,7.7c-2.4,2.2-5,3.7-8.1,4.8
		c-3.1,1.1-6.7,1.6-10.8,1.6c-4.5,0-8.6-0.7-12.3-2.2c-3.7-1.4-6.8-3.5-9.5-6.1c-2.6-2.7-4.6-5.8-6-9.5c-1.4-3.7-2.1-7.7-2.1-12.2
		c0-3.2,0.4-6.5,1.3-9.9c0.9-3.5,2.3-6.6,4.1-9.5c1.9-2.9,4.1-5.2,6.9-7.1c2.8-1.9,6-2.8,9.6-2.8c2.7,0,5.1,0.4,7.3,1.2
		s4.1,2.1,5.8,3.6c1.6,1.5,2.9,3.4,3.7,5.6c0.9,2.2,1.3,4.6,1.3,7.3c0,2.9-0.4,5.7-1.3,8.3c-0.9,2.7-2.2,5.2-3.7,7.6
		c-1.5,2.4-3.4,4.5-5.5,6.5c-2.1,2-4.3,3.7-6.6,5.1c-0.9,0.6-1.9,1.2-3,1.9c-1,0.6-2.2,1-3.1,1.4c2.2,1.4,4.4,2.5,6.9,3
		c2.5,0.5,4.9,0.8,7.5,0.8c5.8,0,10.5-1.4,14.2-4.3c3.7-2.9,6.7-7,8.6-12.3c0.1-0.3,0.2-0.7,0.3-1.1c0.1-0.4,0.2-0.9,0.4-1.3
		c0.1-0.5,0.3-0.9,0.5-1.3c0.2-0.4,0.4-0.7,0.6-0.9c0.1-0.2,0.5-0.4,1.1-0.8c0.6-0.4,1.1-0.5,1.3-0.5c0.3,0,0.5,0.1,0.8,0.3
		c0,0.4,0,0.8,0.1,1.1c0.1,0.3,0.1,0.7,0.1,1C224.8,114.6,224.7,115.1,224.6,115.5z M196,92c-2-1.9-4.8-2.8-8.6-2.8
		c-2.5,0-4.5,0.8-6.3,2.4c-1.7,1.5-3.2,3.5-4.4,5.8c-1.1,2.3-2.1,4.7-2.6,7.3c-0.6,2.6-0.8,4.8-0.8,6.7c0,6.2,2,11.6,5.8,16.4
		c0.3-0.3,0.6-0.5,0.9-0.7c0.3-0.2,0.7-0.4,1-0.7c2.3-1.3,4.4-3,6.6-4.7c2.2-1.7,4-3.7,5.8-5.9c1.6-2.2,3-4.4,4.1-6.9
		c1-2.5,1.5-5.1,1.5-8C198.8,96.8,197.8,93.9,196,92z"/>
	<path fill="#FFFFFF" d="M320,110.5c-1.2,3.6-3,6.9-5.1,9.8s-4.7,5.5-7.7,7.7c-3,2.3-6.2,4.1-9.7,5.7c-3.5,1.5-7.1,2.7-10.9,3.4
		c-3.8,0.8-7.6,1.1-11.5,1.1c-7.6,0-15.1-1.1-22.4-3.4c-7.3-2.3-14.3-5.5-20.8-9.4c0,0.5,0,1.3,0,2.4c0,1-0.1,2.2-0.2,3.4
		s-0.2,2.3-0.3,3.2c-0.1,0.9-0.3,1.5-0.5,1.9c-0.1,0.2-0.5,0.4-1.1,0.6c-0.6,0.2-1.1,0.3-1.4,0.3c-0.4,0-0.7-0.3-0.9-0.9
		c-0.2-0.6-0.4-1.3-0.5-2.2c-0.1-0.8-0.2-1.5-0.2-2.4c0-0.8-0.1-1.3-0.1-1.6c-0.5-6-0.9-11.8-1.3-17.7c-0.4-5.9-0.6-11.7-0.6-17.7
		c0-8.5,0.4-17.1,1.3-25.6c0.9-8.4,2.2-17,3.8-25.5c0.1-0.5,0.3-1.3,0.6-2.7c0.3-1.3,0.5-2.7,0.9-4.1c0.3-1.4,0.6-2.7,0.9-3.9
		c0.3-1.2,0.5-2,0.7-2.3c0.2-0.3,0.5-0.6,1-0.7c0.5-0.1,0.9-0.2,1.3-0.2c0.8,0,1.2,0.2,1.5,0.5c0.2,0.3,0.3,0.8,0.3,1.4
		c0,2.6-0.2,5.1-0.5,7.7c-0.3,2.5-0.6,5-0.8,7.5c-0.5,5-0.9,10.1-1.2,15c-0.3,4.9-0.6,9.9-0.9,14.8c-0.3,7.4-0.6,14.9-0.8,22.3
		c-0.2,7.4-0.4,14.9-0.7,22.3c2,0.7,3.8,1.4,5.8,2.4c2,0.8,3.8,1.5,5.8,2.3c4.7,1.4,9.5,2.7,14.3,3.6c4.8,0.9,9.7,1.3,14.5,1.3
		c5,0,10-0.7,14.9-2.1c4.9-1.3,9.4-3.4,13.3-6.1c3.9-2.8,7.1-6.2,9.6-10.3c2.5-4.1,3.7-9.1,3.7-14.6c0-3.5-0.6-6.7-1.6-9.7
		c-1.1-3-2.7-5.7-4.6-8.1c-2-2.4-4.3-4.5-7-6.3c-2.7-1.7-5.6-3.2-8.6-4.2c-2.2,1-4.4,2-6.8,2.8c-2.4,0.8-4.8,1.5-7.4,2.2
		c-2.5,0.6-5,1-7.5,1.3c-2.5,0.3-4.9,0.5-7.2,0.5c-1.1,0-2.6-0.1-4.2-0.2c-1.6-0.1-3.3-0.5-4.8-1c-1.5-0.5-2.9-1.2-4-2.2
		c-1.1-0.9-1.6-2.2-1.6-3.7c0-2,0.8-3.4,2.5-4.5s3.6-2,6-2.6c2.3-0.6,4.6-1,6.9-1.1c2.3-0.1,4.1-0.3,5.5-0.3c3.3,0,6.6,0.2,9.9,0.5
		c3.3,0.3,6.5,0.8,9.7,1.4c2.1-1,3.9-2.4,5.8-3.7c1.9-1.4,3.4-3,4.8-4.7c1.4-1.7,2.5-3.7,3.4-5.8c0.8-2.2,1.2-4.4,1.2-6.8
		c0-5.3-1.1-9.9-3.3-13.6c-2.2-3.7-5.1-6.8-8.7-9.1s-7.7-4-12.2-5s-9.2-1.5-13.8-1.5c-4.6,0-9.4,0.4-14,1.1
		c-4.7,0.8-9.3,1.7-13.8,3.1c-2.1,0.6-4.3,1.3-6.6,2.2c-2.3,0.8-4.5,1.1-6.8,1.1c-0.3,0-0.6,0-0.8,0c-0.2,0-0.5-0.1-0.8-0.2
		l-0.7-0.5c-0.1,0-0.2-0.1-0.2-0.3c0-0.3,0.2-0.7,0.7-1.1c0.5-0.4,1-0.7,1.6-1.1c0.6-0.3,1.2-0.7,1.9-1c0.6-0.3,1-0.5,1.3-0.6
		c6.3-2.9,12.8-5.2,19.3-7.2c6.6-2,13.4-2.9,20.4-2.9c5.9,0,11.4,0.7,16.9,2.1c5.3,1.4,10.2,3.6,14.3,6.6c4.2,3,7.5,6.8,10,11.4
		c2.5,4.6,3.7,10.2,3.7,16.7c0,5-1.2,9.7-3.7,13.9c-2.5,4.2-5.9,7.7-10.1,10.4c7.4,3.1,13.3,7.3,17.5,12.7
		c4.2,5.5,6.3,12.2,6.3,20.5C321.9,102.9,321.3,106.9,320,110.5z M269.4,65.3c-0.7,0-2,0.1-3.6,0.2c-1.6,0.1-3.4,0.3-5.2,0.6
		c-1.7,0.3-3.4,0.7-4.8,1.1c-1.4,0.4-2.3,1-2.6,1.7c1,0.8,2.3,1.3,3.6,1.3c1.4,0.1,2.8,0.1,4.1,0.1c1.5,0,3.2-0.1,4.9-0.3
		c1.7-0.2,3.5-0.5,5.1-0.8c1.7-0.3,3.4-0.8,5.1-1.3c1.6-0.5,3.2-1,4.5-1.6C276.9,65.6,273.2,65.3,269.4,65.3z"/>
	<path fill="#FFFFFF" d="M384.1,135.1c-0.5,0.1-0.9,0.1-1.4,0.1c-1.6,0-3.1-0.3-4.5-0.9c-1.4-0.6-2.8-1.3-4-2.4
		c-1.2-1-2.3-2.1-3.3-3.4c-0.9-1.2-1.7-2.6-2.5-3.8c-1,2.5-2.3,4.9-3.7,7.4c-1.4,2.5-3.3,4.7-5.2,6.8c-2.1,2.1-4.3,3.7-6.8,4.9
		c-2.5,1.2-5.2,1.9-8.1,1.9c-3.5,0-6.4-0.7-8.7-2.1c-2.4-1.3-4.3-3.2-5.8-5.5s-2.6-4.7-3.3-7.6s-1-5.8-1-8.8c0-2.5,0.3-5.1,0.8-8
		c0.5-2.9,1.4-5.9,2.5-8.7c1.1-2.9,2.5-5.8,4-8.4c1.5-2.8,3.4-5.1,5.5-7.3s4.3-3.8,6.8-5c2.5-1.2,5.2-1.9,8.1-1.9c1,0,2.4,0.2,4,0.5
		c1.6,0.3,3.2,0.9,4.7,1.6s2.8,1.5,3.9,2.6c1.1,1,1.6,2.2,1.6,3.5c0,0.3-0.1,0.8-0.4,1.3c-0.3,0.5-0.6,0.8-1.1,0.8
		c-0.3,0-0.8-0.3-1.3-0.8c-0.6-0.5-1.3-1.1-2.3-1.9c-0.9-0.7-2.1-1.3-3.4-1.9c-1.3-0.5-2.9-0.8-4.8-0.8c-2.3,0-4.3,0.6-6.3,1.6
		c-2,1.1-3.6,2.7-5.2,4.5c-1.5,1.9-3,4-4.1,6.4c-1.2,2.4-2.2,4.8-3.1,7.3c-0.8,2.5-1.4,4.9-1.9,7.3c-0.4,2.4-0.6,4.5-0.6,6.4
		s0.1,3.8,0.4,5.8c0.3,2,0.8,3.8,1.7,5.5c0.8,1.6,2,3,3.5,4c1.4,1,3.4,1.5,5.8,1.5c2.3,0,4.3-0.6,6.2-1.9c1.9-1.2,3.6-2.8,5-4.6
		s2.8-3.8,3.9-6c1.1-2.2,2.1-4.1,2.7-6c0.6-1.6,1.2-3.2,1.6-4.4c0.5-1.2,0.7-2.8,0.7-4.5v-4.2c0-0.7,0.1-1.4,0.2-2.2
		c0.1-0.7,0.4-1.4,0.7-2.1c0.3-0.6,0.8-1.1,1.3-1.5c0.5-0.4,1.2-0.6,2.1-0.6c0.9,0,1.5,0.2,2.1,0.5c0.5,0.3,0.9,0.8,1.1,1.4
		c0.3,0.6,0.4,1.2,0.5,2s0.1,1.3,0.1,2.1c0,1.2-0.1,2.5-0.2,3.7s-0.4,2.5-0.7,3.8c-0.1,0.3-0.2,0.7-0.3,1c-0.1,0.3-0.2,0.8-0.2,1.2
		c0,2.3,0.3,4.2,0.8,5.9c0.5,1.6,1.3,3.1,2.4,4.3c1,1.2,2.3,2.4,3.8,3.3c1.5,0.9,3.2,1.9,5,2.7l1.4,2.5
		C384.9,134.7,384.5,135,384.1,135.1z"/>
	<path fill="#FFFFFF" d="M446.9,104.3c-0.7,0.5-1.4,0.9-2.3,1.3c-0.8,0.4-1.6,0.7-2.5,1s-1.5,0.4-2.3,0.6c0.1,0.8,0.2,1.5,0.2,2.4
		c0,0.8,0,1.5,0,2.4c0,4.3-0.6,8.2-1.9,11.9c-1.2,3.7-3,6.9-5.3,9.7c-2.4,2.8-5.2,4.9-8.7,6.5c-3.5,1.5-7.4,2.4-11.8,2.4
		c-4.5,0-8.4-1-11.8-3.2c-3.4-2.2-6.3-4.9-8.7-8.3c-2.5-3.5-4.4-7.4-6.1-11.8c-1.5-4.4-2.8-8.9-3.7-13.5c-0.9-4.6-1.5-9.1-1.9-13.5
		c-0.3-4.4-0.5-8.3-0.5-11.7c0-2.2,0.1-4.7,0.3-7.8c0.2-3.1,0.5-6.4,0.9-9.9c0.4-3.6,0.9-7.3,1.6-11.1s1.5-7.6,2.6-11.3
		c1-3.7,2.3-7.2,3.7-10.5s3.1-6.3,5-8.7c2-2.5,4-4.5,6.5-6c2.4-1.4,5-2.2,8-2.2c3.3,0,6,0.7,8,2.3s3.7,3.4,4.9,5.8
		c1.2,2.4,2.1,4.9,2.5,7.7c0.4,2.9,0.7,5.6,0.7,8.2c0,5.5-0.6,11.2-2,17.3c-1.2,6.1-3.1,12.1-5.2,18.2c-2.3,6-4.8,11.7-7.8,17.3
		c-3,5.5-6.3,10.3-9.7,14.6c-1,1.3-2.3,2.7-3.6,4.1c-1.3,1.4-2.9,2.3-4.6,2.6c0.7,2.7,1.6,5.5,2.8,8.3c1.1,2.9,2.6,5.5,4.4,7.8
		c1.7,2.4,3.9,4.3,6.4,5.8c2.5,1.4,5.3,2.3,8.6,2.3c3.5,0,6.5-0.7,8.9-2.1s4.6-3.1,6.3-5.3c1.6-2.3,2.9-4.8,3.7-7.7
		c0.8-2.9,1.2-6,1.2-9.1v-2.8c-1.9,0-3.9-0.1-6.2-0.4s-4.4-0.9-6.4-1.7c-2-0.8-3.6-2.1-4.9-3.6s-2.1-3.5-2.1-6
		c0-2.7,0.9-4.8,2.7-6.4c1.7-1.5,3.9-2.4,6.5-2.4c2.1,0,4,0.5,5.8,1.4c1.7,0.9,3.3,2.2,4.6,3.7c1.3,1.4,2.5,3.2,3.4,4.9
		c0.9,1.9,1.6,3.6,2.3,5.3c0.9-0.2,1.9-0.4,2.8-0.7c1-0.3,2-0.5,2.8-0.5c0.1,0,0.4,0,0.7,0c0.4,0,0.8,0,1.2,0.1
		c0.4,0.1,0.8,0.1,1.1,0.3c0.3,0.1,0.5,0.3,0.6,0.5C448,103.2,447.5,103.8,446.9,104.3z M417.5,32.5c-0.2-2.1-0.6-4-1.2-5.9
		c-0.6-1.9-1.6-3.4-2.9-4.6c-1.2-1.2-3-2-5.2-2c-2.7,0-5,1.1-7.1,3.4c-2.1,2.3-3.8,5.2-5.3,8.8s-2.8,7.7-3.9,12.1
		c-1,4.4-2,8.7-2.6,13.1c-0.6,4.2-1.1,8.2-1.3,11.8c-0.3,3.6-0.4,6.4-0.4,8.3c0,5.1,0.3,10.3,1,15.2c0.6,5,1.3,10.1,2,15.1
		c0.5-0.5,0.9-0.9,1.2-1.3c0.3-0.4,0.7-0.8,1-1.1c3.6-4.4,7-9.5,10.1-14.9c3.1-5.5,5.8-11.1,7.9-17c2.2-5.9,4-11.8,5.2-18
		c1.2-6.1,1.9-11.9,1.9-17.7C417.8,36.4,417.7,34.5,417.5,32.5z M431.2,100.4c-0.6-1.1-1.3-2.3-2.1-3.3c-0.8-1-1.7-1.9-2.8-2.6
		c-1-0.7-2.2-1-3.4-1c-0.9,0-1.7,0.2-2.6,0.5c-0.8,0.3-1.2,1-1.2,2.2c0,1.4,0.5,2.6,1.4,3.6c1,0.9,2.2,1.7,3.6,2.3s2.9,0.9,4.4,1.1
		s2.9,0.3,3.9,0.3C432.3,102.5,431.9,101.5,431.2,100.4z"/>
	<path fill="#FFFFFF" d="M494.6,155c-0.5,4.7-1.3,9.8-2.5,15.1c-1.1,5.3-2.6,10.6-4.3,15.9c-1.7,5.3-3.9,10.1-6.5,14.3
		c-2.6,4.2-5.6,7.7-8.8,10.3c-3.3,2.7-7.1,4-11.3,4c-2.5,0-4.7-0.4-6.8-1.2c-2-0.8-3.7-2-5-3.4s-2.4-3.2-3.1-5.2
		c-0.7-2.1-1-4.3-1-6.8c0-4.3,0.8-8.7,2.6-13.5c1.7-4.7,3.9-9.3,6.5-13.8c2.7-4.5,5.6-8.7,8.8-12.8c3.2-4,6.4-7.4,9.4-10.3
		c1.2-1.1,2.5-2.3,3.8-3.3c1.3-1,2.9-1.5,4.6-1.5c0.1,0,0.2,0,0.4,0c0.1,0,0.3,0.1,0.5,0.2c0.1,0.2,0.2,0.5,0.2,0.9
		c0,0.2-0.1,0.5-0.4,0.9c-0.3,0.4-0.6,0.8-0.9,1.1c-0.3,0.4-0.7,0.7-1.1,1.1c-0.4,0.3-0.7,0.6-0.8,0.8c-1.9,1.9-3.8,3.9-5.9,6.3
		c-2.1,2.4-4.1,4.8-6.1,7.5c-2,2.7-3.9,5.5-5.8,8.4c-1.9,2.9-3.5,5.9-4.8,8.8c-1.3,3-2.5,6-3.3,8.8c-0.8,3-1.2,5.8-1.2,8.5
		c0,3.5,0.7,6.2,2.2,8.2c1.4,2.1,3.9,3.1,7.6,3.1c2.4,0,4.5-0.7,6.6-2.3c2-1.4,3.8-3.5,5.5-6c1.6-2.5,3.2-5.5,4.5-8.7
		c1.3-3.3,2.6-6.8,3.6-10.5c1-3.6,2-7.3,2.7-11.1c0.8-3.7,1.4-7.3,1.9-10.7c0.5-3.4,0.8-6.5,1-9.3c0.2-2.8,0.3-5.1,0.3-6.9
		c0-3.9-0.1-7.7-0.4-11.6c-0.3-3.9-0.8-7.7-1.4-11.6c-0.9,2.7-2.1,5.1-3.5,7.5c-1.4,2.3-3.2,4.3-5,6.1c-2,1.7-4.1,3.1-6.6,4.1
		c-2.5,1-5.1,1.4-8,1.4c-3.3,0-6.1-0.6-8.3-1.7s-4.1-2.8-5.5-4.7c-1.3-2-2.4-4.3-3-6.9c-0.6-2.6-0.9-5.3-0.9-8.3
		c0-0.6,0-1.7,0.1-3.2s0.2-3.1,0.4-4.8s0.5-3.6,0.8-5.5c0.3-1.9,0.8-3.6,1.3-5.1c0.5-1.5,1.1-2.8,1.7-3.8c0.7-1,1.4-1.4,2.4-1.4
		c0.6,0,1,0.3,1,1c0,1.6-0.2,3.2-0.7,4.7c-0.5,1.5-0.8,3.2-1.1,4.7c-0.7,3.8-1,7.6-1,11.3c0,2.1,0.1,4.1,0.4,6.2s0.8,4,1.7,5.7
		c0.8,1.6,2.1,3.1,3.6,4.1c1.5,1,3.6,1.6,6.1,1.6c2.8,0,5.1-0.5,7.2-1.6c2.1-1,3.9-2.5,5.5-4.2c1.5-1.7,2.8-3.8,3.7-6.1
		c0.9-2.3,1.7-4.7,2.4-7.2c0.5-2.5,0.9-5,1.2-7.5c0.2-2.5,0.3-4.8,0.3-7c0-1.1,0.4-2.1,1.1-2.9c0.7-0.8,1.6-1.1,2.7-1.1
		s1.7,0.3,2.4,0.8c0.5,0.6,1,1.2,1.3,2.1c0.3,0.9,0.6,1.9,0.9,2.8c0.2,1,0.4,2,0.6,2.8c1.5,6.6,2.7,13.3,3.4,20
		c0.7,6.7,1.1,13.5,1.1,20.4C495.4,146.2,495.1,150.1,494.6,155z"/>
</g>
</svg>
