<?xml version="1.0" encoding="utf-8"?>
<!-- Generator: Adobe Illustrator 17.1.0, SVG Export Plug-In . SVG Version: 6.00 Build 0)  -->
<!DOCTYPE svg PUBLIC "-//W3C//DTD SVG 1.0//EN" "http://www.w3.org/TR/2001/REC-SVG-20010904/DTD/svg10.dtd">
<svg version="1.0" id="Camada_1" xmlns="http://www.w3.org/2000/svg" xmlns:xlink="http://www.w3.org/1999/xlink" x="0px" y="0px"
	 viewBox="0 0 180 80" enable-background="new 0 0 180 80" xml:space="preserve">
<g enable-background="new    ">
	<path fill="#FFFFFF" d="M37.7,40.2c-0.4,1.3-1.1,2.5-1.8,3.5c-0.8,1-1.7,2-2.7,2.7c-1.1,0.8-2.2,1.5-3.5,2c-1.2,0.6-2.5,1-3.9,1.2
		c-1.4,0.3-2.7,0.4-4.1,0.4c-2.7,0-5.4-0.4-8-1.2c-2.6-0.8-5.1-2-7.4-3.3c0,0.2,0,0.5,0,0.9c0,0.4,0,0.8-0.1,1.2
		c0,0.4-0.1,0.8-0.1,1.1c0,0.3-0.1,0.5-0.2,0.7c0,0.1-0.2,0.1-0.4,0.2s-0.4,0.1-0.5,0.1c-0.1,0-0.2-0.1-0.3-0.3
		c-0.1-0.2-0.1-0.5-0.2-0.8c0-0.3-0.1-0.5-0.1-0.9c0-0.3,0-0.5,0-0.6C4.3,45,4.2,43,4.1,40.9c-0.1-2.1-0.2-4.2-0.2-6.3
		c0-3,0.1-6.1,0.5-9.1c0.3-3,0.8-6.1,1.4-9.1c0-0.2,0.1-0.5,0.2-1c0.1-0.5,0.2-1,0.3-1.5c0.1-0.5,0.2-1,0.3-1.4
		c0.1-0.4,0.2-0.7,0.2-0.8c0.1-0.1,0.2-0.2,0.4-0.2c0.2,0,0.3-0.1,0.5-0.1c0.3,0,0.4,0.1,0.5,0.2c0.1,0.1,0.1,0.3,0.1,0.5
		c0,0.9-0.1,1.8-0.2,2.7c-0.1,0.9-0.2,1.8-0.3,2.7c-0.2,1.8-0.3,3.6-0.4,5.3c-0.1,1.7-0.2,3.5-0.3,5.3c-0.1,2.7-0.2,5.3-0.3,8
		c-0.1,2.6-0.1,5.3-0.2,7.9c0.7,0.2,1.4,0.5,2.1,0.9c0.7,0.3,1.4,0.5,2.1,0.8c1.7,0.5,3.4,1,5.1,1.3c1.7,0.3,3.5,0.5,5.2,0.5
		c1.8,0,3.6-0.2,5.3-0.7c1.7-0.5,3.3-1.2,4.7-2.2c1.4-1,2.5-2.2,3.4-3.7c0.9-1.5,1.3-3.2,1.3-5.2c0-1.2-0.2-2.4-0.6-3.5
		c-0.4-1.1-1-2-1.6-2.9c-0.7-0.9-1.5-1.6-2.5-2.2c-1-0.6-2-1.1-3.1-1.5c-0.8,0.4-1.6,0.7-2.4,1s-1.7,0.5-2.6,0.8
		c-0.9,0.2-1.8,0.4-2.7,0.5c-0.9,0.1-1.7,0.2-2.6,0.2c-0.4,0-0.9,0-1.5-0.1c-0.6,0-1.2-0.2-1.7-0.4c-0.5-0.2-1-0.4-1.4-0.8
		c-0.4-0.3-0.6-0.8-0.6-1.3c0-0.7,0.3-1.2,0.9-1.6c0.6-0.4,1.3-0.7,2.1-0.9c0.8-0.2,1.6-0.4,2.5-0.4c0.8,0,1.5-0.1,2-0.1
		c1.2,0,2.3,0.1,3.5,0.2s2.3,0.3,3.5,0.5c0.7-0.4,1.4-0.9,2.1-1.3c0.7-0.5,1.2-1.1,1.7-1.7c0.5-0.6,0.9-1.3,1.2-2.1
		c0.3-0.8,0.4-1.6,0.4-2.4c0-1.9-0.4-3.5-1.2-4.8s-1.8-2.4-3.1-3.2c-1.4-1-2.8-1.6-4.4-2c-1.6-0.4-3.5-0.5-5.1-0.5
		c-1.6,0-3.3,0.1-5,0.4c-1.7,0.3-3.3,0.6-4.9,1.1C7.7,6.8,6.9,7.1,6.1,7.4C5.3,7.7,4.5,7.8,3.7,7.8c-0.1,0-0.2,0-0.3,0
		c-0.1,0-0.2,0-0.3-0.1L2.9,7.5c0,0-0.1,0-0.1-0.1c0-0.1,0.1-0.2,0.2-0.4s0.4-0.2,0.6-0.4c0.2-0.1,0.4-0.2,0.7-0.4
		c0.2-0.1,0.4-0.2,0.5-0.2C7,5,9.3,4.2,11.6,3.5s4.8-1,7.3-1c2.1,0,4.1,0.2,6,0.7c1.9,0.5,3.6,1.3,5.1,2.3c1.5,1.1,2.7,2.4,3.6,4.1
		s1.3,3.6,1.3,5.9c0,1.8-0.4,3.5-1.3,4.9c-0.9,1.5-2.1,2.7-3.6,3.7c2.6,1.1,4.7,2.6,6.2,4.5c1.5,2,2.2,4.3,2.2,7.3
		C38.5,37.5,38.2,38.9,37.7,40.2z M19.7,24.1c-0.2,0-0.7,0-1.3,0.1c-0.6,0-1.2,0.1-1.9,0.2c-0.6,0.1-1.2,0.2-1.7,0.4
		s-0.8,0.4-0.9,0.6c0.4,0.3,0.8,0.5,1.3,0.5c0.5,0,1,0,1.5,0c0.5,0,1.1,0,1.7-0.1c0.6-0.1,1.2-0.2,1.8-0.3c0.6-0.1,1.2-0.3,1.8-0.5
		s1.1-0.4,1.6-0.6C22.4,24.2,21.1,24.1,19.7,24.1z"/>
	<path fill="#FFFFFF" d="M61.8,42c0,0.1-0.1,0.3-0.2,0.5c-0.4,1.3-0.9,2.5-1.4,3.6c-0.6,1.1-1.3,2-2.1,2.7c-0.9,0.8-1.8,1.3-2.9,1.7
		c-1.1,0.4-2.4,0.6-3.8,0.6c-1.6,0-3.1-0.2-4.4-0.8c-1.3-0.5-2.4-1.2-3.4-2.2c-0.9-1-1.6-2.1-2.1-3.4c-0.5-1.3-0.7-2.7-0.7-4.3
		c0-1.1,0.1-2.3,0.5-3.5c0.3-1.2,0.8-2.3,1.5-3.4c0.7-1,1.5-1.9,2.5-2.5c1-0.7,2.1-1,3.4-1c1,0,1.8,0.1,2.6,0.4
		c0.8,0.3,1.5,0.7,2.1,1.3c0.6,0.5,1,1.2,1.3,2c0.3,0.8,0.5,1.6,0.5,2.6c0,1-0.1,2-0.5,3c-0.3,1-0.8,1.9-1.3,2.7
		c-0.5,0.9-1.2,1.6-2,2.3c-0.7,0.7-1.5,1.3-2.3,1.8c-0.3,0.2-0.7,0.4-1.1,0.7c-0.4,0.2-0.8,0.4-1.1,0.5c0.8,0.5,1.6,0.9,2.5,1.1
		c0.9,0.2,1.7,0.3,2.7,0.3c2.1,0,3.7-0.5,5.1-1.5c1.3-1,2.4-2.5,3.1-4.4c0-0.1,0.1-0.2,0.1-0.4c0-0.1,0.1-0.3,0.1-0.5
		c0-0.2,0.1-0.3,0.2-0.5c0.1-0.1,0.1-0.2,0.2-0.3c0-0.1,0.2-0.1,0.4-0.3c0.2-0.1,0.4-0.2,0.5-0.2c0.1,0,0.2,0,0.3,0.1
		c0,0.1,0,0.3,0,0.4c0,0.1,0,0.2,0,0.4C61.9,41.6,61.9,41.8,61.8,42z M51.6,33.6c-0.7-0.7-1.7-1-3.1-1c-0.9,0-1.6,0.3-2.2,0.9
		c-0.6,0.5-1.1,1.2-1.6,2.1c-0.4,0.8-0.7,1.7-0.9,2.6c-0.2,0.9-0.3,1.7-0.3,2.4c0,2.2,0.7,4.1,2.1,5.8c0.1-0.1,0.2-0.2,0.3-0.2
		c0.1-0.1,0.2-0.1,0.4-0.2c0.8-0.5,1.6-1.1,2.3-1.7c0.8-0.6,1.4-1.3,2.1-2.1c0.6-0.8,1.1-1.6,1.5-2.5c0.4-0.9,0.5-1.8,0.5-2.8
		C52.7,35.3,52.3,34.3,51.6,33.6z"/>
	<path fill="#FFFFFF" d="M81,42c0,0.1-0.1,0.3-0.2,0.5c-0.4,1.3-0.9,2.5-1.4,3.6c-0.6,1.1-1.3,2-2.1,2.7c-0.9,0.8-1.8,1.3-2.9,1.7
		C73.2,50.9,72,51,70.5,51c-1.6,0-3.1-0.2-4.4-0.8c-1.3-0.5-2.4-1.2-3.4-2.2c-0.9-1-1.6-2.1-2.1-3.4c-0.5-1.3-0.7-2.7-0.7-4.3
		c0-1.1,0.1-2.3,0.5-3.5c0.3-1.2,0.8-2.3,1.5-3.4c0.7-1,1.5-1.9,2.5-2.5c1-0.7,2.1-1,3.4-1c1,0,1.8,0.1,2.6,0.4
		c0.8,0.3,1.5,0.7,2.1,1.3c0.6,0.5,1,1.2,1.3,2c0.3,0.8,0.5,1.6,0.5,2.6c0,1-0.1,2-0.5,3c-0.3,1-0.8,1.9-1.3,2.7
		c-0.5,0.9-1.2,1.6-2,2.3c-0.7,0.7-1.5,1.3-2.3,1.8c-0.3,0.2-0.7,0.4-1.1,0.7c-0.4,0.2-0.8,0.4-1.1,0.5c0.8,0.5,1.6,0.9,2.5,1.1
		c0.9,0.2,1.7,0.3,2.7,0.3c2.1,0,3.7-0.5,5.1-1.5c1.3-1,2.4-2.5,3.1-4.4c0-0.1,0.1-0.2,0.1-0.4c0-0.1,0.1-0.3,0.1-0.5
		c0-0.2,0.1-0.3,0.2-0.5c0.1-0.1,0.1-0.2,0.2-0.3c0-0.1,0.2-0.1,0.4-0.3c0.2-0.1,0.4-0.2,0.5-0.2c0.1,0,0.2,0,0.3,0.1
		c0,0.1,0,0.3,0,0.4c0,0.1,0,0.2,0,0.4C81,41.6,81,41.8,81,42z M70.8,33.6c-0.7-0.7-1.7-1-3.1-1c-0.9,0-1.6,0.3-2.2,0.9
		c-0.6,0.5-1.1,1.2-1.6,2.1c-0.4,0.8-0.7,1.7-0.9,2.6c-0.2,0.9-0.3,1.7-0.3,2.4c0,2.2,0.7,4.1,2.1,5.8c0.1-0.1,0.2-0.2,0.3-0.2
		c0.1-0.1,0.2-0.1,0.4-0.2c0.8-0.5,1.6-1.1,2.3-1.7c0.8-0.6,1.4-1.3,2.1-2.1c0.6-0.8,1.1-1.6,1.5-2.5c0.4-0.9,0.5-1.8,0.5-2.8
		C71.8,35.3,71.4,34.3,70.8,33.6z"/>
	<path fill="#FFFFFF" d="M114.9,40.2c-0.4,1.3-1.1,2.5-1.8,3.5c-0.7,1-1.7,2-2.7,2.7c-1.1,0.8-2.2,1.5-3.5,2c-1.2,0.5-2.5,1-3.9,1.2
		c-1.4,0.3-2.7,0.4-4.1,0.4c-2.7,0-5.4-0.4-8-1.2c-2.6-0.8-5.1-2-7.4-3.3c0,0.2,0,0.5,0,0.9c0,0.4,0,0.8-0.1,1.2
		c0,0.4-0.1,0.8-0.1,1.1c0,0.3-0.1,0.5-0.2,0.7c0,0.1-0.2,0.1-0.4,0.2s-0.4,0.1-0.5,0.1c-0.1,0-0.2-0.1-0.3-0.3
		c-0.1-0.2-0.1-0.5-0.2-0.8c0-0.3-0.1-0.5-0.1-0.9c0-0.3,0-0.5,0-0.6c-0.2-2.1-0.3-4.2-0.5-6.3c-0.1-2.1-0.2-4.2-0.2-6.3
		c0-3,0.1-6.1,0.5-9.1c0.3-3,0.8-6.1,1.4-9.1c0-0.2,0.1-0.5,0.2-1c0.1-0.5,0.2-1,0.3-1.5c0.1-0.5,0.2-1,0.3-1.4
		c0.1-0.4,0.2-0.7,0.2-0.8c0.1-0.1,0.2-0.2,0.4-0.2c0.2,0,0.3-0.1,0.5-0.1c0.3,0,0.4,0.1,0.5,0.2c0.1,0.1,0.1,0.3,0.1,0.5
		c0,0.9-0.1,1.8-0.2,2.7c-0.1,0.9-0.2,1.8-0.3,2.7c-0.2,1.8-0.3,3.6-0.4,5.3c-0.1,1.7-0.2,3.5-0.3,5.3c-0.1,2.6-0.2,5.3-0.3,7.9
		s-0.1,5.3-0.2,7.9c0.7,0.2,1.4,0.5,2.1,0.9c0.7,0.3,1.4,0.5,2.1,0.8c1.7,0.5,3.4,1,5.1,1.3c1.7,0.3,3.5,0.5,5.2,0.5
		c1.8,0,3.6-0.2,5.3-0.7c1.7-0.5,3.3-1.2,4.7-2.2c1.4-1,2.5-2.2,3.4-3.7s1.3-3.2,1.3-5.2c0-1.2-0.2-2.4-0.6-3.5
		c-0.4-1.1-1-2-1.6-2.9c-0.7-0.9-1.5-1.6-2.5-2.2c-1-0.6-2-1.1-3.1-1.5c-0.8,0.4-1.6,0.7-2.4,1c-0.9,0.3-1.7,0.5-2.6,0.8
		c-0.9,0.2-1.8,0.4-2.7,0.5c-0.9,0.1-1.7,0.2-2.6,0.2c-0.4,0-0.9,0-1.5-0.1c-0.6,0-1.2-0.2-1.7-0.4s-1-0.4-1.4-0.8
		c-0.4-0.3-0.6-0.8-0.6-1.3c0-0.7,0.3-1.2,0.9-1.6c0.6-0.4,1.3-0.7,2.1-0.9c0.8-0.2,1.6-0.4,2.5-0.4c0.8,0,1.5-0.1,2-0.1
		c1.2,0,2.3,0.1,3.5,0.2c1.2,0.1,2.3,0.3,3.5,0.5c0.7-0.4,1.4-0.9,2.1-1.3c0.7-0.5,1.2-1.1,1.7-1.7c0.5-0.6,0.9-1.3,1.2-2.1
		c0.3-0.8,0.4-1.6,0.4-2.4c0-1.9-0.4-3.5-1.2-4.8c-0.8-1.3-1.8-2.4-3.1-3.2s-2.7-1.4-4.3-1.8c-1.6-0.4-3.3-0.5-4.9-0.5
		c-1.6,0-3.3,0.1-5,0.4c-1.7,0.3-3.3,0.6-4.9,1.1c-0.7,0.2-1.5,0.5-2.3,0.8c-0.8,0.3-1.6,0.4-2.4,0.4c-0.1,0-0.2,0-0.3,0
		c-0.1,0-0.2,0-0.3-0.1l-0.2-0.2c0,0-0.1,0-0.1-0.1c0-0.1,0.1-0.2,0.2-0.4c0.2-0.1,0.4-0.2,0.6-0.4c0.2-0.1,0.4-0.2,0.7-0.4
		c0.2-0.1,0.4-0.2,0.5-0.2c2.2-1,4.6-1.9,6.9-2.6c2.3-0.7,4.8-1,7.3-1c2.1,0,4.1,0.2,6,0.7c1.9,0.5,3.6,1.3,5.1,2.3
		c1.5,1.1,2.7,2.4,3.6,4.1c0.9,1.6,1.3,3.6,1.3,5.9c0,1.8-0.4,3.5-1.3,4.9s-2.1,2.7-3.6,3.7c2.6,1.1,4.7,2.6,6.2,4.5
		c1.5,2,2.2,4.3,2.2,7.3C115.6,37.5,115.4,38.9,114.9,40.2z M96.9,24.1c-0.2,0-0.7,0-1.3,0.1c-0.6,0-1.2,0.1-1.9,0.2
		c-0.6,0.1-1.2,0.2-1.7,0.4c-0.5,0.1-0.8,0.4-0.9,0.6c0.4,0.3,0.8,0.5,1.3,0.5c0.5,0,1,0,1.5,0c0.5,0,1.1,0,1.7-0.1
		c0.6-0.1,1.2-0.2,1.8-0.3c0.6-0.1,1.2-0.3,1.8-0.5c0.6-0.2,1.1-0.4,1.6-0.6C99.6,24.2,98.3,24.1,96.9,24.1z"/>
	<path fill="#FFFFFF" d="M137.7,48.9c-0.2,0-0.3,0-0.5,0c-0.6,0-1.1-0.1-1.6-0.3c-0.5-0.2-1-0.5-1.4-0.9c-0.4-0.4-0.8-0.7-1.2-1.2
		c-0.3-0.4-0.6-0.9-0.9-1.4c-0.4,0.9-0.8,1.7-1.3,2.6c-0.5,0.9-1.2,1.7-1.9,2.4c-0.7,0.7-1.5,1.3-2.4,1.7c-0.9,0.4-1.9,0.7-2.9,0.7
		c-1.2,0-2.3-0.2-3.1-0.7c-0.9-0.5-1.5-1.1-2.1-2c-0.5-0.8-0.9-1.7-1.2-2.7c-0.2-1-0.4-2.1-0.4-3.1c0-0.9,0.1-1.8,0.3-2.8
		c0.2-1,0.5-2.1,0.9-3.1c0.4-1,0.9-2.1,1.4-3c0.5-1,1.2-1.8,2-2.6c0.7-0.8,1.5-1.4,2.4-1.8c0.9-0.4,1.9-0.7,2.9-0.7
		c0.4,0,0.9,0.1,1.4,0.2c0.6,0.1,1.1,0.3,1.7,0.6s1,0.5,1.4,0.9c0.4,0.4,0.6,0.8,0.6,1.2c0,0.1,0,0.3-0.1,0.5
		c-0.1,0.2-0.2,0.3-0.4,0.3c-0.1,0-0.3-0.1-0.5-0.3c-0.2-0.2-0.5-0.4-0.8-0.7c-0.3-0.2-0.7-0.5-1.2-0.7c-0.5-0.2-1-0.3-1.7-0.3
		c-0.8,0-1.5,0.2-2.2,0.6c-0.7,0.4-1.3,1-1.9,1.6c-0.5,0.7-1.1,1.4-1.5,2.3c-0.4,0.9-0.8,1.7-1.1,2.6c-0.3,0.9-0.5,1.7-0.7,2.6
		c-0.1,0.9-0.2,1.6-0.2,2.3s0,1.4,0.1,2.1c0.1,0.7,0.3,1.4,0.6,2c0.3,0.6,0.7,1.1,1.2,1.4c0.5,0.4,1.2,0.5,2.1,0.5
		c0.8,0,1.5-0.2,2.2-0.7c0.7-0.4,1.3-1,1.8-1.6c0.5-0.6,1-1.4,1.4-2.1s0.7-1.5,1-2.1c0.2-0.6,0.4-1.1,0.6-1.6c0.2-0.4,0.2-1,0.2-1.6
		v-1.5c0-0.2,0-0.5,0.1-0.8c0-0.2,0.1-0.5,0.2-0.7c0.1-0.2,0.3-0.4,0.5-0.5c0.2-0.1,0.4-0.2,0.7-0.2c0.3,0,0.5,0.1,0.7,0.2
		c0.2,0.1,0.3,0.3,0.4,0.5c0.1,0.2,0.1,0.4,0.2,0.7c0,0.3,0,0.5,0,0.7c0,0.4,0,0.9-0.1,1.3c0,0.4-0.1,0.9-0.2,1.4
		c0,0.1-0.1,0.2-0.1,0.4c0,0.1-0.1,0.3-0.1,0.4c0,0.8,0.1,1.5,0.3,2.1c0.2,0.6,0.5,1.1,0.9,1.5c0.4,0.4,0.8,0.9,1.4,1.2
		s1.1,0.7,1.8,1l0.5,0.9C138,48.8,137.9,48.9,137.7,48.9z"/>
	<path fill="#FFFFFF" d="M160.1,38c-0.2,0.2-0.5,0.3-0.8,0.5c-0.3,0.1-0.6,0.2-0.9,0.4c-0.3,0.1-0.5,0.1-0.8,0.2
		c0,0.3,0.1,0.5,0.1,0.9c0,0.3,0,0.5,0,0.9c0,1.5-0.2,2.9-0.7,4.2c-0.4,1.3-1.1,2.5-1.9,3.5c-0.9,1-1.9,1.7-3.1,2.3
		c-1.2,0.5-2.6,0.9-4.2,0.9c-1.6,0-3-0.4-4.2-1.1c-1.2-0.8-2.2-1.7-3.1-3c-0.9-1.2-1.6-2.6-2.2-4.2c-0.5-1.6-1-3.2-1.3-4.8
		s-0.5-3.2-0.7-4.8c-0.1-1.6-0.2-3-0.2-4.2c0-0.8,0-1.7,0.1-2.8c0.1-1.1,0.2-2.3,0.3-3.5c0.1-1.3,0.3-2.6,0.6-4s0.5-2.7,0.9-4
		c0.4-1.3,0.8-2.6,1.3-3.7c0.5-1.2,1.1-2.2,1.8-3.1c0.7-0.9,1.4-1.6,2.3-2.1c0.9-0.5,1.8-0.8,2.8-0.8c1.2,0,2.1,0.2,2.8,0.8
		c0.7,0.6,1.3,1.2,1.7,2.1c0.4,0.9,0.7,1.7,0.9,2.7c0.1,1,0.2,2,0.2,2.9c0,2-0.2,4-0.7,6.2c-0.4,2.2-1.1,4.3-1.9,6.5
		c-0.8,2.1-1.7,4.2-2.8,6.2c-1.1,2-2.2,3.7-3.5,5.2c-0.4,0.5-0.8,1-1.3,1.5c-0.5,0.5-1,0.8-1.6,0.9c0.2,1,0.6,2,1,3
		c0.4,1,0.9,2,1.6,2.8c0.6,0.9,1.4,1.5,2.3,2.1c0.9,0.5,1.9,0.8,3.1,0.8c1.2,0,2.3-0.2,3.2-0.7c0.9-0.5,1.6-1.1,2.2-1.9
		c0.6-0.8,1-1.7,1.3-2.7c0.3-1,0.4-2.1,0.4-3.2v-1c-0.7,0-1.4,0-2.2-0.1s-1.6-0.3-2.3-0.6c-0.7-0.3-1.3-0.7-1.7-1.3
		s-0.7-1.2-0.7-2.1c0-1,0.3-1.7,1-2.3c0.6-0.5,1.4-0.9,2.3-0.9c0.7,0,1.4,0.2,2.1,0.5c0.6,0.3,1.2,0.8,1.6,1.3
		c0.5,0.5,0.9,1.1,1.2,1.7c0.3,0.7,0.6,1.3,0.8,1.9c0.3-0.1,0.7-0.1,1-0.2c0.4-0.1,0.7-0.2,1-0.2c0,0,0.1,0,0.2,0c0.1,0,0.3,0,0.4,0
		c0.1,0,0.3,0,0.4,0.1c0.1,0,0.2,0.1,0.2,0.2C160.5,37.6,160.3,37.8,160.1,38z M149.6,12.4c-0.1-0.7-0.2-1.4-0.4-2.1
		c-0.2-0.7-0.6-1.2-1-1.6c-0.4-0.4-1.1-0.7-1.9-0.7c-1,0-1.8,0.4-2.5,1.2c-0.7,0.8-1.4,1.9-1.9,3.1s-1,2.7-1.4,4.3
		c-0.4,1.6-0.7,3.1-0.9,4.7c-0.2,1.5-0.4,2.9-0.5,4.2c-0.1,1.3-0.1,2.3-0.1,3c0,1.8,0.1,3.7,0.4,5.4c0.2,1.8,0.5,3.6,0.7,5.4
		c0.2-0.2,0.3-0.3,0.4-0.5c0.1-0.1,0.2-0.3,0.4-0.4c1.3-1.6,2.5-3.4,3.6-5.3c1.1-2,2.1-4,2.8-6.1c0.8-2.1,1.4-4.2,1.9-6.4
		c0.4-2.2,0.7-4.2,0.7-6.3C149.7,13.8,149.7,13.1,149.6,12.4z M154.5,36.6c-0.2-0.4-0.5-0.8-0.7-1.2c-0.3-0.4-0.6-0.7-1-0.9
		c-0.4-0.2-0.8-0.4-1.2-0.4c-0.3,0-0.6,0.1-0.9,0.2c-0.3,0.1-0.4,0.4-0.4,0.8c0,0.5,0.2,0.9,0.5,1.3c0.4,0.3,0.8,0.6,1.3,0.8
		c0.5,0.2,1,0.3,1.6,0.4c0.5,0.1,1,0.1,1.4,0.1C154.9,37.3,154.8,37,154.5,36.6z"/>
	<path fill="#FFFFFF" d="M177.1,56c-0.2,1.7-0.5,3.5-0.9,5.4c-0.4,1.9-0.9,3.8-1.5,5.7c-0.6,1.9-1.4,3.6-2.3,5.1
		c-0.9,1.5-2,2.7-3.1,3.7c-1.2,1-2.5,1.4-4,1.4c-0.9,0-1.7-0.1-2.4-0.4c-0.7-0.3-1.3-0.7-1.8-1.2s-0.9-1.1-1.1-1.9
		c-0.2-0.7-0.4-1.5-0.4-2.4c0-1.5,0.3-3.1,0.9-4.8c0.6-1.7,1.4-3.3,2.3-4.9c1-1.6,2-3.1,3.1-4.6c1.1-1.4,2.3-2.6,3.3-3.7
		c0.4-0.4,0.9-0.8,1.4-1.2c0.5-0.4,1-0.5,1.6-0.5c0,0,0.1,0,0.1,0c0,0,0.1,0,0.2,0.1c0,0.1,0.1,0.2,0.1,0.3c0,0.1,0,0.2-0.1,0.3
		c-0.1,0.1-0.2,0.3-0.3,0.4c-0.1,0.1-0.2,0.2-0.4,0.4c-0.1,0.1-0.2,0.2-0.3,0.3c-0.7,0.7-1.4,1.4-2.1,2.2c-0.7,0.9-1.5,1.7-2.2,2.7
		c-0.7,1-1.4,2-2.1,3s-1.2,2.1-1.7,3.1c-0.5,1.1-0.9,2.1-1.2,3.1c-0.3,1.1-0.4,2.1-0.4,3c0,1.2,0.2,2.2,0.8,2.9
		c0.5,0.7,1.4,1.1,2.7,1.1c0.9,0,1.6-0.2,2.3-0.8c0.7-0.5,1.4-1.2,2-2.1c0.6-0.9,1.1-2,1.6-3.1c0.5-1.2,0.9-2.4,1.3-3.7
		c0.4-1.3,0.7-2.6,1-4c0.3-1.3,0.5-2.6,0.7-3.8c0.2-1.2,0.3-2.3,0.4-3.3c0.1-1,0.1-1.8,0.1-2.5c0-1.4,0-2.7-0.1-4.1
		s-0.3-2.7-0.5-4.1c-0.3,1-0.7,1.8-1.2,2.7c-0.5,0.8-1.1,1.5-1.8,2.2c-0.7,0.6-1.5,1.1-2.3,1.5c-0.9,0.4-1.8,0.5-2.8,0.5
		c-1.2,0-2.2-0.2-3-0.6s-1.5-1-2-1.7c-0.5-0.7-0.9-1.5-1.1-2.5c-0.2-0.9-0.3-1.9-0.3-3c0-0.2,0-0.6,0-1.1c0-0.5,0.1-1.1,0.1-1.7
		s0.2-1.3,0.3-2c0.1-0.7,0.3-1.3,0.5-1.8s0.4-1,0.6-1.4c0.2-0.4,0.5-0.5,0.9-0.5c0.2,0,0.4,0.1,0.4,0.4c0,0.6-0.1,1.1-0.2,1.7
		c-0.2,0.5-0.3,1.1-0.4,1.7c-0.2,1.4-0.4,2.7-0.4,4c0,0.7,0,1.5,0.1,2.2c0.1,0.7,0.3,1.4,0.6,2c0.3,0.6,0.7,1.1,1.3,1.5
		c0.5,0.4,1.3,0.6,2.2,0.6c1,0,1.8-0.2,2.6-0.6c0.7-0.4,1.4-0.9,2-1.5c0.5-0.6,1-1.4,1.3-2.2c0.3-0.8,0.6-1.7,0.9-2.6
		c0.2-0.9,0.3-1.8,0.4-2.7c0.1-0.9,0.1-1.7,0.1-2.5c0-0.4,0.1-0.7,0.4-1c0.2-0.3,0.6-0.4,1-0.4s0.6,0.1,0.9,0.3
		c0.2,0.2,0.4,0.4,0.5,0.7s0.2,0.7,0.3,1c0.1,0.4,0.1,0.7,0.2,1c0.5,2.3,1,4.7,1.2,7.1c0.2,2.4,0.4,4.8,0.4,7.3
		C177.4,52.9,177.3,54.3,177.1,56z"/>
</g>
</svg>
