<?xml version="1.0" encoding="utf-8"?>
<!-- Generator: Adobe Illustrator 17.1.0, SVG Export Plug-In . SVG Version: 6.00 Build 0)  -->
<!DOCTYPE svg PUBLIC "-//W3C//DTD SVG 1.0//EN" "http://www.w3.org/TR/2001/REC-SVG-20010904/DTD/svg10.dtd">
<svg version="1.0" id="Camada_1" xmlns="http://www.w3.org/2000/svg" xmlns:xlink="http://www.w3.org/1999/xlink" x="0px" y="0px"
	 viewBox="0 0 500 400" enable-background="new 0 0 500 400" xml:space="preserve">
<g>
	
		<path opacity="0.5" fill="#61A5AE" stroke="#FFFFFF" stroke-width="4.6731" stroke-miterlimit="10" enable-background="new    " d="
		M189.1,59.6c-6.7-5.9-14-10.9-21.2-15c-30.8-16.8-64.2-16.3-81.9,3.7C64.4,73,75.3,118.1,110.6,149c30.1,26.4,68.1,33.8,92.1,20
		c4-2.4,7.7-5.2,10.9-8.9C235.2,135.6,224.2,90.5,189.1,59.6z"/>
	
		<path opacity="0.5" fill="#61A5AE" stroke="#FFFFFF" stroke-width="4.6731" stroke-miterlimit="10" enable-background="new    " d="
		M238.9,4.8c-25.4-7.6-53.8,9.6-70.9,39.8c-4.2,7.4-7.7,15.6-10.4,24.4c-13.4,44.9,1.3,88.9,32.8,98.3c4,1.2,8.1,1.7,12.3,1.7
		c28.2,0,57.3-26.9,69.1-66.1C284.9,58.2,270.3,14.2,238.9,4.8z"/>
</g>
<g>
	<path id="SVGID_1_" fill="#FFDE17" d="M96.8,304.3c-17.5-68.4,39.3-142,126.9-164.6c87.6-22.4,172.8,15,190.3,83.4
		c17.5,68.4-39.3,142-126.9,164.6C199.5,410.2,114.3,372.9,96.8,304.3z"/>
</g>
<path fill="#DDA518" d="M277,133.3c-17.3-0.2-35.2,1.9-53.3,6.5c-0.3,0.1-0.7,0.2-1,0.3c-1.4,39.7-0.3,166.2,62.9,248
	c0.5-0.1,1-0.2,1.5-0.4c19.1-4.9,36.8-12.3,52.5-21.5C321.7,330.8,275.3,229.2,277,133.3z"/>
<path fill="#DDA518" d="M242.3,394.2c-19.5-28.9-70.6-117.2-60-238.9c-21.2,10.7-39.5,24.6-53.8,40.5c-6.1,39.5-9.9,121,43.4,186.9
	C193,390.9,217,395,242.3,394.2z"/>
<path fill="#231F20" d="M357.5,213.7c0-6.2-5-11.3-11.3-11.3s-11.3,5-11.3,11.3s5,11.3,11.3,11.3C352.3,225,357.5,219.9,357.5,213.7
	z"/>
<path fill="#231F20" d="M393,213.7c0-6.2-5-11.3-11.3-11.3s-11.3,5-11.3,11.3s5,11.3,11.3,11.3S393,219.9,393,213.7z"/>
<g>
	<circle fill="#2EBEE7" stroke="#147682" stroke-width="2.8039" stroke-miterlimit="10" cx="373.5" cy="288.9" r="43.7"/>
	<circle fill="#6FCCE0" stroke="#147682" stroke-width="2.8039" stroke-miterlimit="10" cx="376.9" cy="285.5" r="40.3"/>
	<path fill="#2EBEE7" stroke="#147682" stroke-width="2.8039" stroke-miterlimit="10" d="M375.5,305c-1,0.2-2.2,0-3.2-0.3
		c-0.3,1.2-0.5,2.4-0.5,3.5c0,9.7,9.7,17.7,22,17.7c12.1,0,22-7.9,22-17.7s-9.7-17.7-22-17.7c-3.2,0-6.2,0.5-8.9,1.5
		C384.4,299.1,380.6,304.7,375.5,305z"/>
	<path fill="#6FCCE0" stroke="#147682" stroke-width="2.8039" stroke-miterlimit="10" d="M396.7,259.4c-15,0-27.2,12.1-27.2,27.2
		c0,15,12.1,27.2,27.2,27.2c7.4,0,14.1-3,19-7.7c3-3,5.4-6.7,6.7-10.9c0.8-2.7,1.3-5.5,1.3-8.4C423.8,271.7,411.7,259.4,396.7,259.4
		z"/>
	<path fill="#2EBEE7" stroke="#147682" stroke-width="2.8039" stroke-miterlimit="10" d="M422.4,295.1c-1.3,4.2-3.7,7.9-6.7,10.9
		c0.2,0.7,0.2,1.5,0.2,2.2c0,9.7-10.8,20.7-23,20.7s-21-10.9-21-20.7c0-1.2,0.2-2.4,0.5-3.5c1.5-5.5,6.2-10.3,12.6-12.4
		c3.7-8.1-2.7-16.3-6.2-16.3c-5.9,2-11.1,5.5-15.1,10.1c-5.4,6.2-8.7,14.3-8.7,23.2c0,19.5,15.8,35.3,35.3,35.3
		c19.5,0,35.3-15.8,35.3-35.3C425.5,304.2,424.4,299.5,422.4,295.1z"/>
</g>
</svg>
