<?xml version="1.0" encoding="utf-8"?>
<!-- Generator: Adobe Illustrator 17.1.0, SVG Export Plug-In . SVG Version: 6.00 Build 0)  -->
<!DOCTYPE svg PUBLIC "-//W3C//DTD SVG 1.0//EN" "http://www.w3.org/TR/2001/REC-SVG-20010904/DTD/svg10.dtd">
<svg version="1.0" id="Camada_1" xmlns="http://www.w3.org/2000/svg" xmlns:xlink="http://www.w3.org/1999/xlink" x="0px" y="0px"
	 viewBox="0 0 250 250" enable-background="new 0 0 250 250" xml:space="preserve">
<g>
	
		<path opacity="0.5" fill="#62A6AE" stroke="#FFFFFF" stroke-width="5.2181" stroke-miterlimit="10" enable-background="new    " d="
		M87.8,39.8c-4.1-3.6-8.6-6.7-13-9.2c-18.9-10.3-39.4-10-50.3,2.3C11.2,48,17.9,75.7,39.6,94.7c18.5,16.2,41.8,20.8,56.6,12.3
		c2.5-1.5,4.7-3.2,6.7-5.5C116.1,86.4,109.3,58.7,87.8,39.8z"/>
	
		<path opacity="0.5" fill="#62A6AE" stroke="#FFFFFF" stroke-width="5.2181" stroke-miterlimit="10" enable-background="new    " d="
		M118.3,6.1c-15.6-4.7-33,5.9-43.5,24.4c-2.6,4.5-4.7,9.6-6.4,15c-8.2,27.6,0.8,54.6,20.1,60.4c2.5,0.7,5,1,7.6,1
		c17.3,0,35.2-16.5,42.4-40.6C146.6,38.9,137.6,11.9,118.3,6.1z"/>
</g>
<g>
	<path id="SVGID_1_" fill="#FFDE11" d="M31.1,190C20.3,148,55.2,102.8,109,88.9c53.8-13.8,106.1,9.2,116.9,51.2
		s-24.1,87.2-77.9,101.1C94.2,255.1,41.8,232.2,31.1,190z"/>
</g>
<path fill="#DEA727" d="M141.7,85c-10.6-0.1-21.6,1.2-32.7,4c-0.2,0.1-0.4,0.1-0.6,0.2c-0.9,24.4-0.2,102.1,38.6,152.3
	c0.3-0.1,0.6-0.1,0.9-0.2c11.7-3,22.6-7.6,32.2-13.2C169.2,206.3,140.7,143.9,141.7,85z"/>
<path fill="#DEA727" d="M120.4,245.2c-12-17.7-43.4-72-36.8-146.7c-13,6.6-24.3,15.1-33,24.9c-3.7,24.3-6.1,74.3,26.7,114.8
	C90.2,243.2,104.9,245.7,120.4,245.2z"/>
<path fill="#231F20" d="M191.2,134.4c0-3.8-3.1-6.9-6.9-6.9c-3.9,0-6.9,3.1-6.9,6.9c0,3.9,3.1,6.9,6.9,6.9
	C188,141.3,191.2,138.2,191.2,134.4z"/>
<path fill="#231F20" d="M213,134.4c0-3.8-3.1-6.9-6.9-6.9s-6.9,3.1-6.9,6.9c0,3.9,3.1,6.9,6.9,6.9S213,138.2,213,134.4z"/>
<g>
	<circle fill="#2FBEE7" stroke="#187783" stroke-width="3.1309" stroke-miterlimit="10" cx="201" cy="180.6" r="26.8"/>
	<circle fill="#70CDE0" stroke="#187783" stroke-width="3.1309" stroke-miterlimit="10" cx="203.1" cy="178.5" r="24.8"/>
	<path fill="#2FBEE7" stroke="#187783" stroke-width="3.1309" stroke-miterlimit="10" d="M202.2,190.5c-0.6,0.1-1.4,0-2-0.2
		c-0.2,0.7-0.3,1.5-0.3,2.1c0,6,6,10.9,13.5,10.9c7.4,0,13.5-4.9,13.5-10.9s-6-10.9-13.5-10.9c-2,0-3.8,0.3-5.5,0.9
		C207.7,186.8,205.4,190.3,202.2,190.5z"/>
	<path fill="#70CDE0" stroke="#187783" stroke-width="3.1309" stroke-miterlimit="10" d="M215.3,162.5c-9.2,0-16.7,7.4-16.7,16.7
		c0,9.2,7.4,16.7,16.7,16.7c4.5,0,8.7-1.8,11.7-4.7c1.8-1.8,3.3-4.1,4.1-6.7c0.5-1.7,0.8-3.4,0.8-5.2
		C231.9,170,224.5,162.5,215.3,162.5z"/>
	<path fill="#2FBEE7" stroke="#187783" stroke-width="3.1309" stroke-miterlimit="10" d="M231,184.4c-0.8,2.6-2.3,4.9-4.1,6.7
		c0.1,0.4,0.1,0.9,0.1,1.4c0,6-6.6,12.7-14.1,12.7c-7.5,0-12.9-6.7-12.9-12.7c0-0.7,0.1-1.5,0.3-2.1c0.9-3.4,3.8-6.3,7.7-7.6
		c2.3-5-1.7-10-3.8-10c-3.6,1.2-6.8,3.4-9.3,6.2c-3.3,3.8-5.3,8.8-5.3,14.2c0,12,9.7,21.7,21.7,21.7s21.7-9.7,21.7-21.7
		C232.9,190,232.3,187.1,231,184.4z"/>
</g>
</svg>
