<?xml version="1.0" encoding="utf-8"?>
<!-- Generator: Adobe Illustrator 17.1.0, SVG Export Plug-In . SVG Version: 6.00 Build 0)  -->
<!DOCTYPE svg PUBLIC "-//W3C//DTD SVG 1.0//EN" "http://www.w3.org/TR/2001/REC-SVG-20010904/DTD/svg10.dtd">
<svg version="1.0" id="Camada_1" xmlns="http://www.w3.org/2000/svg" xmlns:xlink="http://www.w3.org/1999/xlink" x="0px" y="0px"
	 viewBox="0 0 145 250" enable-background="new 0 0 145 250" xml:space="preserve">
<g id="Shape_26">
	<g>
		<path fill-rule="evenodd" clip-rule="evenodd" fill="#FFFFFF" d="M34.6,160.8c9.4,9.8,15.2,23,26.7,30.7
			C53.4,181.2,43.7,165,34.6,160.8z M52.4,168.1c3.4,0.2,5.8,8.8,8.9,4.4C57.9,172.3,55.6,163.7,52.4,168.1z M138.6,141.8
			c-7.7,0-15.5,3.3-22.3,0C107.4,95.4,104.5,44.2,94,3c-9.7,2.6-31.8,4.5-49,4.4c9.1,41.7-8.5,96.7-22.3,137.3H3.4
			c2.9,7.9,0.9,20.5,1.5,30.7c25.7,21.4,45.2,49,69.8,71.6c23.1-25.5,45.9-51.3,66.8-78.9C141.4,158.5,142.7,147.5,138.6,141.8z
			 M76.2,213.4c-23.2-16.1-49.8-41.6-68.3-67.2c6.8,1,15.1-1.6,17.8,0c11.2-42.1,27-79.6,23.8-135.8C63.4,8,80.7,9,94,6
			c6.2,47,12.5,93.8,20.8,138.8c9,1.2,13.3,1.2,22.3,0C119.5,170.3,95.8,189.8,76.2,213.4z M50.9,89.2c-2-6.7,6.5-21.3,0-14.6
			C50.7,88.7,40.4,107.9,42,114C45,105.8,47.3,96.8,50.9,89.2z"/>
	</g>
</g>
</svg>
