<?xml version="1.0" encoding="utf-8"?>
<!-- Generator: Adobe Illustrator 17.1.0, SVG Export Plug-In . SVG Version: 6.00 Build 0)  -->
<!DOCTYPE svg PUBLIC "-//W3C//DTD SVG 1.0//EN" "http://www.w3.org/TR/2001/REC-SVG-20010904/DTD/svg10.dtd">
<svg version="1.0" id="Camada_1" xmlns="http://www.w3.org/2000/svg" xmlns:xlink="http://www.w3.org/1999/xlink" x="0px" y="0px"
	 viewBox="0 0 147 147" enable-background="new 0 0 147 147" xml:space="preserve">
<g id="Ellipse_6_copy_9">
	<g>
		<ellipse fill-rule="evenodd" clip-rule="evenodd" fill="#FFA5A4" cx="73.8" cy="73.5" rx="72.2" ry="72.5"/>
	</g>
</g>
<g id="Shape_23">
	<g>
		<path fill-rule="evenodd" clip-rule="evenodd" fill="#FFFFFF" d="M37.5,72.3C37.5,72.3,37.5,72.3,37.5,72.3
			C37.2,74,36.3,80.2,37.5,72.3z M106.4,91.4c0.7-1.6,3.1-5.1,1.9-6.9c-1.7-2.5-4.6-1.7-6.9-0.6c-3.3,1.5-5.4-6.2-8.7-8
			C87,72.9,82.5,76,80.2,81.3c0.3-1.8,0.5-3.8,1.4-5.4c1.1-1.8,3.4-2.1,4.8-3.6c4-4.2-0.9-8-3.2-11.2c4.6-0.2,12.6,4.2,15.8-1.2
			c4.7-8.1-6.1-9.8-10-13.2c3.4-2.6,10.7,2.2,12.8-1.3c3.5-5.8-9.8-5.7-12.3-5.5c-4.2,0.4-9.3,4.5-6.5,9.1c2.4,3.9,7.7,4.2,11,6.9
			c-4.4,1-19.6-3.9-17.2,5.5C77.8,65.1,84,67,79,70c-3.3,2-5.3,4.7-6.4,8.4c-0.1-2.9,1.3-7-0.7-9.4c-2.5-2.9-5.9,3.6-6.9,5.1
			c-1.2-1.7-2.5-3.3-3.7-4.9c8.5,0.4,12.3-8.8,12-16c-0.4-8.8-7.5-15.4-15.9-17.3c-8.9-2-17.7,2.6-22.1,10.4
			c-2.1,3.7-2.8,8-1.9,12.2c0.9,4.6,4.9,9.1,4.1,14c0.1-0.5,0.1-0.6,0,0c-2.3,15.4,6.1,34.1,20.4,41.1c6.7,3.3,15.3,4.6,22.5,2.1
			c9.6-3.3,10.9-11.9,14.1-20.2C99.4,97.7,104.1,96.5,106.4,91.4z M102.1,102.2c-3.5,0-6.3,2.8-6.3,6.3c0,3.5,2.8,6.3,6.3,6.3
			s6.3-2.8,6.3-6.3C108.5,105.1,105.6,102.2,102.1,102.2z M81.7,35.5c2.1,0,3.8-1.7,3.8-3.8c0-2.1-1.7-3.8-3.8-3.8
			c-2.1,0-3.8,1.7-3.8,3.8C77.9,33.9,79.6,35.5,81.7,35.5z"/>
	</g>
</g>
</svg>
