<?xml version="1.0" encoding="utf-8"?>
<!-- Generator: Adobe Illustrator 17.1.0, SVG Export Plug-In . SVG Version: 6.00 Build 0)  -->
<!DOCTYPE svg PUBLIC "-//W3C//DTD SVG 1.0//EN" "http://www.w3.org/TR/2001/REC-SVG-20010904/DTD/svg10.dtd">
<svg version="1.0" id="_x35_8_1_" xmlns="http://www.w3.org/2000/svg" xmlns:xlink="http://www.w3.org/1999/xlink" x="0px" y="0px"
	 viewBox="0 0 500 500" enable-background="new 0 0 500 500" xml:space="preserve">
<g id="_x31_8">
	<g>
		<path fill-rule="evenodd" clip-rule="evenodd" fill="#C3324D" d="M103.5,12C82.8,12,66,27.2,66,46v408.6
			c0,13.8,9.1,26.2,23.2,31.5c4.6,1.7,9.5,2.6,14.3,2.6c9.8,0,19.4-3.5,26.5-10l86-78.1l86,78.1c7.2,6.5,16.8,10,26.5,10
			c4.8,0,9.7-0.8,14.4-2.6c14-5.3,23.1-17.7,23.1-31.5v-353c0.7-10.2,4.6-32.5,25-58.7c20.1-25.8,44.5-31,44.5-31H103.5z M320,131.3
			c0,0.5-0.3,0.9-0.3,1.4v304.9l-79.2-68.2c-6.7-5.8-15.6-8.7-24.4-8.7s-17.7,2.9-24.4,8.7l-79.2,68.2V131.8c0-0.2-0.1-0.4-0.1-0.5
			V71.6c0-11,10.3-19.9,23.1-19.9h161.6c12.8,0,23.1,8.9,23.1,19.9V131.3z"/>
	</g>
</g>
</svg>
