<?xml version="1.0" encoding="utf-8"?>
<!-- Generator: Adobe Illustrator 17.1.0, SVG Export Plug-In . SVG Version: 6.00 Build 0)  -->
<!DOCTYPE svg PUBLIC "-//W3C//DTD SVG 1.0//EN" "http://www.w3.org/TR/2001/REC-SVG-20010904/DTD/svg10.dtd">
<svg version="1.0" id="_x35_8_1_" xmlns="http://www.w3.org/2000/svg" xmlns:xlink="http://www.w3.org/1999/xlink" x="0px" y="0px"
	 viewBox="0 0 28.8 28.8" enable-background="new 0 0 28.8 28.8" xml:space="preserve">
<g id="_x35_8">
	<g>
		<path fill-rule="evenodd" clip-rule="evenodd" fill="#FFFFFF" d="M6.05,17.508H9.31c0.213,0,0.386-0.173,0.386-0.386v-3.008
			c0-0.213-0.173-0.386-0.386-0.386H6.05c-0.213,0-0.386,0.173-0.386,0.386v3.008C5.664,17.335,5.837,17.508,6.05,17.508z
			 M19.49,23.808h3.259c0.213,0,0.386-0.173,0.386-0.386v-3.008c0-0.213-0.173-0.386-0.386-0.386H19.49
			c-0.213,0-0.386,0.173-0.386,0.386v3.008C19.104,23.635,19.277,23.808,19.49,23.808z M12.77,23.808h3.26
			c0.213,0,0.386-0.173,0.386-0.386v-3.008c0-0.213-0.173-0.386-0.386-0.386h-3.26c-0.213,0-0.386,0.173-0.386,0.386v3.008
			C12.384,23.635,12.557,23.808,12.77,23.808z M12.77,17.508h3.26c0.213,0,0.386-0.173,0.386-0.386v-3.008
			c0-0.213-0.173-0.386-0.386-0.386h-3.26c-0.213,0-0.386,0.173-0.386,0.386v3.008C12.384,17.335,12.557,17.508,12.77,17.508z
			 M21.12,6.56C20.501,6.56,20,7.061,20,7.68c0,0.619,0.501,1.12,1.12,1.12c0.619,0,1.12-0.501,1.12-1.12
			C22.24,7.061,21.739,6.56,21.12,6.56z M26.72,3.51V2.08c0-0.619-0.501-1.12-1.12-1.12c-0.619,0-1.12,0.501-1.12,1.12V3.2h-2.24
			V2.08c0-0.619-0.502-1.12-1.12-1.12C20.501,0.96,20,1.461,20,2.08V3.2h-2.24V2.08c0-0.619-0.502-1.12-1.12-1.12
			c-0.618,0-1.12,0.501-1.12,1.12V3.2h-2.24V2.08c0-0.619-0.502-1.12-1.12-1.12c-0.618,0-1.12,0.501-1.12,1.12V3.2H8.8V2.08
			c0-0.619-0.502-1.12-1.12-1.12c-0.619,0-1.12,0.501-1.12,1.12V3.2H4.32V2.08c0-0.619-0.502-1.12-1.12-1.12
			c-0.619,0-1.12,0.501-1.12,1.12V3.51C1.413,3.898,0.96,4.613,0.96,5.44V25.6c0,1.237,1.003,2.24,2.24,2.24h22.4
			c1.237,0,2.24-1.003,2.24-2.24V5.44C27.84,4.613,27.387,3.898,26.72,3.51z M25.6,24.48c0,0.618-0.501,1.12-1.12,1.12H4.32
			c-0.619,0-1.12-0.502-1.12-1.12V12.16h22.4V24.48z M25.6,9.92H3.2V6.56c0-0.619,0.501-1.12,1.12-1.12h20.16
			c0.618,0,1.12,0.501,1.12,1.12V9.92z M7.68,6.56c-0.619,0-1.12,0.501-1.12,1.12c0,0.619,0.501,1.12,1.12,1.12
			c0.619,0,1.12-0.501,1.12-1.12C8.8,7.061,8.298,6.56,7.68,6.56z M19.49,17.508h3.259c0.213,0,0.386-0.173,0.386-0.386v-3.008
			c0-0.213-0.173-0.386-0.386-0.386H19.49c-0.213,0-0.386,0.173-0.386,0.386v3.008C19.104,17.335,19.277,17.508,19.49,17.508z
			 M6.05,23.808H9.31c0.213,0,0.386-0.173,0.386-0.386v-3.008c0-0.213-0.173-0.386-0.386-0.386H6.05
			c-0.213,0-0.386,0.173-0.386,0.386v3.008C5.664,23.635,5.837,23.808,6.05,23.808z"/>
	</g>
</g>
</svg>
