<?xml version="1.0" encoding="utf-8"?>
<!-- Generator: Adobe Illustrator 17.1.0, SVG Export Plug-In . SVG Version: 6.00 Build 0)  -->
<!DOCTYPE svg PUBLIC "-//W3C//DTD SVG 1.0//EN" "http://www.w3.org/TR/2001/REC-SVG-20010904/DTD/svg10.dtd">
<svg version="1.0" id="_x35_8_1_" xmlns="http://www.w3.org/2000/svg" xmlns:xlink="http://www.w3.org/1999/xlink" x="0px" y="0px"
	 viewBox="0 0 500 500" enable-background="new 0 0 500 500" xml:space="preserve">
<g id="camera">
	<g>
		<path fill="#FFFFFF" d="M419.2,122.9h-83l-12.7-41.6c-2.1-6.8-8.4-11.5-15.5-11.5H181.2c-7.3,0-13.7,4.9-15.6,11.9l-11.4,41.2H80
			c-46.6,0-66.5,20-66.5,66.9v156.1c0,46.9,19.9,66.9,66.5,66.9h51.2c8.9,0,16.2-7.3,16.2-16.3s-7.3-16.3-16.2-16.3H79.9
			c-29,0-34-5.1-34-34.3V189.8c0-29.2,5.1-34.3,34-34.3H147c1.2,5.8,5.5,10.7,11.5,12.4c8.6,2.4,17.5-2.7,20-11.3l15-54.2H296
			l16.7,54.6c2.1,7,8.6,11.5,15.5,11.5c1.6,0,3.2-0.2,4.8-0.7c5.8-1.8,9.9-6.6,11.1-12.3h75.1c29,0,34.1,5.1,34.1,34.3v156.1
			c0,29.2-5.1,34.3-34.1,34.3h-51.5c-8.9,0-16.2,7.3-16.2,16.3s7.3,16.3,16.2,16.3h51.5c46.6,0,66.5-20,66.5-66.9V189.8
			C485.7,142.9,465.8,122.9,419.2,122.9z M249.6,187.2c-67.3,0-122.1,55.1-122.1,122.9S182.3,433,249.6,433s122.1-55.1,122.1-122.9
			S316.9,187.2,249.6,187.2z M249.6,400.4c-49.5,0-89.7-40.5-89.7-90.3s40.2-90.3,89.7-90.3s89.7,40.5,89.7,90.3
			S299.1,400.4,249.6,400.4z M415.4,215.9c8.9,0,16.2-7.3,16.2-16.3V195c0-9-7.3-16.3-16.2-16.3h-47.7c-8.9,0-16.2,7.3-16.2,16.3
			v4.6c0,9,7.3,16.3,16.2,16.3L415.4,215.9L415.4,215.9z M277.8,341.3c-16.8,16.9-44.2,16.9-61,0s-16.8-44.5,0-61.4
			c6.3-6.4,6.3-16.7,0-23.1c-6.4-6.4-16.6-6.3-22.9,0c-29.4,29.7-29.4,77.9,0,107.6c14.7,14.8,34.1,22.2,53.4,22.2
			s38.7-7.4,53.4-22.2c6.3-6.4,6.3-16.7,0-23.1S284.1,334.9,277.8,341.3z"/>
	</g>
</g>
</svg>
