<?xml version="1.0" encoding="utf-8"?>
<!-- Generator: Adobe Illustrator 17.1.0, SVG Export Plug-In . SVG Version: 6.00 Build 0)  -->
<!DOCTYPE svg PUBLIC "-//W3C//DTD SVG 1.0//EN" "http://www.w3.org/TR/2001/REC-SVG-20010904/DTD/svg10.dtd">
<svg version="1.0" id="Camada_1" xmlns="http://www.w3.org/2000/svg" xmlns:xlink="http://www.w3.org/1999/xlink" x="0px" y="0px"
	 viewBox="0 0 330 225" enable-background="new 0 0 330 225" xml:space="preserve">
<g>
	<path fill="#33C6F4" d="M20.5,230l-1.3-3.1C11.8,208.3,8,188.7,8,168.6C8,82.1,78.4,11.7,165,11.7s157,70.4,157,156.9
		c0,20.1-3.8,39.7-11.2,58.3l-1.3,3.1H20.5z"/>
	<path fill="#FFFFFF" d="M165,16.7c84,0,152,68,152,151.9c0,19.9-3.9,38.9-10.9,56.4H23.9c-7-17.5-10.9-36.5-10.9-56.4
		C13,84.7,81,16.7,165,16.7 M165,6.7c-43.3,0-84,16.8-114.6,47.4C19.9,84.7,3,125.3,3,168.6c0,20.7,3.9,41,11.6,60.1l2.5,6.3h6.8
		h282.2h6.8l2.5-6.3c7.7-19.2,11.6-39.4,11.6-60.1c0-43.2-16.8-83.9-47.4-114.5C249,23.5,208.3,6.7,165,6.7L165,6.7z"/>
</g>
<g id="camera_1_">
	<g>
		<path fill="#FFFFFF" d="M230.4,88.4h-32l-4.9-16c-0.8-2.6-3.3-4.5-6-4.5h-48.9c-2.8,0-5.3,1.9-6,4.6l-4.4,15.9H99.6
			c-18,0-25.7,7.7-25.7,25.8v60.2c0,18.1,7.6,25.8,25.6,25.8h19.7c3.5,0,6.2-2.8,6.2-6.3s-2.8-6.3-6.2-6.3H99.5
			c-11.2,0-13.1-1.9-13.1-13.2v-60.2c0-11.3,1.9-13.2,13.1-13.2h25.9c0.5,2.2,2.1,4.2,4.5,4.8c3.4,0.9,6.7-1,7.7-4.4l5.8-20.9H183
			l6.4,21c0.8,2.7,3.4,4.5,6,4.5c0.6,0,1.2-0.1,1.8-0.3c2.2-0.7,3.9-2.5,4.3-4.8h29c11.2,0,13.1,1.9,13.1,13.2v60.2
			c0,11.3-1.9,13.2-13.1,13.2h-19.8c-3.5,0-6.2,2.8-6.2,6.3c0,3.5,2.8,6.3,6.2,6.3h19.8c18,0,25.6-7.7,25.6-25.8v-60.1
			C256.1,96.1,248.4,88.4,230.4,88.4z M165,113.2c-25.9,0-47.1,21.2-47.1,47.4s21.1,47.4,47.1,47.4s47.1-21.2,47.1-47.4
			S190.9,113.2,165,113.2z M165,195.4c-19.1,0-34.6-15.7-34.6-34.9s15.6-34.9,34.6-34.9s34.6,15.7,34.6,34.9S184.1,195.4,165,195.4z
			 M228.9,124.2c3.5,0,6.2-2.8,6.2-6.3v-1.7c0-3.5-2.8-6.3-6.2-6.3h-18.4c-3.5,0-6.2,2.8-6.2,6.3v1.7c0,3.5,2.8,6.3,6.2,6.3
			L228.9,124.2L228.9,124.2z M175.9,172.6c-6.5,6.5-17.1,6.5-23.5,0c-6.4-6.5-6.5-17.2,0-23.7c2.4-2.4,2.4-6.4,0-8.9
			c-2.4-2.4-6.4-2.4-8.8,0c-11.4,11.5-11.4,30.1,0,41.5c5.7,5.7,13.1,8.5,20.6,8.5c7.4,0,14.9-2.8,20.6-8.5c2.4-2.4,2.4-6.4,0-8.9
			C182.4,170,178.3,170.2,175.9,172.6z"/>
	</g>
</g>
</svg>
