<?xml version="1.0" encoding="utf-8"?>
<!-- Generator: Adobe Illustrator 17.1.0, SVG Export Plug-In . SVG Version: 6.00 Build 0)  -->
<!DOCTYPE svg PUBLIC "-//W3C//DTD SVG 1.0//EN" "http://www.w3.org/TR/2001/REC-SVG-20010904/DTD/svg10.dtd">
<svg version="1.0" id="Camada_1" xmlns="http://www.w3.org/2000/svg" xmlns:xlink="http://www.w3.org/1999/xlink" x="0px" y="0px"
	 viewBox="0 0 250 250" enable-background="new 0 0 250 250" xml:space="preserve">
<g id="_x32_7">
	<g>
		<path fill-rule="evenodd" clip-rule="evenodd" fill="#FFFFFF" d="M181.1,124.5l54.4-54.4c11.5-11.5,11.5-30.2,0-41.7l-13.9-13.9
			c-11.5-11.5-30.2-11.5-41.7,0l-54.4,54.4L71.1,14.4c-11.5-11.5-30.2-11.5-41.7,0L15.4,28.3c-11.5,11.5-11.5,30.2,0,41.7l54.4,54.4
			l-54.4,54.4c-11.5,11.5-11.5,30.2,0,41.7l13.9,13.9c11.5,11.5,30.2,11.5,41.7,0l54.4-54.4l54.4,54.4c11.5,11.5,30.2,11.5,41.7,0
			l13.9-13.9c11.5-11.5,11.5-30.2,0-41.7L181.1,124.5z M214.7,213.7c-7.7,7.7-20.1,7.7-27.8,0l-61.4-61.4l-61.4,61.4
			c-7.7,7.7-20.1,7.7-27.8,0c-7.7-7.7-7.7-20.1,0-27.8l61.4-61.4L36.3,63.1c-7.7-7.7-7.7-20.1,0-27.8c7.7-7.7,20.1-7.7,27.8,0
			l61.4,61.4l61.4-61.4c7.7-7.7,20.1-7.7,27.8,0c7.7,7.7,7.7,20.1,0,27.8l-61.4,61.4l61.4,61.4C222.4,193.6,222.4,206,214.7,213.7z"
			/>
	</g>
</g>
</svg>
