<?xml version="1.0" encoding="utf-8"?>
<!-- Generator: Adobe Illustrator 17.1.0, SVG Export Plug-In . SVG Version: 6.00 Build 0)  -->
<!DOCTYPE svg PUBLIC "-//W3C//DTD SVG 1.0//EN" "http://www.w3.org/TR/2001/REC-SVG-20010904/DTD/svg10.dtd">
<svg version="1.0" id="Camada_1" xmlns="http://www.w3.org/2000/svg" xmlns:xlink="http://www.w3.org/1999/xlink" x="0px" y="0px"
	 viewBox="0 0 150 150" enable-background="new 0 0 150 150" xml:space="preserve">
<g id="_x32_7">
	<g>
		<path fill="#C2C8C8" d="M108.7,74.7l32.6-32.6c6.9-6.9,6.9-18.1,0-25L133,8.7c-6.9-6.9-18.1-6.9-25,0L75.3,41.3L42.7,8.6
			c-6.9-6.9-18.1-6.9-25,0L9.2,17c-6.9,6.9-6.9,18.1,0,25l32.6,32.6L9.2,107.3c-6.9,6.9-6.9,18.1,0,25l8.3,8.3
			c6.9,6.9,18.1,6.9,25,0L75.2,108l32.6,32.6c6.9,6.9,18.1,6.9,25,0l8.3-8.3c6.9-6.9,6.9-18.1,0-25L108.7,74.7z M128.8,128.2
			c-4.6,4.6-12.1,4.6-16.7,0L75.3,91.4l-36.8,36.8c-4.6,4.6-12.1,4.6-16.7,0c-4.6-4.6-4.6-12.1,0-16.7l36.8-36.8L21.8,37.9
			c-4.6-4.6-4.6-12.1,0-16.7s12.1-4.6,16.7,0L75.3,58l36.8-36.8c4.6-4.6,12.1-4.6,16.7,0c4.6,4.6,4.6,12.1,0,16.7L92,74.7l36.8,36.8
			C133.4,116.2,133.4,123.6,128.8,128.2z"/>
	</g>
</g>
</svg>
