<?xml version="1.0" encoding="utf-8"?>
<!-- Generator: Adobe Illustrator 17.1.0, SVG Export Plug-In . SVG Version: 6.00 Build 0)  -->
<!DOCTYPE svg PUBLIC "-//W3C//DTD SVG 1.0//EN" "http://www.w3.org/TR/2001/REC-SVG-20010904/DTD/svg10.dtd">
<svg version="1.0" id="Camada_1" xmlns="http://www.w3.org/2000/svg" xmlns:xlink="http://www.w3.org/1999/xlink" x="0px" y="0px"
	 viewBox="0 0 147 147" enable-background="new 0 0 147 147" xml:space="preserve">
<g id="Ellipse_6_copy_8">
	<g>
		<ellipse fill-rule="evenodd" clip-rule="evenodd" fill="#64DAC2" cx="73.8" cy="73.5" rx="72.2" ry="72.5"/>
	</g>
</g>
<g id="Shape_22">
	<g>
		<path fill-rule="evenodd" clip-rule="evenodd" fill="#FFFFFF" d="M70.9,68.3h-2.6c-0.7,0-1.3,0.6-1.3,1.3c0,0.7,0.6,1.3,1.3,1.3
			h2.6c0.7,0,1.3-0.6,1.3-1.3C72.2,68.9,71.6,68.3,70.9,68.3z M63,68.3h-2.6c-0.7,0-1.3,0.6-1.3,1.3c0,0.7,0.6,1.3,1.3,1.3H63
			c0.7,0,1.3-0.6,1.3-1.3C64.4,68.9,63.8,68.3,63,68.3z M86.6,68.3H84c-0.7,0-1.3,0.6-1.3,1.3c0,0.7,0.6,1.3,1.3,1.3h2.6
			c0.7,0,1.3-0.6,1.3-1.3C87.9,68.9,87.3,68.3,86.6,68.3z M78.8,68.3h-2.6c-0.7,0-1.3,0.6-1.3,1.3c0,0.7,0.6,1.3,1.3,1.3h2.6
			c0.7,0,1.3-0.6,1.3-1.3C80.1,68.9,79.5,68.3,78.8,68.3z M118.3,100.6C118.3,100.6,118.3,100.6,118.3,100.6c-0.3-1.2-1.3-2-2.5-2
			h-6.2V80.1c0-1.4-1.2-2.6-2.6-2.6H95.8V59.1c0-1.4-1.2-2.6-2.6-2.6h-7.9V42.9c0-1.4-1.2-2.6-2.6-2.6h-7.8v-5.6c0-0.1,0-0.1,0-0.2
			c0-0.1,0-0.2-0.1-0.3c-0.1-0.1-0.1-0.2-0.2-0.3c0,0,0-0.1-0.1-0.1c-0.2-0.2-0.3-0.3-0.4-0.4c0.1-0.1,0.2-0.1,0.3-0.2
			c0.5-0.4,1.4-1,1.4-2c0.1-1.1-0.7-2-1.4-2.6c-0.5-0.5-1.4-0.5-1.9,0.1c-0.5,0.5-0.5,1.4,0.1,1.9c0.2,0.2,0.3,0.3,0.4,0.5
			C73,30.9,72.9,31,72.8,31c-0.5,0.4-1.4,1-1.5,2c-0.1,0.9,0.4,1.6,0.8,2.2v5.1h-7.8c-1.5,0-2.6,1.2-2.6,2.6v13.6h-7.9
			c-1.5,0-2.6,1.2-2.6,2.6v18.5H40.1c-1.5,0-2.6,1.2-2.6,2.6v18.5h-6.2c-1.2,0-2.2,0.9-2.5,2c0,0,0,0,0,0c-0.2,0.3-0.2,0.7,0,1.1
			c0.2,0.8,0.7,1.6,1.4,1.9c1.9,2,4.1,3,6.1,3.9c1,0.4,1.9,0.8,2.7,1.4c0.2,0.1,0.4,0.2,0.7,0.2h69.9c0.2,0,0.5-0.1,0.7-0.2
			c0.5-0.3,0.9-0.5,1.3-0.8c2-1.2,3.6-2.1,5.6-4.7c0.6-0.4,1-1,1.2-1.7C118.5,101.3,118.5,100.9,118.3,100.6z M67,45.5h13v11H67
			V45.5z M56.5,61.7h7.9h18.3h7.9v15.8h-34V61.7z M42.7,82.8h11.2h39.3h11.2v5.7c-0.9,0.3-1.6,0.7-2.3,1.1c-1,0.6-1.8,1.1-3.5,1.1
			c-1.7,0-2.5-0.5-3.5-1.1C94,88.8,92.7,88,90.2,88c-2.5,0-3.8,0.8-4.9,1.5c-1,0.6-1.8,1.1-3.5,1.1c-1.7,0-2.5-0.5-3.5-1.1
			C77.2,88.8,76,88,73.5,88c-2.5,0-3.8,0.8-4.9,1.5c-1,0.6-1.8,1.1-3.5,1.1c-1.7,0-2.5-0.5-3.5-1.1c-1.1-0.7-2.4-1.5-4.9-1.5
			c-2.5,0-3.8,0.8-4.9,1.5c-1,0.6-1.8,1.1-3.5,1.1c-1.7,0-2.5-0.5-3.5-1.1c-0.6-0.4-1.3-0.8-2.3-1.1V82.8z M104.3,91.3v7.3H42.7
			v-7.3c0.3,0.2,0.6,0.3,0.9,0.5c1.1,0.7,2.4,1.5,4.9,1.5c2.5,0,3.8-0.8,4.9-1.5c1-0.6,1.8-1.1,3.5-1.1c1.7,0,2.5,0.5,3.5,1.1
			c1.1,0.7,2.4,1.5,4.9,1.5c2.5,0,3.8-0.8,4.9-1.5c1-0.6,1.8-1.1,3.5-1.1c1.7,0,2.5,0.5,3.5,1.1c1.1,0.7,2.4,1.5,4.9,1.5
			c2.5,0,3.8-0.8,4.9-1.5c1-0.6,1.8-1.1,3.5-1.1c1.7,0,2.5,0.5,3.5,1.1c1.1,0.7,2.4,1.5,4.9,1.5c2.5,0,3.8-0.8,4.9-1.5
			C103.8,91.6,104.1,91.4,104.3,91.3z M110.3,105.8c-0.3,0.2-0.7,0.4-1,0.6H40c-0.9-0.5-1.8-0.9-2.7-1.3c-0.9-0.4-1.7-0.8-2.6-1.2
			h5.3H107h6.2C112.3,104.6,111.4,105.1,110.3,105.8z"/>
	</g>
</g>
</svg>
