<?xml version="1.0" encoding="utf-8"?>
<!-- Generator: Adobe Illustrator 17.1.0, SVG Export Plug-In . SVG Version: 6.00 Build 0)  -->
<!DOCTYPE svg PUBLIC "-//W3C//DTD SVG 1.0//EN" "http://www.w3.org/TR/2001/REC-SVG-20010904/DTD/svg10.dtd">
<svg version="1.0" id="_x35_8_1_" xmlns="http://www.w3.org/2000/svg" xmlns:xlink="http://www.w3.org/1999/xlink" x="0px" y="0px"
	 viewBox="0 0 28.8 28.8" enable-background="new 0 0 28.8 28.8" xml:space="preserve">
<g id="_x31_33">
	<g>
		<path fill-rule="evenodd" clip-rule="evenodd" fill="#00AEAD" d="M21.664,19.987h-4.47c-0.309,0-0.559,0.25-0.559,0.559
			c0,0.309,0.25,0.559,0.559,0.559h4.47c0.308,0,0.559-0.25,0.559-0.559C22.222,20.237,21.972,19.987,21.664,19.987z M21.664,17.752
			h-4.47c-0.309,0-0.559,0.25-0.559,0.559s0.25,0.559,0.559,0.559h4.47c0.308,0,0.559-0.25,0.559-0.559S21.972,17.752,21.664,17.752
			z M13.629,6.885c-0.385-0.385-1.009-0.385-1.394,0L9.257,9.946L8.61,9.3c-0.373-0.373-0.977-0.373-1.35,0L6.81,9.75
			c-0.373,0.373-0.373,0.977,0,1.35l1.823,1.823c0.047,0.047,0.097,0.088,0.15,0.122c0.383,0.256,0.905,0.216,1.244-0.122
			l4.067-4.18c0.385-0.385,0.385-1.009,0-1.394L13.629,6.885z M13.629,16.942c-0.385-0.385-1.009-0.385-1.394,0l-2.979,3.061
			L8.61,19.357c-0.373-0.373-0.977-0.373-1.35,0l-0.45,0.45c-0.373,0.373-0.373,0.977,0,1.35l1.823,1.823
			c0.047,0.047,0.097,0.087,0.15,0.122c0.383,0.256,0.905,0.216,1.244-0.122l4.067-4.18c0.385-0.385,0.385-1.009,0-1.393
			L13.629,16.942z M19.429,22.222h-2.235c-0.309,0-0.559,0.25-0.559,0.559s0.25,0.559,0.559,0.559h2.235
			c0.309,0,0.559-0.25,0.559-0.559S19.737,22.222,19.429,22.222z M24.457,0.99H4.343c-1.234,0-2.235,1.001-2.235,2.235v22.349
			c0,1.234,1.001,2.235,2.235,2.235h20.114c1.234,0,2.235-1.001,2.235-2.235V3.225C26.692,1.991,25.692,0.99,24.457,0.99z
			 M24.457,24.457c0,0.617-0.5,1.117-1.117,1.117H5.46c-0.617,0-1.118-0.5-1.118-1.117V4.343c0-0.617,0.5-1.117,1.118-1.117H23.34
			c0.617,0,1.117,0.5,1.117,1.117V24.457z M21.664,7.695h-4.47c-0.309,0-0.559,0.25-0.559,0.559c0,0.309,0.25,0.559,0.559,0.559
			h4.47c0.308,0,0.559-0.25,0.559-0.559C22.222,7.945,21.972,7.695,21.664,7.695z M21.664,9.93h-4.47
			c-0.309,0-0.559,0.25-0.559,0.559s0.25,0.559,0.559,0.559h4.47c0.308,0,0.559-0.25,0.559-0.559S21.972,9.93,21.664,9.93z
			 M17.194,13.283h1.117c0.309,0,0.559-0.25,0.559-0.559c0-0.309-0.25-0.559-0.559-0.559h-1.117c-0.309,0-0.559,0.25-0.559,0.559
			C16.635,13.032,16.885,13.283,17.194,13.283z"/>
	</g>
</g>
</svg>
