<?xml version="1.0" encoding="utf-8"?>
<!-- Generator: Adobe Illustrator 17.1.0, SVG Export Plug-In . SVG Version: 6.00 Build 0)  -->
<!DOCTYPE svg PUBLIC "-//W3C//DTD SVG 1.0//EN" "http://www.w3.org/TR/2001/REC-SVG-20010904/DTD/svg10.dtd">
<svg version="1.0" id="_x35_8_1_" xmlns="http://www.w3.org/2000/svg" xmlns:xlink="http://www.w3.org/1999/xlink" x="0px" y="0px"
	 viewBox="0 0 250 250" enable-background="new 0 0 250 250" xml:space="preserve">
<g id="_x35_9">
	<g>
		<path fill-rule="evenodd" clip-rule="evenodd" fill="#00AEAD" d="M60.9,115.7c-2.7,0-4.9,2.2-4.9,4.9v9.9c0,2.7,2.2,4.9,4.9,4.9
			c2.7,0,4.9-2.2,4.9-4.9v-9.9C65.8,117.9,63.6,115.7,60.9,115.7z M125,26.9c-54.5,0-98.7,44.2-98.7,98.7c0,39.3,23,73.1,56.3,89
			c-1.1,1.5-2.1,3.1-2.8,4.7l-3.8,9.9c-3.1,8.2,1,14.8,9.1,14.8c8.2,0,17.3-6.6,20.5-14.8l2.5-6.5c5.5,0.9,11.1,1.5,16.8,1.5
			c5.6,0,11.1-0.6,16.5-1.5l2.5,6.4c3.1,8.2,12.3,14.8,20.5,14.8c8.2,0,12.3-6.6,9.1-14.8l-3.8-9.9c-0.6-1.6-1.6-3.1-2.7-4.6
			c33.4-15.8,56.5-49.7,56.5-89.1C223.7,71.1,179.5,26.9,125,26.9z M125,204.6c-43.6,0-79-35.4-79-79c0-43.6,35.4-79,79-79
			c43.6,0,79,35.4,79,79C204,169.2,168.6,204.6,125,204.6z M29.3,72.8C45,44.4,73.1,23.8,106.2,18C97.8,11.4,87.3,7.2,75.7,7.2
			c-7.6,0-14.7,1.9-21.2,4.9C52.9,9.1,49.7,7,46,7c-5.5,0-10,4.5-10,10c0,2.7,1.1,5.2,2.9,7c-7.7,8.7-12.6,20-12.6,32.6
			C26.4,62.3,27.5,67.7,29.3,72.8z M220.8,72.9c1.8-5.1,3-10.6,3-16.3c0-12.6-4.9-24.1-12.7-32.8c1.7-1.8,2.8-4.2,2.8-6.8
			c0-5.5-4.5-10-10-10c-3.7,0-6.8,2.1-8.5,5c-6.4-3-13.4-4.8-21-4.8c-11.6,0-22.1,4.2-30.5,10.8C177.1,23.8,205.1,44.5,220.8,72.9z
			 M120.1,66.4h9.9c2.7,0,4.9-2.2,4.9-4.9c0-2.7-2.2-4.9-4.9-4.9h-9.9c-2.7,0-4.9,2.2-4.9,4.9C115.2,64.2,117.4,66.4,120.1,66.4z
			 M189.2,135.5c2.7,0,4.9-2.2,4.9-4.9v-9.9c0-2.7-2.2-4.9-4.9-4.9c-2.7,0-4.9,2.2-4.9,4.9v9.9C184.2,133.3,186.4,135.5,189.2,135.5
			z M130,184.8h-9.9c-2.7,0-4.9,2.2-4.9,4.9c0,2.7,2.2,4.9,4.9,4.9h9.9c2.7,0,4.9-2.2,4.9-4.9C134.9,187,132.7,184.8,130,184.8z
			 M164.5,115.7h-33.8l-26.7-46.3c-2.7-4.7-8.8-6.3-13.5-3.6c-4.7,2.7-6.3,8.8-3.6,13.5l29.6,51.3c0.3,0.5,0.7,0.7,1,1.1
			c0.3,0.4,0.7,0.8,1.1,1.2c0.6,0.5,1.2,0.9,1.8,1.2c0.5,0.3,0.9,0.5,1.4,0.7c0.7,0.3,1.4,0.4,2.2,0.4c0.4,0,0.7,0.2,1.1,0.2h39.5
			c5.4,0,9.9-4.4,9.9-9.9C174.4,120.2,170,115.7,164.5,115.7z"/>
	</g>
</g>
</svg>
