<?xml version="1.0" encoding="utf-8"?>
<!-- Generator: Adobe Illustrator 17.1.0, SVG Export Plug-In . SVG Version: 6.00 Build 0)  -->
<!DOCTYPE svg PUBLIC "-//W3C//DTD SVG 1.0//EN" "http://www.w3.org/TR/2001/REC-SVG-20010904/DTD/svg10.dtd">
<svg version="1.0" id="Camada_1" xmlns="http://www.w3.org/2000/svg" xmlns:xlink="http://www.w3.org/1999/xlink" x="0px" y="0px"
	 viewBox="0 0 150 150" enable-background="new 0 0 150 150" xml:space="preserve">
<g>
	<g>
		<g>
			<path fill="#FFFFFF" d="M119.4,67.7H94.7c-2.2,0-4.1,1.8-4.1,4.1v57.5c0,2.2,1.8,4.1,4.1,4.1h24.7c2.2,0,4.1-1.8,4.1-4.1V71.8
				C123.5,69.5,121.7,67.7,119.4,67.7z M104.3,73.8c0-0.4,0.3-0.7,0.7-0.7h4.2c0.4,0,0.7,0.3,0.7,0.7v0.1c0,0.4-0.3,0.7-0.7,0.7H105
				C104.7,74.5,104.3,74.2,104.3,73.8L104.3,73.8L104.3,73.8z M102.3,73.2c0.4,0,0.7,0.3,0.7,0.7c0,0.4-0.3,0.7-0.7,0.7
				s-0.7-0.3-0.7-0.7C101.6,73.5,101.9,73.2,102.3,73.2z M107.1,130.7c-1.5,0-2.8-1.2-2.8-2.8c0-1.5,1.2-2.8,2.8-2.8
				s2.8,1.2,2.8,2.8C109.8,129.4,108.6,130.7,107.1,130.7z M120.8,122.4H93.4V78.6h27.4V122.4z"/>
		</g>
		<g id="_x31_43_1_">
			<g>
				<path fill="#FFFFFF" d="M112.4,105c-0.5-0.5-1.4-0.5-2,0l-0.2,0.2c-2,2-5.3,2-7.4,0c-0.7-0.7-1.1-1.4-1.3-2.2h2
					c0.3,0,0.5-0.2,0.6-0.4c0.1-0.3,0.1-0.5-0.2-0.8l-4.2-4.1c-0.3-0.3-0.7-0.3-1,0l-4.1,4.1c-0.2,0.2-0.3,0.5-0.2,0.8
					c0,0.1,0.1,0.2,0.2,0.2c0.1,0.1,0.3,0.2,0.5,0.2h2.2c0.3,1.9,1.1,3.7,2.6,5.1c3.6,3.6,9.4,3.6,13,0.1l0.2-0.2
					c0.5-0.5,0.5-1.4,0-2L112.4,105z M119.5,99.2c0-0.1-0.1-0.2-0.2-0.2c-0.1-0.1-0.3-0.2-0.5-0.2h-2.1c-0.2-2.1-1.1-4.1-2.6-5.6
					c-3.6-3.6-9.4-3.6-13-0.1l-0.2,0.2c-0.5,0.5-0.5,1.4,0,2l0.9,0.9c0.5,0.5,1.4,0.5,2,0L104,96c2-2,5.3-2,7.4,0
					c0.8,0.8,1.2,1.8,1.4,2.8h-2.2c-0.3,0-0.5,0.2-0.6,0.4s-0.1,0.5,0.2,0.8l4.2,4.2c0.3,0.3,0.7,0.3,1,0l4.1-4.1
					C119.5,99.7,119.6,99.5,119.5,99.2z"/>
			</g>
		</g>
	</g>
	<g>
		<g>
			<path fill="#FFFFFF" d="M79.1,86.2H61.4c-1.6,0-2.9,1.3-2.9,2.9v41.3c0,1.6,1.3,2.9,2.9,2.9h17.7c1.6,0,2.9-1.3,2.9-2.9V89.1
				C82.1,87.5,80.7,86.2,79.1,86.2z M68.3,90.6c0-0.3,0.2-0.5,0.5-0.5h3c0.3,0,0.5,0.2,0.5,0.5l0,0c0,0.3-0.2,0.5-0.5,0.5h-3
				C68.5,91.1,68.3,90.9,68.3,90.6L68.3,90.6L68.3,90.6z M66.8,90.1c0.3,0,0.5,0.2,0.5,0.5s-0.2,0.5-0.5,0.5s-0.5-0.2-0.5-0.5
				S66.6,90.1,66.8,90.1z M70.3,131.4c-1.1,0-2-0.9-2-2s0.9-2,2-2s2,0.9,2,2C72.2,130.5,71.3,131.4,70.3,131.4z M80.1,125.5H60.4
				V94.1h19.7C80.1,94.1,80.1,125.5,80.1,125.5z"/>
		</g>
		<g id="_x31_43_3_">
			<g>
				<path fill="#FFFFFF" d="M74.1,113c-0.4-0.4-1-0.4-1.4,0l-0.1,0.1c-1.4,1.4-3.8,1.4-5.3,0c-0.5-0.5-0.8-1-0.9-1.6h1.4
					c0.2,0,0.4-0.1,0.5-0.3s0-0.4-0.1-0.5l-3-3c-0.2-0.2-0.5-0.2-0.7,0l-3,3c-0.1,0.1-0.2,0.4-0.1,0.5c0,0.1,0.1,0.1,0.1,0.2
					c0.1,0.1,0.2,0.1,0.4,0.1h1.6c0.2,1.3,0.8,2.6,1.8,3.7c2.6,2.6,6.8,2.6,9.4,0.1l0.1-0.1c0.4-0.4,0.4-1,0-1.4L74.1,113z
					 M79.2,108.8c0-0.1-0.1-0.1-0.1-0.2c-0.1-0.1-0.2-0.1-0.4-0.1h-1.5c-0.1-1.5-0.8-2.9-1.9-4.1c-2.6-2.6-6.8-2.6-9.4-0.1l-0.1,0.1
					c-0.4,0.4-0.4,1,0,1.4l0.6,0.6c0.4,0.4,1,0.4,1.4,0l0.1-0.1c1.4-1.4,3.8-1.4,5.3,0c0.6,0.6,0.9,1.3,1,2h-1.5
					c-0.2,0-0.4,0.1-0.5,0.3s0,0.4,0.1,0.5l3,3c0.2,0.2,0.5,0.2,0.7,0l3-3C79.2,109.2,79.2,109,79.2,108.8z"/>
			</g>
		</g>
	</g>
	<g>
		<g>
			<path fill="#FFFFFF" d="M46.6,77.7H25.7c-1.9,0-3.5,1.6-3.5,3.5V130c0,1.9,1.6,3.5,3.5,3.5h20.9c1.9,0,3.5-1.6,3.5-3.5V81.1
				C50.1,79.2,48.5,77.7,46.6,77.7z M33.9,82.9c0-0.3,0.2-0.6,0.6-0.6H38c0.3,0,0.6,0.2,0.6,0.6l0,0c0,0.3-0.2,0.6-0.6,0.6h-3.5
				C34.1,83.5,33.9,83.2,33.9,82.9L33.9,82.9L33.9,82.9z M32.1,82.3c0.3,0,0.6,0.3,0.6,0.6c0,0.3-0.3,0.6-0.6,0.6s-0.6-0.3-0.6-0.6
				C31.5,82.6,31.8,82.3,32.1,82.3z M36.2,131c-1.3,0-2.3-1-2.3-2.3s1-2.3,2.3-2.3s2.3,1,2.3,2.3S37.5,131,36.2,131z M47.8,124.1
				H24.6V87h23.2C47.8,87,47.8,124.1,47.8,124.1z"/>
		</g>
		<g id="_x31_43_4_">
			<g>
				<path fill="#FFFFFF" d="M40.7,109.3c-0.5-0.5-1.2-0.5-1.7,0l-0.1,0.1c-1.7,1.7-4.5,1.7-6.2,0c-0.6-0.6-0.9-1.2-1.1-1.9h1.7
					c0.2,0,0.4-0.1,0.5-0.4c0.1-0.2,0-0.5-0.1-0.6l-3.5-3.5c-0.2-0.2-0.6-0.2-0.8,0l-3.5,3.5c-0.2,0.2-0.2,0.4-0.1,0.6
					c0,0.1,0.1,0.1,0.1,0.2c0.1,0.1,0.3,0.2,0.4,0.2h1.8c0.3,1.6,1,3.1,2.2,4.3c3.1,3.1,8,3.1,11,0.1l0.2-0.2c0.5-0.5,0.5-1.2,0-1.7
					L40.7,109.3z M46.7,104.4c0-0.1-0.1-0.1-0.1-0.2c-0.1-0.1-0.3-0.2-0.4-0.2h-1.8c-0.2-1.7-0.9-3.4-2.2-4.8c-3.1-3.1-8-3.1-11-0.1
					L31,99.3c-0.5,0.5-0.5,1.2,0,1.7l0.7,0.7c0.5,0.5,1.2,0.5,1.7,0l0.1-0.1c1.7-1.7,4.5-1.7,6.2,0c0.7,0.7,1.1,1.5,1.2,2.4h-1.8
					c-0.2,0-0.4,0.1-0.5,0.4c-0.1,0.2,0,0.5,0.1,0.6l3.5,3.5c0.2,0.2,0.6,0.2,0.8,0l3.5-3.5C46.7,104.8,46.8,104.6,46.7,104.4z"/>
			</g>
		</g>
	</g>
	<g>
		<g>
			<g>
				<path fill="none" stroke="#FFFFFF" stroke-width="0.4" stroke-linecap="round" stroke-linejoin="round" d="M52.2,104
					c0,0-0.1-2.2,0-2.2c0.1,0,0,2.4,0,2.4c0.1,0,0-1.9,0-1.9c0.1,0,0.1,1.9,0.2,1.9c0.1,0-0.1-1.7,0-1.7c0,0,0,1.6,0.1,1.6
					c0,0-0.1-2.3,0-2.3c0,0,0.1,2,0.1,2c0,0,0-2.1,0-2.1c0,0,0.1,2.1,0.1,2.1c0.1,0-0.1-2,0-2c0,0,0,1.7,0,1.7c0.1,0-0.1-1.3,0-1.3
					c0,0,0,1.3,0,1.3c0.1,0,0-1.1,0-1.1c0,0,0.1,1.2,0.1,1.2c0.1,0-0.1-1.7,0-1.7c0,0,0.2,1.7,0.2,1.7c0.1,0-0.1-1.6,0-1.6
					c0,0,0,1.4,0,1.4c0.1,0-0.1-1.8,0-1.8c0,0,0.2,2,0.3,2c0.1,0-0.1-2,0-2c0,0,0.3,2.5,0.3,2.5c0.1,0-0.1-1.8,0-1.8
					c0,0,0.1,1.9,0.1,1.9c0.1,0,0-2.1,0-2.1c0,0,0,1.5,0,1.5c0.1,0-0.1-1.9,0-1.9c0,0,0,2.5,0.1,2.5c0,0-0.1-2.1,0-2.1
					c0,0,0.1,2.2,0.1,2.2c0.1,0,0-1.6,0-1.6c0,0,0.3,1.1,0.3,1.1c0.1,0,0-1.3,0-1.3c0.1,0,0.1,2,0.1,2c0.1,0,0-1.8,0-1.8
					c0,0,0.2,1.3,0.3,1.3c0,0-0.1-1.5,0-1.5c0,0,0.1,1.7,0.1,1.7c0.1,0-0.1-2,0-2c0,0,0.1,1.7,0.1,1.7c0.1,0,0-1.4,0-1.4
					c0,0,0,1.7,0,1.7c0.1,0-0.1-2.4,0-2.4c0,0,0,2,0,2c0.1,0-0.1-1.1,0-1.1c0,0,0.2,1.9,0.2,1.9c0,0-0.1-2.1,0-2.1
					c0,0,0.2,1.4,0.2,1.4c0.1,0,0-1.3,0-1.3c0,0,0.2,1.5,0.2,1.5c0.1,0,0-2,0-2c0,0,0,2.4,0,2.4c0,0-0.1-2.2,0-2.2c0,0,0.2,2,0.2,2
					c0.1,0-0.1-1.8,0-1.8c0,0,0.2,1.5,0.3,1.5c0.1,0-0.1-1.8,0-1.8c0,0,0,2.2,0.1,2.2c0.1,0-0.1-2,0-2c0,0,0,1.6,0.1,1.6
					c0.1,0-0.1-1.9,0-1.9c0,0,0.2,2,0.3,2c0,0-0.1-2,0-2c0,0,0.2,1.5,0.2,1.5c0.1,0,0-1.8,0-1.8c0,0,0,2.7,0,2.7
					c0.1,0-0.1-2.6,0-2.6c0,0,0.1,1.9,0.1,1.9c0,0-0.1-1.5,0-1.5c0,0,0.2,1.9,0.2,1.9c0,0-0.1-1.9,0-1.9c0.1,0,0.1,2.3,0.2,2.3
					c0.1,0,0-2.1,0-2.1"/>
				<path fill="none" stroke="#FFFFFF" stroke-width="0.4" stroke-linecap="round" stroke-linejoin="round" d="M84.1,104
					c0,0-0.1-2.2,0-2.2c0.1,0,0,2.4,0,2.4c0.1,0,0-1.9,0-1.9c0.1,0,0.1,1.9,0.2,1.9c0.1,0-0.1-1.7,0-1.7c0,0,0,1.6,0.1,1.6
					c0,0-0.1-2.3,0-2.3c0,0,0.1,2,0.1,2c0,0,0-2.1,0-2.1c0,0,0.1,2.1,0.1,2.1c0.1,0-0.1-2,0-2c0,0,0,1.7,0,1.7c0.1,0-0.1-1.3,0-1.3
					c0,0,0,1.3,0,1.3c0.1,0,0-1.1,0-1.1c0,0,0.1,1.2,0.1,1.2c0.1,0-0.1-1.7,0-1.7c0,0,0.2,1.7,0.2,1.7c0.1,0-0.1-1.6,0-1.6
					c0,0,0,1.4,0,1.4c0.1,0-0.1-1.8,0-1.8c0,0,0.2,2,0.3,2c0.1,0-0.1-2,0-2c0,0,0.3,2.5,0.3,2.5c0.1,0-0.1-1.8,0-1.8
					c0,0,0.1,1.9,0.1,1.9c0.1,0,0-2.1,0-2.1c0,0,0,1.5,0,1.5c0.1,0-0.1-1.9,0-1.9c0,0,0,2.5,0.1,2.5c0,0-0.1-2.1,0-2.1
					c0,0,0.1,2.2,0.1,2.2c0.1,0,0-1.6,0-1.6c0,0,0.3,1.1,0.3,1.1c0.1,0,0-1.3,0-1.3c0.1,0,0.1,2,0.1,2c0.1,0,0-1.8,0-1.8
					c0,0,0.2,1.3,0.3,1.3c0,0-0.1-1.5,0-1.5c0,0,0.1,1.7,0.1,1.7c0.1,0-0.1-2,0-2c0,0,0.1,1.7,0.1,1.7c0.1,0,0-1.4,0-1.4
					c0,0,0,1.7,0,1.7c0.1,0-0.1-2.4,0-2.4c0,0,0,2,0,2c0.1,0-0.1-1.1,0-1.1c0,0,0.2,1.9,0.2,1.9c0,0-0.1-2.1,0-2.1
					c0,0,0.2,1.4,0.2,1.4c0.1,0,0-1.3,0-1.3c0,0,0.2,1.5,0.2,1.5c0.1,0,0-2,0-2c0,0,0,2.4,0,2.4c0,0-0.1-2.2,0-2.2c0,0,0.2,2,0.2,2
					c0.1,0-0.1-1.8,0-1.8c0,0,0.2,1.5,0.3,1.5c0.1,0-0.1-1.8,0-1.8c0,0,0,2.2,0.1,2.2c0.1,0-0.1-2,0-2c0,0,0,1.6,0.1,1.6
					c0.1,0-0.1-1.9,0-1.9c0,0,0.1,2,0.2,2c0,0-0.1-2,0-2"/>
				<path fill="none" stroke="#FFFFFF" stroke-width="0.4" stroke-linecap="round" stroke-linejoin="round" d="M125.7,103.5
					c0.1,0,0-2.4,0-2.4c0,0,0.2,2.1,0.3,2.1c0.1,0-0.1-2.3,0-2.3c0,0,0.2,2.4,0.3,2.4c0,0,0-1.8,0-1.8c0,0,0,1.4,0,1.4
					c0.1,0,0-1.4,0-1.4c0.1,0,0,2.3,0.1,2.3c0.1,0-0.1-2.6,0-2.6c0,0,0.1,1.9,0.1,1.9c0.1,0,0-1.9,0-1.9c0,0,0.2,1.6,0.2,1.6
					c0.1,0-0.1-1.6,0-1.6c0,0,0,2.4,0,2.4c0.1,0-0.1-3.1,0-3.1c0.1,0,0.1,2.7,0.1,2.7c0.1,0,0-2.8,0-2.8c0.1,0,0.1,2.8,0.2,2.8
					c0.2,0,0-2.8,0-2.8c0.1,0,0.2,2.9,0.3,2.9c0.1,0-0.1-2.9,0-2.9c0,0,0.2,2.6,0.2,2.6c0.1,0-0.1-2.3,0-2.3c0,0,0.1,2,0.1,2
					c0.1,0,0-2.5,0-2.5c0,0,0,2.7,0,2.7c0,0-0.1-2.9,0-2.9c0,0,0,3.2,0,3.2c0.1,0,0-3,0-3c0.1,0-0.1,2.4,0,2.4c0,0-0.1-2.7,0-2.7
					c0.1,0,0,3.1,0,3.1c0.1,0,0-3,0-3c0,0,0.1,2.4,0.1,2.4c0.2,0-0.1-2.1,0-2.1c0,0,0.1,2.5,0.2,2.5c0,0-0.1-2.5,0-2.5
					c0,0,0.2,1.7,0.3,1.7c0,0,0-2.3,0-2.3c0,0,0.1,2.5,0.1,2.5c0.1,0-0.1-2.7,0-2.7c0,0,0,2.7,0,2.7c0,0-0.1-2.7,0-2.7
					c0.1,0,0.2,2.8,0.2,2.8c0.2,0-0.1-2.2,0-2.2c0,0,0.2,2.5,0.3,2.5c0.1,0-0.2-3.4,0-3.4c0.1,0,0.1,3.4,0.2,3.4
					c0.2,0-0.1-3.5,0-3.5c0,0,0.1,3,0.1,3c0.1,0-0.1-2.9,0-2.9c0.1,0,0.2,2.6,0.2,2.6c0.1,0-0.1-2.9,0-2.9c0.1,0,0.2,2.8,0.2,2.8
					c0.1,0-0.1-2.4,0-2.4c0,0,0.1,2.1,0.1,2.1c0.1,0,0-2.4,0-2.4c0,0,0.2,2.7,0.2,2.7c0,0,0-2.5,0-2.5c0.1,0,0,2.8,0.1,2.8
					c0,0-0.1-2.8,0-2.8c0,0,0.2,1.8,0.3,1.8c0.1,0-0.1-2.6,0-2.6c0.1,0,0,3.3,0.1,3.3c0.1,0,0-3,0-3c0,0,0.2,2,0.3,2
					c0,0-0.1-2.6,0-2.6c0.1,0,0.3,2.7,0.3,2.7c0.1,0-0.1-2.1,0-2.1c0.1,0,0.1,2.6,0.1,2.6c0,0-0.1-3.2,0-3.2c0.1,0,0.2,3.2,0.2,3.2
					c0,0-0.1-3.1,0-3.1c0.1,0-0.1,2.4,0,2.4c0.2,0-0.2-2.8,0-2.8c0.1,0,0.1,2.8,0.1,2.8c0.2,0-0.1-3.2,0-3.2c0,0,0,3.5,0.1,3.5
					c0,0,0-3.2,0-3.2c0,0,0.2,2.7,0.2,2.7c0.1,0,0-2.9,0-2.9c0.1,0,0.1,2.7,0.1,2.7c0.2,0-0.1-2.9,0-2.9c0,0,0.3,3,0.3,3
					c0.2,0-0.1-2.7,0-2.7c0,0,0.2,2.8,0.3,2.8c0.2,0-0.2-3.4,0-3.4c0,0,0.2,3.1,0.3,3.1c0.1,0-0.2-3.4,0-3.4c0,0,0.1,2.9,0.1,2.9
					c0,0-0.1-2.2,0-2.2c0,0,0.2,2.9,0.3,2.9c0.1,0-0.2-4.1,0-4.1c0,0,0.3,3.9,0.3,3.9c0.1,0,0-4.1,0-4.1c0,0,0.1,3.3,0.2,3.3
					c0.1,0,0-2.7,0-2.7c0.1,0,0,2.6,0.1,2.6c0,0-0.1-2.9,0-2.9c0,0,0.1,3.3,0.1,3.3c0,0-0.2-3.3,0-3.3c0.1,0,0,2.7,0.1,2.7
					c0.2,0,0-2.6,0-2.6c0.1,0,0.2,2.6,0.2,2.6c0.1,0,0-2.7,0-2.7c0,0,0.1,3,0.1,3c0,0,0-3.2,0-3.2c0,0,0.2,2.7,0.2,2.7
					c0,0-0.1-3,0-3c0.1,0,0.2,3.3,0.2,3.3c0.1,0-0.1-4.1,0-4.1c0.1,0,0.1,3.5,0.1,3.5c0.2,0-0.1-2.9,0-2.9c0.1,0,0.1,2.7,0.1,2.7
					c0.2,0-0.1-3.7,0-3.7c0,0,0.2,3.5,0.2,3.5c0.1,0-0.1-3,0-3c0.1,0,0.2,3.5,0.3,3.5c0.1,0,0-4.5,0-4.5c0.1,0,0.1,4.2,0.1,4.2
					c0.2,0-0.1-4.1,0-4.1c0,0,0,4.3,0.1,4.3c0,0-0.1-4,0-4c0.1,0,0.2,3.5,0.3,3.5c0.2,0-0.2-4.4,0-4.4c0,0,0,3.9,0.1,3.9
					c0.2,0-0.2-3.7,0-3.7c0.1,0,0.2,3.9,0.2,3.9c0.2,0-0.2-4.8,0-4.8c0.1,0,0.1,4.2,0.2,4.2c0.2,0-0.2-4,0-4c0,0,0.2,3.8,0.3,3.8
					c0.1,0-0.2-4,0-4c0,0,0,4.2,0,4.2c0.1,0-0.1-4.5,0-4.5c0,0,0.2,4.8,0.2,4.8c0,0-0.1-4.7,0-4.7c0,0,0.2,4,0.3,4
					c0.1,0-0.1-4.9,0-4.9c0.1,0,0,4.7,0,4.7c0.1,0,0-4.5,0-4.5c0.1,0,0.2,4.2,0.2,4.2c0.2,0-0.1-4.3,0-4.3c0,0,0.1,3.9,0.2,3.9
					c0.1,0-0.1-4.1,0-4.1c0.1,0,0.2,4.7,0.3,4.7c0,0-0.2-5.4,0-5.4c0.1,0,0,4.9,0,4.9c0.1,0,0-5.2,0-5.2c0.1,0-0.1,5.3,0.1,5.3
					c0.2,0,0-5.6,0-5.6c0.1,0,0,5.5,0.1,5.5c0.1,0-0.2-5.4,0-5.4c0.1,0,0,5,0,5c0.2,0,0-4.8,0-4.8c0.1,0,0.2,4.4,0.3,4.4
					c0.2,0,0-4.8,0-4.8c0,0,0.1,5.1,0.1,5.1c0,0-0.2-6.1,0-6.1c0.2,0,0,5.7,0.1,5.7c0,0-0.2-5.7,0-5.7c0.2,0,0,5.9,0.1,5.9
					c0,0,0-6.3,0-6.3c0.2,0,0,6.4,0,6.4c0.2,0-0.1-6.1,0-6.1c0,0,0.2,5.8,0.2,5.8c0.1,0-0.1-6.5,0-6.5c0.1,0,0.1,6.5,0.1,6.5
					c0.3,0-0.3-6.2,0-6.2c0.1,0-0.1,5.9,0.1,5.9c0,0-0.1-6.2,0-6.2c0.2,0,0,6,0.1,6c0.2,0,0-6.7,0-6.7c0.1,0,0,6.1,0.2,6.1
					c0.2,0,0-6.3,0-6.3c0.1,0,0.1,6.3,0.3,6.3c0.2,0-0.3-7.2,0-7.2c0.1,0,0.2,7.6,0.2,7.6c0,0-0.2-8.3,0-8.3c0.2,0,0,7.5,0.2,7.5
					c0.1,0,0-8.6,0-8.6c0,0,0.3,7.9,0.3,7.9c0.3,0-0.2-8.4,0-8.4c0.1,0-0.1,9.2,0,9.2c0.1,0-0.2-9.9,0-9.9c0.2,0,0.1,9.1,0.3,9.1
					c0,0-0.3-11,0-11c0.2,0-0.2,10.8,0.1,10.8c0.2,0-0.4-11.9,0-11.9c0.1,0,0.1,11.6,0.3,11.6c0.4,0-0.8-27.2,0-27.2
					c0.5,0,0.1,27,0.3,27c0.2,0-0.1-26.2,0-26.2c0.3,0,0.1,26.1,0.1,26.1c0.1,0-0.7-26.3,0-26.3c0,0,0,25.3,0.1,25.3
					c0.5,0-0.7-24.3,0-24.3c0.3,0-0.3,25.1,0,25.1c0.1,0-0.5-25.4,0-25.4c0.5,0-0.5,24.8,0.1,24.8c0.8,0-0.4-24.3,0-24.3
					c0.1,0,0,23.9,0.1,23.9c0.6,0-0.8-23.7,0-23.7c0.2,0-0.3,23.5,0.1,23.5c0.4,0-0.7-24,0-24c0.2,0,0.1,23.7,0.3,23.7
					c0.2,0-0.6-23,0-23c0.1,0,0,23.1,0.3,23.1c0.3,0-0.5-23,0-23c0,0-0.4,22.4,0.1,22.4c0.4,0-0.7-21.6,0-21.6
					c0.2,0,0,21.1,0.3,21.1c0.2,0-0.3-20.9,0-20.9c0.1,0-0.5,20.9,0.1,20.9c0.1,0-0.1-20.2,0-20.2c0.2,0-0.1,19.7,0.1,19.7
					c0.4,0-0.6-19.9,0-19.9c0.5,0-0.3,19.3,0.2,19.3c0.5,0-0.6-18.7,0-18.7c0.1,0-0.1,18.6,0.2,18.6c0.1,0-0.5-18.5,0-18.5
					c0.3,0,0,18.2,0.2,18.2c0.1,0-0.3-17.1,0-17.1c0,0-0.2,16.9,0,16.9c0.6,0-0.5-17.7,0-17.7c0.3,0-0.1,16.9,0.2,16.9
					c0.5,0-0.2-15.5,0-15.5c0.3,0-0.1,15.9,0.1,15.9c0.6,0-0.5-16.3,0-16.3c0.2,0-0.4,16.1,0.1,16.1c0.4,0-0.1-16,0-16
					c0.1,0,0.2,15.2,0.3,15.2c0.2,0-0.4-14.8,0-14.8c0.2,0,0.1,14.5,0.3,14.5c0,0-0.1-13,0-13c0.2,0-0.2,12.2,0,12.2
					c0.1,0-0.4-12.8,0-12.8c0.1,0-0.2,12.7,0.1,12.7c0.1,0,0-12.2,0-12.2c0.1,0-0.2,12.2,0,12.2c0.2,0-0.4-11.3,0-11.3
					c0,0,0,10.9,0.1,10.9c0.1,0-0.3-11.6,0-11.6c0.3,0-0.2,11.9,0.1,11.9c0.2,0-0.4-10.8,0-10.8c0.2,0-0.1,9.8,0.2,9.8
					c0.1,0,0-9.1,0-9.1c0.2,0,0.2,7.3,0.2,7.3c0.1,0-0.1-6.6,0-6.6c0.1,0,0.2,5.4,0.2,5.4c0.1,0-0.1-3.4,0-3.4c0,0,0.2,1.9,0.2,1.9
					c0.1,0,0-0.1,0-0.1"/>
				<path fill="none" stroke="#FFFFFF" stroke-width="0.4" stroke-linecap="round" stroke-linejoin="round" d="M115.3,57.2
					c0.7,0-0.4-21,0-21c0.1,0-0.4,21,0.2,21c0.1,0-0.3-21,0-21c0.1,0,0.1,20.6,0.2,20.6c0.3,0-0.3-19.8,0-19.8
					c0,0,0.1,20.5,0.2,20.5c0.7,0-0.6-20.5,0-20.5c0.4,0,0.1,20.3,0.2,20.3c0.3,0-0.6-19.6,0-19.6c0.2,0-0.3,19.3,0.1,19.3
					c0.3,0-0.6-18.5,0-18.5c0.5,0-0.3,18.2,0.1,18.2c0.3,0-0.4-18.7,0-18.7c0.4,0-0.3,19.7,0.2,19.7c0.6,0-0.3-19.6,0-19.6
					c0.3,0-0.1,19,0.3,19c0.3,0-0.6-18.1,0-18.1c0.1,0-0.1,18.1,0.2,18.1c0.6,0-0.2-17.1,0-17.1c0.4,0-0.2,17.6,0,17.6
					c0.3,0-0.1-18.1,0-18.1c0,0-0.2,18.1,0.2,18.1c0.4,0-0.3-17.4,0-17.4c0.4,0-0.2,17,0.2,17c0.4,0-0.6-15.9,0-15.9
					c0.4,0-0.2,16.1,0.2,16.1c0.4,0-0.5-16.2,0-16.2c0.2,0-0.2,16.1,0,16.1c0.5,0,0-15.6,0-15.6c0.3,0-0.1,15.6,0,15.6
					c0.1,0-0.4-16,0-16c0.1,0-0.3,16.2,0.1,16.2c0.3,0-0.1-15.7,0-15.7c0.4,0,0,15.2,0.2,15.2c0.4,0-0.3-14.7,0-14.7
					c0.4,0,0,14.8,0.3,14.8c0.5,0-0.5-14.2,0-14.2c0.4,0,0.1,14.1,0.3,14.1c0.3,0,0-12.6,0-12.6c0.1,0,0.1,13.3,0.3,13.3
					c0,0-0.1-13.1,0-13.1c0.3,0-0.2,13,0.1,13c0.2,0-0.2-12.5,0-12.5c0.2,0,0.2,12.2,0.3,12.2c0.4,0,0-10.9,0-10.9
					c0.3,0-0.1,10.4,0.2,10.4c0.4,0-0.1-10,0-10c0.2,0,0,10.9,0.2,10.9c0.2,0-0.2-9.4,0-9.4c0.1,0,0,9.3,0,9.3c0.1,0-0.2-9.5,0-9.5
					c0.1,0-0.1,9,0.1,9c0.3,0-0.2-8.8,0-8.8c0.2,0,0.1,9,0.3,9c0.1,0-0.3-7.7,0-7.7c0,0-0.1,8,0,8c0.1,0-0.1-7.1,0-7.1
					c0.1,0,0,6.6,0.1,6.6c0.1,0-0.2-5.4,0-5.4c0.1,0,0,5.3,0.1,5.3c0.2,0-0.1-4.6,0-4.6c0.1,0,0.1,4.5,0.2,4.5c0.1,0,0-1.7,0-1.7
					c0,0,0.1,2.2,0.2,2.2c0.1,0-0.1-2,0-2c0.1,0,0.2,1.8,0.3,1.8c0.1,0-0.1-2.2,0-2.2c0,0,0.1,2.2,0.1,2.2c0.1,0-0.1-2.3,0-2.3
					c0.1,0,0.2,2.7,0.2,2.7c0,0-0.1-2.3,0-2.3c0,0,0.2,1.6,0.2,1.6c0,0-0.1-1.4,0-1.4c0,0,0.2,1.8,0.2,1.8c0.1,0,0-2.4,0-2.4
					c0.1,0,0,2.7,0,2.7c0,0,0-2,0-2c0,0,0.2,1.7,0.3,1.7c0,0-0.1-1.5,0-1.5c0,0,0.1,1.2,0.1,1.2c0.1,0-0.1-1.5,0-1.5
					c0,0,0.1,1.5,0.1,1.5c0.1,0-0.1-1.9,0-1.9c0,0,0.1,2.5,0.1,2.5c0,0-0.1-1.9,0-1.9c0,0,0.2,1.5,0.2,1.5c0.1,0,0-1.3,0-1.3
					c0,0,0.1,1.8,0.1,1.8c0,0-0.1-1.7,0-1.7c0,0,0.2,1.3,0.2,1.3c0.1,0-0.1-1.9,0-1.9c0,0,0.1,1.7,0.1,1.7c0.1,0-0.1-1.9,0-1.9
					c0,0,0.1,1.7,0.2,1.7c0.1,0,0-1.3,0-1.3c0,0,0.1,1.4,0.2,1.4c0.1,0-0.1-1.7,0-1.7c0,0,0.2,1.9,0.2,1.9c0,0-0.1-1.7,0-1.7
					c0,0,0.1,1.8,0.1,1.8c0.1,0-0.1-2.1,0-2.1c0,0,0.2,2.2,0.2,2.2c0.1,0-0.1-1.7,0-1.7c0,0,0.2,1.7,0.2,1.7c0.1,0-0.1-2.2,0-2.2
					c0,0,0,2.1,0.1,2.1c0.1,0-0.1-2.3,0-2.3c0,0,0.2,2.4,0.2,2.4c0.1,0-0.1-1.8,0-1.8c0,0,0.1,2,0.1,2c0,0,0-2.5,0-2.5
					c0,0,0.1,2.2,0.1,2.2c0,0-0.1-1.5,0-1.5c0,0,0.2,1.6,0.3,1.6c0.1,0,0-2.2,0-2.2c0.1,0,0.2,2.8,0.3,2.8c0.1,0-0.1-2.8,0-2.8
					c0,0,0,2.3,0,2.3c0.1,0-0.1-1.9,0-1.9c0,0,0,1.9,0,1.9c0.1,0-0.1-1.8,0-1.8c0,0,0.1,1.5,0.1,1.5c0.1,0-0.1-1.4,0-1.4
					c0,0,0.2,1.6,0.2,1.6c0.1,0,0-2,0-2c0,0,0.1,2.3,0.2,2.3c0.1,0-0.1-2.4,0-2.4c0,0,0.1,2.1,0.2,2.1c0.1,0-0.1-1.5,0-1.5
					c0,0,0.2,1.8,0.2,1.8c0,0-0.1-2.4,0-2.4c0,0,0.2,2.2,0.2,2.2c0,0-0.1-1.9,0-1.9c0,0,0,1.8,0,1.8c0,0-0.1-1.7,0-1.7
					c0,0,0.2,2.4,0.2,2.4c0,0-0.1-1.8,0-1.8c0,0,0.1,2.1,0.2,2.1c0.1,0-0.1-2.8,0-2.8c0,0,0.2,2.5,0.2,2.5c0.1,0-0.1-2.4,0-2.4
					c0,0,0.1,2.9,0.2,2.9c0.1,0-0.2-2.2,0-2.2c0,0,0.1,1.4,0.1,1.4c0.1,0,0-2.3,0-2.3c0,0,0,2.6,0,2.6c0,0-0.1-1.6,0-1.6
					c0,0,0.1,1.7,0.2,1.7c0.1,0-0.2-2.4,0-2.4c0.1,0,0,2.5,0,2.5c0.1,0,0-2.2,0-2.2c0,0,0,2.4,0,2.4c0.1,0-0.1-2.8,0-2.8
					c0,0,0.2,2.7,0.2,2.7c0.1,0,0-2.7,0-2.7c0.1,0,0.1,3,0.1,3c0.1,0-0.1-2.4,0-2.4c0,0,0.2,1.9,0.3,1.9c0.1,0-0.1-1.8,0-1.8
					c0,0,0.2,2,0.2,2c0.2,0,0-2.3,0-2.3c0,0,0,2.4,0,2.4c0.2,0,0-2.3,0-2.3c0,0,0.1,2.6,0.2,2.6c0.1,0-0.1-2,0-2c0,0,0.2,2,0.2,2
					c0,0-0.1-2.1,0-2.1c0,0,0,2.3,0.1,2.3c0.2,0-0.1-3,0-3c0,0,0,3,0,3c0.1,0-0.1-2.4,0-2.4c0.1,0,0.2,2.3,0.2,2.3c0,0,0-2.5,0-2.5
					c0,0,0.1,2.7,0.2,2.7c0.2,0-0.1-2,0-2c0,0,0.2,2.3,0.3,2.3c0.1,0-0.1-3.1,0-3.1c0,0,0,2.8,0,2.8c0.1,0-0.1-2.2,0-2.2
					c0,0,0.1,2.2,0.1,2.2c0.1,0-0.1-1.9,0-1.9c0,0,0.2,2.4,0.2,2.4c0,0-0.1-2.5,0-2.5c0.1,0,0.2,2.3,0.2,2.3c0.1,0-0.1-2,0-2
					c0,0,0.1,1.9,0.1,1.9c0.1,0,0-2.7,0-2.7c0,0,0.1,3.3,0.2,3.3c0,0-0.1-3.1,0-3.1c0.1,0,0,2.6,0,2.6c0,0-0.1-2.4,0-2.4
					c0,0,0,3,0,3c0,0-0.1-2.7,0-2.7c0,0,0,2.7,0,2.7c0,0-0.1-2.9,0-2.9c0.1,0,0.1,2.5,0.2,2.5c0.1,0-0.1-2.2,0-2.2
					c0,0,0.1,2.4,0.1,2.4c0.1,0,0-2.5,0-2.5c0,0,0.1,2.2,0.2,2.2c0.1,0-0.1-2,0-2c0,0,0,2.6,0.1,2.6c0,0-0.1-2.6,0-2.6
					c0.1,0,0.2,2.2,0.3,2.2c0,0,0-2.7,0-2.7c0,0,0.1,3.5,0.2,3.5c0.2,0-0.1-3.3,0-3.3c0,0,0.1,2.8,0.1,2.8c0.2,0-0.1-2.9,0-2.9
					c0.1,0,0,2.8,0.1,2.8c0.2,0-0.1-2,0-2c0,0,0.2,2.1,0.2,2.1c0,0-0.1-2.2,0-2.2c0.1,0,0,2.7,0.1,2.7c0.1,0-0.1-2.4,0-2.4
					c0.1,0,0,2.9,0.1,2.9c0.2,0-0.1-3.3,0-3.3c0,0,0,3,0.1,3c0.2,0-0.1-2.5,0-2.5c0.1,0,0.2,2.7,0.2,2.7c0.1,0,0-3.4,0-3.4
					c0,0,0,3.4,0.1,3.4c0.1,0,0-2.7,0-2.7c0,0,0.2,2.7,0.3,2.7c0.1,0-0.1-2.9,0-2.9c0.1,0,0.2,3.4,0.3,3.4c0.1,0-0.1-2.9,0-2.9
					c0.1,0,0,3.1,0,3.1c0.1,0-0.1-3.8,0-3.8c0,0,0,3,0,3c0.1,0-0.1-2.3,0-2.3c0,0,0,2.3,0.1,2.3c0.1,0-0.1-2.3,0-2.3
					c0.1,0,0,3.1,0,3.1c0.2,0-0.1-3.9,0-3.9c0.1,0,0,3.7,0,3.7c0.2,0,0-3.3,0-3.3c0,0,0.2,3.3,0.2,3.3c0.1,0,0-2.8,0-2.8
					c0.1,0,0.2,2.7,0.2,2.7c0.1,0,0-2.6,0-2.6c0.1,0,0.2,3.2,0.2,3.2c0,0-0.2-2.9,0-2.9c0.1,0,0.1,2.8,0.2,2.8c0,0-0.1-3.1,0-3.1
					c0,0,0.1,3.1,0.1,3.1c0.2,0-0.1-3.1,0-3.1c0.1,0-0.1,3.2,0,3.2c0.1,0,0-3,0-3c0,0,0,3.4,0.1,3.4c0.2,0-0.2-3.7,0-3.7
					c0.1,0,0.2,3.8,0.2,3.8c0.2,0-0.1-3.4,0-3.4c0,0,0,3.1,0,3.1c0.1,0-0.2-2.5,0-2.5c0.1,0,0.1,2.9,0.1,2.9c0.1,0-0.1-3.6,0-3.6
					c0.1,0,0,3.6,0.1,3.6c0.2,0-0.2-3.4,0-3.4c0.1,0,0.2,3.3,0.2,3.3c0,0-0.2-3.4,0-3.4c0,0,0.1,3.7,0.1,3.7c0,0-0.1-3,0-3
					c0.1,0,0.2,3.2,0.3,3.2c0.1,0-0.1-3.2,0-3.2c0.1,0,0.1,3.4,0.2,3.4c0.2,0-0.1-3.5,0-3.5c0,0,0.1,3.4,0.1,3.4c0,0-0.2-2.9,0-2.9
					c0,0,0.2,3.1,0.3,3.1c0.1,0-0.1-3.8,0-3.8c0.1,0,0.1,4.9,0.3,4.9c0.2,0,0-4.7,0-4.7c0,0,0.2,4.9,0.2,4.9c0,0,0-4,0-4
					c0.1,0,0.2,3.4,0.2,3.4c0.1,0-0.2-3.6,0-3.6c0,0,0,4.2,0,4.2c0.2,0-0.2-4.4,0-4.4c0,0,0.2,4.3,0.3,4.3c0,0-0.2-3.7,0-3.7
					c0,0,0,4.7,0.1,4.7c0.2,0,0-4.5,0-4.5c0.1,0,0,4.7,0.1,4.7c0.2,0-0.1-4.9,0-4.9c0.1,0,0.2,4.8,0.2,4.8c0.1,0-0.2-4.7,0-4.7
					c0,0,0.1,5,0.2,5c0.2,0-0.1-4.2,0-4.2c0.1,0,0.1,4.6,0.2,4.6c0.1,0-0.2-4.6,0-4.6c0.1,0,0.1,4.9,0.1,4.9c0.1,0-0.1-4.6,0-4.6
					c0.1,0,0,4.6,0,4.6c0.1,0,0-5.1,0-5.1c0,0,0.2,5.6,0.3,5.6c0,0-0.1-5.3,0-5.3c0.1,0-0.1,5.3,0,5.3c0,0,0-5.6,0-5.6
					c0,0-0.1,5.4,0.1,5.4c0.2,0-0.1-4.4,0-4.4c0,0,0,4.5,0.1,4.5c0,0-0.2-5.2,0-5.2c0.1,0,0.2,5.4,0.2,5.4c0.2,0,0-4.9,0-4.9
					c0.1,0,0.2,6,0.2,6c0.1,0,0-5.3,0-5.3c0.1,0-0.1,5.2,0,5.2c0.2,0-0.1-5.3,0-5.3c0,0,0,5.3,0.1,5.3c0.2,0-0.2-5.6,0-5.6
					c0.1,0,0,5.7,0,5.7c0.1,0-0.2-5.5,0-5.5c0.2,0,0.2,6.6,0.2,6.6c0.2,0-0.1-5.9,0-5.9c0.1,0,0.1,6.3,0.2,6.3c0.2,0-0.1-6.6,0-6.6
					c0,0,0.1,6.9,0.2,6.9c0.1,0,0-6.2,0-6.2c0,0,0,6,0.1,6c0.1,0-0.1-6.2,0-6.2c0,0,0.2,6.8,0.3,6.8c0.2,0-0.2-6.6,0-6.6
					c0.1,0,0.2,7.6,0.2,7.6c0,0-0.3-7.1,0-7.1c0.1,0-0.1,7.3,0,7.3c0.2,0-0.2-7.7,0-7.7c0.1,0,0.1,8.1,0.1,8.1c0.3,0-0.1-7.7,0-7.7
					c0.1,0-0.1,8,0,8c0.2,0-0.1-7.6,0-7.6c0.1,0,0.1,7.8,0.1,7.8c0.2,0-0.1-8.3,0-8.3c0.2,0,0,8.9,0.1,8.9c0.1,0-0.1-8.2,0-8.2
					c0.1,0,0,10,0.3,10c0.3,0-0.1-9.9,0-9.9c0.3,0-0.1,11.5,0.1,11.5c0.3,0,0-11.7,0-11.7"/>
				<path fill="none" stroke="#FFFFFF" stroke-width="0.4" stroke-linecap="round" stroke-linejoin="round" d="M9.5,73.9
					c0,0-0.3-10.6,0-10.6c0.1,0,0.1,9.6,0.1,9.6c0.2,0-0.3-9.6,0-9.6c0,0,0.1,8.3,0.2,8.3c0.2,0-0.1-8.7,0-8.7c0.2,0,0,8.5,0.1,8.5
					c0.2,0-0.1-9.2,0-9.2c0.1,0,0,8.8,0,8.8c0.1,0,0-8.2,0-8.2c0.1,0,0.1,7,0.3,7c0.2,0-0.2-8.1,0-8.1c0,0-0.1,7.5,0.1,7.5
					c0.1,0,0-6.7,0-6.7c0.2,0,0.1,6.3,0.1,6.3c0.1,0-0.1-6.4,0-6.4c0,0,0.1,6,0.2,6c0.2,0-0.1-6.3,0-6.3c0.1,0-0.1,6.2,0.1,6.2
					c0.3,0-0.1-7,0-7c0.1,0,0,7.1,0,7.1c0,0-0.3-7.1,0-7.1c0.1,0,0.1,6.6,0.3,6.6c0.1,0,0-6.8,0-6.8c0,0-0.1,6.6,0.1,6.6
					c0.2,0-0.1-6.6,0-6.6c0.1,0-0.1,6.6,0,6.6c0.2,0,0-6.6,0-6.6c0.1,0-0.1,6.2,0,6.2c0.1,0-0.3-6.2,0-6.2c0.1,0,0.1,6,0.2,6
					c0.2,0-0.1-6.3,0-6.3c0.1,0,0.2,5.9,0.2,5.9c0,0-0.2-6.2,0-6.2c0,0,0,5.5,0.1,5.5c0.2,0-0.1-5.1,0-5.1c0.1,0-0.1,5.3,0.1,5.3
					c0.1,0,0-6,0-6c0.1,0,0.3,5.6,0.3,5.6c0.2,0-0.1-5.7,0-5.7c0,0,0,5,0.1,5c0.1,0-0.2-5.1,0-5.1c0.1,0,0.2,4.5,0.3,4.5
					c0.1,0-0.1-4.5,0-4.5c0.1,0,0.3,4,0.3,4c0.2,0-0.1-4.4,0-4.4c0,0,0.2,4.6,0.2,4.6c0.2,0,0-4.6,0-4.6c0,0-0.1,4.9,0.1,4.9
					c0.2,0,0-5.3,0-5.3c0.1,0,0,4.3,0.1,4.3c0.1,0-0.2-4,0-4c0.1,0-0.1,4.9,0,4.9c0.2,0-0.1-4.8,0-4.8c0.1,0,0,3.8,0.2,3.8
					c0.1,0-0.1-4.5,0-4.5c0,0,0,4.3,0.1,4.3c0.2,0-0.1-4.1,0-4.1c0.1,0,0.1,3.9,0.2,3.9c0.1,0-0.2-4.2,0-4.2c0,0,0.1,4.1,0.2,4.1
					c0.2,0-0.2-3.8,0-3.8c0,0,0.2,3.8,0.3,3.8c0,0-0.1-4.1,0-4.1c0.1,0,0,3.2,0.1,3.2c0.2,0,0-3.7,0-3.7c0,0,0.2,3.6,0.3,3.6
					c0.2,0-0.1-3.6,0-3.6c0.1,0,0.1,3.8,0.2,3.8c0.1,0-0.1-4,0-4c0,0,0.1,3.6,0.2,3.6c0.2,0-0.2-3.8,0-3.8c0.1,0,0,4.1,0.1,4.1
					c0.1,0-0.2-4.6,0-4.6c0.1,0,0,3.9,0,3.9c0.1,0-0.1-3.2,0-3.2c0.1,0,0.1,2.9,0.1,2.9c0.1,0-0.1-3.8,0-3.8c0,0,0.1,3.4,0.2,3.4
					c0.2,0-0.2-3.4,0-3.4c0,0,0.2,3.6,0.2,3.6c0,0-0.1-3.7,0-3.7c0.1,0,0,3.6,0.1,3.6c0.1,0-0.1-3.7,0-3.7c0,0-0.1,3.4,0,3.4
					c0.2,0-0.2-2.8,0-2.8c0.1,0,0.3,2.7,0.3,2.7c0.1,0-0.1-3,0-3c0.1,0,0.1,2.6,0.2,2.6c0.2,0,0-3.1,0-3.1c0,0,0.1,3.5,0.1,3.5
					c0,0,0-3.3,0-3.3c0,0,0.1,2.5,0.2,2.5c0.1,0,0-2.5,0-2.5c0.1,0,0,3.1,0.1,3.1c0.2,0-0.1-3.5,0-3.5c0.1,0,0.1,3.4,0.2,3.4
					c0.1,0-0.1-3.8,0-3.8c0.1,0,0.3,2.9,0.3,2.9c0.1,0,0-2.7,0-2.7c0.1,0,0.1,2.9,0.1,2.9c0.1,0-0.1-3,0-3c0,0,0.2,3.2,0.2,3.2
					c0.2,0,0-3.2,0-3.2c0.1,0,0.2,2.4,0.2,2.4c0.2,0,0-2.9,0-2.9c0.1,0,0,3,0,3c0,0-0.1-3.3,0-3.3c0.1,0,0,3.4,0,3.4
					c0.2,0-0.1-3.1,0-3.1c0,0,0.1,2.5,0.2,2.5c0.1,0,0-3.1,0-3.1c0,0,0.2,3.1,0.2,3.1c0.1,0-0.1-2.6,0-2.6c0.1,0,0.1,2.2,0.2,2.2
					c0.1,0-0.1-2.8,0-2.8c0.1,0,0.2,3.3,0.3,3.3c0.1,0-0.1-3.4,0-3.4c0.1,0,0,2.8,0.1,2.8c0.1,0-0.1-2.3,0-2.3
					c0.1,0,0.2,2.8,0.2,2.8c0,0-0.1-3,0-3c0,0,0.1,2.2,0.1,2.2c0.1,0-0.1-2.8,0-2.8c0,0,0,3,0.1,3c0,0-0.1-2.5,0-2.5c0,0,0,2,0.1,2
					c0.1,0-0.1-2,0-2c0,0,0,2.7,0,2.7c0,0-0.2-3,0-3c0,0,0.2,3,0.3,3c0.1,0-0.1-3.2,0-3.2c0.1,0,0.2,2.3,0.2,2.3
					c0.1,0-0.1-2.1,0-2.1c0,0,0.2,2.2,0.2,2.2c0,0-0.1-2,0-2c0,0,0.2,1.6,0.2,1.6c0.1,0-0.1-2.6,0-2.6c0,0,0.1,3.2,0.1,3.2
					c0.1,0-0.1-2.7,0-2.7c0,0,0,2.1,0.1,2.1c0.1,0,0-2.6,0-2.6c0,0,0.2,3.2,0.2,3.2c0.1,0,0-3.5,0-3.5c0,0-0.1,3.2,0,3.2
					c0,0-0.2-3.3,0-3.3c0.1,0,0,2.6,0.1,2.6c0,0,0-2.6,0-2.6c0.1,0,0.2,3.2,0.2,3.2c0.1,0-0.2-3.4,0-3.4c0.1,0,0,3.4,0,3.4
					c0.1,0-0.1-2.8,0-2.8c0,0,0.2,2,0.3,2c0.1,0,0-2.3,0-2.3c0,0,0.2,2.1,0.2,2.1c0.1,0-0.1-2,0-2c0.1,0,0,1.9,0,1.9
					c0.1,0-0.1-1.6,0-1.6c0,0,0.2,1.8,0.2,1.8c0,0-0.1-2.4,0-2.4c0.1,0,0.2,2.1,0.3,2.1c0.1,0-0.2-2,0-2c0.1,0,0.1,2.4,0.2,2.4
					c0.2,0-0.1-2.1,0-2.1c0,0,0.2,1.3,0.2,1.3c0.1,0-0.1-2.3,0-2.3c0,0,0,2.2,0.1,2.2c0.1,0-0.2-1.4,0-1.4c0,0,0.1,1.4,0.1,1.4
					c0.1,0-0.1-2.3,0-2.3c0,0,0.2,2.3,0.3,2.3c0,0-0.1-2.5,0-2.5c0.1,0,0,3.1,0,3.1c0.1,0,0-2.9,0-2.9c0,0,0,2.2,0.1,2.2
					c0,0-0.1-2.4,0-2.4c0.1,0,0.2,2.9,0.3,2.9c0.1,0,0-2.2,0-2.2c0,0,0.1,1.5,0.1,1.5c0.1,0,0-1.7,0-1.7c0,0,0,2.3,0.1,2.3
					c0.1,0,0-2.3,0-2.3c0.1,0,0.1,2,0.2,2c0.2,0,0-2.1,0-2.1c0,0,0.3,1.6,0.3,1.6c0,0,0-2.1,0-2.1c0,0,0,2.4,0,2.4
					c0,0-0.1-2.5,0-2.5c0,0,0.1,2.7,0.2,2.7c0.1,0,0-3.2,0-3.2c0,0,0,2.3,0.1,2.3c0.1,0-0.1-1.9,0-1.9c0,0,0.1,2.7,0.2,2.7
					c0.1,0,0-3.2,0-3.2c0,0,0.1,2.1,0.1,2.1c0.1,0-0.1-3,0-3c0.1,0-0.1,3.3,0,3.3c0.1,0-0.2-3.3,0-3.3c0,0,0,3.6,0,3.6
					c0.1,0,0-3.9,0-3.9c0.1,0,0.1,3.3,0.2,3.3c0,0-0.2-3.8,0-3.8c0,0,0.2,4.1,0.2,4.1c0.1,0-0.1-4.8,0-4.8c0.1,0,0,4.6,0,4.6
					c0.1,0-0.1-4.8,0-4.8c0.1,0-0.1,4.7,0,4.7c0.2,0-0.2-5.2,0-5.2c0,0-0.1,5.4,0.1,5.4c0.2,0-0.2-5.7,0-5.7c0,0,0,5.6,0.2,5.6
					c0.2,0-0.2-5.1,0-5.1c0,0,0,5.4,0.2,5.4c0.2,0-0.3-6.6,0-6.6c0.1,0,0,6.5,0.1,6.5c0,0-0.1-6.2,0-6.2c0,0,0,5.6,0.1,5.6
					c0,0-0.2-5.7,0-5.7c0,0,0.1,5.7,0.1,5.7c0.3,0,0-6.4,0-6.4c0.1,0,0.1,6.4,0.2,6.4c0,0,0-6.4,0-6.4c0.2,0,0.1,6.2,0.3,6.2
					c0.1,0-0.3-7.4,0-7.4c0.1,0-0.1,7.7,0.1,7.7c0,0-0.2-7.4,0-7.4c0.1,0,0.2,6.7,0.3,6.7c0.1,0,0-7.6,0-7.6c0.2,0-0.1,7.6,0,7.6
					c0.3,0-0.1-7.4,0-7.4c0,0,0.1,8.1,0.2,8.1c0.3,0,0-8.4,0-8.4c0.2,0,0.1,7.8,0.3,7.8c0.3,0-0.1-8.1,0-8.1c0.2,0-0.1,8.1,0,8.1
					c0.1,0-0.1-8.7,0-8.7c0.1,0-0.2,8.7,0.1,8.7c0.1,0-0.3-8.9,0-8.9c0.1,0,0,9.4,0.1,9.4c0.3,0-0.1-8.7,0-8.7c0.1,0,0,8.6,0.2,8.6
					c0,0-0.3-8.8,0-8.8c0.1,0,0.1,8.5,0.2,8.5c0.1,0-0.2-9.4,0-9.4c0.3,0,0.1,9.2,0.1,9.2c0.1,0-0.3-8.9,0-8.9c0.2,0,0,9.1,0.2,9.1
					c0.3,0-0.2-9.8,0-9.8c0,0-0.1,9.8,0.1,9.8c0.3,0-0.2-9.5,0-9.5c0.1,0,0.2,9.4,0.2,9.4c0.1,0,0-10,0-10c0.2,0-0.1,10,0.1,10
					c0.3,0-0.1-10.5,0-10.5c0,0,0,10.2,0.1,10.2c0.2,0-0.1-9.3,0-9.3c0.1,0,0,8.6,0.3,8.6c0.2,0-0.2-9.7,0-9.7c0,0,0,9.3,0.1,9.3
					c0.1,0,0-9.5,0-9.5c0.2,0-0.2,9,0,9c0.1,0-0.3-8.1,0-8.1c0.2,0,0,8,0.1,8c0,0-0.1-8.7,0-8.7c0.3,0,0,8.5,0,8.5
					c0.2,0-0.3-8.7,0-8.7c0,0-0.1,8,0,8c0.3,0-0.3-7.5,0-7.5c0.2,0,0,7.5,0.1,7.5c0.2,0-0.2-7.9,0-7.9c0.1,0,0,6.6,0.1,6.6
					c0.1,0-0.3-6.8,0-6.8c0.1,0,0.1,6.5,0.3,6.5c0,0-0.3-6.5,0-6.5c0,0,0,5.4,0.1,5.4c0.2,0-0.2-5.6,0-5.6c0.1,0,0.1,5.2,0.1,5.2
					c0.1,0,0-5.1,0-5.1c0.1,0-0.1,5.3,0,5.3c0,0-0.1-6.1,0-6.1c0.1,0,0.1,5.4,0.2,5.4c0.1,0-0.1-5.2,0-5.2c0.1,0-0.1,5.7,0,5.7
					c0.2,0-0.2-5.5,0-5.5c0,0,0.3,4.4,0.3,4.4c0.2,0-0.1-5,0-5c0.1,0,0.1,5.2,0.1,5.2c0.1,0-0.1-4.9,0-4.9c0,0,0,4.6,0.1,4.6
					c0.2,0-0.2-5,0-5c0,0,0,4.6,0,4.6c0.2,0-0.2-4.8,0-4.8c0,0,0.1,4.9,0.1,4.9c0.2,0-0.1-5,0-5c0,0,0,4.5,0.1,4.5c0.2,0-0.1-5,0-5
					c0,0,0,4.6,0,4.6c0.2,0-0.2-3.9,0-3.9c0.1,0,0,4.6,0,4.6c0.1,0,0-4.9,0-4.9c0.1,0,0.2,3.7,0.2,3.7c0.2,0,0-3.8,0-3.8
					c0.1,0,0,4.1,0.2,4.1c0.1,0-0.2-4.1,0-4.1c0.1,0,0.2,4.1,0.3,4.1c0.1,0,0-5,0-5c0.1,0,0.2,3.7,0.2,3.7c0,0,0-3.4,0-3.4
					c0.1,0,0.1,4.1,0.1,4.1c0.2,0-0.2-4.7,0-4.7c0.1,0,0,4,0.1,4c0.1,0-0.1-3.6,0-3.6c0.1,0,0.1,3.7,0.2,3.7c0.2,0-0.1-4.1,0-4.1
					c0,0,0.1,3.5,0.2,3.5c0.2,0-0.2-3.8,0-3.8c0.1,0,0,4,0,4c0.2,0-0.1-3.2,0-3.2c0,0,0,2.8,0,2.8c0.2,0-0.2-3.1,0-3.1
					c0.1,0,0.2,3.3,0.3,3.3c0.2,0,0-3.3,0-3.3c0,0,0.1,3.1,0.2,3.1c0.2,0,0-3.2,0-3.2c0.1,0,0.1,3,0.2,3c0,0-0.2-3.3,0-3.3
					c0.1,0,0,3.4,0.1,3.4c0.2,0-0.1-3.7,0-3.7c0.1,0,0.2,3.5,0.3,3.5c0.1,0-0.2-3.4,0-3.4c0.1,0,0.1,3.1,0.1,3.1
					c0.1,0-0.1-3.7,0-3.7c0.1,0,0,3.5,0.1,3.5c0.1,0-0.1-3.3,0-3.3c0,0,0.2,2.5,0.3,2.5c0,0-0.2-3,0-3c0,0,0.3,2.8,0.3,2.8
					c0.1,0,0-3.1,0-3.1c0.1,0,0.2,3,0.3,3c0.1,0,0-2.4,0-2.4c0.1,0,0,2.6,0.1,2.6c0.2,0-0.2-2.6,0-2.6c0,0,0.2,2.8,0.2,2.8
					c0.1,0-0.1-3,0-3c0,0,0.2,2.3,0.3,2.3c0.1,0-0.1-2.7,0-2.7c0,0,0.2,2.9,0.3,2.9c0.1,0-0.1-3.5,0-3.5c0.1,0,0,2.7,0.1,2.7
					c0.1,0-0.1-2.3,0-2.3c0,0,0.1,2.6,0.1,2.6c0.1,0,0-2.3,0-2.3c0.1,0,0.1,2.6,0.1,2.6c0.1,0,0-3,0-3c0,0,0.1,2,0.2,2
					c0.1,0-0.1-1.9,0-1.9c0,0,0,2.2,0.1,2.2c0.1,0-0.1-2.4,0-2.4c0,0,0.1,2.7,0.1,2.7c0,0-0.1-2.3,0-2.3c0.1,0,0.1,2.1,0.1,2.1
					c0.2,0,0-2.7,0-2.7c0,0,0.1,2.5,0.1,2.5c0.1,0-0.1-2.6,0-2.6c0,0,0.2,2.4,0.2,2.4c0.1,0-0.1-2.6,0-2.6c0,0,0,2.6,0,2.6
					c0,0-0.1-2.6,0-2.6c0,0,0.1,2.3,0.1,2.3c0.1,0-0.2-1.7,0-1.7c0,0,0.3,1.8,0.3,1.8c0,0-0.1-2.2,0-2.2c0,0,0,2.4,0.1,2.4
					c0.1,0-0.1-2.1,0-2.1c0,0,0,2.2,0.1,2.2c0,0-0.1-2.2,0-2.2c0,0,0.1,1.4,0.1,1.4c0,0-0.1-2,0-2c0,0,0.1,2.8,0.1,2.8
					c0,0,0-2.7,0-2.7c0,0,0.2,2.5,0.2,2.5c0,0-0.1-2.5,0-2.5c0.1,0,0,2.5,0.1,2.5c0.1,0,0-2.4,0-2.4c0,0,0.1,1.8,0.2,1.8
					c0.1,0-0.1-1.9,0-1.9c0,0,0.1,1.8,0.2,1.8c0.1,0,0-2.4,0-2.4c0,0,0.2,3,0.2,3c0.1,0,0-2.8,0-2.8c0.1,0,0.3,2.5,0.3,2.5
					c0.1,0-0.1-1.8,0-1.8c0,0,0.2,1.4,0.2,1.4c0.2,0-0.1-1.5,0-1.5c0,0,0,2.1,0,2.1c0.1,0-0.1-2.8,0-2.8c0,0,0.1,2.4,0.2,2.4
					c0.1,0,0-1.9,0-1.9c0,0,0,1.5,0,1.5c0.1,0-0.2-1.8,0-1.8c0,0,0,2,0.1,2c0,0-0.1-2,0-2c0,0,0,2.3,0,2.3c0.1,0-0.1-2.5,0-2.5
					c0,0,0,2.2,0,2.2c0.1,0-0.1-2,0-2c0,0,0,2.1,0,2.1c0.1,0-0.1-2.2,0-2.2c0,0,0.2,1.8,0.3,1.8c0,0-0.1-1.2,0-1.2
					c0,0,0.2,1.5,0.3,1.5c0.1,0-0.1-1.7,0-1.7c0,0,0.2,1.8,0.3,1.8c0.1,0-0.1-2.2,0-2.2c0,0,0.1,2.5,0.1,2.5c0.1,0-0.1-2.2,0-2.2
					c0,0,0.3,1.7,0.3,1.7c0.1,0,0-2.3,0-2.3c0,0,0,2.6,0,2.6c0,0-0.1-2.8,0-2.8c0,0,0,2,0.1,2c0.1,0,0-1.8,0-1.8c0,0,0,2.3,0,2.3
					c0,0-0.1-2.2,0-2.2c0,0,0.1,1.7,0.1,1.7c0,0-0.1-1.4,0-1.4c0,0,0.1,2,0.2,2c0.1,0-0.1-2.7,0-2.7c0,0,0.1,2,0.2,2
					c0.1,0,0-1.1,0-1.1c0,0,0,1.6,0.1,1.6c0.1,0,0-2,0-2c0,0,0.1,1.4,0.1,1.4c0,0-0.1-1.1,0-1.1c0,0,0.2,1.6,0.3,1.6c0,0-0.1-2,0-2
					c0,0,0,1.6,0.1,1.6c0.1,0-0.1-2.1,0-2.1c0,0,0.2,2.2,0.2,2.2c0.1,0-0.1-2,0-2c0,0,0.2,2.3,0.2,2.3c0.1,0-0.1-2.5,0-2.5
					c0,0,0.2,2,0.3,2c0.1,0-0.1-1.4,0-1.4c0,0,0.2,1.5,0.3,1.5c0.1,0-0.1-2.2,0-2.2c0,0,0.1,2.6,0.1,2.6c0.1,0,0-2.1,0-2.1
					c0,0,0,1.2,0,1.2c0.1,0-0.1-1.3,0-1.3c0,0,0.2,1.9,0.2,1.9c0,0-0.1-2.1,0-2.1c0,0,0.1,1.8,0.1,1.8c0,0-0.1-2.1,0-2.1
					c0,0,0.1,1.7,0.1,1.7c0,0-0.1-0.9,0-0.9c0,0,0.2,1.3,0.2,1.3c0,0-0.1-2,0-2c0.1,0,0.2,1.9,0.2,1.9c0.1,0-0.1-1.3,0-1.3
					c0,0,0.2,1.1,0.2,1.1c0.1,0-0.1-1.7,0-1.7c0.1,0,0.1,2.2,0.1,2.2c0.1,0,0-1.8,0-1.8c0,0,0.2,1.4,0.2,1.4c0,0,0-1.1,0-1.1
					c0,0,0.2,1.4,0.3,1.4c0.1,0-0.1-1.7,0-1.7c0,0,0.1,1.7,0.2,1.7c0.1,0-0.1-1.2,0-1.2c0,0,0.1,1.3,0.2,1.3c0,0,0-1.3,0-1.3
					c0,0,0.1,1.8,0.1,1.8c0,0,0-2.7,0-2.7c0.1,0,0,2.6,0,2.6c0.1,0-0.1-1.8,0-1.8c0,0,0.2,1.3,0.2,1.3c0,0-0.1-1.7,0-1.7
					c0,0,0,1.7,0,1.7c0.1,0-0.1-2.2,0-2.2c0,0,0.2,1.9,0.2,1.9c0,0-0.1-1.5,0-1.5c0.1,0,0.3,2,0.3,2c0,0,0-2.1,0-2.1
					c0,0,0,2.3,0.1,2.3c0,0,0-2.2,0-2.2c0.1,0,0,2,0.1,2c0.1,0-0.1-1.9,0-1.9c0.1,0,0.2,2.2,0.3,2.2c0,0-0.1-1.8,0-1.8
					c0,0,0.1,1.4,0.1,1.4c0,0-0.1-1.6,0-1.6c0,0,0.3,1.2,0.3,1.2c0.1,0-0.1-1.2,0-1.2c0,0,0.1,1.3,0.1,1.3c0,0-0.1-1.2,0-1.2
					c0,0,0.2,1.7,0.3,1.7c0.1,0-0.1-1.4,0-1.4c0,0,0.1,1.9,0.1,1.9c0.1,0-0.1-2.5,0-2.5c0.1,0,0.2,2.4,0.2,2.4c0,0-0.1-2.2,0-2.2
					c0,0,0,2,0.1,2c0.1,0-0.1-1.7,0-1.7c0,0,0.1,2.1,0.2,2.1c0.1,0-0.1-2.6,0-2.6c0.1,0,0.3,2.6,0.3,2.6c0.1,0,0-2.4,0-2.4
					c0,0,0.2,2.6,0.2,2.6c0.1,0-0.1-2.3,0-2.3c0,0,0.2,2.5,0.2,2.5c0.1,0-0.1-2.7,0-2.7c0,0,0.3,2.7,0.3,2.7c0.1,0-0.1-2.2,0-2.2
					c0.1,0,0.2,2.3,0.2,2.3c0.1,0-0.1-2.5,0-2.5c0.1,0,0.1,2.1,0.1,2.1c0.1,0-0.1-2.4,0-2.4c0,0,0.1,2.3,0.2,2.3c0.1,0,0-2,0-2
					c0,0,0.1,2.5,0.1,2.5c0.1,0,0-2.3,0-2.3c0.1,0,0.1,2.5,0.1,2.5c0.1,0-0.1-2.5,0-2.5c0,0,0,2.3,0,2.3c0.1,0,0-2.3,0-2.3
					c0,0,0.1,1.9,0.1,1.9c0.1,0-0.1-2.2,0-2.2c0.1,0,0,2.7,0,2.7c0.1,0-0.1-1.9,0-1.9c0,0,0.1,1.7,0.1,1.7c0.1,0-0.1-1.7,0-1.7
					c0,0,0.3,1.7,0.3,1.7c0.1,0-0.1-2.5,0-2.5c0.1,0,0.2,2.6,0.2,2.6c0.1,0-0.1-2.3,0-2.3c0,0,0.1,2.8,0.1,2.8c0.1,0,0-2.3,0-2.3
					c0,0,0,2.3,0,2.3c0,0-0.1-3,0-3c0.1,0,0.2,2.5,0.2,2.5c0.1,0-0.1-2.4,0-2.4c0.1,0,0.2,2.7,0.2,2.7c0.1,0,0-1.7,0-1.7
					c0,0,0.2,1.4,0.2,1.4c0,0,0-1.8,0-1.8c0,0,0.1,2.3,0.1,2.3c0.1,0-0.1-2,0-2c0.1,0,0.3,1.8,0.3,1.8c0.1,0,0-1.9,0-1.9
					c0,0,0.2,2.8,0.3,2.8c0.1,0-0.1-2.9,0-2.9c0,0,0.1,2.4,0.1,2.4c0.1,0-0.1-2,0-2c0,0,0.3,2.5,0.3,2.5c0.1,0-0.1-3.1,0-3.1
					c0.1,0,0.2,3.3,0.2,3.3c0.2,0-0.1-3.5,0-3.5c0.1,0,0.1,3.2,0.1,3.2c0.1,0-0.1-3,0-3c0.1,0,0.1,3.4,0.2,3.4c0.1,0,0-4.1,0-4.1
					c0.1,0,0,3.5,0,3.5c0,0-0.2-3.5,0-3.5c0.1,0,0.2,4.3,0.2,4.3c0.1,0-0.1-4.9,0-4.9c0,0,0.1,5,0.2,5c0.2,0-0.1-4.6,0-4.6
					c0.1,0-0.1,4.7,0,4.7c0.1,0-0.1-5.4,0-5.4c0.1,0,0.2,5.2,0.2,5.2c0.2,0-0.2-5.5,0-5.5c0,0,0.2,5.7,0.3,5.7c0,0,0-5.6,0-5.6
					c0,0,0,5.8,0.2,5.8c0.1,0-0.3-6.1,0-6.1c0.1,0,0,5.7,0.2,5.7c0.1,0-0.2-6.1,0-6.1c0,0,0.1,6.8,0.1,6.8c0.2,0,0-7.5,0-7.5
					c0.2,0-0.2,7.3,0,7.3c0.2,0-0.3-6.8,0-6.8c0.1,0-0.1,6.7,0.1,6.7c0.3,0-0.2-7.1,0-7.1c0,0-0.2,7.4,0,7.4c0.3,0,0-7.2,0-7.2
					c0.2,0,0.1,7.2,0.2,7.2c0.2,0-0.1-7.8,0-7.8c0.2,0,0,7.7,0.1,7.7c0.2,0-0.1-7.5,0-7.5c0.1,0,0.2,6.8,0.3,6.8c0,0-0.1-7.6,0-7.6
					c0.1,0-0.2,7.9,0,7.9c0.1,0-0.3-7.2,0-7.2c0.1,0,0.2,7,0.2,7c0.1,0-0.3-7.9,0-7.9c0.1,0-0.1,7.6,0.1,7.6c0.3,0-0.1-7.9,0-7.9
					c0,0,0.1,7.7,0.2,7.7c0.2,0-0.2-7.7,0-7.7c0.2,0,0.1,7.1,0.1,7.1c0.2,0-0.3-7.1,0-7.1c0.1,0,0.2,6.8,0.2,6.8
					c0.1,0-0.2-7.8,0-7.8c0.2,0,0.1,6.6,0.2,6.6c0.2,0-0.2-7,0-7c0.1,0,0,6.7,0.2,6.7c0.2,0-0.1-6.5,0-6.5c0,0,0.1,5.9,0.2,5.9
					c0.2,0-0.2-6.1,0-6.1c0.1,0,0,6.6,0.1,6.6c0,0-0.2-7.1,0-7.1c0.1,0-0.2,7.2,0,7.2c0.3,0,0-7.3,0-7.3c0.1,0,0.1,6.7,0.3,6.7
					c0.2,0-0.1-6.7,0-6.7c0.1,0-0.1,6.5,0.1,6.5c0.2,0-0.2-6.3,0-6.3c0.1,0,0.3,5.7,0.3,5.7c0.1,0-0.1-6.2,0-6.2
					c0.1,0,0.3,5.8,0.3,5.8c0,0-0.2-5.7,0-5.7c0.1,0,0.1,4.7,0.2,4.7c0.2,0-0.2-5.3,0-5.3c0,0,0.1,5.6,0.1,5.6c0,0-0.2-6,0-6
					c0,0-0.1,5.8,0,5.8c0.1,0-0.1-5.2,0-5.2c0,0,0.1,5.2,0.3,5.2c0.2,0-0.2-5.5,0-5.5c0.1,0,0,4.5,0.1,4.5c0,0,0-5.2,0-5.2
					c0,0,0,5.9,0.1,5.9c0.2,0,0-5.3,0-5.3c0,0,0.1,4.2,0.2,4.2c0,0-0.1-5.2,0-5.2c0,0-0.1,5.8,0,5.8c0.1,0-0.1-5.5,0-5.5
					c0,0,0.1,4.9,0.1,4.9c0.2,0-0.2-5.1,0-5.1c0,0,0,4.9,0.1,4.9c0.2,0-0.2-4.5,0-4.5c0.1,0,0.1,4.3,0.2,4.3c0.1,0-0.1-4.2,0-4.2
					c0,0,0.1,3.9,0.2,3.9c0.1,0-0.2-4.9,0-4.9c0,0,0,4.7,0.1,4.7c0.1,0,0-4.8,0-4.8c0.1,0,0.1,5.3,0.3,5.3c0.2,0-0.2-5.7,0-5.7
					c0.1,0,0.1,5.1,0.1,5.1c0.1,0-0.2-5.3,0-5.3c0,0,0,4.6,0.1,4.6c0.2,0-0.1-4,0-4c0,0,0.1,4.5,0.2,4.5c0,0,0-4.9,0-4.9
					c0.1,0,0,4.5,0.1,4.5c0.2,0-0.1-4.7,0-4.7c0,0,0.2,4.5,0.2,4.5c0.1,0-0.2-4.3,0-4.3c0.1,0,0.1,3.7,0.2,3.7c0.1,0-0.2-4.3,0-4.3
					c0.1,0,0,4.8,0.1,4.8c0.1,0-0.2-4.8,0-4.8c0,0,0.2,3.7,0.2,3.7c0.1,0,0-3.4,0-3.4c0,0,0.1,4.1,0.1,4.1c0,0-0.1-5.1,0-5.1
					c0.1,0,0.1,4.7,0.2,4.7c0,0-0.1-4.2,0-4.2c0,0,0.3,3.1,0.3,3.1c0.1,0,0-3.6,0-3.6c0.1,0,0.1,3.7,0.2,3.7c0,0-0.1-3.5,0-3.5
					c0,0,0.2,3.5,0.2,3.5c0,0,0-4,0-4c0.1,0,0.2,4.1,0.2,4.1c0,0-0.1-4.6,0-4.6c0,0,0.1,3.6,0.1,3.6c0.1,0,0-3.7,0-3.7
					c0.1,0,0.1,4.3,0.1,4.3c0,0-0.1-3.9,0-3.9c0,0,0.1,3.5,0.1,3.5c0.2,0,0-4,0-4c0.1,0,0.2,3.9,0.3,3.9c0,0,0-3.7,0-3.7
					c0,0,0,2.8,0,2.8c0.2,0-0.1-3.7,0-3.7c0.1,0,0.2,4.3,0.2,4.3c0.1,0-0.2-4.4,0-4.4c0,0,0.2,4,0.2,4c0,0-0.2-4.1,0-4.1
					c0,0,0.1,4.2,0.2,4.2c0.1,0,0-4.2,0-4.2c0,0,0.2,3.7,0.3,3.7c0.1,0,0-3.8,0-3.8c0.1,0,0.3,3.2,0.3,3.2c0.1,0-0.2-3,0-3
					c0,0,0.2,2.5,0.2,2.5c0,0-0.1-3.1,0-3.1c0.1,0,0.2,3.1,0.3,3.1c0.1,0,0-2.9,0-2.9c0.1,0,0.1,2.9,0.1,2.9c0.2,0,0-3.7,0-3.7
					c0,0,0.1,3.3,0.1,3.3c0.2,0-0.2-3.3,0-3.3c0.1,0,0.1,4,0.1,4c0.2,0,0-3.9,0-3.9c0,0,0.2,3.2,0.2,3.2c0.2,0,0-3.6,0-3.6
					c0.1,0,0,3.6,0,3.6c0.1,0-0.1-3.1,0-3.1c0.1,0-0.1,2.9,0,2.9c0.2,0-0.1-3.6,0-3.6c0,0,0,3.5,0.1,3.5c0.1,0-0.1-2.8,0-2.8
					c0,0,0.2,2.9,0.2,2.9c0.1,0-0.1-3,0-3c0,0,0.2,2.9,0.2,2.9c0.1,0-0.2-3.9,0-3.9c0,0,0.2,3.1,0.2,3.1c0.2,0,0-2.8,0-2.8
					c0.1,0,0.2,2.7,0.3,2.7c0.1,0-0.2-2.5,0-2.5c0.1,0,0,3,0,3c0.2,0-0.1-3.5,0-3.5c0.1,0,0.2,3,0.2,3c0.1,0-0.1-3.2,0-3.2
					c0.1,0,0,3.5,0.1,3.5c0.1,0-0.1-2.9,0-2.9c0,0,0.1,2.6,0.1,2.6c0.1,0-0.2-3.4,0-3.4c0.1,0,0,3.9,0,3.9c0.1,0-0.1-3.8,0-3.8
					c0.1,0,0,3.1,0.1,3.1c0.1,0-0.1-2.6,0-2.6c0,0,0.3,2.1,0.3,2.1c0,0,0-2.8,0-2.8c0,0,0.2,3.5,0.2,3.5c0,0-0.1-3.5,0-3.5
					c0,0,0.3,2.4,0.3,2.4c0.1,0-0.1-2.9,0-2.9c0.1,0,0.1,3.3,0.2,3.3c0,0-0.2-2.5,0-2.5c0,0,0.2,2.2,0.2,2.2c0.2,0-0.1-2.6,0-2.6
					c0,0,0.1,2.8,0.2,2.8c0.1,0,0-3.5,0-3.5c0.1,0,0,3.6,0,3.6c0.1,0-0.1-2.9,0-2.9c0,0,0.2,2.5,0.2,2.5c0,0-0.1-2.8,0-2.8
					c0,0,0.2,2.4,0.2,2.4c0.2,0,0-2.3,0-2.3c0,0,0.1,2.1,0.1,2.1c0.1,0-0.1-3.1,0-3.1c0,0,0.2,3.3,0.3,3.3c0,0-0.1-2.7,0-2.7
					c0,0,0.3,2,0.3,2c0.1,0-0.1-2.2,0-2.2c0,0,0,3,0.1,3c0.1,0-0.1-3.4,0-3.4c0.1,0-0.1,3.1,0,3.1c0,0-0.1-2.5,0-2.5
					c0,0,0,2.2,0,2.2c0.1,0-0.1-2.5,0-2.5c0.1,0,0.1,2.7,0.2,2.7c0.1,0,0-2.9,0-2.9c0,0,0,3.2,0,3.2c0,0-0.1-2.6,0-2.6
					c0,0,0.1,2.1,0.1,2.1c0.2,0-0.1-3,0-3c0,0,0,3.5,0,3.5c0,0-0.1-3.4,0-3.4c0.1,0,0.2,2.8,0.2,2.8c0,0-0.1-2.8,0-2.8
					c0,0,0.2,2.3,0.3,2.3c0.2,0-0.1-2.5,0-2.5c0,0,0.2,2.4,0.3,2.4c0.1,0-0.1-2.3,0-2.3c0,0,0,2.3,0.1,2.3c0,0-0.1-2.3,0-2.3
					c0.1,0,0.2,2.6,0.3,2.6c0.1,0-0.2-2.7,0-2.7c0,0,0.2,2.7,0.2,2.7c0.1,0,0-3,0-3c0,0,0,2.5,0,2.5c0,0-0.1-2.3,0-2.3
					c0,0,0,2.2,0.1,2.2c0,0,0-2.6,0-2.6c0,0,0.1,2.9,0.2,2.9c0.2,0,0-2.8,0-2.8c0.1,0,0.1,3,0.2,3c0.1,0-0.1-2.5,0-2.5
					c0,0,0.2,1.9,0.2,1.9c0.1,0-0.1-2.5,0-2.5c0.1,0,0,2.6,0.1,2.6c0.1,0-0.2-2.4,0-2.4c0.1,0,0,2.8,0,2.8c0.1,0,0-3.4,0-3.4
					c0,0,0,3.2,0.1,3.2c0.1,0,0-2.4,0-2.4c0,0,0,2.2,0.1,2.2c0.1,0-0.1-3,0-3c0,0,0.1,3.2,0.1,3.2c0.1,0-0.1-2.8,0-2.8
					c0,0,0.1,2.4,0.1,2.4c0,0-0.1-2.8,0-2.8c0,0,0,3,0,3c0.1,0,0-2.9,0-2.9c0,0,0.2,2.3,0.3,2.3c0,0,0-2.7,0-2.7
					c0,0,0.1,2.4,0.1,2.4c0.1,0-0.1-2.4,0-2.4c0,0,0,2.8,0.1,2.8c0.1,0-0.1-2.7,0-2.7c0.1,0,0.1,3.2,0.2,3.2c0,0-0.2-2.8,0-2.8
					c0,0,0.2,2,0.2,2c0,0-0.1-2.6,0-2.6c0.1,0,0.2,2.7,0.2,2.7c0.1,0,0-2.1,0-2.1c0,0,0,1.8,0,1.8c0.1,0,0-2.4,0-2.4c0,0,0,3,0,3
					c0.1,0,0-2.5,0-2.5c0,0,0,2.1,0.1,2.1c0.1,0,0-2.8,0-2.8c0,0,0.2,2.3,0.2,2.3c0,0,0-2,0-2c0,0,0.1,2.3,0.1,2.3
					c0,0-0.1-2.6,0-2.6c0,0,0.2,2.1,0.2,2.1c0,0-0.1-2.2,0-2.2c0.1,0,0,2.7,0,2.7c0.1,0-0.1-2.6,0-2.6c0,0,0.2,2.4,0.3,2.4
					c0.1,0-0.1-2.4,0-2.4c0,0,0.1,1.8,0.2,1.8c0,0,0-1.4,0-1.4c0,0,0.2,1.5,0.2,1.5c0,0,0-2,0-2c0,0,0,2.6,0.1,2.6
					c0,0-0.1-2.5,0-2.5c0,0,0.2,2,0.2,2c0.1,0-0.1-2.6,0-2.6c0.1,0,0.1,2.9,0.1,2.9c0,0,0-2.9,0-2.9c0.1,0,0,2.9,0.1,2.9
					c0.1,0,0-2,0-2c0,0,0,1.6,0.1,1.6c0.1,0-0.1-2.3,0-2.3c0,0,0.2,2.5,0.3,2.5c0.1,0,0-2.7,0-2.7c0,0,0.1,2.3,0.1,2.3
					c0.1,0-0.1-2,0-2c0,0,0.1,2.8,0.2,2.8c0,0-0.1-2.5,0-2.5c0,0,0.2,1.7,0.2,1.7c0.1,0,0-2.3,0-2.3c0,0,0.2,2.8,0.2,2.8
					c0.1,0-0.2-2.2,0-2.2c0,0,0.2,2.3,0.3,2.3c0.1,0-0.1-2.6,0-2.6c0,0,0.1,1.9,0.1,1.9c0.1,0-0.1-1.8,0-1.8c0,0,0,2,0,2
					c0,0,0-2.7,0-2.7c0.1,0,0.1,2.4,0.1,2.4c0.1,0,0-2.2,0-2.2c0,0,0.1,2.2,0.2,2.2c0.1,0,0-2.2,0-2.2c0,0,0.1,2.3,0.2,2.3
					c0,0-0.1-2.1,0-2.1c0,0,0.1,2.1,0.2,2.1c0,0-0.1-2.4,0-2.4c0,0,0.1,2.1,0.1,2.1c0,0-0.1-1.7,0-1.7c0,0,0.2,1.6,0.2,1.6
					c0,0-0.1-1.3,0-1.3c0,0,0,2.1,0.1,2.1c0.1,0,0-2.7,0-2.7c0.1,0,0.1,2.6,0.1,2.6c0,0,0-2,0-2c0,0,0.2,1.4,0.3,1.4
					c0.1,0-0.1-2.3,0-2.3c0,0,0.2,2.7,0.3,2.7c0,0-0.1-1.9,0-1.9c0,0,0.1,1.8,0.1,1.8c0.1,0-0.1-2.6,0-2.6c0,0,0.1,2,0.1,2
					c0,0-0.1-2.1,0-2.1c0,0,0.3,2.3,0.3,2.3c0,0,0-2,0-2c0,0,0,2.4,0,2.4c0.1,0-0.1-1.9,0-1.9c0,0,0.2,2,0.2,2c0.1,0-0.1-2.4,0-2.4
					c0,0,0.3,1.8,0.3,1.8c0.1,0-0.1-1.9,0-1.9c0,0,0.3,1.7,0.3,1.7c0,0-0.1-1.7,0-1.7c0,0,0.2,2.2,0.2,2.2c0,0,0-1.9,0-1.9
					c0,0,0,1.9,0,1.9c0,0-0.1-2.6,0-2.6c0,0,0,2.4,0,2.4c0.1,0-0.1-2.3,0-2.3c0.1,0,0.2,2.1,0.3,2.1c0.1,0-0.1-2.4,0-2.4
					c0,0,0,2.5,0.1,2.5c0.1,0-0.1-2.3,0-2.3c0.1,0,0.2,2.1,0.2,2.1c0,0-0.1-2.2,0-2.2c0,0,0.2,2,0.2,2c0,0,0-1.6,0-1.6
					c0,0,0.2,2,0.3,2c0.1,0,0-2.3,0-2.3c0,0,0.1,1.8,0.1,1.8c0.1,0,0-1.6,0-1.6c0,0,0.1,1.6,0.1,1.6c0.1,0-0.1-2.1,0-2.1
					c0,0,0.1,2.7,0.2,2.7c0.1,0-0.1-2.3,0-2.3c0.1,0,0.3,2.1,0.3,2.1c0,0-0.1-2.8,0-2.8c0,0,0.2,2.7,0.2,2.7c0.1,0-0.1-1.9,0-1.9
					c0,0,0.1,1.9,0.2,1.9c0.1,0-0.1-2.6,0-2.6c0,0,0.2,2.1,0.2,2.1c0.1,0-0.1-1.5,0-1.5c0,0,0.2,1.3,0.3,1.3c0.1,0,0-1.7,0-1.7
					c0.1,0,0,2.4,0.1,2.4c0.1,0,0-2.6,0-2.6c0,0,0.2,1.7,0.3,1.7c0,0-0.1-1.8,0-1.8c0.1,0,0.1,2.5,0.2,2.5c0.1,0-0.1-2.1,0-2.1
					c0,0,0.1,1.4,0.1,1.4c0.1,0-0.1-1.9,0-1.9c0,0,0.1,2.7,0.2,2.7c0,0,0-2.1,0-2.1c0,0,0.3,1.3,0.3,1.3c0.1,0-0.1-1.3,0-1.3
					c0,0,0.1,1.5,0.1,1.5c0,0-0.1-1.8,0-1.8c0,0,0.1,2.4,0.1,2.4c0.1,0,0-2.5,0-2.5c0.1,0,0.1,1.9,0.1,1.9c0,0-0.1-1.7,0-1.7
					c0,0,0.2,1.7,0.2,1.7c0.1,0,0-1.9,0-1.9c0,0,0.1,1.6,0.2,1.6c0,0-0.1-1.4,0-1.4c0,0,0.1,1.9,0.1,1.9c0,0,0-2.4,0-2.4
					c0,0,0.1,2.4,0.1,2.4c0,0-0.1-2.2,0-2.2c0.1,0,0,2.4,0.1,2.4c0.1,0,0-2.1,0-2.1c0,0,0,1.7,0,1.7c0,0-0.1-1.8,0-1.8
					c0,0,0.1,2.3,0.1,2.3c0.1,0,0-2.3,0-2.3c0,0,0,1.6,0,1.6c0.1,0-0.1-1.2,0-1.2c0,0,0.1,1.4,0.2,1.4c0.1,0-0.1-1.5,0-1.5
					c0,0,0,1.4,0.1,1.4c0.1,0-0.1-1.5,0-1.5c0,0,0,1.6,0,1.6c0.1,0,0-2,0-2c0,0,0.3,2.4,0.3,2.4c0,0,0-2.5,0-2.5
					c0,0,0.1,2.6,0.2,2.6c0.1,0-0.1-2,0-2c0,0,0.2,1.8,0.2,1.8c0,0,0-2.2,0-2.2c0,0,0.1,2.1,0.1,2.1c0.1,0,0-1.9,0-1.9
					c0,0,0,1.4,0,1.4c0.1,0-0.1-1.1,0-1.1c0,0,0.1,1.4,0.1,1.4c0.1,0-0.1-1.5,0-1.5c0,0,0.2,1.5,0.2,1.5c0.1,0-0.1-1.7,0-1.7
					c0,0,0.1,1.8,0.2,1.8c0,0-0.1-2.3,0-2.3c0,0,0.2,1.9,0.2,1.9c0.1,0,0-1.3,0-1.3c0,0,0.1,2.2,0.1,2.2c0.1,0,0-2.2,0-2.2
					c0,0,0.2,2.1,0.2,2.1c0.1,0,0-2.1,0-2.1c0,0,0.2,1.9,0.3,1.9c0,0-0.1-2.2,0-2.2c0,0,0,1.6,0.1,1.6c0.1,0,0-1.1,0-1.1
					c0,0,0,1.7,0,1.7c0.1,0-0.1-2.4,0-2.4c0.1,0,0.2,1.8,0.2,1.8c0.1,0-0.1-1.8,0-1.8c0,0,0.2,2.5,0.3,2.5c0,0-0.1-2.4,0-2.4
					c0,0,0.2,2.6,0.2,2.6c0,0-0.1-2.3,0-2.3c0,0,0.2,1.7,0.2,1.7c0,0-0.1-2.3,0-2.3c0.1,0,0.2,2.7,0.3,2.7c0,0-0.1-2.3,0-2.3
					c0,0,0.2,1.9,0.3,1.9c0.1,0-0.1-1.9,0-1.9c0,0,0.1,2,0.1,2c0,0,0-2.4,0-2.4c0.1,0,0.1,2.4,0.1,2.4c0.1,0-0.1-1.4,0-1.4
					c0,0,0.1,1.9,0.1,1.9c0.1,0,0-2.1,0-2.1c0.1,0,0.1,1.8,0.1,1.8c0,0-0.1-2.2,0-2.2c0,0,0.2,1.8,0.2,1.8c0.1,0,0-1.7,0-1.7
					c0,0,0,2.1,0.1,2.1c0.1,0,0-2,0-2c0,0,0.1,2.1,0.2,2.1c0.1,0,0-2.4,0-2.4c0.1,0,0,2.5,0.1,2.5c0.1,0-0.1-1.7,0-1.7
					c0,0,0.3,1.2,0.3,1.2c0,0-0.1-1.2,0-1.2c0,0,0.1,1.1,0.1,1.1c0.1,0,0-1.9,0-1.9c0,0,0,2.2,0.1,2.2c0.1,0-0.1-1.4,0-1.4
					c0,0,0.3,1.8,0.3,1.8c0,0-0.1-1.8,0-1.8c0,0,0.2,1.6,0.2,1.6c0,0,0-2.3,0-2.3c0,0,0.2,2.4,0.2,2.4c0.1,0-0.1-1.6,0-1.6
					c0,0,0.2,1.8,0.2,1.8c0.1,0-0.1-2.5,0-2.5c0,0,0.1,2.2,0.2,2.2c0.1,0-0.1-1.8,0-1.8c0,0,0.2,1.7,0.2,1.7c0,0-0.1-1.5,0-1.5
					c0,0,0.1,2.3,0.1,2.3c0.1,0-0.1-2.3,0-2.3c0,0,0,1.7,0.1,1.7c0.1,0,0-2,0-2c0,0,0,1.7,0,1.7c0.1,0-0.1-1.8,0-1.8
					c0.1,0,0.1,2.7,0.2,2.7c0.1,0-0.1-2.4,0-2.4c0.1,0,0.1,2.5,0.2,2.5c0.1,0,0-2.5,0-2.5c0,0,0.2,1.8,0.2,1.8c0,0-0.1-1.2,0-1.2
					c0,0,0.3,1.3,0.3,1.3c0,0,0-1.6,0-1.6c0,0,0.2,1.9,0.3,1.9c0,0-0.1-1.5,0-1.5c0,0,0.2,1.9,0.2,1.9c0.1,0-0.1-2.5,0-2.5
					c0,0,0,2.2,0.1,2.2c0.1,0-0.1-1.9,0-1.9c0,0,0.1,1.9,0.2,1.9c0.1,0-0.1-1.5,0-1.5c0,0,0.1,1.2,0.2,1.2c0.1,0-0.1-2.1,0-2.1
					c0,0,0.1,2.5,0.2,2.5c0.1,0-0.1-2.1,0-2.1c0.1,0,0.1,2.1,0.1,2.1c0.1,0-0.1-1.6,0-1.6c0.1,0,0.2,2,0.2,2c0,0,0-2,0-2
					c0,0,0,1.3,0,1.3c0.1,0-0.1-1.6,0-1.6c0,0,0.2,2.2,0.3,2.2c0,0,0-2.5,0-2.5c0.1,0,0.2,2.3,0.2,2.3c0.1,0,0-2,0-2
					c0,0,0,1.9,0.1,1.9c0,0,0-1.7,0-1.7c0,0,0.3,1.7,0.3,1.7c0,0,0-1.6,0-1.6c0,0,0.2,2.1,0.3,2.1c0.1,0-0.1-2.3,0-2.3
					c0.1,0,0,2,0.1,2c0,0-0.1-1.3,0-1.3c0,0,0,1.6,0,1.6c0,0,0-2.5,0-2.5c0.1,0,0,2.3,0,2.3c0.1,0-0.1-1.8,0-1.8c0,0,0,2.1,0,2.1
					c0,0-0.1-2.5,0-2.5c0.1,0,0.1,2.8,0.1,2.8c0.1,0-0.1-2.5,0-2.5c0,0,0.1,2.7,0.2,2.7c0.1,0,0-2.3,0-2.3c0,0,0,2.4,0,2.4
					c0,0-0.1-2.4,0-2.4c0,0,0,2.5,0.1,2.5c0.1,0-0.1-2.7,0-2.7c0,0,0.2,2.2,0.3,2.2c0,0-0.1-2,0-2c0,0,0,1.8,0.1,1.8
					c0.1,0-0.1-1.9,0-1.9c0,0,0,1.8,0,1.8c0.1,0,0-2.1,0-2.1c0,0,0.1,2.3,0.2,2.3c0.1,0-0.1-1.9,0-1.9c0,0,0.1,2.5,0.2,2.5
					c0.1,0,0-2.3,0-2.3c0,0,0.1,2.1,0.1,2.1c0.1,0-0.1-1.8,0-1.8c0,0,0.2,1.5,0.2,1.5c0.1,0-0.1-1.8,0-1.8c0,0,0.1,2.6,0.2,2.6
					c0.1,0-0.1-2.3,0-2.3c0,0,0.2,2.4,0.3,2.4c0,0,0-2.3,0-2.3c0.1,0,0,2.4,0.1,2.4c0.1,0-0.1-3,0-3c0,0,0,2.3,0.1,2.3
					c0.1,0-0.1-1.7,0-1.7c0,0,0.2,1.6,0.2,1.6c0,0-0.1-1.8,0-1.8c0,0,0.3,2.5,0.3,2.5c0,0-0.1-2.2,0-2.2c0,0,0.2,2.1,0.3,2.1
					c0.1,0,0-1.9,0-1.9c0,0,0.2,1.8,0.2,1.8c0,0-0.1-1.5,0-1.5c0,0,0.1,1.8,0.1,1.8c0.1,0,0-1.8,0-1.8c0.1,0,0.2,2.5,0.2,2.5
					c0,0-0.1-3.1,0-3.1c0.1,0,0,3.2,0,3.2c0.1,0-0.1-2.8,0-2.8c0,0,0.1,2.3,0.1,2.3c0.1,0-0.1-2,0-2c0,0,0,1.7,0.1,1.7
					c0.1,0,0-1.6,0-1.6c0,0,0,1.5,0,1.5c0.1,0-0.1-2.1,0-2.1c0,0,0.2,3.1,0.3,3.1c0,0-0.1-2.4,0-2.4c0,0,0.1,2,0.1,2
					c0.1,0,0-2.1,0-2.1c0,0,0.2,2.1,0.2,2.1c0.1,0-0.2-2.2,0-2.2c0.1,0,0.2,2.8,0.2,2.8c0.1,0-0.2-2.7,0-2.7c0,0,0.1,2.3,0.1,2.3
					c0.1,0-0.1-2.5,0-2.5c0,0,0,2.8,0.1,2.8c0.1,0-0.1-1.9,0-1.9c0,0,0,1.4,0,1.4c0,0-0.1-1.8,0-1.8c0,0,0,2.4,0,2.4
					c0.1,0-0.1-1.9,0-1.9c0,0,0,1.8,0.1,1.8c0.1,0-0.1-2.3,0-2.3c0,0,0.1,2.4,0.2,2.4c0,0-0.1-2.4,0-2.4c0,0,0.2,2.4,0.2,2.4
					c0.1,0-0.1-1.8,0-1.8c0,0,0.1,1.9,0.2,1.9c0.1,0,0-2.2,0-2.2c0,0,0.2,2.5,0.3,2.5c0,0-0.2-2.6,0-2.6c0,0,0.2,2.2,0.2,2.2
					c0.2,0,0-1.6,0-1.6c0,0,0.2,2.6,0.2,2.6c0.1,0-0.1-2.5,0-2.5c0,0,0.2,2.3,0.3,2.3c0.1,0-0.1-2.9,0-2.9c0.1,0,0,3,0.1,3
					c0.1,0,0-2.6,0-2.6c0.1,0,0.1,2.8,0.2,2.8c0,0,0-3.2,0-3.2c0.1,0,0.1,2.7,0.1,2.7c0.1,0,0-1.9,0-1.9c0,0,0.1,2.2,0.1,2.2
					c0.2,0,0-2.2,0-2.2c0.1,0,0.2,2.9,0.3,2.9c0.1,0,0-3.1,0-3.1c0,0,0.1,3.1,0.2,3.1c0.2,0-0.1-2.5,0-2.5c0,0,0.2,2.8,0.2,2.8
					c0.1,0-0.1-2.7,0-2.7c0,0,0.2,2.5,0.3,2.5c0.1,0-0.1-2.1,0-2.1c0,0,0.1,1.7,0.1,1.7c0,0,0-2.6,0-2.6c0.1,0,0.2,3,0.2,3
					c0,0-0.1-2.9,0-2.9c0.1,0,0,2.9,0.1,2.9c0.1,0,0-2.2,0-2.2c0,0,0,2.3,0.1,2.3c0.2,0-0.1-3,0-3c0,0,0,3.6,0,3.6c0.1,0-0.1-3,0-3
					c0.1,0,0.1,3.1,0.2,3.1c0.1,0-0.1-3,0-3c0,0,0.2,3,0.2,3c0,0,0-2.6,0-2.6c0,0,0.2,2.7,0.3,2.7c0.1,0,0-2.4,0-2.4
					c0,0,0.1,2.4,0.2,2.4c0,0-0.1-2.8,0-2.8c0.1,0,0.2,2.6,0.2,2.6c0.1,0-0.1-2.2,0-2.2c0,0,0,2.3,0,2.3c0.1,0,0-2.5,0-2.5
					c0,0-0.1,2.8,0,2.8c0.1,0-0.2-3.1,0-3.1c0,0,0.2,2.9,0.3,2.9c0.1,0,0-2.6,0-2.6c0,0,0.1,2.7,0.1,2.7c0.1,0,0-2.2,0-2.2
					c0,0,0,2.4,0,2.4c0,0-0.1-2.9,0-2.9c0,0,0.1,2.8,0.1,2.8c0.1,0-0.2-2.3,0-2.3c0,0,0.3,2.7,0.3,2.7c0.2,0,0-2.8,0-2.8
					c0.1,0,0.2,3.1,0.2,3.1c0.1,0,0-3,0-3c0,0,0.2,3.4,0.3,3.4c0.2,0-0.2-3.2,0-3.2c0.1,0,0,3.8,0.1,3.8c0.2,0-0.1-3.7,0-3.7
					c0.1,0,0,3,0,3c0,0-0.1-2.6,0-2.6c0,0,0.1,2.9,0.1,2.9c0.1,0-0.2-2.7,0-2.7c0.1,0,0.3,2.6,0.3,2.6c0.2,0-0.1-3.1,0-3.1
					c0,0,0.1,3.8,0.1,3.8c0.1,0-0.1-2.9,0-2.9c0,0,0.2,3.4,0.3,3.4c0.2,0-0.1-3.4,0-3.4c0,0,0.3,3.1,0.3,3.1c0.1,0,0-3.3,0-3.3
					c0,0,0.2,4,0.2,4c0.1,0-0.2-3.7,0-3.7c0,0,0.2,3.5,0.2,3.5c0.1,0-0.1-3.3,0-3.3c0.1,0,0.1,3.6,0.1,3.6c0.1,0-0.1-3.4,0-3.4
					c0,0,0,3.8,0.1,3.8c0,0-0.1-3.8,0-3.8c0.1,0,0.2,3.3,0.2,3.3c0,0-0.1-3.3,0-3.3c0.1,0,0.2,3.6,0.3,3.6c0.1,0-0.1-3.5,0-3.5
					c0.1,0,0.1,3.7,0.2,3.7c0,0-0.1-2.7,0-2.7c0,0,0.1,3,0.2,3c0.1,0-0.2-3.4,0-3.4c0.1,0,0,3.4,0.1,3.4c0,0-0.1-3.2,0-3.2
					c0.1,0,0.1,3.4,0.2,3.4c0.1,0,0-2.7,0-2.7c0.1,0,0.2,3.4,0.2,3.4c0.2,0-0.2-3.3,0-3.3c0,0,0,2.7,0.1,2.7c0.1,0,0-3.5,0-3.5
					c0,0,0.1,3.7,0.1,3.7c0,0-0.1-3.6,0-3.6c0.1,0,0,4.2,0.1,4.2c0.1,0-0.2-4,0-4c0,0,0,4,0,4c0.2,0-0.1-4.3,0-4.3
					c0.1,0,0,4.1,0,4.1c0.1,0-0.1-3.3,0-3.3c0.1,0,0.1,3.2,0.2,3.2c0,0,0-3.8,0-3.8c0,0,0,3.7,0.1,3.7c0.1,0-0.1-3.7,0-3.7
					c0.1,0,0.2,4.4,0.2,4.4c0.1,0,0-3.5,0-3.5c0.1,0,0,3.9,0.1,3.9c0.1,0-0.1-3.8,0-3.8c0.1,0,0.1,3.6,0.1,3.6c0,0,0-4.1,0-4.1
					c0,0,0,4.2,0.1,4.2c0,0-0.1-3.8,0-3.8c0,0,0.1,3.7,0.2,3.7c0,0,0-3.1,0-3.1c0,0,0.1,3.3,0.2,3.3c0.1,0,0-3.9,0-3.9
					c0.1,0,0.2,4.9,0.3,4.9c0.1,0-0.2-3.8,0-3.8c0,0,0,3.4,0.1,3.4c0,0-0.2-3.7,0-3.7c0,0,0,4.3,0.1,4.3c0.1,0-0.2-3.8,0-3.8
					c0,0,0.2,4.3,0.2,4.3c0.1,0-0.1-4.9,0-4.9c0.1,0,0.1,4.6,0.1,4.6c0.2,0,0-4.4,0-4.4c0,0,0.2,4.5,0.2,4.5c0,0-0.1-4,0-4
					c0.1,0,0.2,4.3,0.3,4.3c0.2,0,0-4.3,0-4.3c0,0,0,4.4,0.1,4.4c0,0-0.1-4,0-4c0,0,0,4.6,0,4.6c0,0-0.2-4.6,0-4.6
					c0.1,0,0.2,4.5,0.2,4.5c0.2,0-0.1-3.7,0-3.7c0,0,0,3.8,0.1,3.8c0.2,0-0.1-4.2,0-4.2c0.1,0,0.1,4.6,0.1,4.6c0.1,0-0.1-4.6,0-4.6
					c0,0,0,5,0,5c0.2,0-0.2-4.6,0-4.6c0.1,0,0.1,4.7,0.1,4.7c0.2,0-0.1-4.8,0-4.8c0.1,0,0,4.9,0.2,4.9c0.2,0-0.1-4.7,0-4.7
					c0,0,0,4.8,0,4.8c0.1,0-0.2-5.1,0-5.1c0.1,0,0.2,4.9,0.3,4.9c0,0-0.1-4,0-4c0,0,0.1,5,0.2,5c0.1,0,0-5.1,0-5.1
					c0.1,0,0,5.4,0.1,5.4c0,0,0-4.8,0-4.8c0,0,0,4.3,0.1,4.3c0.1,0-0.1-4.8,0-4.8c0,0,0.2,5.3,0.3,5.3c0,0-0.2-5,0-5
					c0.1,0,0,5.4,0.1,5.4c0.2,0,0-4.9,0-4.9c0.1,0-0.1,4.7,0,4.7c0.1,0-0.1-5,0-5c0,0,0,5.7,0,5.7c0.1,0,0-5.7,0-5.7
					c0.1,0,0.2,6.4,0.3,6.4c0,0-0.2-5.8,0-5.8c0.1,0,0.1,5.4,0.2,5.4c0.2,0,0-5.7,0-5.7c0.2,0-0.1,6.7,0.1,6.7c0.1,0,0-6,0-6
					c0.1,0,0.2,5.9,0.3,5.9c0,0,0-6.1,0-6.1c0,0,0,6.3,0.1,6.3c0.3,0-0.2-5.5,0-5.5c0.1,0,0,5.6,0.1,5.6c0.1,0-0.2-5.8,0-5.8
					c0.2,0,0.2,6.8,0.3,6.8c0.3,0,0-6.7,0-6.7c0.1,0,0,6.7,0.2,6.7c0.2,0-0.2-5.8,0-5.8c0.2,0-0.1,6.4,0.1,6.4c0,0-0.1-6.7,0-6.7
					c0.1,0,0.1,7,0.1,7c0.2,0-0.2-6.4,0-6.4c0.1,0,0.1,7.1,0.2,7.1c0.1,0-0.2-6.9,0-6.9c0.1,0-0.1,7,0.1,7c0.2,0-0.2-7.3,0-7.3
					c0.1,0,0.1,8,0.1,8c0,0-0.2-7.2,0-7.2c0.1,0,0.1,8.4,0.3,8.4c0.1,0,0-8.7,0-8.7c0.1,0,0,9.5,0.2,9.5c0.1,0-0.1-8.5,0-8.5
					c0,0-0.1,7.8,0.1,7.8c0.3,0-0.3-7.8,0-7.8c0,0-0.1,8.6,0.1,8.6c0,0-0.3-8.7,0-8.7c0.1,0-0.1,9,0,9c0.1,0-0.1-8.9,0-8.9
					c0.3,0-0.1,9.4,0.1,9.4c0.2,0,0-9.1,0-9.1c0.3,0,0.2,10.3,0.2,10.3c0.1,0-0.3-9.9,0-9.9c0.2,0,0.2,10.4,0.2,10.4c0,0,0-10,0-10
					c0.2,0-0.3,10.8,0,10.8c0.2,0-0.1-10.8,0-10.8c0.1,0,0.1,12.8,0.2,12.8c0.2,0-0.2-12.5,0-12.5c0.3,0-0.2,13,0,13
					c0.1,0-0.2-12.7,0-12.7"/>
				<path fill="none" stroke="#FFFFFF" stroke-width="0.4" stroke-linecap="round" stroke-linejoin="round" d="M4.4,77.1
					C4.5,77.1,4.4,77.1,4.4,77.1c0,0,0,0.6,0,0.6c0.1,0,0-0.5,0-0.5c0.1,0,0.1,2.8,0.2,2.8c0.2,0-0.2-4.9,0-4.9
					c0.1,0-0.1,5.2,0.1,5.2c0.1,0-0.2-6.2,0-6.2c0.1,0,0.1,6.5,0.1,6.5c0.1,0-0.1-7.1,0-7.1c0,0-0.1,7.7,0.1,7.7
					c0.2,0-0.2-8.1,0-8.1c0.1,0,0,7.9,0,7.9c0.3,0-0.1-7.6,0-7.6c0,0-0.1,7.9,0,7.9c0.3,0-0.1-7.8,0-7.8c0.3,0,0,8.7,0.1,8.7
					c0.3,0-0.2-9.8,0-9.8c0.2,0,0.2,10.7,0.2,10.7c0.4,0-0.3-11.6,0-11.6c0,0-0.3,11.6,0,11.6c0.3,0-0.3-12.2,0-12.2
					C5.7,70.8,5.5,84,5.7,84c0.4,0-0.3-14,0-14C5.9,70,5.9,85.1,6,85.1c0.3,0-0.4-15.2,0-15.2c0.2,0-0.3,15.5,0.1,15.5
					c0.2,0-0.2-16.2,0-16.2c0.3,0-0.2,15.6,0,15.6c0.5,0-0.4-16.1,0-16.1c0.2,0-0.2,16.8,0.1,16.8c0,0-0.5-16.6,0-16.6
					C6.4,69,6,86,6.3,86c0.3,0-0.1-16.7,0-16.7c0.2,0,0.1,17,0.3,17c0.4,0-0.1-17.9,0-17.9c0.6,0,0.1,19,0.1,19
					c0.4,0-0.1-19.1,0-19.1c0,0-0.2,19.2,0.3,19.2c0.2,0-0.6-20.1,0-20.1c0,0-0.4,20.5,0.1,20.5c0.3,0-0.6-21.1,0-21.1
					c0.1,0-0.2,21.1,0.1,21.1c0.3,0-0.2-21,0-21c0.3,0-0.2,21.3,0,21.3c0.7,0-0.5-22.1,0-22.1c0.5,0,0,21.7,0,21.7
					c0.3,0-0.5-20.9,0-20.9c0.4,0-0.1,22,0.2,22c0.2,0-0.5-22.6,0-22.6c0.3,0-0.1,22.3,0.2,22.3c0.5,0-0.1-22.6,0-22.6
					C8.3,66,7.9,89.3,8,89.3c0.7,0-0.2-24.1,0-24.1c0.4,0-0.1,24.6,0,24.6c0.1,0-0.5-24.5,0-24.5c0.5,0-0.2,24.7,0.2,24.7
					c0.6,0-0.6-24.8,0-24.8c0.7,0,0.1,25,0.3,25c0.7,0-0.6-25.7,0-25.7c0.4,0-0.3,26.3,0.1,26.3c0.6,0-0.4-26.2,0-26.2
					c0.6,0-0.7,25.9,0.1,25.9c0.5,0-0.6-26.3,0-26.3c0.6,0-0.4,26.8,0.3,26.8c0.2,0-0.6-27.2,0-27.2c0.3,0,0,27,0.2,27
					c0.5,0-0.3-27.6,0-27.6c0.3,0-0.3,28.5,0,28.5c0.7,0-0.6-28.5,0-28.5C9.7,63.1,8.9,91,9.2,91c0.2,0-0.5-27.6,0-27.6
					c0,0,0.2,28.4,0.2,28.4c0.1,0-0.2-12.1,0-12.1c0.4,0,0,12.7,0.2,12.7c0.4,0-0.1-10.5,0-10.5c0.3,0,0.2,10.4,0.2,10.4
					c0.1,0-0.4-9.3,0-9.3c0.2,0,0,9.5,0.2,9.5c0.2,0-0.1-8.7,0-8.7c0.1,0,0.1,9,0.3,9c0.2,0-0.2-7.4,0-7.4c0.1,0,0.1,7.7,0.1,7.7
					c0.2,0,0-8,0-8c0.1,0,0.1,8.2,0.2,8.2c0.2,0-0.1-6.9,0-6.9c0.1,0,0,6.9,0.1,6.9c0.1,0-0.1-7,0-7c0.2,0,0,7.3,0.2,7.3
					c0.2,0-0.2-6.6,0-6.6c0.1,0-0.1,7.2,0.1,7.2c0.1,0-0.2-6.9,0-6.9c0,0,0,7,0.2,7c0.1,0-0.2-7,0-7c0.1,0-0.1,6.6,0,6.6
					c0.1,0-0.2-6.7,0-6.7c0.2,0,0,6.7,0.2,6.7c0,0-0.2-5.6,0-5.6c0.1,0-0.1,6.2,0.1,6.2c0.1,0-0.1-6.4,0-6.4c0,0,0.1,6.2,0.1,6.2
					c0.2,0,0-5.5,0-5.5c0.1,0,0.2,5.5,0.3,5.5c0.2,0-0.1-5.1,0-5.1c0,0,0.2,6.3,0.2,6.3c0.1,0-0.1-6,0-6c0.1,0,0.3,5.7,0.3,5.7
					c0.1,0-0.2-5.5,0-5.5c0.1,0,0,6.1,0.2,6.1c0.2,0-0.1-5.5,0-5.5c0.1,0,0.2,5.6,0.2,5.6c0,0-0.2-4.7,0-4.7c0.1,0,0.2,4.7,0.2,4.7
					c0.1,0-0.1-4.8,0-4.8c0.1,0,0.1,5.2,0.1,5.2c0.1,0,0-5.4,0-5.4c0.1,0,0,5.5,0,5.5c0.2,0-0.1-5.3,0-5.3c0.1,0,0,5.6,0.1,5.6
					c0.2,0-0.2-5,0-5c0.1,0,0.1,4.5,0.2,4.5c0,0-0.2-4.3,0-4.3c0.1,0,0,4.5,0.2,4.5c0,0,0-4.4,0-4.4c0.1,0,0.1,5.1,0.2,5.1
					c0.2,0-0.1-5.3,0-5.3c0.1,0,0.2,5.4,0.3,5.4c0.1,0-0.2-4.7,0-4.7c0,0,0.1,4.6,0.1,4.6c0.1,0-0.1-4.7,0-4.7c0,0,0.2,4.9,0.3,4.9
					c0.1,0-0.2-4.1,0-4.1c0,0,0.2,3.9,0.2,3.9c0.1,0-0.1-3.2,0-3.2c0,0,0,3.8,0.1,3.8c0,0,0-4.2,0-4.2c0,0,0.1,4.2,0.2,4.2
					c0,0,0-4.2,0-4.2c0.1,0,0,4.4,0,4.4c0.2,0-0.1-4.3,0-4.3c0,0,0.1,4.8,0.2,4.8c0.1,0-0.2-4.6,0-4.6c0.1,0,0.2,4.7,0.2,4.7
					c0,0-0.1-4.5,0-4.5c0,0,0.2,4.2,0.2,4.2c0.2,0-0.2-4,0-4c0,0,0,4.7,0.1,4.7c0,0-0.2-4.4,0-4.4c0.1,0,0.2,4.1,0.3,4.1
					c0.1,0-0.2-3.1,0-3.1c0.1,0,0.2,3.3,0.3,3.3c0.1,0-0.1-3.3,0-3.3c0.1,0,0.2,3.9,0.3,3.9c0.2,0-0.1-3.6,0-3.6
					c0,0,0.1,3.8,0.1,3.8c0.2,0,0-4.1,0-4.1c0,0,0.1,3.8,0.2,3.8c0,0-0.2-3.6,0-3.6c0.1,0,0.1,4,0.1,4c0.1,0,0-4,0-4
					c0.1,0,0,3.6,0,3.6c0.2,0-0.1-3.6,0-3.6c0,0,0.2,3.7,0.3,3.7c0.2,0-0.2-2.9,0-2.9c0,0,0.2,3.5,0.3,3.5c0.2,0,0-3.5,0-3.5
					c0.1,0,0.1,3.5,0.2,3.5c0.2,0-0.1-3.5,0-3.5c0,0,0,3.8,0.2,3.8c0,0,0-3.6,0-3.6c0,0,0.2,4,0.3,4c0.1,0-0.1-3.5,0-3.5
					c0,0,0.1,3.1,0.1,3.1c0,0,0-3.2,0-3.2c0,0,0.3,3,0.3,3c0.1,0-0.1-2.7,0-2.7c0,0,0.2,2.9,0.3,2.9c0,0-0.1-2.2,0-2.2
					c0,0,0.1,2.2,0.1,2.2c0.1,0,0-3,0-3c0.1,0-0.1,3.4,0,3.4c0,0,0-2.6,0-2.6c0.1,0,0.1,2.8,0.1,2.8c0.1,0-0.1-2.7,0-2.7
					c0,0,0,2.2,0.1,2.2c0.1,0-0.2-2.1,0-2.1c0,0,0.2,2.2,0.2,2.2c0.1,0-0.1-2.2,0-2.2c0.1,0,0.2,2.4,0.2,2.4c0.1,0-0.1-2.3,0-2.3
					c0.1,0,0.1,3.1,0.1,3.1c0,0-0.1-3,0-3c0,0,0.1,2.2,0.1,2.2c0,0-0.1-2.8,0-2.8c0.1,0,0.2,2.9,0.2,2.9c0,0-0.2-2.5,0-2.5
					c0.1,0,0,2.6,0,2.6c0.1,0-0.1-2.7,0-2.7"/>
			</g>
		</g>
	</g>
</g>
</svg>
