<?xml version="1.0" encoding="utf-8"?>
<!-- Generator: Adobe Illustrator 17.1.0, SVG Export Plug-In . SVG Version: 6.00 Build 0)  -->
<!DOCTYPE svg PUBLIC "-//W3C//DTD SVG 1.0//EN" "http://www.w3.org/TR/2001/REC-SVG-20010904/DTD/svg10.dtd">
<svg version="1.0" id="_x35_8_1_" xmlns="http://www.w3.org/2000/svg" xmlns:xlink="http://www.w3.org/1999/xlink" x="0px" y="0px"
	 viewBox="0 0 500 500" enable-background="new 0 0 500 500" xml:space="preserve">
<g id="_x32_6">
	<g>
		<path fill-rule="evenodd" clip-rule="evenodd" fill="#FFFFFF" d="M244.1,231l168.2-115c19.1-18.7,19.1-49.1,0-67.9l-23.1-22.6
			c-19.1-18.7-50.2-18.7-69.4,0L91.1,199.6c-2.4,2.3-4.5,4.9-6.3,7.5c-13.2,19.2-11.1,45.5,6.3,62.5L305.9,474
			c19.8,19.3,51.8,19.3,71.6,0l23.9-23.3c19.8-19.3,19.8-50.7,0-70L244.1,231z M365.5,439c-13.2,12.9-34.6,12.9-47.7,0L126.9,258
			c-6.7-6.6-9.9-15.3-9.8-23.9c-0.1-8.4,2.9-16.8,9.5-23.2L332.2,59.4c12.8-12.5,33.5-12.5,46.2,0c12.8,12.5,12.8,32.7,0,45.2
			L197.1,232.5l168.5,159.8C378.7,405.2,378.7,426.1,365.5,439z"/>
	</g>
</g>
</svg>
