<?xml version="1.0" encoding="utf-8"?>
<!-- Generator: Adobe Illustrator 17.1.0, SVG Export Plug-In . SVG Version: 6.00 Build 0)  -->
<!DOCTYPE svg PUBLIC "-//W3C//DTD SVG 1.0//EN" "http://www.w3.org/TR/2001/REC-SVG-20010904/DTD/svg10.dtd">
<svg version="1.0" id="Camada_1" xmlns="http://www.w3.org/2000/svg" xmlns:xlink="http://www.w3.org/1999/xlink" x="0px" y="0px"
	 viewBox="0 0 178 240" enable-background="new 0 0 178 240" xml:space="preserve">
<g id="_x32_6">
	<g>
		<path fill="#FFFFFF" d="M85.4,110.6l83.4-57c9.5-9.3,9.5-24.4,0-33.7L157.3,8.7c-9.5-9.3-24.9-9.3-34.4,0L9.5,95
			c-1.2,1.1-2.2,2.4-3.1,3.7c-6.5,9.5-5.5,22.6,3.1,31L116,231.1c9.8,9.6,25.7,9.6,35.5,0l11.9-11.6c9.8-9.6,9.8-25.1,0-34.7
			L85.4,110.6z M145.6,213.8c-6.5,6.4-17.2,6.4-23.7,0L27.2,124c-3.3-3.3-4.9-7.6-4.9-11.9c0-4.2,1.4-8.3,4.7-11.5l102-75.1
			c6.3-6.2,16.6-6.2,22.9,0c6.3,6.2,6.3,16.2,0,22.4L62,111.3l83.6,79.3C152.1,197,152.1,207.4,145.6,213.8z"/>
	</g>
</g>
</svg>
