<?xml version="1.0" encoding="utf-8"?>
<!-- Generator: Adobe Illustrator 17.1.0, SVG Export Plug-In . SVG Version: 6.00 Build 0)  -->
<!DOCTYPE svg PUBLIC "-//W3C//DTD SVG 1.0//EN" "http://www.w3.org/TR/2001/REC-SVG-20010904/DTD/svg10.dtd">
<svg version="1.0" id="_x35_8_1_" xmlns="http://www.w3.org/2000/svg" xmlns:xlink="http://www.w3.org/1999/xlink" x="0px" y="0px"
	 viewBox="0 0 500 500" enable-background="new 0 0 500 500" xml:space="preserve">
<g id="_x32_2" opacity="0.6">
	<g>
		<path fill-rule="evenodd" clip-rule="evenodd" d="M482.9,300.2c0-30.3-11.7-58.3-31.4-81.4c-15.3,97.7-112.3,173.1-230.1,173.1
			c-17.5,0-34.4-1.8-50.7-4.9c31.9,33.7,81.7,55.6,138,55.6c17.2,0,33.7-2.1,49.4-5.9l39.8,39.4c3,3,7,4.5,11,4.5
			c2.2,0,4.5-0.5,6.6-1.5c5.9-2.8,9.5-8.9,8.9-15.4l-4.5-53.8C458.3,383.8,482.9,344.3,482.9,300.2z M299.3,230.4
			c16.1,0,29.1-13,29.1-29.1c0-16.1-13-29.1-29.1-29.1c-16.1,0-29.1,13-29.1,29.1C270.2,217.4,283.2,230.4,299.3,230.4z
			 M144.1,172.2c-16.1,0-29.1,13-29.1,29.1c0,16.1,13,29.1,29.1,29.1c16.1,0,29.1-13,29.1-29.1C173.2,185.2,160.1,172.2,144.1,172.2
			z M424.9,192c0-96.7-91.1-175-203.5-175C109,16.9,17.9,95.3,17.9,192c0,53.9,28.4,102.1,72.9,134.2l-4.5,53
			c-0.6,7.6,3.5,14.8,10.4,18c2.5,1.2,5.1,1.7,7.7,1.7c4.7,0,9.3-1.8,12.8-5.3l36.9-36.6c21,6.3,43.6,10,67.1,10
			C333.8,367,424.9,288.6,424.9,192z M149.2,319.1l-19.5,19.3c-1.5,1.5-3.5,2.3-5.5,2.3c-1.1,0-2.2-0.2-3.3-0.7
			c-3-1.4-4.7-4.5-4.5-7.7l2.4-28.4c-40.7-25.7-67-66.1-67-111.8c0-77.7,75.9-140.6,169.6-140.6c93.7,0,169.6,63,169.6,140.6
			c0,77.7-75.9,140.6-169.6,140.6C195.5,332.6,171.1,327.7,149.2,319.1z M250.8,201.3c0-16.1-13-29.1-29.1-29.1
			c-16.1,0-29.1,13-29.1,29.1c0,16.1,13,29.1,29.1,29.1C237.7,230.4,250.8,217.4,250.8,201.3z"/>
	</g>
</g>
</svg>
