<?xml version="1.0" encoding="utf-8"?>
<!-- Generator: Adobe Illustrator 17.1.0, SVG Export Plug-In . SVG Version: 6.00 Build 0)  -->
<!DOCTYPE svg PUBLIC "-//W3C//DTD SVG 1.0//EN" "http://www.w3.org/TR/2001/REC-SVG-20010904/DTD/svg10.dtd">
<svg version="1.0" id="_x35_8_1_" xmlns="http://www.w3.org/2000/svg" xmlns:xlink="http://www.w3.org/1999/xlink" x="0px" y="0px"
	 viewBox="0 0 250 250" enable-background="new 0 0 250 250" xml:space="preserve">
<g id="_x32_1">
	<g>
		<path fill-rule="evenodd" clip-rule="evenodd" fill="#00AEAD" d="M125.4,94.4c-10.9,0-19.7,8.8-19.7,19.7
			c0,10.9,8.8,19.7,19.7,19.7s19.7-8.8,19.7-19.7C145.1,103.3,136.3,94.4,125.4,94.4z M125.4,15.5C60,15.5,7,59.7,7,114.2
			c0,26.6,12.7,50.7,33.2,68.4L37,220.1c-0.4,4.8,2.2,9.3,6.6,11.4c1.6,0.7,3.2,1.1,4.9,1.1c3,0,5.9-1.1,8.1-3.3l24-23.8
			c13.8,4.7,28.9,7.4,44.8,7.4c65.4,0,118.4-44.2,118.4-98.7C243.8,59.7,190.8,15.5,125.4,15.5z M125.4,193.5
			c-18,0-34.8-3.9-49.3-10.7l-11.7,11.6c-0.9,0.9-2.2,1.4-3.5,1.4c-0.7,0-1.4-0.2-2.1-0.5c-1.9-0.9-3-2.8-2.8-4.9l1.5-18.3
			c0-0.2,0.1-0.3,0.1-0.4c-19-14.5-31-34.9-31-57.6c0-43.8,44.2-79.3,98.7-79.3s98.7,35.5,98.7,79.3
			C224.1,158,179.9,193.5,125.4,193.5z M76.1,94.4c-10.9,0-19.7,8.8-19.7,19.7c0,10.9,8.8,19.7,19.7,19.7c10.9,0,19.7-8.8,19.7-19.7
			C95.8,103.3,87,94.4,76.1,94.4z M174.7,94.4c-10.9,0-19.7,8.8-19.7,19.7c0,10.9,8.8,19.7,19.7,19.7c10.9,0,19.7-8.8,19.7-19.7
			C194.5,103.3,185.6,94.4,174.7,94.4z"/>
	</g>
</g>
</svg>
