<?xml version="1.0" encoding="utf-8"?>
<!-- Generator: Adobe Illustrator 17.1.0, SVG Export Plug-In . SVG Version: 6.00 Build 0)  -->
<!DOCTYPE svg PUBLIC "-//W3C//DTD SVG 1.0//EN" "http://www.w3.org/TR/2001/REC-SVG-20010904/DTD/svg10.dtd">
<svg version="1.0" id="Camada_1" xmlns="http://www.w3.org/2000/svg" xmlns:xlink="http://www.w3.org/1999/xlink" x="0px" y="0px"
	 viewBox="0 0 250 155" enable-background="new 0 0 250 155" xml:space="preserve">
<g>
	<path fill="#666666" d="M112.9,142.3c0,0-0.3,0-0.3-0.3c-0.7-0.7-1.7-1.3-2.3-2.3l-95-93.6c-4-4-6-9.7-6-15c0-5.7,2-10.7,6-15
		c8.3-8.3,21.3-8.3,30,0L124.9,95l79.6-78.9c8.3-8.3,21.6-8.3,30,0c8,8,8,21.6,0,30l-94.9,93.5c-0.7,1-1.7,1.7-2.3,2.3
		c0,0.3-0.7,0.3-0.7,0.3c-1.3,0.7-2,1.3-3,1.7c-0.3,0-0.3,0.3-0.7,0.3c-1,0.3-1.7,0.3-3,1c-0.3,0-0.3,0.3-1,0.3s-1.7,0-2.3,0
		c-0.3,0-1.3,0.3-1.7,0.3s-1.3-0.3-1.7-0.3c-1,0-1.7,0-2.7,0c-0.3,0-0.3-0.3-0.7-0.3c-1.3-0.7-2.3-0.7-3-1c-0.3,0-0.3-0.3-1-0.3
		C115.2,143.6,114.2,142.9,112.9,142.3z"/>
</g>
</svg>
