<?xml version="1.0" encoding="utf-8"?>
<!-- Generator: Adobe Illustrator 17.1.0, SVG Export Plug-In . SVG Version: 6.00 Build 0)  -->
<!DOCTYPE svg PUBLIC "-//W3C//DTD SVG 1.0//EN" "http://www.w3.org/TR/2001/REC-SVG-20010904/DTD/svg10.dtd">
<svg version="1.0" id="Camada_1" xmlns="http://www.w3.org/2000/svg" xmlns:xlink="http://www.w3.org/1999/xlink" x="0px" y="0px"
	 viewBox="0 0 147 147" enable-background="new 0 0 147 147" xml:space="preserve">
<g id="Ellipse_6_copy_3">
	<g>
		<ellipse fill="#FF4442" cx="73.8" cy="73.5" rx="72.2" ry="72.5"/>
	</g>
</g>
<g id="Shape_11">
	<g>
		<path fill="#FFFFFF" d="M113.5,63.1c0-5.1-8.5-9.1-40.9-9.1s-41.1,4-41.1,9.1c0,0,0,12,0,18.5c0,0,0.7,28.9,24,37.1
			c11.4,3.3,22.9,3.3,34.3,0c23.1-8.3,23.6-37.1,23.6-37.1C113.5,77,113.5,63.1,113.5,63.1z M63.8,112.9c-1.2,4-7.1,2.7-11,0.7
			c-8.3-4.8-16.7-18.1-15.1-20.7C39.9,89.5,66.2,104.4,63.8,112.9z M49.6,79.5c0.2-0.2,0.5-0.3,0.8-0.3s0.6,0.1,0.8,0.3
			c0.2,0.2,0.3,0.5,0.3,0.8s-0.1,0.6-0.3,0.8c-0.2,0.2-0.5,0.3-0.8,0.3s-0.6-0.1-0.8-0.3c-0.2-0.2-0.3-0.5-0.3-0.8
			C49.2,80,49.4,79.7,49.6,79.5z M49.2,76.2c0-0.3,0.1-0.6,0.3-0.8c0.2-0.2,0.5-0.3,0.8-0.3s0.6,0.1,0.8,0.3
			c0.2,0.2,0.3,0.5,0.3,0.8s-0.1,0.6-0.3,0.8c-0.2,0.2-0.5,0.3-0.8,0.3s-0.6-0.1-0.8-0.3C49.4,76.7,49.2,76.5,49.2,76.2z M49.6,83.6
			c0.2-0.2,0.5-0.3,0.8-0.3s0.6,0.1,0.8,0.3c0.2,0.2,0.3,0.5,0.3,0.8s-0.1,0.6-0.3,0.8c-0.2,0.2-0.5,0.3-0.8,0.3s-0.6-0.1-0.8-0.3
			c-0.2-0.2-0.3-0.5-0.3-0.8C49.2,84.1,49.4,83.8,49.6,83.6z M49.6,87.7c0.2-0.2,0.5-0.3,0.8-0.3s0.6,0.1,0.8,0.3
			c0.2,0.2,0.3,0.5,0.3,0.8s-0.1,0.6-0.3,0.8c-0.2,0.2-0.5,0.3-0.8,0.3s-0.6-0.1-0.8-0.3c-0.2-0.2-0.3-0.5-0.3-0.8
			C49.2,88.2,49.4,87.9,49.6,87.7z M93,113.6c-3.8,2-9.8,3.3-11-0.7c-2.4-8.5,23.9-23.4,26-20C109.8,95.4,101.3,108.7,93,113.6z
			 M72.7,70c-20.3,0-36.8-2.8-36.8-6.2c0-3.4,16.5-6.2,36.8-6.2s36.8,2.8,36.8,6.2C109.4,67.3,93,70,72.7,70z"/>
	</g>
</g>
<g id="Shape_12">
	<g>
		<path fill="#FFFFFF" d="M94.1,21c-2.3,0-9.1,0-9.1,0s-1.2,0-1.8,1H56c-4.3,0-12.4,2-12.4,10c0,0.1,0.1,10,12.4,10h26.8
			c0.3,2,2.2,2,2.2,2s6.8,0,9.1,0c2.3,0,11.4-2.4,11.4-11.5S96.4,21,94.1,21z M46.7,32.2c0-2.9,2.4-5.3,5.3-5.3
			c2.9,0,5.3,2.4,5.3,5.3s-2.4,5.3-5.3,5.3C49.1,37.5,46.7,35.1,46.7,32.2z M92.2,35.1c-1.5,0-3.2-1.2-3.3-2.7
			c-1,0.4-5.2,2.6-6.1,7.6H56c-1.6,0-3-0.2-4.2-0.5c0.1,0,0.1,0,0.2,0c4.1,0,7.3-3.3,7.3-7.3c0-4.1-3.3-7.3-7.3-7.3
			c-0.3,0-0.7,0-1,0.1c2.4-0.9,4.8-0.9,5-0.9h26.8c0.4,5,5.2,7.9,6.2,8.3l0,0c0-1.6,1.5-2.9,3.1-2.9s3,1.3,3,2.9
			C95,33.8,93.8,35.1,92.2,35.1z"/>
	</g>
</g>
</svg>
