<?xml version="1.0" encoding="utf-8"?>
<!-- Generator: Adobe Illustrator 17.1.0, SVG Export Plug-In . SVG Version: 6.00 Build 0)  -->
<!DOCTYPE svg PUBLIC "-//W3C//DTD SVG 1.0//EN" "http://www.w3.org/TR/2001/REC-SVG-20010904/DTD/svg10.dtd">
<svg version="1.0" id="Camada_1" xmlns="http://www.w3.org/2000/svg" xmlns:xlink="http://www.w3.org/1999/xlink" x="0px" y="0px"
	 viewBox="0 0 147 147" enable-background="new 0 0 147 147" xml:space="preserve">
<g id="Ellipse_6_copy">
	<g>
		<ellipse fill-rule="evenodd" clip-rule="evenodd" fill="#7B709D" cx="73.8" cy="73.5" rx="72.2" ry="72.5"/>
	</g>
</g>
<g id="Shape_16">
	<g>
		<path fill-rule="evenodd" clip-rule="evenodd" fill="#FFFFFF" d="M106.9,80.3c3.7,0,6.7-3,6.7-6.7c0-3.7-3-6.7-6.7-6.7
			s-6.7,3-6.7,6.7C100.2,77.3,103.2,80.3,106.9,80.3z M110.4,82.1c0,0-8,0-9.3,0l-4.9-4.9l-5.6-25.7c-0.9-3.9-4.5-6.8-8.6-6.8H71.4
			c-4.4,0-8.1,3.3-8.8,7.5l-2.1,10.2l-1.8-7.2c-0.9-4-4.4-7-8.7-7H39.4c-4.9,0-8.9,4-8.9,8.9v18.7c0,3.6,2.2,6.8,5.3,8.1v23.9
			c0,3.9,3.2,7.1,7.1,7.1h3.6c3.9,0,7.1-3.2,7.1-7.1V69.2l2.6,11.2c0.5,2.2,2.4,3.5,4.5,3.5c2.2,0,4-1.3,4.4-3.5l2.7-13v40.5
			c0,3.9,3.2,7.1,7.1,7.1h3.6c3.9,0,7.1-3.2,7.1-7.1V66.5l2.5,11.8c0.4,1.9,1.9,3.3,2.4,3.8l9.3,9.3v17.4c0,3.4,2.8,6.2,6.2,6.2h1.8
			c3.4,0,6.2-2.8,6.2-6.2v-7.2c2.1-1.2,3.6-3.5,3.6-6.2v-6.2C117.5,85.3,114.3,82.1,110.4,82.1z M44.7,45.6c4.4,0,8-3.6,8-8
			c0-4.4-3.6-8-8-8s-8,3.6-8,8C36.7,42,40.3,45.6,44.7,45.6z M76.7,42c4.4,0,8-3.6,8-8c0-4.4-3.6-8-8-8c-4.4,0-8,3.6-8,8
			C68.7,38.4,72.3,42,76.7,42z"/>
	</g>
</g>
</svg>
