<?xml version="1.0" encoding="utf-8"?>
<!-- Generator: Adobe Illustrator 17.1.0, SVG Export Plug-In . SVG Version: 6.00 Build 0)  -->
<!DOCTYPE svg PUBLIC "-//W3C//DTD SVG 1.0//EN" "http://www.w3.org/TR/2001/REC-SVG-20010904/DTD/svg10.dtd">
<svg version="1.0" id="_x35_8_1_" xmlns="http://www.w3.org/2000/svg" xmlns:xlink="http://www.w3.org/1999/xlink" x="0px" y="0px"
	 viewBox="0 0 250 250" enable-background="new 0 0 250 250" xml:space="preserve">
<g id="_x37__1_">
	<g>
		<path fill-rule="evenodd" clip-rule="evenodd" fill="#FFFFFF" d="M125.2,146.5c23.2,0,32-28,32-46.6s-14.3-33.8-32-33.8
			c-17.7,0-32,15.2-32,33.8S102,146.5,125.2,146.5z M46.9,109.2c15,0,20.6-18.7,20.6-30.6c0-11.9-9.2-21.6-20.6-21.6
			c-11.4,0-20.6,9.7-20.6,21.6C26.3,90.4,31.9,109.2,46.9,109.2z M203.9,109.2c15,0,20.7-18.7,20.7-30.6c0-11.9-9.2-21.6-20.6-21.6
			c-11.4,0-20.6,9.7-20.6,21.6C183.3,90.4,188.9,109.2,203.9,109.2z M245.5,130.9c-2.9-10.8-15.5-21.2-22.4-21.2
			c-7,0-10.9,9.3-19.1,9.3h-0.5c-8.2,0-12.2-9.3-19.1-9.3c-7,0-19.7,10.4-22.4,21.2c-2.3,9.3,4.6,9.4,6.5,9.4H239
			C240.9,140.3,247.9,139.9,245.5,130.9z M87.5,131.1c-2.2-8.3-14.5-21.4-21.4-21.4c-7,0-10.9,9.3-19.1,9.3h-0.5
			c-8.2,0-12.2-9.3-19.1-9.3c-7,0-19.7,10.4-22.4,21.2c-2.3,9.3,4.6,9.4,6.5,9.4H82C83.9,140.3,89.4,138,87.5,131.1z M158.8,146.3
			c-11.9,0-18.8,9.9-32.9,9.9h-0.9c-14.1,0-20.9-9.9-32.9-9.9c-11.9,0-33.9,16.5-38.5,33.7c-3.9,14.8,7.8,14.9,11.2,14.9h121.2
			c3.4,0,15.3-0.8,11.2-14.9C192.4,162.9,170.8,146.3,158.8,146.3z"/>
	</g>
</g>
</svg>
