<?xml version="1.0" encoding="utf-8"?>
<!-- Generator: Adobe Illustrator 17.1.0, SVG Export Plug-In . SVG Version: 6.00 Build 0)  -->
<!DOCTYPE svg PUBLIC "-//W3C//DTD SVG 1.0//EN" "http://www.w3.org/TR/2001/REC-SVG-20010904/DTD/svg10.dtd">
<svg version="1.0" id="Camada_1" xmlns="http://www.w3.org/2000/svg" xmlns:xlink="http://www.w3.org/1999/xlink" x="0px" y="0px"
	 viewBox="0 0 147 147" enable-background="new 0 0 147 147" xml:space="preserve">
<g id="Ellipse_6_copy_3_1_">
	<g>
		<ellipse fill="#00AEEF" cx="73.8" cy="73.5" rx="72.2" ry="72.5"/>
	</g>
</g>
<g enable-background="new    ">
	<path fill="#FDFEFE" d="M75.3,35.6c0.3,5.9-0.4,12-0.1,17.9c0.3,15.2-1.6,32.8-0.4,48c6.3,0.5,10.6-0.3,16.9,0.5
		c5.2,1.4,4.3,10.1-1.1,10.2c-13.9,1.6-25.5-0.5-39.4,0.6c-4.5,1.5-12.7-2.6-10-8.1c5-5.3,11.6-2.9,19.7-3.3
		c-0.3-14,0-30.1,0.6-44.1c-6.4,2.3-12.3,6.7-19.4,6.8c-3.8,0.9-7.2-2.5-7.8-6.3c1.3-4.5,7.3-4.2,10.8-5.9
		c9.6-2.8,14-12.2,18.8-19.9C67.5,29.7,74.3,30.7,75.3,35.6z"/>
</g>
<g enable-background="new    ">
	<path fill="#FDFEFE" d="M115.9,78c-7.7,0.4-10.5-0.4-18.3,0c-2.6-0.1-5.9,0.3-7.6-2.1c-2.1-2.1-0.2-6.4,2.8-6.1
		c9.3-0.1,13.8,1,23,0c2.4-0.4,4.6,0.7,6.7,1.6c-0.1,1.5,0.5,3.4-0.6,4.6C120.4,77.8,117.8,77.6,115.9,78z M120.5,52.8
		c-0.1,5.7-4.9,10.6-10.2,11.6c-4.9,1-6.8,1-11.7-0.4c-4.8-1.5-9.3-5.8-8.8-11.2c0.1-9.1,5.4-12.9,11.5-14.4
		c6.3-0.7,10.6-1.2,15.6,3.6C119.5,44.3,120,49.5,120.5,52.8z M106.6,46.3c-2.4-0.2-1.6-0.2-4,0.3c-1.6,1.3-3.9,2.8-3.1,7
		c3.1,5.2,7.8,4.1,11.1-0.3C111.7,50.8,109,46.7,106.6,46.3z"/>
</g>
</svg>
