<?xml version="1.0" encoding="utf-8"?>
<!-- Generator: Adobe Illustrator 17.1.0, SVG Export Plug-In . SVG Version: 6.00 Build 0)  -->
<!DOCTYPE svg PUBLIC "-//W3C//DTD SVG 1.0//EN" "http://www.w3.org/TR/2001/REC-SVG-20010904/DTD/svg10.dtd">
<svg version="1.0" id="_x35_8_1_" xmlns="http://www.w3.org/2000/svg" xmlns:xlink="http://www.w3.org/1999/xlink" x="0px" y="0px"
	 viewBox="0 0 500 500" enable-background="new 0 0 500 500" xml:space="preserve">
<g id="Shape_3">
	<g>
		<path fill-rule="evenodd" clip-rule="evenodd" fill="#FFFFFF" d="M412.4,203.3H280.2L339.2,17c0.4-0.8,0.4-1.6,0.4-2.5
			c0-3.3-0.2-4.8-3-5.9c-0.8-0.3-1.7-0.6-2.6-0.4c-2.5,0.4-4.7,2.4-5.1,3c-0.2,0.3-0.7,0.5-0.9,0.8L85.9,274.6
			c-1.1,1.1-1.7,2.6-1.7,4.2c0,3.3,2.6,5.9,6,5.9h123.3L162,483.5v1.3c-0.1,0.4-0.4,0.9-0.4,1.3c0,3.3,2.6,5.9,6,5.9
			c1.9,0,3.6-0.8,4.7-2.1l244.4-276.4c1.1-1.1,1.7-2.6,1.7-4.2C418.4,205.9,415.8,203.3,412.4,203.3z"/>
	</g>
</g>
</svg>
