<?xml version="1.0" encoding="utf-8"?>
<!-- Generator: Adobe Illustrator 17.1.0, SVG Export Plug-In . SVG Version: 6.00 Build 0)  -->
<!DOCTYPE svg PUBLIC "-//W3C//DTD SVG 1.0//EN" "http://www.w3.org/TR/2001/REC-SVG-20010904/DTD/svg10.dtd">
<svg version="1.0" id="Camada_1" xmlns="http://www.w3.org/2000/svg" xmlns:xlink="http://www.w3.org/1999/xlink" x="0px" y="0px"
	 viewBox="0 0 240 145" enable-background="new 0 0 240 145" xml:space="preserve">
<g id="Shape_20">
	<g>
		<path fill="#E1E1D3" d="M212.9,63.8c0-1.8-1.4-3.3-3.3-3.3s-3.3,1.5-3.3,3.3c0,1.8,1.4,3.2,3.3,3.2
			C211.4,67,212.9,65.6,212.9,63.8z M223.1,63.8c0-1.8-1.4-3.3-3.3-3.3s-3.3,1.5-3.3,3.3c0,1.8,1.4,3.2,3.3,3.2
			S223.1,65.6,223.1,63.8z M231.5,88.7c-0.4,0.6-0.7,1.1-1.2,1.7c0,0.1,0,0.3,0,0.4c0,3.3-3.6,6.5-7.2,6.5c-3.9,0-6.6-3.4-6.6-6.5
			c0-0.4,0.1-0.8,0.1-1.2c0.2-0.7,0.5-1.3,0.9-1.9c0.1-0.2,0.3-0.4,0.5-0.5c0.1-0.1,0.1-0.1,0.2-0.2c0.1-0.1,0.3-0.2,0.4-0.4
			c0.1-0.1,0.1-0.1,0.2-0.2c0.2-0.1,0.3-0.2,0.5-0.3c0.1-0.1,0.1-0.1,0.2-0.1c0.2-0.1,0.5-0.2,0.8-0.4c0.5-1.3-0.2-2.4-0.4-2.7
			c-0.4-0.5-0.7-0.8-0.9-0.8c-0.2,0.1-0.4,0.1-0.5,0.2h-0.1c-0.2,0.1-0.4,0.2-0.5,0.2l0,0c-0.4,0.2-0.7,0.4-1,0.6l0,0l0,0
			c-0.7,0.4-1.2,1-1.8,1.6c-1.5,1.8-2.4,3.9-2.4,6.2c0,5.2,4.3,9.5,9.5,9.5c5.3,0,9.5-4.2,9.5-9.5C231.8,90.3,231.6,89.5,231.5,88.7
			z M216,81.9c1-3.3,4.2-5.7,7.8-5.7c0.8,0,1.5,0.1,2.2,0.3c-2-2.1-4.8-3.4-7.9-3.4c-6,0-10.9,4.9-10.9,10.9c0,3.5,1.6,6.6,4.2,8.6
			c-0.1-0.6-0.2-1.2-0.2-1.8c0-2.6,1-5.1,2.7-7C214.5,83,215.2,82.4,216,81.9z M216.1,99.8c-2.7,2.4-5.6,4.6-8.9,6.5
			c-5.4-10.8-17.5-38.1-17.5-64.3c9.2,0.1,17.6,2.4,24.5,6.8c7.1,4.5,11.8,10.7,13.7,18c1,3.9,1.1,7.9,0.4,11.8
			c-0.3-0.2-0.7-0.4-1-0.6l0,0l0,0c-0.1-0.1-0.2-0.1-0.3-0.1H227c-0.1-0.1-0.2-0.1-0.3-0.1h-0.1c-0.1-0.1-0.2-0.1-0.4-0.1l0,0
			c-0.2-0.1-0.5-0.1-0.8-0.2h-0.1c-0.1,0-0.2-0.1-0.3-0.1s-0.1,0-0.1,0c-0.1,0-0.2,0-0.3,0c-0.1,0-0.1,0-0.1,0c-0.1,0-0.2,0-0.2,0
			c-0.1,0-0.1,0-0.1,0h-0.1h-0.1c-0.1,0-0.1,0-0.1,0s-0.1,0-0.2,0c-0.1,0-0.1,0-0.2,0s-0.1,0-0.2,0s-0.1,0-0.2,0s-0.1,0-0.2,0
			c-0.1,0-0.1,0-0.2,0.1c-0.1,0-0.1,0-0.2,0.1c-0.1,0-0.1,0-0.2,0.1c-0.1,0-0.1,0-0.2,0.1c-0.1,0-0.1,0.1-0.2,0.1
			c-0.1,0-0.1,0.1-0.2,0.1c-0.1,0-0.1,0.1-0.2,0.1c-0.1,0-0.1,0.1-0.2,0.1c-0.1,0-0.1,0.1-0.2,0.1s-0.1,0.1-0.2,0.1
			s-0.1,0.1-0.2,0.1s-0.1,0.1-0.1,0.1c-0.1,0-0.1,0.1-0.2,0.1c-0.1,0-0.1,0.1-0.1,0.1c-0.1,0.1-0.1,0.1-0.2,0.1
			c-0.1,0-0.1,0.1-0.1,0.1c-0.1,0.1-0.1,0.1-0.2,0.1c-0.1,0-0.1,0.1-0.1,0.1c-0.1,0.1-0.1,0.1-0.2,0.1c-0.1,0.1-0.1,0.1-0.1,0.1
			c-0.1,0.1-0.1,0.1-0.1,0.1c-0.1,0.1-0.1,0.1-0.1,0.1s-0.1,0.1-0.1,0.1c-0.1,0.1-0.1,0.1-0.1,0.1c-0.1,0.1-0.1,0.1-0.1,0.1
			c-0.1,0.1-0.1,0.1-0.1,0.1c-0.1,0.1-0.1,0.1-0.1,0.1c-0.1,0.1-0.1,0.1-0.1,0.1c-0.1,0.1-0.1,0.1-0.1,0.1c-0.1,0.1-0.1,0.1-0.1,0.1
			c-0.1,0.1-0.1,0.1-0.1,0.1c-0.1,0.1-0.1,0.1-0.1,0.2c-0.1,0.1-0.1,0.1-0.1,0.1c-0.1,0.1-0.1,0.1-0.1,0.2c0,0.1-0.1,0.1-0.1,0.1
			c-0.1,0.1-0.1,0.1-0.1,0.2c0,0.1-0.1,0.1-0.1,0.1c-0.1,0.1-0.1,0.1-0.1,0.2c0,0.1-0.1,0.1-0.1,0.1c0,0.1-0.1,0.1-0.1,0.2
			c0,0,0,0,0,0.1c0.4-0.2,0.9-0.4,1.3-0.5L219,81h0.1c0.7,0,1.4,0.5,2,1.4c0.8,1.3,1,2.8,0.4,4.1l-0.1,0.2l-0.2,0.1
			c-1.3,0.4-2.2,1.2-2.8,2.2c0,0.1,0.1,0.1,0.1,0.1c0.1,0.1,0.1,0.1,0.1,0.1c0.1,0.1,0.1,0.1,0.1,0.1c0.1,0.1,0.1,0.1,0.1,0.1
			c0.1,0.1,0.1,0.1,0.1,0.1c0.1,0.1,0.1,0.1,0.1,0.1c0.1,0.1,0.1,0.1,0.1,0.1c0.1,0.1,0.1,0.1,0.1,0.1c0.1,0.1,0.1,0.1,0.1,0.1
			c0.1,0.1,0.1,0.1,0.1,0.1c0.1,0.1,0.1,0.1,0.1,0.1c0.1,0.1,0.1,0.1,0.1,0.1c0.1,0.1,0.1,0.1,0.2,0.1c0.1,0.1,0.1,0.1,0.1,0.1
			c0.1,0.1,0.1,0.1,0.2,0.1c0.1,0,0.1,0.1,0.1,0.1c0.1,0.1,0.1,0.1,0.2,0.1c0.1,0,0.1,0.1,0.1,0.1c0.1,0.1,0.1,0.1,0.2,0.1
			c0.1,0,0.1,0.1,0.1,0.1c0.1,0,0.1,0.1,0.2,0.1c0.1,0,0.1,0.1,0.1,0.1c0.1,0,0.1,0.1,0.2,0.1c0.1,0,0.1,0.1,0.2,0.1
			c0.1,0,0.1,0.1,0.2,0.1c0.1,0,0.1,0.1,0.2,0.1c0.1,0,0.1,0.1,0.2,0.1c0.1,0,0.1,0.1,0.2,0.1s0.1,0.1,0.2,0.1s0.1,0,0.2,0.1
			c0.1,0,0.1,0,0.2,0.1c0.1,0,0.1,0,0.2,0.1h0.1c-0.5,0.8-1.1,1.6-1.7,2.4c-0.3,0.4-0.6,0.7-0.8,1.1l0,0c0.2,0.1,0.4,0.2,0.5,0.3
			c0,0,0,0,0.1,0c0.1,0.1,0.2,0.1,0.2,0.1c0,0,0,0,0.1,0c0.1,0.1,0.2,0.1,0.3,0.1l0,0c0.4,0.1,0.8,0.2,1.3,0.2
			c0.1-0.1,0.2-0.2,0.3-0.4c1-1.3,1.9-2.6,2.7-3.9c0.2-0.1,0.5-0.1,0.7-0.2l0,0l0,0c4.4-1.8,4.8-6.2,4.8-6.2c0-0.3,0.1-0.6,0.1-0.8
			c0-1.3-0.4-2.6-1.1-3.7c1.1-4.8,1.1-9.8-0.1-14.6c-2.1-7.9-7.1-14.6-14.7-19.5c-7.4-4.7-16.6-7.1-26.4-7.1c-0.9,0-1.9,0-2.8,0.1
			c1.3-2.2,2.3-4.7,3.1-7.2c1.9-6.4,2-13,0.1-18.5c-2.2-5.8-5.9-9.7-10.6-11.1c-1.3-0.4-2.5-0.5-3.9-0.5c-6.3,0-12.9,4.4-17.3,11.5
			c-4-2-8.1-3-12-3c-4.9,0-9.1,1.8-11.9,4.9c-3.3,3.7-4.3,8.9-2.9,14.8c1.4,5.7,5,11.2,10,15.6c3.3,2.8,6.9,5,10.6,6.3
			c-3,2.4-5.6,5-7.8,7.9c-7.1,9.2-9.6,19.6-7.1,29.4c2.1,7.9,7.1,14.6,14.7,19.5c7.4,4.7,16.6,7.1,26.4,7.1c5,0,10-0.7,14.9-1.9
			c9.8-2.5,18.6-7.2,25.3-13.7C217.5,100.7,216.8,100.3,216.1,99.8L216.1,99.8z M175.3,4.8c1.1,0,2.2,0.2,3.1,0.5
			c8.4,2.5,12.3,14.4,8.6,26.6c-0.8,2.9-2.1,5.6-3.7,8.1c-1.9,0.2-3.7,0.5-5.6,0.8h-0.1c-0.3,0.1-0.5,0.1-0.8,0.2
			c-0.1,0-0.1,0-0.2,0.1c-0.2,0.1-0.5,0.1-0.7,0.2h-0.1c0.7-7.4-3.3-15.9-10.6-22.3c-1.6-1.4-3.4-2.7-5.3-3.8
			C164.1,8.8,169.8,4.8,175.3,4.8z M153,107.4c-7.1-4.5-11.8-10.7-13.7-18c-2.5-9.8,0.6-20.1,7.6-28.5c-1.4,11.5-1.6,32,11.3,49.3
			C156.4,109.4,154.7,108.4,153,107.4z M154.2,50.8c-4-1.2-7.9-3.4-11.4-6.4c-4.7-4.1-8-9.2-9.2-14.4c-1.2-5-0.4-9.5,2.4-12.6
			c2.4-2.7,5.9-4,10.1-4c3.5,0,7.2,1,10.8,2.7c-1,1.9-1.9,4-2.5,6.1c-1.6,5.3-1.9,10.7-0.9,15.6c0.8,4.2,2.6,7.7,5.1,10.3
			C157,48.9,155.6,49.8,154.2,50.8z M156.7,22.8c0.6-1.9,1.3-3.9,2.3-5.7c1.7,1,3.3,2.2,4.8,3.5c6.9,6,10.7,14.4,9.6,21.1
			c-4.5,1.2-8.8,2.9-12.7,5C155.5,41.9,153.8,32.2,156.7,22.8z M179.1,114.1c-6-9.1-19-33.1-16.6-65.6c3.6-1.9,7.5-3.4,11.7-4.5
			c-0.3,12.4,0.5,46,17.3,68.5C187.4,113.5,183.2,114.1,179.1,114.1z M131.7,90.9c-0.7-0.5-1.6-0.5-2.2,0.2
			c-0.5,0.7-0.5,1.6,0.2,2.2c1.6,1.4,2.5,2.4,2.6,2.4c0.3,0.3,0.7,0.5,1.1,0.5c0.4,0,0.7-0.1,1-0.4c0.6-0.6,0.7-1.6,0.1-2.2
			C134.5,93.5,133.5,92.4,131.7,90.9z M35.2,100.3c-2.2,1.3-4.3,2.8-6.3,4.4c-0.7,0.5-0.7,1.5-0.2,2.2c0.3,0.4,0.7,0.5,1.2,0.5
			c0.4,0,0.7-0.1,1-0.4c1.9-1.5,3.9-2.9,5.9-4.2c0.7-0.4,1-1.4,0.5-2.1C36.9,100.1,36,99.9,35.2,100.3z M64.7,93.3
			c-1.5-0.2-2.9-0.2-4.3-0.2l0,0c-1.1,0-2.4,0.1-3.4,0.2c-0.8,0.1-1.5,0.8-1.4,1.7c0.1,0.8,0.8,1.4,1.7,1.4c1-0.1,2.1-0.2,3.1-0.2
			l0,0c1.3,0,2.6,0.1,4,0.2c0.1,0,0.1,0,0.2,0c0.8,0,1.4-0.6,1.5-1.4C66.2,94.1,65.6,93.3,64.7,93.3z M49.4,94.5
			c-2.5,0.6-5,1.4-7.3,2.4c-0.8,0.3-1.1,1.2-0.8,2c0.2,0.6,0.8,1,1.5,1c0.2,0,0.4-0.1,0.6-0.1c2.2-0.9,4.5-1.6,6.9-2.2
			c0.8-0.2,1.3-1,1.1-1.9C51.1,94.8,50.2,94.3,49.4,94.5z M23.4,110c-1.7,1.9-3.3,3.9-4.8,6c-0.5,0.7-0.3,1.6,0.4,2.1
			c0.2,0.2,0.6,0.3,0.9,0.3c0.5,0,1-0.2,1.3-0.7c1.4-2,2.9-3.9,4.5-5.6c0.6-0.6,0.5-1.6-0.1-2.2S23.9,109.4,23.4,110z M89.6,90.6
			c0.3,0,0.6-0.1,0.9-0.3c2-1.4,4-2.7,6.2-3.6c0.8-0.4,1.1-1.3,0.8-2.1c-0.4-0.8-1.3-1.1-2.1-0.8c-2.3,1-4.5,2.3-6.7,3.9
			c-0.7,0.5-0.8,1.4-0.4,2.2C88.6,90.4,89.1,90.6,89.6,90.6z M72.8,119.7c-0.1-0.8-0.8-1.4-1.7-1.3c-0.8,0.1-1.4,0.8-1.3,1.7
			c0.4,2.8,1.3,5.4,3,7.6c0.3,0.4,0.8,0.6,1.3,0.6c0.3,0,0.7-0.1,0.9-0.3c0.7-0.5,0.8-1.4,0.3-2.2C73.9,124,73.1,121.9,72.8,119.7z
			 M16.7,121.8c-0.7-0.4-1.7-0.1-2.1,0.7c-1.2,2.2-2.2,4.6-3.1,6.9c-0.3,0.8,0.1,1.7,0.9,2c0.2,0.1,0.4,0.1,0.5,0.1
			c0.6,0,1.2-0.4,1.5-1c0.8-2.2,1.9-4.5,3-6.6C17.8,123.1,17.5,122.2,16.7,121.8z M100.4,124.6c-0.8-0.4-1.7-0.1-2.1,0.7
			c-0.8,1.6-2.5,3-4.8,4.1c-0.8,0.4-1.1,1.3-0.8,2.1c0.2,0.5,0.8,0.9,1.4,0.9c0.2,0,0.4-0.1,0.7-0.1c3-1.3,5.1-3.2,6.3-5.4
			C101.5,125.8,101.2,124.9,100.4,124.6z M97.8,111.3c-0.5-0.7-1.5-0.8-2.2-0.3c-0.7,0.5-0.8,1.5-0.3,2.2c1.6,2.1,2.7,4.1,3.3,6
			c0.2,0.7,0.8,1.1,1.4,1.1c0.1,0,0.3,0,0.4-0.1c0.8-0.2,1.3-1.1,1-1.9C100.8,116,99.6,113.6,97.8,111.3z M110.7,81.4
			c-1-0.1-2-0.2-3-0.2l0,0c-1.6,0-3.3,0.1-4.8,0.4c-0.8,0.1-1.4,0.9-1.3,1.8c0.1,0.7,0.8,1.3,1.5,1.3c0.1,0,0.2,0,0.2,0
			c1.4-0.2,2.9-0.4,4.3-0.4l0,0c0.9,0,1.8,0.1,2.7,0.1c0.8,0.1,1.6-0.5,1.7-1.4C112.2,82.3,111.5,81.5,110.7,81.4z M75.6,104.3
			c-0.7-0.4-1.7-0.1-2.1,0.6c-1.4,2.4-2.4,4.8-3,7.2c-0.2,0.8,0.2,1.7,1.1,1.9c0.1,0.1,0.3,0.1,0.4,0.1c0.7,0,1.3-0.4,1.5-1.1
			c0.5-2.1,1.5-4.2,2.8-6.5C76.6,105.7,76.3,104.8,75.6,104.3z M125.4,86.5c-2.3-1.3-4.7-2.5-7-3.3c-0.8-0.3-1.7,0.1-2,1
			c-0.3,0.8,0.1,1.7,1,1.9c2.2,0.8,4.3,1.8,6.5,3c0.2,0.1,0.5,0.2,0.8,0.2c0.5,0,1-0.2,1.3-0.8C126.3,87.8,126.1,86.9,125.4,86.5z
			 M92.4,105.7c-1.9-1.6-3.9-3.1-6.2-4.6c-0.7-0.5-1.7-0.2-2.1,0.5c-0.5,0.7-0.2,1.7,0.5,2.1c2.1,1.3,4,2.8,5.8,4.3
			c0.3,0.2,0.7,0.4,1,0.4c0.4,0,0.8-0.2,1.1-0.5C93.1,107.2,93.1,106.2,92.4,105.7z M80.2,100.5c0.5-0.6,1-1.3,1.6-1.9
			c1.1-1.3,2.2-2.5,3.3-3.6c0.6-0.6,0.6-1.6,0-2.2c-0.6-0.6-1.6-0.6-2.2,0c-1.1,1.1-2.3,2.4-3.4,3.7c-0.2,0.2-0.4,0.4-0.5,0.6
			c-2.2-1-4.4-1.8-6.6-2.4c-0.8-0.2-1.7,0.2-1.9,1c-0.2,0.8,0.2,1.7,1,1.9c2.1,0.6,4.1,1.3,6.1,2.2c0.1,0.3,0.2,0.5,0.5,0.8
			c0.3,0.2,0.6,0.3,1,0.3C79.5,101,79.9,100.8,80.2,100.5z M86.9,131.1c-0.3,0-0.5,0.1-0.8,0.1c-1.9,0-3.8-0.4-5.6-1.3
			c-0.8-0.4-1.7,0-2.1,0.7c-0.4,0.8,0,1.7,0.7,2.1c2.2,1,4.6,1.6,6.9,1.6c0.4,0,0.7,0,1.1-0.1c0.8-0.1,1.5-0.8,1.4-1.6
			C88.5,131.7,87.7,131,86.9,131.1z M11.1,135.6c-0.8-0.2-1.6,0.4-1.8,1.2C9,138.1,8.7,140,9,141.1c0.1,0.7,0.8,1.2,1.5,1.2
			c0.1,0,0.2,0,0.3-0.1c0.8-0.2,1.4-1,1.2-1.8c-0.1-0.2-0.1-1.2,0.3-3.1C12.5,136.5,11.9,135.8,11.1,135.6z"/>
	</g>
</g>
</svg>
