<?xml version="1.0" encoding="utf-8"?>
<!-- Generator: Adobe Illustrator 17.1.0, SVG Export Plug-In . SVG Version: 6.00 Build 0)  -->
<!DOCTYPE svg PUBLIC "-//W3C//DTD SVG 1.0//EN" "http://www.w3.org/TR/2001/REC-SVG-20010904/DTD/svg10.dtd">
<svg version="1.0" id="Camada_1" xmlns="http://www.w3.org/2000/svg" xmlns:xlink="http://www.w3.org/1999/xlink" x="0px" y="0px"
	 viewBox="0 0 380 240" enable-background="new 0 0 380 240" xml:space="preserve">
<g id="Shape_20">
	<g>
		<path fill-rule="evenodd" clip-rule="evenodd" fill="#FFFFFF" d="M343.7,105.6c0-3-2.4-5.4-5.4-5.4c-3,0-5.4,2.4-5.4,5.4
			c0,3,2.4,5.3,5.4,5.3C341.3,110.9,343.7,108.5,343.7,105.6z M360.6,105.6c0-3-2.4-5.4-5.4-5.4c-3,0-5.4,2.4-5.4,5.4
			c0,3,2.4,5.3,5.4,5.3C358.2,110.9,360.6,108.5,360.6,105.6z M374.5,146.8c-0.6,1-1.2,1.9-2,2.8c0,0.2,0,0.5,0,0.7
			c0,5.4-5.9,10.8-11.9,10.8c-6.5,0-11-5.7-11-10.8c0-0.7,0.1-1.3,0.2-2c0.3-1.1,0.8-2.1,1.5-3.1c0.2-0.3,0.5-0.6,0.8-0.9
			c0.1-0.1,0.2-0.2,0.3-0.3c0.2-0.2,0.5-0.4,0.7-0.6c0.1-0.1,0.2-0.2,0.4-0.3c0.3-0.2,0.5-0.4,0.8-0.5c0.1-0.1,0.2-0.1,0.4-0.2
			c0.4-0.2,0.8-0.4,1.3-0.6c0.8-2.1-0.3-3.9-0.6-4.5c-0.6-0.9-1.2-1.3-1.5-1.4c-0.3,0.1-0.6,0.2-0.9,0.4c0,0-0.1,0-0.1,0
			c-0.3,0.1-0.6,0.3-0.8,0.4c0,0,0,0,0,0c-0.6,0.3-1.2,0.7-1.7,1c0,0,0,0,0,0v0c-1.1,0.7-2,1.6-2.9,2.6c-2.5,2.9-3.9,6.5-3.9,10.3
			c0,8.6,7.1,15.7,15.7,15.7c8.7,0,15.7-7,15.7-15.7C375,149.4,374.8,148.1,374.5,146.8z M348.9,135.5c1.7-5.5,6.9-9.5,12.9-9.5
			c1.3,0,2.5,0.2,3.7,0.5c-3.3-3.5-8-5.6-13.1-5.6c-10,0-18.1,8.1-18.1,18.1c0,5.8,2.7,10.9,6.9,14.2c-0.2-1-0.3-2-0.3-3
			c0-4.3,1.6-8.4,4.4-11.6C346.4,137.4,347.6,136.4,348.9,135.5z M349.1,165.2c-4.4,4-9.3,7.6-14.7,10.8
			c-8.9-17.8-29-63.1-28.9-106.4c15.2,0.2,29.1,4,40.5,11.2c11.7,7.4,19.6,17.7,22.7,29.8c1.6,6.4,1.9,13,0.7,19.5
			c-0.5-0.4-1.1-0.7-1.7-1c0,0,0,0,0,0c0,0,0,0,0,0c-0.2-0.1-0.4-0.2-0.5-0.2c0,0-0.1,0-0.1,0c-0.2-0.1-0.4-0.1-0.5-0.2
			c0,0-0.1,0-0.1,0c-0.2-0.1-0.4-0.1-0.6-0.2c0,0,0,0,0,0c-0.4-0.1-0.9-0.2-1.3-0.3c0,0-0.1,0-0.1,0c-0.2,0-0.4-0.1-0.5-0.1
			c-0.1,0-0.1,0-0.2,0c-0.2,0-0.3,0-0.5,0c-0.1,0-0.2,0-0.2,0c-0.1,0-0.3,0-0.4,0c-0.1,0-0.1,0-0.2,0c0,0-0.1,0-0.1,0
			c0,0-0.1,0-0.1,0c-0.1,0-0.1,0-0.2,0c-0.1,0-0.2,0-0.3,0c-0.1,0-0.2,0-0.3,0c-0.1,0-0.2,0-0.3,0c-0.1,0-0.2,0-0.3,0
			c-0.1,0-0.2,0-0.3,0c-0.1,0-0.2,0-0.3,0.1c-0.1,0-0.2,0-0.3,0.1c-0.1,0-0.2,0-0.3,0.1c-0.1,0-0.2,0-0.3,0.1
			c-0.1,0-0.2,0.1-0.3,0.1c-0.1,0-0.2,0.1-0.3,0.1c-0.1,0-0.2,0.1-0.3,0.1c-0.1,0-0.2,0.1-0.3,0.1c-0.1,0-0.2,0.1-0.3,0.1
			c-0.1,0-0.2,0.1-0.3,0.1c-0.1,0-0.2,0.1-0.3,0.1c-0.1,0-0.2,0.1-0.2,0.1c-0.1,0-0.2,0.1-0.3,0.1c-0.1,0-0.2,0.1-0.2,0.1
			c-0.1,0.1-0.2,0.1-0.3,0.2c-0.1,0-0.2,0.1-0.2,0.1c-0.1,0.1-0.2,0.1-0.3,0.2c-0.1,0-0.1,0.1-0.2,0.1c-0.1,0.1-0.2,0.1-0.3,0.2
			c-0.1,0.1-0.1,0.1-0.2,0.2c-0.1,0.1-0.2,0.1-0.2,0.2c-0.1,0.1-0.1,0.1-0.2,0.2c-0.1,0.1-0.2,0.1-0.2,0.2c-0.1,0.1-0.1,0.1-0.2,0.2
			c-0.1,0.1-0.1,0.1-0.2,0.2c-0.1,0.1-0.1,0.1-0.2,0.2c-0.1,0.1-0.1,0.1-0.2,0.2c-0.1,0.1-0.1,0.1-0.2,0.2c-0.1,0.1-0.1,0.1-0.2,0.2
			c-0.1,0.1-0.1,0.2-0.2,0.2c-0.1,0.1-0.1,0.1-0.2,0.2c-0.1,0.1-0.1,0.2-0.2,0.3c-0.1,0.1-0.1,0.1-0.2,0.2c-0.1,0.1-0.1,0.2-0.2,0.3
			c0,0.1-0.1,0.1-0.1,0.2c-0.1,0.1-0.1,0.2-0.2,0.3c0,0.1-0.1,0.2-0.1,0.2c-0.1,0.1-0.1,0.2-0.2,0.3c0,0.1-0.1,0.2-0.1,0.2
			c0,0.1-0.1,0.2-0.1,0.3c0,0,0,0,0,0.1c0.7-0.4,1.5-0.7,2.2-0.9l0.2-0.1h0.2c1.1,0,2.4,0.9,3.3,2.3c1.4,2.1,1.6,4.6,0.6,6.8
			l-0.2,0.4l-0.4,0.1c-2.1,0.7-3.7,2-4.7,3.6c0,0.1,0.1,0.1,0.1,0.2c0.1,0.1,0.1,0.2,0.2,0.2c0.1,0.1,0.1,0.1,0.2,0.2
			c0.1,0.1,0.1,0.2,0.2,0.2c0.1,0.1,0.1,0.1,0.2,0.2c0.1,0.1,0.1,0.1,0.2,0.2c0.1,0.1,0.1,0.1,0.2,0.2c0.1,0.1,0.1,0.1,0.2,0.2
			c0.1,0.1,0.1,0.1,0.2,0.2c0.1,0.1,0.1,0.1,0.2,0.2c0.1,0.1,0.2,0.1,0.2,0.2c0.1,0.1,0.1,0.1,0.2,0.2c0.1,0.1,0.2,0.1,0.3,0.2
			c0.1,0.1,0.1,0.1,0.2,0.2c0.1,0.1,0.2,0.1,0.3,0.2c0.1,0,0.1,0.1,0.2,0.1c0.1,0.1,0.2,0.1,0.3,0.2c0.1,0,0.2,0.1,0.2,0.1
			c0.1,0.1,0.2,0.1,0.3,0.2c0.1,0,0.2,0.1,0.2,0.1c0.1,0,0.2,0.1,0.3,0.1c0.1,0,0.2,0.1,0.2,0.1c0.1,0,0.2,0.1,0.3,0.1
			c0.1,0,0.2,0.1,0.3,0.1c0.1,0,0.2,0.1,0.3,0.1c0.1,0,0.2,0.1,0.3,0.1c0.1,0,0.2,0.1,0.3,0.1c0.1,0,0.2,0.1,0.3,0.1
			c0.1,0,0.2,0.1,0.3,0.1c0.1,0,0.2,0,0.3,0.1c0.1,0,0.2,0,0.3,0.1c0.1,0,0.2,0,0.3,0.1c0,0,0.1,0,0.1,0c-0.9,1.3-1.8,2.6-2.8,3.9
			c-0.5,0.6-1,1.2-1.4,1.8h0c0.3,0.2,0.6,0.3,0.9,0.5c0,0,0,0,0.1,0c0.1,0.1,0.3,0.1,0.4,0.2c0,0,0,0,0.1,0c0.2,0.1,0.3,0.1,0.5,0.2
			c0,0,0,0,0,0c0.7,0.2,1.4,0.3,2.2,0.4c0.2-0.2,0.3-0.4,0.5-0.6c1.6-2.1,3.1-4.3,4.5-6.5c0.4-0.1,0.8-0.2,1.2-0.4c0,0,0,0,0,0
			c0,0,0,0,0,0c7.2-3,8-10.2,8-10.2c0-0.5,0.1-1,0.1-1.4c0-2.2-0.7-4.3-1.8-6.1c1.8-8,1.8-16.2-0.2-24.1
			c-3.4-13.1-11.8-24.2-24.4-32.2c-12.3-7.7-27.4-11.8-43.7-11.8c-1.5,0-3.1,0-4.6,0.1c2.1-3.7,3.8-7.7,5.1-11.9
			c3.2-10.6,3.3-21.6,0.2-30.7C301.9,13.8,295.8,7.3,288,5c-2.1-0.6-4.2-0.9-6.4-0.9c-10.5,0-21.3,7.3-28.6,19.1
			c-6.6-3.3-13.4-5-19.9-5c-8.1,0-15.1,2.9-19.7,8.1c-5.4,6.1-7.1,14.8-4.8,24.5c2.3,9.4,8.2,18.6,16.6,25.9
			c5.4,4.7,11.4,8.3,17.6,10.5c-4.9,3.9-9.2,8.3-12.9,13.1c-11.8,15.2-15.9,32.5-11.8,48.7c3.4,13.1,11.8,24.2,24.4,32.2
			c12.3,7.7,27.4,11.8,43.7,11.8c8.2,0,16.5-1.1,24.6-3.1c16.3-4.1,30.8-12,41.9-22.6C351.4,166.7,350.2,166,349.1,165.2
			L349.1,165.2z M281.6,8c1.8,0,3.6,0.3,5.2,0.8c13.9,4.1,20.3,23.9,14.2,44c-1.4,4.8-3.5,9.3-6.1,13.4c-3.1,0.3-6.2,0.8-9.3,1.4
			c0,0-0.1,0-0.1,0c-0.5,0.1-0.9,0.2-1.4,0.3c-0.1,0-0.2,0-0.3,0.1c-0.4,0.1-0.8,0.2-1.2,0.3c0,0-0.1,0-0.1,0
			c1.2-12.2-5.4-26.3-17.5-36.9c-2.7-2.4-5.6-4.5-8.7-6.3C263,14.5,272.5,8,281.6,8z M244.6,177.7c-11.7-7.4-19.6-17.7-22.7-29.8
			c-4.2-16.3,1-33.2,12.6-47.2c-2.4,19-2.6,53,18.7,81.6C250.3,181,247.4,179.5,244.6,177.7z M246.6,84.1c-6.6-2-13.1-5.6-18.8-10.6
			c-7.8-6.8-13.2-15.3-15.3-23.9c-2-8.3-0.7-15.8,3.9-20.9c3.9-4.4,9.7-6.7,16.7-6.7c5.8,0,11.9,1.6,17.9,4.5
			c-1.7,3.2-3.1,6.6-4.1,10.1c-2.6,8.8-3.1,17.7-1.5,25.8c1.4,6.9,4.3,12.8,8.4,17C251.3,80.9,248.9,82.5,246.6,84.1z M250.7,37.8
			c1-3.2,2.2-6.4,3.8-9.4c2.8,1.7,5.5,3.6,8,5.8c11.4,10,17.7,23.8,15.9,34.9c-7.4,2-14.5,4.8-21,8.3
			C248.8,69.4,246,53.3,250.7,37.8z M287.8,188.9c-9.9-15.1-31.4-54.8-27.4-108.6c6-3.1,12.4-5.6,19.3-7.4
			c-0.5,20.5,0.9,76.1,28.6,113.4C301.5,187.9,294.6,188.8,287.8,188.9z M209.3,150.4c-1.1-0.9-2.7-0.8-3.6,0.3
			c-0.9,1.1-0.8,2.7,0.3,3.6c2.7,2.3,4.2,3.9,4.3,3.9c0.5,0.5,1.2,0.8,1.9,0.8c0.6,0,1.2-0.2,1.7-0.7c1-1,1.1-2.6,0.1-3.6
			C214,154.7,212.3,152.9,209.3,150.4z M49.7,166c-3.6,2.1-7.1,4.6-10.4,7.3c-1.1,0.9-1.2,2.5-0.3,3.6c0.5,0.6,1.2,0.9,2,0.9
			c0.6,0,1.1-0.2,1.6-0.6c3.1-2.5,6.4-4.8,9.8-6.9c1.2-0.7,1.6-2.3,0.9-3.5C52.4,165.7,50.9,165.3,49.7,166z M98.5,154.4
			c-2.4-0.3-4.8-0.4-7.1-0.4h0c-1.9,0-3.9,0.1-5.7,0.3c-1.4,0.1-2.4,1.4-2.3,2.8c0.1,1.4,1.4,2.4,2.8,2.3c1.7-0.2,3.5-0.3,5.2-0.3h0
			c2.1,0,4.3,0.1,6.6,0.4c0.1,0,0.2,0,0.3,0c1.3,0,2.4-1,2.5-2.3C100.9,155.8,99.9,154.5,98.5,154.4z M73.1,156.4
			c-4.1,1-8.2,2.3-12.1,3.9c-1.3,0.5-1.9,2-1.4,3.3c0.4,1,1.4,1.6,2.4,1.6c0.3,0,0.6-0.1,1-0.2c3.6-1.5,7.5-2.7,11.4-3.7
			c1.4-0.3,2.2-1.7,1.9-3.1C75.9,156.9,74.5,156.1,73.1,156.4z M30.1,182c-2.8,3.1-5.5,6.4-7.9,9.9c-0.8,1.2-0.5,2.7,0.6,3.5
			c0.4,0.3,1,0.5,1.5,0.5c0.8,0,1.6-0.4,2.1-1.1c2.3-3.3,4.8-6.5,7.5-9.3c1-1,0.9-2.6-0.2-3.6C32.6,180.9,31,181,30.1,182z
			 M139.7,150c0.5,0,1-0.2,1.5-0.5c3.3-2.4,6.7-4.4,10.2-5.9c1.3-0.6,1.9-2.1,1.3-3.4c-0.6-1.3-2.1-1.9-3.4-1.3
			c-3.8,1.7-7.5,3.8-11.1,6.5c-1.1,0.8-1.4,2.4-0.6,3.6C138.1,149.6,138.9,150,139.7,150z M111.9,198.1c-0.2-1.4-1.4-2.4-2.8-2.2
			c-1.4,0.2-2.4,1.4-2.2,2.8c0.6,4.7,2.2,8.9,4.9,12.5c0.5,0.7,1.3,1,2.1,1c0.5,0,1.1-0.2,1.5-0.5c1.1-0.8,1.4-2.4,0.5-3.6
			C113.7,205.2,112.4,201.8,111.9,198.1z M19,201.6c-1.2-0.7-2.8-0.2-3.5,1.1c-2,3.7-3.7,7.6-5.2,11.5c-0.5,1.3,0.2,2.8,1.5,3.3
			c0.3,0.1,0.6,0.2,0.9,0.2c1,0,2-0.6,2.4-1.6c1.4-3.7,3.1-7.4,5-10.9C20.8,203.8,20.3,202.3,19,201.6z M157.6,206.2
			c-1.3-0.6-2.8-0.2-3.4,1.1c-1.4,2.7-4.1,5-8,6.8c-1.3,0.6-1.8,2.1-1.3,3.4c0.4,0.9,1.4,1.5,2.3,1.5c0.4,0,0.7-0.1,1.1-0.2
			c4.9-2.2,8.4-5.3,10.4-9C159.3,208.3,158.8,206.8,157.6,206.2z M153.2,184.2c-0.9-1.1-2.5-1.3-3.6-0.5c-1.1,0.9-1.3,2.5-0.5,3.6
			c2.6,3.4,4.5,6.8,5.5,9.9c0.3,1.1,1.3,1.8,2.4,1.8c0.2,0,0.5,0,0.7-0.1c1.4-0.4,2.1-1.8,1.7-3.2
			C158.3,192,156.2,188.1,153.2,184.2z M174.6,134.8c-1.7-0.2-3.3-0.3-5-0.3h0c-2.7,0-5.4,0.2-8,0.7c-1.4,0.2-2.3,1.5-2.1,2.9
			c0.2,1.2,1.3,2.1,2.5,2.1c0.1,0,0.3,0,0.4,0c2.4-0.4,4.8-0.6,7.1-0.6h0c1.5,0,3,0.1,4.5,0.2c1.4,0.1,2.7-0.9,2.8-2.3
			C177.1,136.2,176,134.9,174.6,134.8z M116.5,172.7c-1.2-0.7-2.8-0.2-3.5,1c-2.3,4-4,8-5,11.9c-0.4,1.4,0.4,2.8,1.8,3.1
			c0.2,0.1,0.5,0.1,0.7,0.1c1.1,0,2.2-0.7,2.5-1.9c0.9-3.4,2.5-7,4.6-10.7C118.2,174.9,117.7,173.4,116.5,172.7z M198.9,143.1
			c-3.8-2.2-7.7-4.1-11.6-5.4c-1.3-0.5-2.8,0.2-3.3,1.6c-0.5,1.3,0.2,2.8,1.6,3.2c3.6,1.3,7.2,2.9,10.7,5c0.4,0.2,0.9,0.4,1.3,0.4
			c0.9,0,1.7-0.4,2.2-1.3C200.5,145.3,200.1,143.8,198.9,143.1z M144.3,174.9c-3.1-2.7-6.5-5.2-10.2-7.6c-1.2-0.8-2.8-0.4-3.5,0.8
			c-0.8,1.2-0.4,2.8,0.8,3.5c3.5,2.2,6.7,4.6,9.6,7.1c0.5,0.4,1.1,0.6,1.7,0.6c0.7,0,1.4-0.3,1.9-0.9
			C145.5,177.4,145.4,175.8,144.3,174.9z M124.2,166.3c0.8-1,1.7-2.1,2.6-3.1c1.8-2.1,3.6-4.1,5.4-5.9c1-1,1-2.6,0-3.6
			c-1-1-2.6-1-3.6,0c-1.9,1.9-3.8,4-5.7,6.2c-0.3,0.3-0.6,0.7-0.9,1c-3.6-1.6-7.3-2.9-10.9-4c-1.4-0.4-2.8,0.4-3.2,1.7
			c-0.4,1.3,0.4,2.8,1.7,3.2c3.4,1,6.8,2.2,10.1,3.7c0.1,0.5,0.4,0.9,0.9,1.3c0.5,0.4,1,0.5,1.6,0.5
			C122.9,167.2,123.7,166.9,124.2,166.3z M135.2,217c-0.5,0-0.9,0.1-1.4,0.1c-3.1,0-6.3-0.7-9.3-2.1c-1.3-0.6-2.8,0-3.4,1.2
			c-0.6,1.3,0,2.8,1.2,3.4c3.7,1.7,7.6,2.6,11.5,2.6c0.6,0,1.2,0,1.8-0.1c1.4-0.1,2.5-1.3,2.4-2.7C137.8,218,136.6,216.9,135.2,217z
			 M9.7,224.4c-1.4-0.3-2.7,0.6-3,2c-0.4,2.2-0.9,5.3-0.5,7.1c0.2,1.2,1.3,2,2.5,2c0.2,0,0.3,0,0.5-0.1c1.4-0.3,2.3-1.6,2-3
			c-0.1-0.4-0.1-2,0.5-5.1C12,226,11.1,224.7,9.7,224.4z"/>
	</g>
</g>
</svg>
