<?xml version="1.0" encoding="utf-8"?>
<!-- Generator: Adobe Illustrator 17.1.0, SVG Export Plug-In . SVG Version: 6.00 Build 0)  -->
<!DOCTYPE svg PUBLIC "-//W3C//DTD SVG 1.0//EN" "http://www.w3.org/TR/2001/REC-SVG-20010904/DTD/svg10.dtd">
<svg version="1.0" id="_x35_8_1_" xmlns="http://www.w3.org/2000/svg" xmlns:xlink="http://www.w3.org/1999/xlink" x="0px" y="0px"
	 viewBox="0 0 500 500" enable-background="new 0 0 500 500" xml:space="preserve">
<g id="Shape_22">
	<g>
		<path fill="#C9C9C1" d="M441.4,274.8c7-2.4,14-4.8,20.4-7.8c24.6-11.6,26.8-29.8,26-39.4c-0.6-7.4-4.8-28.6-5-28.8
			c-1.2-5.6-6.8-24.4-31.2-29c-4.8-1-10.4-1.4-18-1.4c-3.4,0-7.2,0-10.8,0.2c-1.6,0-3,0-4.4,0.2c-3.4-6.4-7.4-13.2-11-19.2
			c0.8-1.4,1.8-2.8,2.4-4c3.8-6.4,7.8-13,10.6-19.2c4-8.6,11.4-30.6-5.4-47.4c-4.8-4.8-19.8-17-22.2-19c-6.2-4.8-13.8-7.4-21.8-7.4
			c-16.8,0-29,11-43.2,23.6c-1,0.8-2.2,2-3.4,3c-6.6-2.6-14-5.2-20.6-7.6c-0.2-1.6-0.6-3.2-0.8-4.6c-1.2-7.4-2.2-15-4-21.8
			c-7.6-28.2-26.8-32.4-34.8-32.8c-3.6-0.2-10.6-0.2-14.6-0.2c-3.8,0-11,0-14.6,0.2c-8,0.6-27.4,4.8-34.8,32.8
			c-1.8,6.8-3,14.4-4,21.8c-0.2,1.4-0.4,3-0.8,4.6c-6.6,2.2-14,5-20.6,7.6c-1.2-1-2.4-2.2-3.4-3c-14.2-12.6-26.4-23.6-43.2-23.6
			c-8,0-15.4,2.6-21.8,7.4C104,61.8,89,74,84.2,79c-5.2,5.2-16.8,21-4.8,47c3,6.4,6.8,12.8,10.6,19.2c0.8,1.2,1.6,2.6,2.4,4
			c-3.6,6-7.6,12.6-11,19.2c-1.4,0-3,0-4.4-0.2c-3.6,0-7.4-0.2-10.8-0.2c-7.6,0-13,0.4-18,1.4c-24.6,5-30.2,23.6-31.4,29.2
			c0,0.2-4.2,21.4-5,28.8c-0.8,9.8,1.6,27.8,26,39.4c6.2,3,13.4,5.4,20.4,7.8c1.4,0.4,2.8,1,4.4,1.6c1,6.8,2.2,14.6,3.6,21.8
			c-1.2,1-2.4,2-3.6,2.8c-5.8,4.6-11.8,9.4-16.6,14.4c-20.8,21.2-14,40.4-10.2,47.8c0,0.2,10.2,19,14.6,25.2
			c6.8,9.8,18,15.6,30.6,15.6c11.2,0,22.8-4.6,35.2-9.4c1.2-0.6,2.8-1.2,4.4-1.8c5.2,4.6,11,9.8,16.6,14.2c-0.4,1.6-0.6,3.2-0.8,4.6
			c-1.4,7.4-3,14.8-3.6,21.8c-2.6,29.4,14.6,40,22,43c4,1.8,21.2,8.2,27,10c3.2,1,6.4,1.4,9.8,1.4c23.8,0,35-20.8,45-39.2
			c0.6-1.2,1.4-2.6,2.2-4.2c3.8,0,7.6,0.2,11,0.2s7.2,0,11-0.2c0.8,1.4,1.6,3,2.2,4.2c10,18.4,21.2,39.2,45,39.2
			c3.2,0,6.6-0.4,9.8-1.4c5.8-1.8,23-8.2,27-10c7.4-3.2,24.6-13.8,22-43c-0.6-7-2-14.6-3.6-21.8c-0.2-1.4-0.6-3-0.8-4.6
			c5.6-4.6,11.4-9.6,16.6-14.2c1.6,0.6,3.2,1.2,4.4,1.8c12.2,4.8,23.8,9.4,35.2,9.4c12.6,0,23.8-5.6,30.6-15.6
			c4.2-6.2,14.4-25,14.6-25.2c3.8-7.4,10.6-26.6-10.2-47.8c-4.8-5-10.8-9.8-16.6-14.4c-1-0.8-2.2-1.8-3.6-2.8
			c1.4-7.2,2.6-15,3.6-21.8C438.6,275.8,440.2,275.2,441.4,274.8z M434.8,347.6c-2,3.8-10,18.4-12.4,21.8c-0.6,1-2,1.4-3.8,1.4
			c-10.2,0-36.4-14.4-46.6-14.4c-1.6,0-2.8,0.4-3.6,1.2c-5.6,6.2-31,28.4-38.2,32.4c-8,4.6,10.6,52.2,2,55.8
			c-3.8,1.6-19.4,7.4-23.4,8.6c-0.2,0-0.4,0.2-0.8,0.2c-8.8,0-23.8-44.2-32.8-44.2c-0.2,0-0.2,0-0.4,0c-4.2,0.6-14.6,1-25,1
			s-20.8-0.4-25-1c-0.2,0-0.2,0-0.4,0c-9,0-24,44.2-32.8,44.2c-0.2,0-0.4,0-0.8-0.2c-4-1.2-19.6-7-23.4-8.6c-8.4-3.6,10-51.2,2-55.8
			c-7.2-4.2-32.6-26.2-38.2-32.4c-0.8-0.8-2-1.2-3.6-1.2c-10.4,0-36.4,14.4-46.6,14.4c-1.8,0-3-0.4-3.8-1.4
			c-2.4-3.4-10.6-18.2-12.4-21.8c-4.4-8.2,40.4-32.8,37-41.4c-3-7.8-8.2-41.4-8.6-49.8c-0.6-9.4-49.6-16.8-48.8-26.2
			c0.4-4.2,3.4-20.8,4.4-24.8c0.6-3.4,8-4.2,17.2-4.2c6.4,0,13.6,0.4,20,0.4c9,0,16.4-0.6,17.4-4c2.6-8,20-37,25-43.8
			c5.6-7.4-27.4-45.2-20.8-51.8c3-3,15.8-13.6,19.2-16.2c0.4-0.4,1-0.6,1.8-0.6c9,0.2,34.2,30.8,43.4,30.8c0.6,0,1-0.2,1.6-0.4
			c7.2-4.2,38.8-15.6,47-17.2c9-1.8,7.8-52.6,17-53.2c2-0.2,7.2-0.2,12.4-0.2s10.4,0,12.4,0.2c9.2,0.6,8,51.4,17,53.2
			c8.2,1.6,39.8,13,47,17.2c0.4,0.2,1,0.4,1.6,0.4c9.2,0,34.4-30.6,43.4-30.6c0.6,0,1.2,0.2,1.8,0.6c3.4,2.6,16.2,13.2,19.2,16.2
			c6.6,6.6-26.4,44.4-20.8,51.8c5,6.8,22.4,35.8,25,43.8c1,3.2,8.4,4,17.4,4c6.4,0,13.6-0.4,20-0.4c9.2,0,16.6,0.8,17.2,4.2
			c0.8,4.2,4,20.6,4.4,24.8c0.8,9.2-48.2,16.8-48.8,26.2c-0.4,8.4-5.6,42-8.6,49.8C394.4,314.8,439.2,339.4,434.8,347.6z M249.8,146
			C193.2,146,147,192.6,147,250s46,104,102.8,104c56.6,0,102.8-46.6,102.8-104S306.6,146,249.8,146z M249.8,320.8
			c-38.6,0-70-31.8-70-71s31.4-71,70-71s70,31.8,70,71C320,289,288.4,320.8,249.8,320.8z"/>
	</g>
</g>
</svg>
