<?xml version="1.0" encoding="utf-8"?>
<!-- Generator: Adobe Illustrator 17.1.0, SVG Export Plug-In . SVG Version: 6.00 Build 0)  -->
<!DOCTYPE svg PUBLIC "-//W3C//DTD SVG 1.0//EN" "http://www.w3.org/TR/2001/REC-SVG-20010904/DTD/svg10.dtd">
<svg version="1.0" id="_x35_8_1_" xmlns="http://www.w3.org/2000/svg" xmlns:xlink="http://www.w3.org/1999/xlink" x="0px" y="0px"
	 viewBox="0 0 250 250" enable-background="new 0 0 250 250" xml:space="preserve">
<g id="_x36_1_1_">
	<g>
		<path fill-rule="evenodd" clip-rule="evenodd" fill="#00AEAD" d="M238,103.5L209.4,96c-1.2-3.5-2.6-6.9-4.3-10.1l14.9-25.5
			c1.8-3.1,0-8.5-3.9-12.4l-14.1-14.1c-3.9-3.9-9.4-5.7-12.4-3.9L163.8,45c-3.1-1.5-6.4-2.8-9.7-4l-7.6-29c-0.9-3.4-6-6-11.6-6H115
			c-5.5,0-10.6,2.6-11.6,6l-7.6,29c-3.3,1.2-6.5,2.5-9.6,4L60.3,29.9c-3.1-1.8-8.5,0-12.4,3.9L33.8,47.9c-3.9,3.9-5.7,9.4-3.9,12.4
			l15,25.7c-1.6,3.2-3.2,6.5-4.4,10L12,103.5c-3.4,0.9-6,6-6,11.6V135c0,5.5,2.6,10.6,6,11.6l28.1,7.4c1.3,3.7,2.7,7.3,4.3,10.8
			l-14.6,25c-1.8,3.1,0,8.5,3.9,12.4l14.1,14.1c3.9,3.9,9.4,5.7,12.4,3.9L85,205.7c3.6,1.8,7.3,3.5,11.2,4.8l7.2,27.5
			c0.9,3.4,6,6,11.6,6H135c5.5,0,10.6-2.6,11.6-6l7.2-27.6c3.9-1.3,7.7-2.8,11.3-4.6l24.6,14.4c3.1,1.8,8.5,0,12.4-3.9l14.1-14.1
			c3.9-3.9,5.7-9.4,3.9-12.4l-14.6-25c1.7-3.5,3.3-7,4.5-10.8l28-7.3c3.4-0.9,6-6,6-11.6V115C244,109.5,241.4,104.4,238,103.5z
			 M223.5,128.6l-29.3,7.7c-1.7,10.5-5.6,20.3-11.4,28.7l15,25.6l-6.4,6.4L166,182.1c-8.5,6.1-18.3,10.3-29,12.1l-7.4,28.4h-9.1
			l-7.5-28.4c-10.7-1.8-20.5-6.1-29-12.1L58.5,197l-6.4-6.4l15-25.6c-5.8-8.4-9.7-18.2-11.4-28.7l-29.3-7.7v-9.1l29.4-7.7
			c1.9-10.1,6-19.4,11.8-27.5L52.1,57.6l6.4-6.4l26.8,15.7c8-5.5,17.2-9.2,27.1-11l0.1,0l7.9-30.3h9.1l7.9,30.3l0.2,0.1
			c9.9,1.8,19,5.5,27,11l26.8-15.7l6.4,6.4l-15.6,26.7c5.8,8.1,9.9,17.4,11.8,27.5l29.4,7.7V128.6z M125,75c-27.6,0-50,22.4-50,50
			c0,27.6,22.4,50,50,50c27.6,0,50-22.4,50-50C175,97.4,152.6,75,125,75z M125,155.4c-16.8,0-30.4-13.6-30.4-30.4
			c0-16.8,13.6-30.4,30.4-30.4c16.8,0,30.4,13.6,30.4,30.4C155.4,141.8,141.8,155.4,125,155.4z"/>
	</g>
</g>
</svg>
