<?xml version="1.0" encoding="utf-8"?>
<!-- Generator: Adobe Illustrator 17.1.0, SVG Export Plug-In . SVG Version: 6.00 Build 0)  -->
<!DOCTYPE svg PUBLIC "-//W3C//DTD SVG 1.0//EN" "http://www.w3.org/TR/2001/REC-SVG-20010904/DTD/svg10.dtd">
<svg version="1.0" id="_x35_8_1_" xmlns="http://www.w3.org/2000/svg" xmlns:xlink="http://www.w3.org/1999/xlink" x="0px" y="0px"
	 viewBox="0 0 250 250" enable-background="new 0 0 250 250" xml:space="preserve">
<g id="Shape_22">
	<g>
		<path fill-rule="evenodd" clip-rule="evenodd" fill="#FFFFFF" d="M220.7,137.4c3.5-1.2,7-2.4,10.2-3.9c12.3-5.8,13.4-14.9,13-19.7
			c-0.3-3.7-2.4-14.3-2.5-14.4c-0.6-2.8-3.4-12.2-15.6-14.5c-2.4-0.5-5.2-0.7-9-0.7c-1.7,0-3.6,0-5.4,0.1c-0.8,0-1.5,0-2.2,0.1
			c-1.7-3.2-3.7-6.6-5.5-9.6c0.4-0.7,0.9-1.4,1.2-2c1.9-3.2,3.9-6.5,5.3-9.6c2-4.3,5.7-15.3-2.7-23.7c-2.4-2.4-9.9-8.5-11.1-9.5
			c-3.1-2.4-6.9-3.7-10.9-3.7c-8.4,0-14.5,5.5-21.6,11.8c-0.5,0.4-1.1,1-1.7,1.5c-3.3-1.3-7-2.6-10.3-3.8c-0.1-0.8-0.3-1.6-0.4-2.3
			c-0.6-3.7-1.1-7.5-2-10.9c-3.8-14.1-13.4-16.2-17.4-16.4c-1.8-0.1-5.3-0.1-7.3-0.1c-1.9,0-5.5,0-7.3,0.1
			c-4,0.3-13.7,2.4-17.4,16.4c-0.9,3.4-1.5,7.2-2,10.9c-0.1,0.7-0.2,1.5-0.4,2.3c-3.3,1.1-7,2.5-10.3,3.8c-0.6-0.5-1.2-1.1-1.7-1.5
			c-7.1-6.3-13.2-11.8-21.6-11.8c-4,0-7.7,1.3-10.9,3.7c-1.2,0.9-8.7,7-11.1,9.5C39.5,42.1,33.7,50,39.7,63c1.5,3.2,3.4,6.4,5.3,9.6
			c0.4,0.6,0.8,1.3,1.2,2c-1.8,3-3.8,6.3-5.5,9.6c-0.7,0-1.5,0-2.2-0.1c-1.8,0-3.7-0.1-5.4-0.1c-3.8,0-6.5,0.2-9,0.7
			C11.8,87.2,9,96.5,8.4,99.3c0,0.1-2.1,10.7-2.5,14.4c-0.4,4.9,0.8,13.9,13,19.7c3.1,1.5,6.7,2.7,10.2,3.9c0.7,0.2,1.4,0.5,2.2,0.8
			c0.5,3.4,1.1,7.3,1.8,10.9c-0.6,0.5-1.2,1-1.8,1.4c-2.9,2.3-5.9,4.7-8.3,7.2c-10.4,10.6-7,20.2-5.1,23.9c0,0.1,5.1,9.5,7.3,12.6
			c3.4,4.9,9,7.8,15.3,7.8c5.6,0,11.4-2.3,17.6-4.7c0.6-0.3,1.4-0.6,2.2-0.9c2.6,2.3,5.5,4.9,8.3,7.1c-0.2,0.8-0.3,1.6-0.4,2.3
			c-0.7,3.7-1.5,7.4-1.8,10.9c-1.3,14.7,7.3,20,11,21.5c2,0.9,10.6,4.1,13.5,5c1.6,0.5,3.2,0.7,4.9,0.7c11.9,0,17.5-10.4,22.5-19.6
			c0.3-0.6,0.7-1.3,1.1-2.1c1.9,0,3.8,0.1,5.5,0.1s3.6,0,5.5-0.1c0.4,0.7,0.8,1.5,1.1,2.1c5,9.2,10.6,19.6,22.5,19.6
			c1.6,0,3.3-0.2,4.9-0.7c2.9-0.9,11.5-4.1,13.5-5c3.7-1.6,12.3-6.9,11-21.5c-0.3-3.5-1-7.3-1.8-10.9c-0.1-0.7-0.3-1.5-0.4-2.3
			c2.8-2.3,5.7-4.8,8.3-7.1c0.8,0.3,1.6,0.6,2.2,0.9c6.1,2.4,11.9,4.7,17.6,4.7c6.3,0,11.9-2.8,15.3-7.8c2.1-3.1,7.2-12.5,7.3-12.6
			c1.9-3.7,5.3-13.3-5.1-23.9c-2.4-2.5-5.4-4.9-8.3-7.2c-0.5-0.4-1.1-0.9-1.8-1.4c0.7-3.6,1.3-7.5,1.8-10.9
			C219.3,137.9,220.1,137.6,220.7,137.4z M217.4,173.8c-1,1.9-5,9.2-6.2,10.9c-0.3,0.5-1,0.7-1.9,0.7c-5.1,0-18.2-7.2-23.3-7.2
			c-0.8,0-1.4,0.2-1.8,0.6c-2.8,3.1-15.5,14.2-19.1,16.2c-4,2.3,5.3,26.1,1,27.9c-1.9,0.8-9.7,3.7-11.7,4.3c-0.1,0-0.2,0.1-0.4,0.1
			c-4.4,0-11.9-22.1-16.4-22.1c-0.1,0-0.1,0-0.2,0c-2.1,0.3-7.3,0.5-12.5,0.5c-5.2,0-10.4-0.2-12.5-0.5c-0.1,0-0.1,0-0.2,0
			c-4.5,0-12,22.1-16.4,22.1c-0.1,0-0.2,0-0.4-0.1c-2-0.6-9.8-3.5-11.7-4.3c-4.2-1.8,5-25.6,1-27.9c-3.6-2.1-16.3-13.1-19.1-16.2
			c-0.4-0.4-1-0.6-1.8-0.6c-5.2,0-18.2,7.2-23.3,7.2c-0.9,0-1.5-0.2-1.9-0.7c-1.2-1.7-5.3-9.1-6.2-10.9
			c-2.2-4.1,20.2-16.4,18.5-20.7c-1.5-3.9-4.1-20.7-4.3-24.9c-0.3-4.7-24.8-8.4-24.4-13.1c0.2-2.1,1.7-10.4,2.2-12.4
			c0.3-1.7,4-2.1,8.6-2.1c3.2,0,6.8,0.2,10,0.2c4.5,0,8.2-0.3,8.7-2c1.3-4,10-18.5,12.5-21.9c2.8-3.7-13.7-22.6-10.4-25.9
			c1.5-1.5,7.9-6.8,9.6-8.1c0.2-0.2,0.5-0.3,0.9-0.3C68.8,42.7,81.4,58,86,58c0.3,0,0.5-0.1,0.8-0.2c3.6-2.1,19.4-7.8,23.5-8.6
			c4.5-0.9,3.9-26.3,8.5-26.6c1-0.1,3.6-0.1,6.2-0.1c2.6,0,5.2,0,6.2,0.1c4.6,0.3,4,25.7,8.5,26.6c4.1,0.8,19.9,6.5,23.5,8.6
			c0.2,0.1,0.5,0.2,0.8,0.2c4.6,0,17.2-15.3,21.7-15.3c0.3,0,0.6,0.1,0.9,0.3c1.7,1.3,8.1,6.6,9.6,8.1c3.3,3.3-13.2,22.2-10.4,25.9
			c2.5,3.4,11.2,17.9,12.5,21.9c0.5,1.6,4.2,2,8.7,2c3.2,0,6.8-0.2,10-0.2c4.6,0,8.3,0.4,8.6,2.1c0.4,2.1,2,10.3,2.2,12.4
			c0.4,4.6-24.1,8.4-24.4,13.1c-0.2,4.2-2.8,21-4.3,24.9C197.2,157.4,219.6,169.7,217.4,173.8z M124.9,73c-28.3,0-51.4,23.3-51.4,52
			c0,28.7,23,52,51.4,52c28.3,0,51.4-23.3,51.4-52C176.3,96.3,153.3,73,124.9,73z M124.9,160.4c-19.3,0-35-15.9-35-35.5
			c0-19.6,15.7-35.5,35-35.5c19.3,0,35,15.9,35,35.5C160,144.5,144.2,160.4,124.9,160.4z"/>
	</g>
</g>
</svg>
