<?xml version="1.0" encoding="utf-8"?>
<!-- Generator: Adobe Illustrator 17.1.0, SVG Export Plug-In . SVG Version: 6.00 Build 0)  -->
<!DOCTYPE svg PUBLIC "-//W3C//DTD SVG 1.0//EN" "http://www.w3.org/TR/2001/REC-SVG-20010904/DTD/svg10.dtd">
<svg version="1.0" id="_x35_8_1_" xmlns="http://www.w3.org/2000/svg" xmlns:xlink="http://www.w3.org/1999/xlink" x="0px" y="0px"
	 viewBox="0 0 500 500" enable-background="new 0 0 500 500" xml:space="preserve">
<g id="_x31_7_copy">
	<g>
		<path fill-rule="evenodd" clip-rule="evenodd" fill="#C3324D" d="M345.6,24.5c-51.4,0-79.8,40.1-95.3,53.5c-1.6-1.5-3.3-3-5-4.4
			c-16.3-16-43.9-49.1-90.7-49.1c-94.3,0-137.3,83.7-137.3,161.4c0,152.4,186.7,269,195.6,274.5c29.1,16.3,29.1,16.3,36.1,16.3h2.2
			c7,0,7,0,37-16.9c7.9-4.9,194.7-121.5,194.7-273.9C482.8,108.2,439.9,24.5,345.6,24.5z"/>
	</g>
</g>
<g id="_x31_7_2_" opacity="0.302">
	<g>
		<path fill-rule="evenodd" clip-rule="evenodd" fill="#FFFFFF" d="M349.8,13.2c-53.7,0-83.3,42.1-99.5,56.1
			c-1.7-1.6-3.4-3.1-5.3-4.6c-17-16.8-45.9-51.5-94.7-51.5C51.9,13.2,7,101,7,182.7c0,160.1,195,282.5,204.2,288.2
			c30.4,17.2,30.4,17.2,37.7,17.2h2.3c7.3,0,7.3,0,38.6-17.7c8.3-5.1,203.3-127.6,203.3-287.6C493.1,101,448.3,13.2,349.8,13.2z
			 M269.2,433.5c-7.3,4.1-14.1,8-18.7,10.5c-4.6-2.5-11.4-6.3-19.2-10.7C230.8,432.8,48,318.3,48,181.2
			c0-47.6,21.6-128.1,102.7-128.1c27.3,0,45.9,19,60.8,34.3c4.7,4.8,8.8,8.9,12.4,12c8.8,9.3,17.1,18.8,23.6,28.3
			c3.9,5.8,7.3,10.8,10.4,14.5c6.3,7.8,13.8,18.6,22.9,20.3c21.9,4.1,26.3-18,8.5-45.2c-3.4-4.2-7.7-10.7-12.6-17.7
			c3.6-3.1,7.8-7.3,12.6-12.2c14.9-15.3,33.5-34.3,60.8-34.3c81.1,0,102.7,80.5,102.7,128.1C452.9,318.2,271,432.3,269.2,433.5z"/>
	</g>
</g>
</svg>
