<?xml version="1.0" encoding="utf-8"?>
<!-- Generator: Adobe Illustrator 17.1.0, SVG Export Plug-In . SVG Version: 6.00 Build 0)  -->
<!DOCTYPE svg PUBLIC "-//W3C//DTD SVG 1.0//EN" "http://www.w3.org/TR/2001/REC-SVG-20010904/DTD/svg10.dtd">
<svg version="1.0" id="_x35_8_1_" xmlns="http://www.w3.org/2000/svg" xmlns:xlink="http://www.w3.org/1999/xlink" x="0px" y="0px"
	 viewBox="0 0 250 250" enable-background="new 0 0 250 250" xml:space="preserve">
<g id="_x35_5">
	<g>
		<path fill-rule="evenodd" clip-rule="evenodd" fill="#FFFFFF" d="M105.4,105.2c0,10.9,8.9,19.8,19.8,19.8
			c10.9,0,19.8-8.9,19.8-19.8c0-10.9-8.9-19.8-19.8-19.8C114.3,85.4,105.4,94.3,105.4,105.2z M239.6,114.3l-104-104
			c-2.9-2.9-6.8-4.3-10.6-4.3c-3.8-0.1-7.7,1.3-10.6,4.3L75.7,48.9v-8.1c0-8.2-6.7-14.9-14.9-14.9c-8.2,0-14.9,6.7-14.9,14.9v37.9
			l-35.6,35.6c-5.7,5.7-5.7,15.1,0,20.8c4.3,4.3,10.5,5.3,15.8,3.3v85.8c0,10.9,8.9,19.8,19.8,19.8h158.6c10.9,0,19.8-8.9,19.8-19.8
			v-85.7c5.2,1.8,11.2,0.8,15.3-3.4C245.4,129.3,245.4,120,239.6,114.3z M204.5,214.3c0,5.5-4.4,9.9-9.9,9.9H155v-49.6
			c0-11-8.9-19.8-19.8-19.8h-19.8c-10.9,0-19.8,8.9-19.8,19.8v49.6H55.8c-5.5,0-9.9-4.4-9.9-9.9v-94L125,41.2l79.6,79.6V214.3z"/>
	</g>
</g>
</svg>
