<?xml version="1.0" encoding="utf-8"?>
<!-- Generator: Adobe Illustrator 17.1.0, SVG Export Plug-In . SVG Version: 6.00 Build 0)  -->
<!DOCTYPE svg PUBLIC "-//W3C//DTD SVG 1.0//EN" "http://www.w3.org/TR/2001/REC-SVG-20010904/DTD/svg10.dtd">
<svg version="1.0" id="_x35_8_1_" xmlns="http://www.w3.org/2000/svg" xmlns:xlink="http://www.w3.org/1999/xlink" x="0px" y="0px"
	 viewBox="0 0 500 500" enable-background="new 0 0 500 500" xml:space="preserve">
<g id="_x35_5">
	<g>
		<path fill="#C9C9C1" d="M210.8,210.4c0,21.8,17.8,39.6,39.6,39.6s39.6-17.8,39.6-39.6s-17.8-39.6-39.6-39.6
			C228.6,170.8,210.8,188.6,210.8,210.4z M479.2,228.6l-208-208c-5.8-5.8-13.6-8.6-21.2-8.6c-7.6-0.2-15.4,2.6-21.2,8.6l-77.4,77.2
			V81.6c0-16.4-13.4-29.8-29.8-29.8S91.8,65.2,91.8,81.6v75.8l-71.2,71.2c-11.4,11.4-11.4,30.2,0,41.6c8.6,8.6,21,10.6,31.6,6.6
			v171.6c0,21.8,17.8,39.6,39.6,39.6H409c21.8,0,39.6-17.8,39.6-39.6V277c10.4,3.6,22.4,1.6,30.6-6.8
			C490.8,258.6,490.8,240,479.2,228.6z M409,428.6c0,11-8.8,19.8-19.8,19.8H310v-99.2c0-22-17.8-39.6-39.6-39.6h-39.6
			c-21.8,0-39.6,17.8-39.6,39.6v99.2h-79.6c-11,0-19.8-8.8-19.8-19.8v-188L250,82.4l159.2,159.2v187H409z"/>
	</g>
</g>
</svg>
