<?xml version="1.0" encoding="utf-8"?>
<!-- Generator: Adobe Illustrator 17.1.0, SVG Export Plug-In . SVG Version: 6.00 Build 0)  -->
<!DOCTYPE svg PUBLIC "-//W3C//DTD SVG 1.0//EN" "http://www.w3.org/TR/2001/REC-SVG-20010904/DTD/svg10.dtd">
<svg version="1.0" id="_x35_8_1_" xmlns="http://www.w3.org/2000/svg" xmlns:xlink="http://www.w3.org/1999/xlink" x="0px" y="0px"
	 viewBox="0 0 500 500" enable-background="new 0 0 500 500" xml:space="preserve">
<g id="_x31_77">
	<g>
		<path fill-rule="evenodd" clip-rule="evenodd" fill="#0487BD" d="M419.7,429.7h-10v0c0-179.8-103.4-139.9-103.4-179.3
			c0-39.6,103.4-0.4,103.4-180.2h10c16.5,0,30-13.4,30-30c0-16.5-13.4-30-30-30H80.2c-16.5,0-30,13.4-30,30c0,16.5,13.4,30,30,30h10
			c0,179.7,103.4,140.1,103.4,179.4c0,39.5-103.4,0.3-103.4,180.1v0h-10c-16.5,0-30,13.4-30,30c0,16.5,13.4,30,30,30h339.5
			c16.5,0,30-13.4,30-30C449.6,443.1,436.2,429.7,419.7,429.7z M189.4,162.4c-10.8,0-21.9,1.7-31.8,3.9
			c-16.8-15.6-28.7-42.6-28.7-96.1h239.7c0,51.6-11.1,78.6-27,94.6c-6.2-1.2-13.4-2.1-21.6-2.1c-11.5,0-60.6,9.9-72.9,9.9
			C230.1,172.5,204.3,162.4,189.4,162.4z M333.9,410.7c-20.1-8-71.9-41.5-84.2-41.5c-16.8,0-46.7,34.3-61.6,34.3
			c-15.1,0-37.5,15.9-50.5,26.2h-8.8c0-93.9,36.8-106.6,72.4-118.9c13.4-4.6,34.3-11.8,47.2-27.9c12.8,16.5,34.2,23.8,47.8,28.4
			c35.3,12,71.8,24.4,72.2,116.6C359.9,424.5,345.4,415.3,333.9,410.7z M249.9,309.8c-11,0-20,8.9-20,20c0,11,8.9,20,20,20
			c11,0,20-8.9,20-20C269.9,318.8,260.9,309.8,249.9,309.8z"/>
	</g>
</g>
</svg>
