<?xml version="1.0" encoding="utf-8"?>
<!-- Generator: Adobe Illustrator 17.1.0, SVG Export Plug-In . SVG Version: 6.00 Build 0)  -->
<!DOCTYPE svg PUBLIC "-//W3C//DTD SVG 1.0//EN" "http://www.w3.org/TR/2001/REC-SVG-20010904/DTD/svg10.dtd">
<svg version="1.0" id="_x35_8_1_" xmlns="http://www.w3.org/2000/svg" xmlns:xlink="http://www.w3.org/1999/xlink" x="0px" y="0px"
	 viewBox="0 0 250 250" enable-background="new 0 0 250 250" xml:space="preserve">
<g id="_x35_6_1_">
	<g>
		<path fill-rule="evenodd" clip-rule="evenodd" fill="#FFFFFF" d="M125.3,144.9c43.5,0,60-48.7,60-81.1s-26.8-58.8-60-58.8
			S65.3,31.4,65.3,63.8S81.7,144.9,125.3,144.9z M190.3,135.2c-30.3,0-54.9,24.6-54.9,54.9c0,30.3,24.6,54.9,54.9,54.9
			c30.3,0,54.9-24.6,54.9-54.9C245.2,159.8,220.6,135.2,190.3,135.2z M220.2,205h-15v15c0,8.3-6.7,15-15,15c-8.3,0-15-6.7-15-15v-15
			h-15c-8.3,0-15-6.7-15-15c0-8.3,6.7-15,15-15h15v-15c0-8.3,6.7-15,15-15c8.3,0,15,6.7,15,15v15h15c8.3,0,15,6.7,15,15
			C235.2,198.3,228.4,205,220.2,205z M125.7,159h-1.5c-23.2,0-34.5-14.3-54.1-14.3c-19.7,0-55.9,23.8-63.5,48.7
			c-6.5,21.4,12.9,21.5,18.5,21.5h104.4c-3.1-7.5-4.9-15.8-4.9-24.5c0-11.7,3.4-22.6,8.9-32C131,158.7,128.4,159,125.7,159z"/>
	</g>
</g>
</svg>
