<?xml version="1.0" encoding="utf-8"?>
<!-- Generator: Adobe Illustrator 17.1.0, SVG Export Plug-In . SVG Version: 6.00 Build 0)  -->
<!DOCTYPE svg PUBLIC "-//W3C//DTD SVG 1.0//EN" "http://www.w3.org/TR/2001/REC-SVG-20010904/DTD/svg10.dtd">
<svg version="1.0" id="Camada_1" xmlns="http://www.w3.org/2000/svg" xmlns:xlink="http://www.w3.org/1999/xlink" x="0px" y="0px"
	 viewBox="0 0 115 115" enable-background="new 0 0 115 115" xml:space="preserve">
<g id="_x36_7">
	<g>
		<path fill-rule="evenodd" clip-rule="evenodd" fill="#1A9979" d="M68.4,24.3c-5.5,5.5-5.5,14.5,0,20c5.5,5.5,14.5,5.5,20,0
			c5.5-5.5,5.5-14.5,0-20C82.9,18.8,74,18.8,68.4,24.3z M82,37.9c-2,2-5.1,2-7.1,0c-2-2-2-5.1,0-7.1c2-2,5.1-2,7.1,0
			C83.9,32.7,83.9,35.9,82,37.9z M101.7,11.1C88.8-1.8,68-1.8,55.1,11.1c-9.5,9.5-12,23.5-7.3,35.3c-0.6,0.4-1.3,0.7-1.8,1.2
			L14.1,79.4l-6.4,6.4c-5.3,5.3-5.3,13.9,0,19.2c3.4,3.4,8.2,4.6,12.6,3.6c0.4,0.8,0.8,1.6,1.5,2.2c3.7,3.7,9.6,3.7,13.3,0l3.3-3.3
			c3.7-3.7,3.7-9.6,0-13.3C38.3,94,38.1,94,38,93.9l6.7-6.7l0.4,0.4c3.7,3.7,9.6,3.7,13.3,0l6.7-6.7c3.7-3.7,3.7-9.6,0-13.3
			l-0.4-0.4l0.5-0.5c0.5-0.5,0.8-1.2,1.2-1.8c11.8,4.7,25.8,2.2,35.3-7.3C114.5,44.7,114.5,23.9,101.7,11.1z M95,50.9
			C87,59,74.6,59.8,65.5,53.7L51.6,67.5c0,0,0.1,0,0.1,0.1l3.3,3.3c1.8,1.8,1.8,4.8,0,6.7c-1.8,1.8-4.8,1.8-6.7,0l-3.3-3.3
			c0,0,0-0.1-0.1-0.1l-20,20l5.1,5.1c0.9,0.9,0.9,2.4,0,3.3c-0.9,0.9-2.4,0.9-3.3,0l-5.1-5.1l-1.8,1.8c-1.8,1.8-4.7,1.8-6.5,0
			c-1.8-1.8-1.8-4.7,0-6.5l3.2-3.2c0.1-0.1,0-0.2,0.1-0.3c0.1-0.1,0.2-0.1,0.3-0.1L59,47.2c-6.1-9.1-5.2-21.4,2.8-29.5
			c9.2-9.2,24-9.2,33.2,0C104.2,26.9,104.2,41.7,95,50.9z"/>
	</g>
</g>
</svg>
