<?xml version="1.0" encoding="utf-8"?>
<!-- Generator: Adobe Illustrator 17.1.0, SVG Export Plug-In . SVG Version: 6.00 Build 0)  -->
<!DOCTYPE svg PUBLIC "-//W3C//DTD SVG 1.0//EN" "http://www.w3.org/TR/2001/REC-SVG-20010904/DTD/svg10.dtd">
<svg version="1.0" id="Camada_1" xmlns="http://www.w3.org/2000/svg" xmlns:xlink="http://www.w3.org/1999/xlink" x="0px" y="0px"
	 viewBox="0 0 147 147" enable-background="new 0 0 147 147" xml:space="preserve">
<g id="Ellipse_6_copy_10">
	<g>
		<ellipse fill-rule="evenodd" clip-rule="evenodd" fill="#AF3B6D" cx="73.8" cy="73.5" rx="72.2" ry="72.5"/>
	</g>
</g>
<g id="Shape_24">
	<g>
		<path fill-rule="evenodd" clip-rule="evenodd" fill="#FFFFFF" d="M74,52.9c9.1,0,16.4-7.4,16.4-16.5S83.1,20,74,20
			c-9.1,0-16.4,7.4-16.4,16.5S64.9,52.9,74,52.9z M109.3,79.5c-1.8-3.9-4.4-8.2-6.5-11.7c-3.4-5.6-7.1-10.2-14.9-10.2
			c-2.6,0-11.6,0-25.4,0c-12,0-16.3,12.5-20.1,19.7c-2.9,5.5-6.1,13.9-6.3,18.6c-0.5,9.6,6.1,15.8,7.1,16.5
			c5.3,3.8,11.6,7.1,21.7,7.9c7.6,0.6,14.4-3,15.1-7.2c0.8-5-2.3-8.4-8.8-8.1c-10.2,0.5-16.7-2.5-18.7-3.5c-5-2.5,1-2.4,2.3-2.5
			c3.2-0.2,6.3-1,7.9-2.3c1.6-1.4,0.2-0.9-1.9-7.5c-1.6-5,0.7-7.1,2-7.5c3.1-1,4.9,0.4,6.7,3.7c1.2,2.3,2.9,4.8,3.7,5.7
			c1.3,1.5,2.2,3.1,4.8,4.7c2.2,1.3,4.7,2.1,6.8,2.2c2.2,0.1,2,0,4-0.3c-2.1,2-9.3,7.1-4.3,12.5c2.7,2.9,8.6,1.8,11.4,0.7
			c2.8-1.1,7.6-4.4,11.7-9.6C115.5,91.3,110.7,82.4,109.3,79.5z M86.6,95.7c-6.3,0-11.4-5.1-11.4-11.4c0-6.3,5.1-11.4,11.4-11.4
			c6.3,0,11.4,5.1,11.4,11.4C98.1,90.5,92.9,95.7,86.6,95.7z"/>
	</g>
</g>
</svg>
