<?xml version="1.0" encoding="utf-8"?>
<!-- Generator: Adobe Illustrator 17.1.0, SVG Export Plug-In . SVG Version: 6.00 Build 0)  -->
<!DOCTYPE svg PUBLIC "-//W3C//DTD SVG 1.0//EN" "http://www.w3.org/TR/2001/REC-SVG-20010904/DTD/svg10.dtd">
<svg version="1.0" id="Camada_1" xmlns="http://www.w3.org/2000/svg" xmlns:xlink="http://www.w3.org/1999/xlink" x="0px" y="0px"
	 viewBox="0 0 147 147" enable-background="new 0 0 147 147" xml:space="preserve">
<g id="Ellipse_6">
	<g>
		<ellipse fill-rule="evenodd" clip-rule="evenodd" fill="#FBBC08" cx="73.8" cy="73.5" rx="72.2" ry="72.5"/>
	</g>
</g>
<g id="Shape_15">
	<g>
		<path fill-rule="evenodd" clip-rule="evenodd" fill="#FFFFFF" d="M89.2,74.6c-0.3-4,0.3-8,0.7-12c0.6-7.4,1.9-17.3-3.2-23.4
			c-4.9-5.8-13.9-4.3-20-1.8C55,42.2,40.6,55.8,46,69.2c3.9,9.6,14.4,19.6,16.1,28.5c1.5,7.6,0.7,16.3,5.1,23.1
			c6.1,9.4,24.9,8.6,29.6-2.2C103.4,103.7,90.4,89.2,89.2,74.6z M77.9,32.4c3.8-0.7,6.2-5,5.4-9.5c-0.8-4.6-4.6-7.8-8.3-7.1
			c-3.8,0.7-6.2,5-5.4,9.5C70.3,29.9,74.1,33.1,77.9,32.4z M64.2,34.6c2.6-0.5,4.3-3.5,3.8-6.6c-0.6-3.2-3.2-5.4-5.8-4.9
			c-2.6,0.5-4.3,3.4-3.8,6.6C59,32.9,61.6,35.1,64.2,34.6z M54.7,40.4c2.4-0.4,4-3.2,3.5-6.1c-0.5-3-2.9-5-5.4-4.6
			c-2.4,0.4-4,3.2-3.5,6.1C49.9,38.8,52.3,40.9,54.7,40.4z M48.3,46.8c1.9-0.6,2.9-3,2.1-5.3c-0.8-2.3-2.9-3.7-4.9-3.1
			c-1.9,0.6-2.9,3-2.1,5.3C44.2,46,46.4,47.4,48.3,46.8z M45.1,48.7c-1-2.1-3.2-3.1-5-2.2c-1.7,0.8-2.3,3.2-1.2,5.3
			c1,2.1,3.2,3.1,5,2.2C45.5,53.1,46.1,50.8,45.1,48.7z"/>
	</g>
</g>
</svg>
