<?xml version="1.0" encoding="utf-8"?>
<!-- Generator: Adobe Illustrator 17.1.0, SVG Export Plug-In . SVG Version: 6.00 Build 0)  -->
<!DOCTYPE svg PUBLIC "-//W3C//DTD SVG 1.0//EN" "http://www.w3.org/TR/2001/REC-SVG-20010904/DTD/svg10.dtd">
<svg version="1.0" id="_x35_8_1_" xmlns="http://www.w3.org/2000/svg" xmlns:xlink="http://www.w3.org/1999/xlink" x="0px" y="0px"
	 viewBox="0 0 28.8 28.8" enable-background="new 0 0 28.8 28.8" xml:space="preserve">
<g id="_x31_03">
	<g>
		<path fill-rule="evenodd" clip-rule="evenodd" fill="#FFFFFF" d="M14.391,0.667C8.1,0.667,3,5.705,3,11.921
			c0,6.216,11.391,16.077,11.391,16.077s11.391-9.862,11.391-16.077C25.782,5.705,20.682,0.667,14.391,0.667z M14.353,24.862
			c-4.014-3.776-9.113-9.676-9.113-13.006c0-4.949,4.088-8.977,9.113-8.977s9.114,4.027,9.114,8.977
			C23.467,15.037,18.542,20.92,14.353,24.862z M14.371,5.222c-2.526,0-4.573,2.048-4.573,4.573s2.048,4.573,4.573,4.573
			c2.526,0,4.573-2.048,4.573-4.573S16.897,5.222,14.371,5.222z M14.39,12.018c-1.278,0-2.314-1.024-2.314-2.287
			s1.036-2.287,2.314-2.287c1.278,0,2.314,1.024,2.314,2.287S15.668,12.018,14.39,12.018z"/>
	</g>
</g>
</svg>
