<?xml version="1.0" encoding="utf-8"?>
<!-- Generator: Adobe Illustrator 17.1.0, SVG Export Plug-In . SVG Version: 6.00 Build 0)  -->
<!DOCTYPE svg PUBLIC "-//W3C//DTD SVG 1.0//EN" "http://www.w3.org/TR/2001/REC-SVG-20010904/DTD/svg10.dtd">
<svg version="1.0" id="_x35_8_1_" xmlns="http://www.w3.org/2000/svg" xmlns:xlink="http://www.w3.org/1999/xlink" x="0px" y="0px"
	 viewBox="0 0 250 250" enable-background="new 0 0 250 250" xml:space="preserve">
<g id="OFF" opacity="0.502">
	<g>
		<path fill-rule="evenodd" clip-rule="evenodd" fill="#4E5F5C" d="M202.3,49c-5.6-5.5-14.4-5.3-19.8,0.3
			c-5.4,5.7-5.2,14.8,0.3,20.3c16.2,16.1,25.2,37.8,25.2,60.9c0,46.7-37,84.7-82.6,84.7c-45.5,0-82.6-38-82.6-84.7
			c0-23.7,9.3-45.7,26.2-61.9c5.6-5.4,5.9-14.5,0.7-20.3c-5.3-5.8-14.1-6.1-19.8-0.7c-22.2,21.4-35,51.6-35,82.8
			C15,193.1,64.5,244,125.5,244S236,193.1,236,130.6C236,99.5,224,70.6,202.3,49z M125.5,127.8c7.7,0,14-6.4,14-14.4V19.4
			c0-7.9-6.3-14.4-14-14.4c-7.7,0-14,6.4-14,14.4v94.1C111.5,121.3,117.8,127.8,125.5,127.8z"/>
	</g>
</g>
</svg>
