<?xml version="1.0" encoding="utf-8"?>
<!-- Generator: Adobe Illustrator 17.1.0, SVG Export Plug-In . SVG Version: 6.00 Build 0)  -->
<!DOCTYPE svg PUBLIC "-//W3C//DTD SVG 1.0//EN" "http://www.w3.org/TR/2001/REC-SVG-20010904/DTD/svg10.dtd">
<svg version="1.0" id="Camada_1" xmlns="http://www.w3.org/2000/svg" xmlns:xlink="http://www.w3.org/1999/xlink" x="0px" y="0px"
	 viewBox="0 0 115 115" enable-background="new 0 0 115 115" xml:space="preserve">
<g id="_x36_5">
	<g>
		<path fill-rule="evenodd" clip-rule="evenodd" fill="#1A9979" d="M104,20.3H11c-5.1,0-9.3,4.2-9.3,9.3v55.8c0,5.1,4.2,9.3,9.3,9.3
			h93c5.1,0,9.3-4.2,9.3-9.3V29.6C113.3,24.5,109.2,20.3,104,20.3z M99.1,29.6l-38,36c-0.8,0.8-2.2,1.3-3.5,1.3
			c-1.4,0-2.7-0.5-3.5-1.3l-38-36H99.1z M11,80.8V37.7l23.4,22.2l-23.2,22C11.1,81.5,11,81.2,11,80.8z M21.1,85.4l20.1-19.1l6.3,6
			c2.6,2.5,6.2,3.9,9.9,3.9c3.7,0,7.4-1.4,9.9-3.9l6.4-6.1L94,85.4H21.1z M104,80.8c0,0.4-0.1,0.8-0.2,1.2L80.5,59.9L104,37.6V80.8z
			"/>
	</g>
</g>
</svg>
