<?xml version="1.0" encoding="utf-8"?>
<!-- Generator: Adobe Illustrator 17.1.0, SVG Export Plug-In . SVG Version: 6.00 Build 0)  -->
<!DOCTYPE svg PUBLIC "-//W3C//DTD SVG 1.0//EN" "http://www.w3.org/TR/2001/REC-SVG-20010904/DTD/svg10.dtd">
<svg version="1.0" id="_x35_8_1_" xmlns="http://www.w3.org/2000/svg" xmlns:xlink="http://www.w3.org/1999/xlink" x="0px" y="0px"
	 viewBox="0 0 250 250" enable-background="new 0 0 250 250" xml:space="preserve">
<g id="_x34_7_1_">
	<g>
		<path fill-rule="evenodd" clip-rule="evenodd" fill="#FFFFFF" d="M230,99.6H19.9c-8.3,0-15,6.7-15,15c0,8.3,6.7,15,15,15h3.3
			l19.4,82.2c-4.6,2.6-7.8,7.3-7.8,12.9c0,8.3,6.7,15,15,15H200c8.3,0,15-6.7,15-15c0-5.6-3.2-10.3-7.8-12.9l19.4-82.2h3.3
			c8.3,0,15-6.7,15-15C245,106.3,238.3,99.6,230,99.6z M74.9,209.7H62.7l-18.9-80h31.1V209.7z M115,209.7h-20v-80h20V209.7z
			 M155,209.7h-20v-80h20V209.7z M187.2,209.7H175v-80h31.1L187.2,209.7z M145,29.6c0-11-9-20-20-20c-11.1,0-20,9-20,20v60h40V29.6z
			"/>
	</g>
</g>
</svg>
