<?xml version="1.0" encoding="utf-8"?>
<!-- Generator: Adobe Illustrator 17.1.0, SVG Export Plug-In . SVG Version: 6.00 Build 0)  -->
<!DOCTYPE svg PUBLIC "-//W3C//DTD SVG 1.0//EN" "http://www.w3.org/TR/2001/REC-SVG-20010904/DTD/svg10.dtd">
<svg version="1.0" id="Camada_1" xmlns="http://www.w3.org/2000/svg" xmlns:xlink="http://www.w3.org/1999/xlink" x="0px" y="0px"
	 viewBox="0 0 250 180" enable-background="new 0 0 250 180" xml:space="preserve">
<path fill="#FFFFFF" d="M24.2,39.3h202.7c9.3,0,16.9-7.6,16.9-16.9s-7.6-16.9-16.9-16.9H24.2C14.8,5.5,7.3,13,7.3,22.4
	S14.8,39.3,24.2,39.3z M226.9,73.1H24.2c-9.3,0-16.9,7.6-16.9,16.9s7.6,16.9,16.9,16.9h202.7c9.3,0,16.9-7.6,16.9-16.9
	S236.2,73.1,226.9,73.1z M226.9,140.6H24.2c-9.3,0-16.9,7.6-16.9,16.9c0,9.3,7.6,16.9,16.9,16.9h202.7c9.3,0,16.9-7.6,16.9-16.9
	C243.8,148.2,236.2,140.6,226.9,140.6z"/>
</svg>
