<?xml version="1.0" encoding="utf-8"?>
<!-- Generator: Adobe Illustrator 17.1.0, SVG Export Plug-In . SVG Version: 6.00 Build 0)  -->
<!DOCTYPE svg PUBLIC "-//W3C//DTD SVG 1.0//EN" "http://www.w3.org/TR/2001/REC-SVG-20010904/DTD/svg10.dtd">
<svg version="1.0" id="_x35_8_1_" xmlns="http://www.w3.org/2000/svg" xmlns:xlink="http://www.w3.org/1999/xlink" x="0px" y="0px"
	 viewBox="0 0 500 400" enable-background="new 0 0 500 400" xml:space="preserve">
<g id="_x31_3">
	<g>
		<path fill-rule="evenodd" clip-rule="evenodd" fill="#FFFFFF" d="M383.9,177.4c-7.4-29.1-34-61.4-51.2-77.4
			c-21.9-20.4-39.6-52.9-39.7-73.9c0-4.7-0.4-6.6-0.9-6.7C290.4,12.4,284.6,7,277.2,7c-8.6,0-15.6,7.2-15.6,16v231
			c-9.3-2.8-20.2-4.1-32.4-4.1c-23.4,0-51.5,11.3-73.8,28.8c-22.2,16.9-38.6,40.1-38.6,63.2c0,14.7,6.4,27.1,17.6,35.6
			c10.5,8.5,25.8,13.6,42.2,13.6c25.8,0,55-10.2,77.3-27.1c22.8-16.9,38.6-40.1,38.6-65.5l-0.1-0.3c0.1-0.5,0.4-0.7,0.4-1.4V145.3
			c2.2,0.2,39.6,4.7,63.2,33.8c24.3,30,17.5,91,17.5,91S397.8,232.1,383.9,177.4z M224.6,294.9c-12.4,0-27.4,6.4-39.2,16.3
			c-11.8,9.6-20.5,22.8-20.5,35.9c0,3.3,0.9,6.2,1.9,9.1c-3.2-1.3-6.2-2.8-8.6-4.8c-5.9-4.8-9.3-11.9-9.3-20.2
			c0-13.1,8.7-26.3,20.5-35.9c11.8-9.9,26.7-16.3,39.2-16.3c23.1,0,30.5,10.7,32.7,18.8C236.9,296.1,231.6,294.9,224.6,294.9z"/>
	</g>
</g>
</svg>
