<?xml version="1.0" encoding="utf-8"?>
<!-- Generator: Adobe Illustrator 17.1.0, SVG Export Plug-In . SVG Version: 6.00 Build 0)  -->
<!DOCTYPE svg PUBLIC "-//W3C//DTD SVG 1.0//EN" "http://www.w3.org/TR/2001/REC-SVG-20010904/DTD/svg10.dtd">
<svg version="1.0" id="Camada_1" xmlns="http://www.w3.org/2000/svg" xmlns:xlink="http://www.w3.org/1999/xlink" x="0px" y="0px"
	 viewBox="0 0 250 250" enable-background="new 0 0 250 250" xml:space="preserve">
<g id="_x31_05">
	<g>
		<path fill-rule="evenodd" clip-rule="evenodd" fill="#666766" d="M237.2,44.7l-31.9-31.9c-8.8-8.8-23.1-8.8-31.9,0L53.8,132.4
			c0,0-15.5,15.1-31.9,57.7L7.4,225.4c0,0,0,0,0,0c-0.7,2-1.4,3.7-1.4,5.9c0,7,5.7,12.7,12.7,12.7c2.2,0,3.7-0.5,6.1-1.5l35-14.3
			c40.4-15.5,57.7-31.9,57.7-31.9L237.2,76.6C246,67.8,246,53.5,237.2,44.7z M80.3,193.6c-0.8,3.3-19.9,14.5-25.4,15.8l-12.6,4.1
			c-0.5,0.2-1,0.2-1.4,0.2c-1.6,0.4-3.4,0-4.7-1.2c-1.3-1.3-1.7-3.3-1.2-4.9c0-0.3,0.1-0.7,0.2-1l4.1-12.6c1-4.4,8.6-17.8,13.2-23.2
			c0.3-0.5,0.7-1,1.1-1.4c2.7-2.7,7.2-2.7,10,0L79.3,185C81.6,187.3,82,190.9,80.3,193.6z M76.4,151.7c-3.9-3.9-3.9-10.1,0-14
			l60.1-60.1c3.9-3.9,10.1-3.9,14,0l7.3,7.3L83.7,159L76.4,151.7z M171.5,112.6l-60.1,60.1c-3.9,3.9-10.1,3.9-14,0l-6.7-6.7
			l74.1-74.1l6.7,6.7C175.3,102.5,175.3,108.7,171.5,112.6z M216.6,69l-0.7,0.7c-3.9,3.9-10.1,3.9-14,0l-21-21
			c-3.9-3.9-3.9-10.1,0-14l0.7-0.7c3.9-3.9,10.1-3.9,14,0l21,21C220.5,58.8,220.5,65.1,216.6,69z"/>
	</g>
</g>
</svg>
