<?xml version="1.0" encoding="utf-8"?>
<!-- Generator: Adobe Illustrator 17.1.0, SVG Export Plug-In . SVG Version: 6.00 Build 0)  -->
<!DOCTYPE svg PUBLIC "-//W3C//DTD SVG 1.0//EN" "http://www.w3.org/TR/2001/REC-SVG-20010904/DTD/svg10.dtd">
<svg version="1.0" id="Camada_1" xmlns="http://www.w3.org/2000/svg" xmlns:xlink="http://www.w3.org/1999/xlink" x="0px" y="0px"
	 viewBox="0 0 250 250" enable-background="new 0 0 250 250" xml:space="preserve">
<g id="_x34_">
	<g>
		<path fill="#666766" d="M224.1,6.1H25.9C15,6.1,6.1,15,6.1,25.9v198.2c0,10.9,8.9,19.8,19.8,19.8h198.2c10.9,0,19.8-8.9,19.8-19.8
			V25.9C243.9,14.9,235.1,6.1,224.1,6.1z M224.1,194.3c0,5.5-4.4,9.9-9.9,9.9H35.8c-5.5,0-9.9-4.4-9.9-9.9V35.8
			c0-5.5,4.4-9.9,9.9-9.9h178.4c5.5,0,9.9,4.4,9.9,9.9L224.1,194.3L224.1,194.3z M75.5,114.9c4.2,0,8.1-0.8,11.9-2
			c-16-5.1-27.8-19.9-27.8-37.6s11.7-32.6,27.8-37.6c-3.8-1.2-7.7-2-11.9-2c-21.9,0-39.7,17.8-39.7,39.7
			C35.8,97.2,53.6,114.9,75.5,114.9z M204.3,35.8c-5,0-6.1-0.1-13.6,0.2c-19.3,0.9-26.9,19.2-26.9,19.2s-4.8-7.8-16.7-4.8
			s-12.3,16.4-12.3,16.4s-2.6-3.5-12.3-2.2s-8.4,14.3-4,17.3c1.4,1,3.2,1.4,3.2,1.4s2.1,4.6,4,5.5c16.6,7.9,24.1-0.2,24.1-0.2
			s6.8,6.8,22.4,6.7c5.2,0,15.4-3.8,15.4-3.8s12.2,3.7,16.7,3.7c5.9,0,9.9-4.4,9.9-9.9V45.7C214.2,40.2,209.3,35.8,204.3,35.8z
			 M204.3,115.1c-6.2,0-22,3.3-43.3,41c-3.9,6.9-5.9,21.8-5.9,21.8s-18.3-7.8-21.1-8.4c-6.7-1.4-6.7-22.8-20.9-11.9
			c-6.8,5.3-5.5,6-7.8,9.3s-2,7-7.5,11.9s-13.2,4.2-19.1,1.7c-16.2-6.8-26.5-6-33-6s-9.9,4.4-9.9,9.9s2.8,9.9,9.9,9.9
			s158.5,0,158.5,0l0,0h0.1c5.5,0,9.9-4.4,9.9-9.9v-59.5C214.2,119.5,210.5,115.1,204.3,115.1z"/>
	</g>
</g>
</svg>
