<?xml version="1.0" encoding="utf-8"?>
<!-- Generator: Adobe Illustrator 17.1.0, SVG Export Plug-In . SVG Version: 6.00 Build 0)  -->
<!DOCTYPE svg PUBLIC "-//W3C//DTD SVG 1.0//EN" "http://www.w3.org/TR/2001/REC-SVG-20010904/DTD/svg10.dtd">
<svg version="1.0" id="_x35_8_1_" xmlns="http://www.w3.org/2000/svg" xmlns:xlink="http://www.w3.org/1999/xlink" x="0px" y="0px"
	 viewBox="0 0 250 250" enable-background="new 0 0 250 250" xml:space="preserve">
<g id="_x31_2">
	<g>
		<path fill-rule="evenodd" clip-rule="evenodd" fill="#FFFFFF" d="M138.4,124.7c-3.8,0-13.4,2.5-26.3,30.9
			c-2.4,5.2-3.6,16.4-3.6,16.4s-11.2-5.9-12.8-6.3c-4.1-1.1-4.1-17.2-12.7-8.9c-4.1,4-3.4,4.5-4.7,7c-1.4,2.5-1.2,5.3-4.6,8.9
			c-3.4,3.7-8,3.2-11.6,1.3c-9.9-5.1-16.1-4.5-20.1-4.5c-3.9,0-6,3.3-6,7.5s1.7,7.5,6,7.5c4.3,0,96.4,0,96.4,0l0,0c0,0,0,0,0.1,0
			c3.3,0,6-3.3,6-7.5v-44.8C144.5,128,142.2,124.7,138.4,124.7z M224.2,16H95.4c-10.9,0-19.8,8.9-19.8,19.8v29.7h19.8V45.7
			c0-5.5,4.4-9.9,9.9-9.9h109c5.5,0,9.9,4.4,9.9,9.9V125c0,5.5-4.4,9.9-9.9,9.9h-29.7v39.6h39.6c10.9,0,19.8-8.9,19.8-19.8V35.8
			C244,24.9,235.1,16,224.2,16z M207.8,124.9c3.3,0,6-2.2,6-5V90.1c0-2.7-2.3-5-6-5c-3.5,0-11.9,1.6-23.2,16.4v23.4
			C197.9,124.9,207.7,124.9,207.8,124.9L207.8,124.9C207.8,124.9,207.8,124.9,207.8,124.9z M55.4,144.9c2,0,4-0.4,5.8-1
			c-7.9-2.6-13.6-10-13.6-19c0-8.9,5.7-16.4,13.6-19c-1.9-0.6-3.8-1-5.8-1c-10.7,0-19.5,9-19.5,20C35.9,136,44.6,144.9,55.4,144.9z
			 M144.9,65.5c0-10.9-8.9-19.8-19.8-19.8c-10.9,0-19.8,8.9-19.8,19.8c0,0,0,0,0,0L144.9,65.5C144.9,65.5,144.9,65.5,144.9,65.5z
			 M154.8,75.4H26c-10.9,0-19.8,8.9-19.8,19.8v118.9c0,10.9,8.9,19.8,19.8,19.8h128.8c10.9,0,19.8-8.9,19.8-19.8V95.3
			C174.6,84.3,165.8,75.4,154.8,75.4z M154.8,184.4c0,5.5-4.4,9.9-9.9,9.9h-109c-5.5,0-9.9-4.4-9.9-9.9v-79.3c0-5.5,4.4-9.9,9.9-9.9
			h109c5.5,0,9.9,4.4,9.9,9.9V184.4z"/>
	</g>
</g>
</svg>
