<?xml version="1.0" encoding="utf-8"?>
<!-- Generator: Adobe Illustrator 17.1.0, SVG Export Plug-In . SVG Version: 6.00 Build 0)  -->
<!DOCTYPE svg PUBLIC "-//W3C//DTD SVG 1.0//EN" "http://www.w3.org/TR/2001/REC-SVG-20010904/DTD/svg10.dtd">
<svg version="1.0" id="_x35_8_1_" xmlns="http://www.w3.org/2000/svg" xmlns:xlink="http://www.w3.org/1999/xlink" x="0px" y="0px"
	 viewBox="0 0 500 500" enable-background="new 0 0 500 500" xml:space="preserve">
<g id="_x3F__xA0_Caminho_de_recorte">
	<g>
		<path fill="#FFFFFF" d="M360.7,139.8H140.8v186.9h219.9V139.8z M311.2,161.7c15.2,0,27.5,12.3,27.5,27.5
			c0,15.2-12.3,27.5-27.5,27.5c-15.2,0-27.5-12.3-27.5-27.5C283.7,174.1,296,161.7,311.2,161.7z M349.7,315.7H151.8v-88
			c0,0,37-41.5,77,0c29.5,30.7,120.9,22,120.9,22V315.7z M250.4,7.7C116.8,7.7,8.5,116,8.5,249.6c0,133.6,108.3,241.9,241.9,241.9
			c133.6,0,241.9-108.3,241.9-241.9C492.3,116,384,7.7,250.4,7.7z M382.7,381.6H118.8V117.8h263.9V381.6z"/>
	</g>
</g>
</svg>
