<?xml version="1.0" encoding="utf-8"?>
<!-- Generator: Adobe Illustrator 17.1.0, SVG Export Plug-In . SVG Version: 6.00 Build 0)  -->
<!DOCTYPE svg PUBLIC "-//W3C//DTD SVG 1.0//EN" "http://www.w3.org/TR/2001/REC-SVG-20010904/DTD/svg10.dtd">
<svg version="1.0" id="Camada_1" xmlns="http://www.w3.org/2000/svg" xmlns:xlink="http://www.w3.org/1999/xlink" x="0px" y="0px"
	 viewBox="0 0 250 250" enable-background="new 0 0 250 250" xml:space="preserve">
<g id="_x34_">
	<g>
		<path fill-rule="evenodd" clip-rule="evenodd" fill="#00AEAD" d="M224.5,5.9H26.3c-10.9,0-19.8,8.9-19.8,19.8v198.2
			c0,10.9,8.9,19.8,19.8,19.8h198.2c10.9,0,19.8-8.9,19.8-19.8V25.7C244.3,14.7,235.5,5.9,224.5,5.9z M224.5,194.1
			c0,5.5-4.4,9.9-9.9,9.9H36.2c-5.5,0-9.9-4.4-9.9-9.9V35.6c0-5.5,4.4-9.9,9.9-9.9h178.4c5.5,0,9.9,4.4,9.9,9.9V194.1z M75.9,114.7
			c4.2,0,8.1-0.8,11.9-2C71.8,107.6,60,92.8,60,75.1c0-17.7,11.7-32.6,27.8-37.6c-3.8-1.2-7.7-2-11.9-2c-21.9,0-39.7,17.8-39.7,39.7
			C36.2,97,54,114.7,75.9,114.7z M204.7,35.6c-5,0-6.1-0.1-13.6,0.2C171.8,36.7,164.2,55,164.2,55s-4.8-7.8-16.7-4.8
			c-11.9,3-12.3,16.4-12.3,16.4s-2.6-3.5-12.3-2.2c-9.7,1.3-8.4,14.3-4,17.3c1.4,1,3.2,1.4,3.2,1.4s2.1,4.6,4,5.5
			c16.6,7.9,24.1-0.2,24.1-0.2s6.8,6.8,22.4,6.7c5.2,0,15.4-3.8,15.4-3.8s12.2,3.7,16.7,3.7c5.9,0,9.9-4.4,9.9-9.9V45.5
			C214.6,40,209.7,35.6,204.7,35.6z M204.7,114.9c-6.2,0-22,3.3-43.3,41c-3.9,6.9-5.9,21.8-5.9,21.8s-18.3-7.8-21.1-8.4
			c-6.7-1.4-6.7-22.8-20.9-11.9c-6.8,5.3-5.5,6-7.8,9.3c-2.3,3.3-2,7-7.5,11.9c-5.5,4.9-13.2,4.2-19.1,1.7c-16.2-6.8-26.5-6-33-6
			c-6.5,0-9.9,4.4-9.9,9.9s2.8,9.9,9.9,9.9c7.1,0,158.5,0,158.5,0l0,0c0,0,0.1,0,0.1,0c5.5,0,9.9-4.4,9.9-9.9v-59.5
			C214.6,119.3,210.9,114.9,204.7,114.9z"/>
	</g>
</g>
</svg>
