<?xml version="1.0" encoding="utf-8"?>
<!-- Generator: Adobe Illustrator 17.1.0, SVG Export Plug-In . SVG Version: 6.00 Build 0)  -->
<!DOCTYPE svg PUBLIC "-//W3C//DTD SVG 1.0//EN" "http://www.w3.org/TR/2001/REC-SVG-20010904/DTD/svg10.dtd">
<svg version="1.0" id="Camada_1" xmlns="http://www.w3.org/2000/svg" xmlns:xlink="http://www.w3.org/1999/xlink" x="0px" y="0px"
	 viewBox="0 0 147 147" enable-background="new 0 0 147 147" xml:space="preserve">
<g id="Ellipse_6_copy_7">
	<g>
		<ellipse fill-rule="evenodd" clip-rule="evenodd" fill="#657387" cx="73.8" cy="73.5" rx="72.2" ry="72.5"/>
	</g>
</g>
<g id="Shape_21">
	<g>
		<path fill-rule="evenodd" clip-rule="evenodd" fill="#FFFFFF" d="M60,45.8c0.4-0.7,0.6-1.4,0.7-2.2c2.1,1.3,4.6,2,7.2,2
			c7.9,0,14.2-6.4,14.2-14.3C82.2,23.4,75.8,17,68,17s-14.2,6.4-14.2,14.3c0,1.7,0.3,3.3,0.9,4.9c-0.3,0-0.6-0.1-0.9-0.1
			c-3.6,0-7.1,3.5-7.1,7.2c0,1.7-0.5,11-5.5,11c-0.9,0-1.6,0.7-1.6,1.7s0.7,1.7,1.6,1.7C52.6,57.6,58.1,50.4,60,45.8z M87.9,75.7
			c2.2-1.2,3.7-3.5,3.7-6.2v0c0-4.8-2.4-7.2-14.2-16.7c-2.4-1.6-5.2-2.4-8.3-2.4c-6.7,0-12.4,4.4-14.3,10.5l-5.6,18.5
			c-0.7,2.4-0.1,5,1.6,6.9l16.6,17.9c1.4,1.5,3.3,2.3,5.2,2.3c1.7,0,3.5-0.6,4.8-1.9c2.9-2.7,3-7.2,0.3-10.1L64,79.5l3.6-12.8
			l4.6,1.3l-2.9,10.2l12,12.9c2.2,2.3,3.3,5.4,3.2,8.6c-0.1,3.2-1.4,6.1-3.8,8.3c-2.2,2.1-5.1,3.2-8.1,3.2c-3.3,0-6.4-1.4-8.7-3.8
			L53.7,96.4V116c0,3.3,2.7,6,5.9,6h20.1c17.3,0,28.7-10.7,28.7-23.9C108.5,87.8,97,79.1,87.9,75.7z M96.1,104.7
			c0,0-8.3-4.5-8.3-9.6c0-2.4,1.9-4.4,4.4-4.4c2,0,3.4,1.5,3.9,3.3c0.5-1.8,1.9-3.3,3.9-3.3c2.4,0,4.4,2,4.4,4.4
			C104.4,100.2,96.1,104.7,96.1,104.7z"/>
	</g>
</g>
</svg>
