<?xml version="1.0" encoding="utf-8"?>
<!-- Generator: Adobe Illustrator 17.1.0, SVG Export Plug-In . SVG Version: 6.00 Build 0)  -->
<!DOCTYPE svg PUBLIC "-//W3C//DTD SVG 1.0//EN" "http://www.w3.org/TR/2001/REC-SVG-20010904/DTD/svg10.dtd">
<svg version="1.0" id="_x35_8_1_" xmlns="http://www.w3.org/2000/svg" xmlns:xlink="http://www.w3.org/1999/xlink" x="0px" y="0px"
	 viewBox="0 0 250 250" enable-background="new 0 0 250 250" xml:space="preserve">
<g id="_x36_3_1_">
	<g>
		<path fill-rule="evenodd" clip-rule="evenodd" fill="#00AEAD" d="M204.9,129.7h-59.7c-5.5,0-10,4.5-10,10c0,5.5,4.5,10,10,10h59.7
			c5.5,0,10-4.5,10-10C214.9,134.2,210.4,129.7,204.9,129.7z M204.9,99.8h-59.7c-5.5,0-10,4.5-10,10c0,5.5,4.5,10,10,10h59.7
			c5.5,0,10-4.5,10-10C214.9,104.3,210.4,99.8,204.9,99.8z M224.9,30.2H185V55c0,2.7-2.2,5-5,5c-2.8,0-5-2.2-5-5V30.2H75.5V55
			c0,2.7-2.2,5-5,5c-2.7,0-5-2.2-5-5V30.2H25.7c-11,0-19.9,8.9-19.9,19.9v149.4c0,11,8.9,19.9,19.9,19.9h199.1
			c11,0,19.9-8.9,19.9-19.9V50.1C244.8,39.1,235.9,30.2,224.9,30.2z M224.9,189.5c0,5.5-4.5,10-10,10H35.7c-5.5,0-10-4.5-10-10V60
			c0-5.5,4.5-10,10-10h10v10c0,11,8.9,19.9,19.9,19.9h10c11,0,19.9-8.9,19.9-19.9v-10h59.7v10c0,11,8.9,19.9,19.9,19.9h10
			c11,0,19.9-8.9,19.9-19.9v-10h10c5.5,0,10,4.5,10,10V189.5z M175.1,159.6h-29.9c-5.5,0-10,4.5-10,10c0,5.5,4.5,10,10,10h29.9
			c5.5,0,10-4.5,10-10C185,164,180.6,159.6,175.1,159.6z M105.4,99.8H45.6c-5.5,0-10,4.5-10,10v59.7c0,5.5,4.5,10,10,10h59.7
			c5.5,0,10-4.5,10-10v-59.7C115.3,104.3,110.9,99.8,105.4,99.8z M75.8,109c8.1,0,14.7,7,14.7,15.6c0,8.6-4,22.1-14.7,22.1
			c-10.7,0-14.7-13.5-14.7-22.1C61,116,67.6,109,75.8,109z M100.8,169.2H50.4c-1.4,0-6.3,0-4.7-6.8c1.9-7.8,11-15.3,16-15.3
			c5,0,7.8,6.7,13.7,6.7h0.4c5.8,0,8.7-6.7,13.7-6.7c5,0,13.9,7.6,16,15.3C107.2,168.9,102.2,169.2,100.8,169.2z"/>
	</g>
</g>
</svg>
