<?xml version="1.0" encoding="utf-8"?>
<!-- Generator: Adobe Illustrator 17.1.0, SVG Export Plug-In . SVG Version: 6.00 Build 0)  -->
<!DOCTYPE svg PUBLIC "-//W3C//DTD SVG 1.0//EN" "http://www.w3.org/TR/2001/REC-SVG-20010904/DTD/svg10.dtd">
<svg version="1.0" id="Camada_1" xmlns="http://www.w3.org/2000/svg" xmlns:xlink="http://www.w3.org/1999/xlink" x="0px" y="0px"
	 viewBox="0 0 147 147" enable-background="new 0 0 147 147" xml:space="preserve">
<g id="Ellipse_6_copy_3_2_">
	<g>
		<ellipse fill="#FF8102" cx="73.8" cy="73.5" rx="72.2" ry="72.5"/>
	</g>
</g>
<g id="Shape_20">
	<g>
		<path fill="#FFFFFF" d="M104.5,76.9c0-1.6-1.3-2.9-2.9-2.9s-2.9,1.3-2.9,2.9s1.3,2.9,2.9,2.9C103.2,79.9,104.5,78.5,104.5,76.9z
			 M113.7,76.9c0-1.6-1.3-2.9-2.9-2.9s-2.9,1.3-2.9,2.9s1.3,2.9,2.9,2.9C112.4,79.9,113.7,78.5,113.7,76.9z M121.2,99.6
			c-0.3,0.5-0.7,1.1-1.1,1.5c0,0.1,0,0.2,0,0.4c0,3-3.2,5.9-6.5,5.9c-3.5,0-6-3.1-6-5.9c0-0.4,0-0.7,0.1-1.1
			c0.2-0.6,0.4-1.2,0.8-1.7c0.1-0.2,0.3-0.3,0.4-0.5c0-0.1,0.1-0.1,0.2-0.1c0.1-0.1,0.3-0.2,0.4-0.3c0.1-0.1,0.1-0.1,0.2-0.2
			s0.3-0.2,0.4-0.3c0.1,0,0.1-0.1,0.2-0.1c0.2-0.1,0.5-0.2,0.7-0.3c0.4-1.2-0.1-2.2-0.3-2.5c-0.3-0.5-0.6-0.7-0.8-0.8
			c-0.3,0.1-0.7,0.3-1,0.4l-0.1,0.1c-0.3,0.1-0.5,0.3-0.8,0.5l0,0l0,0c-0.6,0.4-1.1,0.9-1.6,1.4c-1.4,1.6-2.1,3.6-2.1,5.7
			c0,4.8,3.8,8.6,8.6,8.6c4.7,0,8.6-3.9,8.6-8.6C121.5,101,121.4,100.3,121.2,99.6z M107.3,93.4c0.9-3,3.7-5.2,7-5.2
			c0.7,0,1.4,0.1,2,0.3c-1.8-1.9-4.3-3.1-7.1-3.1c-5.4,0-9.9,4.5-9.9,9.9c0,3.2,1.5,6,3.8,7.8c-0.1-0.5-0.1-1.1-0.1-1.6
			c0-2.4,0.8-4.6,2.4-6.4C106,94.4,106.6,93.9,107.3,93.4z M107.4,109.8c-2.4,2.2-5.1,4.2-8,5.9c-4.8-9.8-15.8-34.8-15.7-58.6
			c8.2,0.1,15.8,2.2,22,6.2c6.4,4.1,10.6,9.8,12.3,16.4c0.9,3.5,1,7.2,0.4,10.8c-0.3-0.2-0.6-0.4-0.9-0.6l0,0l0,0
			c-0.1,0-0.2-0.1-0.3-0.1l0,0c-0.1,0-0.2-0.1-0.3-0.1l0,0c-0.1,0-0.2-0.1-0.3-0.1l0,0c-0.2-0.1-0.5-0.1-0.7-0.2c0,0,0,0-0.1,0
			s-0.2,0-0.3,0h-0.1c-0.1,0-0.2,0-0.2,0h-0.1c-0.1,0-0.2,0-0.2,0h-0.1c0,0,0,0-0.1,0c0,0,0,0-0.1,0h-0.1c-0.1,0-0.1,0-0.2,0
			s-0.1,0-0.2,0s-0.1,0-0.2,0s-0.1,0-0.2,0s-0.1,0-0.2,0s-0.1,0-0.2,0s-0.1,0-0.2,0s-0.1,0-0.2,0s-0.1,0-0.2,0s-0.1,0-0.2,0
			s-0.1,0-0.2,0s-0.1,0-0.2,0.1c0,0-0.1,0-0.1,0.1c-0.1,0-0.1,0-0.2,0.1c0,0-0.1,0-0.1,0.1c-0.1,0-0.1,0-0.2,0.1c0,0-0.1,0-0.1,0.1
			c-0.1,0-0.1,0.1-0.2,0.1c0,0-0.1,0-0.1,0.1c-0.1,0-0.1,0.1-0.2,0.1c0,0-0.1,0-0.1,0.1c-0.1,0-0.1,0.1-0.1,0.1l-0.1,0.1l-0.1,0.1
			l-0.1,0.1l-0.1,0.1l-0.1,0.1l-0.1,0.1l-0.1,0.1l-0.1,0.1l-0.1,0.1l-0.1,0.1l-0.1,0.1l-0.1,0.1l-0.1,0.1l-0.1,0.1l-0.1,0.1
			l-0.1,0.1l-0.1,0.1l-0.1,0.1c0,0.1-0.1,0.1-0.1,0.2c0,0,0,0.1-0.1,0.1c0,0.1-0.1,0.1-0.1,0.2c0,0,0,0.1-0.1,0.1
			c0,0.1-0.1,0.1-0.1,0.2l0,0c0.4-0.2,0.8-0.4,1.2-0.5h0.1h0.1c0.6,0,1.3,0.5,1.8,1.3c0.7,1.2,0.9,2.6,0.3,3.7l-0.1,0.2l-0.2,0.1
			c-1.1,0.4-2,1.1-2.5,2c0,0,0,0.1,0.1,0.1l0.1,0.1l0.1,0.1l0.1,0.1l0.1,0.1l0.1,0.1l0.1,0.1l0.1,0.1l0.1,0.1l0.1,0.1l0.1,0.1
			l0.1,0.1l0.1,0.1l0.1,0.1l0.1,0.1l0.1,0.1c0.1,0,0.1,0.1,0.2,0.1c0,0,0.1,0,0.1,0.1c0.1,0,0.1,0.1,0.2,0.1c0,0,0.1,0,0.1,0.1
			c0.1,0,0.1,0.1,0.2,0.1c0,0,0.1,0,0.1,0.1c0.1,0,0.1,0,0.2,0.1c0,0,0.1,0,0.1,0.1c0.1,0,0.1,0,0.2,0.1h0.1c0.1,0,0.1,0,0.2,0.1
			c0.1,0,0.1,0,0.2,0s0.1,0,0.2,0s0.1,0,0.2,0s0.1,0,0.2,0s0.1,0,0.2,0c0,0,0,0,0.1,0c-0.5,0.7-1,1.4-1.5,2.1
			c-0.3,0.3-0.5,0.7-0.8,1l0,0c0.2,0.1,0.3,0.2,0.5,0.3l0,0c0.1,0,0.2,0.1,0.2,0.1l0,0c0.1,0,0.2,0.1,0.2,0.1l0,0
			c0.4,0.1,0.8,0.2,1.2,0.2c0.1-0.1,0.2-0.2,0.3-0.3c0.9-1.2,1.7-2.4,2.4-3.6c0.2-0.1,0.5-0.1,0.7-0.2l0,0l0,0
			c3.9-1.7,4.3-5.6,4.3-5.6c0-0.3,0-0.5,0-0.8c0-1.2-0.4-2.4-1-3.4c1-4.4,1-8.9-0.1-13.3c-1.8-7.2-6.4-13.3-13.3-17.7
			c-6.7-4.3-14.9-6.5-23.7-6.5c-0.8,0-1.7,0-2.5,0.1c1.1-2,2.1-4.2,2.8-6.5c1.7-5.9,1.8-11.9,0.1-16.9c-1.7-5.2-5-8.7-9.3-10
			c-1.1-0.3-2.3-0.5-3.5-0.5c-5.7,0-11.6,4-15.6,10.5c-3.6-1.8-7.3-2.8-10.8-2.8c-4.4,0-8.2,1.6-10.7,4.4c-2.9,3.4-3.9,8.2-2.6,13.5
			c1.2,5.2,4.4,10.2,9,14.3c2.9,2.6,6.2,4.6,9.6,5.8c-2.6,2.2-5,4.6-7,7.2c-6.4,8.4-8.7,17.9-6.4,26.8c1.8,7.2,6.4,13.3,13.3,17.7
			C56,122.8,64.2,125,73,125c4.5,0,9-0.6,13.4-1.7c8.8-2.3,16.7-6.6,22.8-12.4C108.7,110.6,108,110.2,107.4,109.8L107.4,109.8z
			 M70.7,23.2c1,0,1.9,0.1,2.9,0.4c7.5,2.3,11,13.1,7.7,24.2c-0.8,2.7-1.9,5.1-3.3,7.4c-1.7,0.2-3.4,0.4-5.1,0.7l0,0
			c-0.3,0.1-0.5,0.1-0.8,0.2c-0.1,0-0.1,0-0.2,0c-0.2,0-0.4,0.1-0.6,0.1c0,0,0,0-0.1,0c0.6-6.7-2.9-14.5-9.5-20.3
			c-1.5-1.3-3.1-2.5-4.7-3.5C60.6,26.7,65.8,23.2,70.7,23.2z M50.7,116.6c-6.4-4.1-10.6-9.8-12.3-16.4c-2.3-9,0.5-18.3,6.9-26
			c-1.3,10.5-1.4,29.2,10.2,44.9C53.7,118.4,52.1,117.6,50.7,116.6z M51.7,65.1c-3.6-1.1-7.1-3.1-10.2-5.8
			c-4.2-3.7-7.2-8.4-8.3-13.1c-1.1-4.6-0.4-8.7,2.1-11.5c2.1-2.4,5.3-3.7,9.1-3.7c3.1,0,6.5,0.9,9.7,2.5c-0.9,1.8-1.7,3.6-2.2,5.6
			c-1.4,4.8-1.7,9.7-0.8,14.2c0.8,3.8,2.4,7,4.6,9.4C54.3,63.3,53,64.2,51.7,65.1z M53.9,39.6c0.5-1.8,1.2-3.5,2.1-5.2
			c1.5,0.9,3,2,4.3,3.2c6.2,5.5,9.6,13.1,8.7,19.2c-4,1.1-7.9,2.6-11.4,4.5C52.9,57,51.4,48.2,53.9,39.6z M74.1,122.8
			C68.7,114.5,57,92.6,59.2,63c3.2-1.7,6.8-3.1,10.5-4.1c-0.3,11.3,0.5,41.9,15.6,62.4C81.6,122.3,77.8,122.7,74.1,122.8z"/>
	</g>
</g>
</svg>
