<?xml version="1.0" encoding="utf-8"?>
<!-- Generator: Adobe Illustrator 17.1.0, SVG Export Plug-In . SVG Version: 6.00 Build 0)  -->
<!DOCTYPE svg PUBLIC "-//W3C//DTD SVG 1.0//EN" "http://www.w3.org/TR/2001/REC-SVG-20010904/DTD/svg10.dtd">
<svg version="1.0" id="Camada_1" xmlns="http://www.w3.org/2000/svg" xmlns:xlink="http://www.w3.org/1999/xlink" x="0px" y="0px"
	 viewBox="0 0 147 147" enable-background="new 0 0 147 147" xml:space="preserve">
<g id="Ellipse_6_copy_3_2_">
	<g>
		<ellipse fill-rule="evenodd" clip-rule="evenodd" fill="#F58120" cx="73.2" cy="73.5" rx="72.2" ry="72.5"/>
	</g>
</g>
<g id="Shape_10">
	<g>
		<path fill-rule="evenodd" clip-rule="evenodd" fill="#FFFFFF" d="M101.4,77.8c0-1.6-1.3-2.8-2.8-2.8c-1.6,0-2.8,1.3-2.8,2.8
			c0,1.6,1.3,2.8,2.8,2.8C100.1,80.6,101.4,79.3,101.4,77.8z M110.3,77.8c0-1.6-1.3-2.8-2.8-2.8c-1.6,0-2.8,1.3-2.8,2.8
			c0,1.6,1.3,2.8,2.8,2.8C109,80.6,110.3,79.3,110.3,77.8z M117.6,99.1c-0.3,0.7-0.8,1.3-1.3,1.9c0,0.1,0,0.3,0,0.4
			c0,2.5-2.7,5.5-6.1,5.5c-0.3,0-0.5,0-0.8-0.1c-0.1,0-0.2,0-0.2,0c0,0-0.1,0-0.1,0c0,0-0.1,0-0.1,0c0,0-0.1,0-0.1,0
			c0,0-0.1,0-0.1,0c0,0-0.1,0-0.1,0c-0.1,0-0.1,0-0.2-0.1c0,0-0.1,0-0.1,0c-0.1,0-0.1-0.1-0.2-0.1c0,0,0,0,0,0
			c-0.1,0-0.2-0.1-0.2-0.1c0,0,0,0,0,0c-0.1,0-0.1-0.1-0.2-0.1c0,0,0,0-0.1,0c-0.1,0-0.1-0.1-0.2-0.1c-0.3-0.2-0.5-0.4-0.8-0.6
			c-0.1-0.1-0.1-0.1-0.2-0.2c0,0,0,0,0,0c-0.1-0.1-0.1-0.1-0.2-0.2c0,0,0,0,0,0c-0.1-0.1-0.1-0.1-0.2-0.2c0,0,0,0,0,0
			c-0.1-0.1-0.1-0.1-0.1-0.2c0,0,0,0,0,0c0-0.1-0.1-0.1-0.1-0.2c0,0,0,0,0,0c0-0.1-0.1-0.2-0.1-0.2c0,0,0,0,0,0
			c-0.1-0.2-0.2-0.3-0.3-0.5c0,0,0,0,0,0c0-0.1-0.1-0.2-0.1-0.2c0,0,0,0,0-0.1c0-0.1,0-0.1-0.1-0.2c0,0,0-0.1,0-0.1
			c0-0.1,0-0.1-0.1-0.2c0,0,0-0.1,0-0.1c0-0.1,0-0.1,0-0.2c0,0,0-0.1,0-0.1c0-0.1,0-0.1,0-0.2c0,0,0-0.1,0-0.1c0-0.1,0-0.1,0-0.2
			c0,0,0-0.1,0-0.1c0-0.1,0-0.1,0-0.2c0,0,0-0.1,0-0.1c0-0.1,0-0.2,0-0.3c0-0.3,0-0.7,0.1-1c0-0.1,0-0.1,0.1-0.2c0,0,0-0.1,0.1-0.1
			c0.1-0.3,0.2-0.5,0.4-0.8c0.2-0.4,0.5-0.7,0.8-1c0,0,0,0,0,0c0.1-0.1,0.2-0.2,0.3-0.3c0,0,0,0,0,0c0.1-0.1,0.2-0.2,0.3-0.2
			c0,0,0,0,0.1,0c0.1-0.1,0.2-0.2,0.4-0.2c0,0,0,0,0,0c0.1-0.1,0.2-0.1,0.3-0.2c0,0,0.1,0,0.1,0c0.1-0.1,0.3-0.1,0.4-0.2
			c0.5-1.2-0.1-2.3-0.3-2.6c-0.3-0.5-0.7-0.8-0.9-0.8c-0.2,0.1-0.3,0.1-0.4,0.2c0,0-0.1,0-0.1,0c-0.1,0.1-0.3,0.1-0.4,0.2
			c-0.1,0-0.1,0.1-0.2,0.1c-0.1,0-0.2,0.1-0.2,0.1c-0.1,0.1-0.2,0.1-0.3,0.2c0,0-0.1,0.1-0.1,0.1c-0.2,0.1-0.3,0.2-0.5,0.3h0
			c-0.3,0.2-0.5,0.4-0.8,0.7c0,0,0,0,0,0c-0.1,0.1-0.2,0.2-0.2,0.2c-0.1,0.1-0.2,0.2-0.3,0.3c-1.4,1.5-2.1,3.5-2.1,5.6
			c0,0.1,0,0.3,0,0.4c0,0,0,0.1,0,0.1c0,0.1,0,0.2,0,0.3c0,0.1,0,0.1,0,0.2c0,0.1,0,0.2,0,0.2c0,0,0,0.1,0,0.1c0,0.1,0,0.2,0.1,0.3
			c0,0.1,0,0.1,0,0.2c0,0.1,0,0.1,0,0.2c0,0.1,0,0.1,0.1,0.2c0,0,0,0.1,0,0.1c0,0.1,0,0.2,0.1,0.2v0c0.1,0.3,0.2,0.7,0.4,1
			c0.3,0.7,0.8,1.4,1.3,2.1l0,0c0.6,0.7,1.3,1.2,2.1,1.7c0,0,0.1,0,0.1,0c0.1,0.1,0.3,0.2,0.4,0.2c0,0,0,0,0,0
			c1.1,0.6,2.4,0.9,3.7,0.9c4.7,0,8.5-3.8,8.5-8.5C118,100.8,117.9,99.9,117.6,99.1z M102.1,107c-0.5-0.7-0.9-1.5-1.2-2.3
			c-3.1-1.8-5.1-5.2-5.1-9c0-4.3,2.6-8,6.3-9.6c-4.4,1.4-7.6,5.5-7.6,10.4C94.5,101.5,97.7,105.6,102.1,107z M105.4,100.8
			c0,0.2-0.1,0.4-0.1,0.6c0,1.5,0.7,2.9,2,3.8c0.5-0.8,1.3-1.5,1.3-2.1C107.4,102.6,106.3,101.8,105.4,100.8z M103.8,94.5
			c0.7-3.4,3.7-6,7.3-6c0.6,0,1.2,0.1,1.8,0.2c-1.8-1.8-4.2-2.8-6.8-2.8c-5.4,0-9.7,4.4-9.7,9.8c0,3.3,1.6,6.2,4.1,8
			c-0.1-0.7-0.2-1.3-0.2-2c0-2.2,0.8-4.4,2.3-6C103,95.2,103.4,94.8,103.8,94.5z M96.4,115c-4.7-9.4-15.3-33.4-15.2-56.3
			c8,0.1,15.3,2.1,21.3,5.9c6.2,3.9,10.3,9.4,11.9,15.8c0.8,3.3,1,6.6,0.5,10c-1.1-0.7-2.4-1.2-3.8-1.2c-3,0-5.5,1.9-6.4,4.6
			c0.6-0.4,1.2-0.7,1.8-0.9l0.1,0h0.1c0.5,0,1.1,0.4,1.6,1.1c0.7,1.1,0.8,2.3,0.3,3.4l-0.1,0.1l-0.1,0.1c-1.3,0.4-2.2,1.3-2.7,2.3
			c1,1.4,2.5,2.4,4.3,2.7c-0.4,0.6-0.8,1.2-1.3,1.7c-0.3,0.4-0.6,0.7-0.9,1.1c0.6,0.4,1.4,0.6,2.1,0.7c0.1-0.2,0.3-0.3,0.4-0.5
			c0.8-1,1.5-2,2.1-3c1.2-0.2,2.3-0.8,3.2-1.5c0-0.1,0-0.2,0-0.2l0-0.2l0.1-0.1c0.7-0.7,1.3-1.6,1.6-2.6l0.3-0.9l0.2,0.5
			c0.1-0.5,0.2-1,0.2-1.6c0-1.4-0.4-2.7-1.2-3.8c0.9-4.1,0.8-8.2-0.2-12.3c-1.8-6.9-6.2-12.8-12.9-17c-6.4-4.1-14.4-6.3-23-6.3
			c-0.8,0-1.6,0-2.4,0.1c1.1-2,2-4.1,2.7-6.3c1.7-5.6,1.7-11.4,0.1-16.3c-1.7-5-4.9-8.4-9-9.6c-1.1-0.3-2.2-0.5-3.4-0.5
			c-5.5,0-11.2,3.8-15.1,10.1c-3.5-1.7-7.1-2.7-10.5-2.7c-4.3,0-8,1.5-10.4,4.3c-2.9,3.3-3.7,7.9-2.5,13c1.2,5,4.3,9.8,8.7,13.7
			c2.8,2.5,6,4.4,9.3,5.6c-2.6,2.1-4.8,4.4-6.8,7c-6.2,8-8.4,17.2-6.2,25.8c1.8,6.9,6.2,12.8,12.9,17c6.4,4.1,14.4,6.3,23,6.3
			c4.3,0,8.7-0.6,13-1.7c8.6-2.2,16.3-6.4,22.2-12.1c-0.7-0.3-1.3-0.6-1.9-1C102,111.4,99.3,113.4,96.4,115z M49.2,116
			c-6.2-3.9-10.3-9.4-11.9-15.8c-2.2-8.6,0.5-17.6,6.6-25c-1.3,10.1-1.4,28.1,9.9,43.2C52.2,117.7,50.6,116.9,49.2,116z M52.4,41.9
			c0.5-1.7,1.2-3.4,2-5c1.5,0.9,2.9,1.9,4.2,3.1c6,5.3,9.3,12.6,8.4,18.5c-3.9,1.1-7.6,2.5-11.1,4.4C51.4,58.6,49.9,50.1,52.4,41.9z
			 M71.9,121.9c-5.2-8-16.5-29-14.4-57.5c3.1-1.6,6.5-3,10.2-3.9c-0.3,10.8,0.5,40.3,15.1,60.1C79.2,121.4,75.5,121.8,71.9,121.9z"
			/>
	</g>
</g>
</svg>
