<?xml version="1.0" encoding="utf-8"?>
<!-- Generator: Adobe Illustrator 17.1.0, SVG Export Plug-In . SVG Version: 6.00 Build 0)  -->
<!DOCTYPE svg PUBLIC "-//W3C//DTD SVG 1.0//EN" "http://www.w3.org/TR/2001/REC-SVG-20010904/DTD/svg10.dtd">
<svg version="1.0" id="Camada_1" xmlns="http://www.w3.org/2000/svg" xmlns:xlink="http://www.w3.org/1999/xlink" x="0px" y="0px"
	 viewBox="0 0 147 147" enable-background="new 0 0 147 147" xml:space="preserve">
<g id="Ellipse_6_copy_2">
	<g>
		<ellipse fill-rule="evenodd" clip-rule="evenodd" fill="#22E784" cx="73.8" cy="73.5" rx="72.2" ry="72.5"/>
	</g>
</g>
<g id="Shape_14">
	<g>
		<path fill-rule="evenodd" clip-rule="evenodd" fill="#FFFFFF" d="M75.8,97c22.5,0,40.8-13.7,40.8-30.6H35C35,83.3,53.2,97,75.8,97
			z M54.5,97.3c-7.4,0-13.4,6-13.4,13.4c0,7.4,6,13.4,13.4,13.4c7.4,0,13.4-6,13.4-13.4C67.9,103.3,61.9,97.3,54.5,97.3z
			 M54.5,118.9c-4.6,0-8.3-3.7-8.3-8.2c0-4.5,3.7-8.2,8.3-8.2c4.6,0,8.3,3.7,8.3,8.2C62.8,115.2,59.1,118.9,54.5,118.9z M96.4,97.3
			c-7.4,0-13.4,6-13.4,13.4c0,7.4,6,13.4,13.4,13.4c7.4,0,13.4-6,13.4-13.4C109.8,103.3,103.8,97.3,96.4,97.3z M96.4,118.9
			c-4.6,0-8.3-3.7-8.3-8.2c0-4.5,3.7-8.2,8.3-8.2c4.6,0,8.3,3.7,8.3,8.2C104.7,115.2,101,118.9,96.4,118.9z M40.1,63
			C40.1,63,40.1,63,40.1,63c-0.2-8.5-4.6-18.6-14.3-19.1c-3.3-0.1-3.3,5,0,5.1c6.7,0.3,9,8.5,9.1,13.9c0,0,0,0,0,0H40.1z M90.4,28.3
			c0.1-0.2,0.1-0.5,0.2-0.7c0.9-3.2-4.1-4.5-5-1.4c-0.1,0.2-0.1,0.4-0.2,0.7c-3.3,11.8-6.6,23.7-9.9,35.5c-0.1,0.2-0.1,0.5-0.1,0.7
			h41C116.5,47.2,105.7,33.7,90.4,28.3z"/>
	</g>
</g>
</svg>
