<?xml version="1.0" encoding="utf-8"?>
<!-- Generator: Adobe Illustrator 17.1.0, SVG Export Plug-In . SVG Version: 6.00 Build 0)  -->
<!DOCTYPE svg PUBLIC "-//W3C//DTD SVG 1.0//EN" "http://www.w3.org/TR/2001/REC-SVG-20010904/DTD/svg10.dtd">
<svg version="1.0" id="Camada_1" xmlns="http://www.w3.org/2000/svg" xmlns:xlink="http://www.w3.org/1999/xlink" x="0px" y="0px"
	 viewBox="0 0 147 147" enable-background="new 0 0 147 147" xml:space="preserve">
<g id="Ellipse_6_copy_11">
	<g>
		<ellipse fill-rule="evenodd" clip-rule="evenodd" fill="#0072BC" cx="73.8" cy="73.5" rx="72.2" ry="72.5"/>
	</g>
</g>
<g id="Shape_25">
	<g>
		<path fill-rule="evenodd" clip-rule="evenodd" fill="#FFFFFF" d="M75.3,32.7c0.1-2.1,0-4.3,1.7-4.1c0.8,0.1,2.3,0.3,4.1,0.6
			c2,0.4,1.7,11.1,1.7,11.1l7.2,2.8c0.2-7.7-1.7-16.7-3.7-17.3c-3.3-0.9-8-2.8-12.8-1.8c-3.2,0.7-4,12.3-4,12.3l5.6,1.4
			C75.1,37.7,75.2,36,75.3,32.7z M85.3,53.9C85.3,53.9,85.3,53.9,85.3,53.9c1.9-1.9,4.5-3.7,7.5-3.6c0.2,0,0.3,0,0.6,0.1
			c-1.7-1.9-3.7-3.5-5.8-4.3c-0.5-0.2-17.8-7-23-6.3c-0.1,0-0.3,0-0.4,0.1c0.3,0,0.4-0.1,0.4-0.1S52.7,40,44.8,47.8
			c-4.1,4.1-7.7,11.4-10,18.4c0,1.8,2.3,4,6.9,5.7c1.2,0.4,3.1,1.1,5.4,1.8c1.7-4.7,4.6-8.3,4.6-8.3s0.7-1.7,4-1
			c3.4,0.7,3.5,2.2,3.5,2.2s-2.2,3.5-4.3,8.2c-0.1,0.3-0.3,0.7-0.4,1.1c5.3,1.5,10.5,2.9,11.9,3c2.9,0.3,10.2,0.6,11.6-6.4
			c1.4-6.9,2.7-11.1,3.9-13.7c0.2-0.6,0.4-1,0.6-1.4C83,56.7,83.9,55.3,85.3,53.9C85.3,53.9,85.3,53.9,85.3,53.9z M65,84.1
			c-2.3-0.4-6.7-1.6-11.3-3c-0.7,2.8-0.1,7.5-0.1,7.5s-0.9,2.2-4.5,1.4c-3.1-0.7-3-2.9-3-2.9s-0.8-4.4-0.1-8.3
			c-4.4-1.4-8.1-2.6-9.5-3.1c-1.7-0.6-2.8-1.5-3.7-2.5c-0.1,0.4-0.1,2-0.2,2.3c-3.1,22,3.4,31.5,3.8,33.5
			c0.6,2.7,12.4,8.3,23.9,12.5c6.6,2.4,14,1.9,16.9,1.7l0.2,0c0.5-8.5,1.7-30.7,2.4-44.3C78.8,84,70.5,85.2,65,84.1z M99.9,89.4
			c0,0,0-0.6,0-1.6c0-2.9,0-9.3-0.5-15.7c0,0,0,0,0,0c-0.5-5.6-1.9-11.7-3.2-14.8c-2.1-5.3-8.2,1.3-9.9,5.5
			c-1.8,4.3-3.5,54.3-3.6,59.2c4.3-1.1,10.4-2.7,11.1-3.9c1.6-2.5,2.4-4.9,2.8-6.9c0.3-1.4,3.8-2.6,3.8-2.6s-0.3-10.8-0.5-19.5
			L99.9,89.4z M115.6,66c0,0-0.9-10.7-1.1-12.8c-0.5-5-5.1-21.2-20.6-8.8l4.1,4.5c0,0,10.5-9.4,10.9,13c0,1.9,0.2,4.5,1.3,20.5
			c1.3,17.6-5.7,17.7-5.7,17.7l0.3,7.5c0,0,2.6-0.7,5.2-1.8c3.8-1.6,7.4-8.2,7.4-17.9C117.5,84.1,115.6,66,115.6,66z M61.1,36.1
			l3.4-0.5v-2.9l0.7-2.4c0,0-3.2,1.4-4.1,2.9c-0.9,1.4-1.3,2.2-1.3,2.9C59.8,36.7,61.1,36.1,61.1,36.1z"/>
	</g>
</g>
</svg>
