<?xml version="1.0" encoding="utf-8"?>
<!-- Generator: Adobe Illustrator 17.1.0, SVG Export Plug-In . SVG Version: 6.00 Build 0)  -->
<!DOCTYPE svg PUBLIC "-//W3C//DTD SVG 1.0//EN" "http://www.w3.org/TR/2001/REC-SVG-20010904/DTD/svg10.dtd">
<svg version="1.0" id="Layer_1" xmlns="http://www.w3.org/2000/svg" xmlns:xlink="http://www.w3.org/1999/xlink" x="0px" y="0px"
	 viewBox="0 0 450 450" enable-background="new 0 0 450 450" xml:space="preserve">
<path fill="#FFFFFF" stroke="#FFFFFF" stroke-width="9.7525" stroke-miterlimit="10" d="M107.7,403.6c-25.5-7.2-38.4-28.4-54.5-44.9
	c-12.7-13.1-1.7-25.7,5.8-38c14.2-23.2,7.6-41.7-18.9-44.6c-38.3-4.3-31.2-30.8-31.9-55c-0.7-22.6-0.6-41.9,30.3-45.4
	c27.5-3.1,36.3-22.1,20.5-43.9c-22.8-31.5-1.1-48.4,16.7-68.9c18.2-20.9,35.2-17.3,55-2.6C153,76.9,170.6,68,173.8,43
	c4.3-33.1,23.8-35.1,50-34.7c26.4,0.4,48.5-0.7,52.6,35.7c2.8,24.4,22.2,33.5,43.5,16c24.5-20.2,39.6-6.9,57.1,10.2
	c18.9,18.5,35.2,34.2,13.5,62.5c-15.7,20.6-7.1,40.2,18,42.5c35.2,3.3,33.5,25.2,33.5,50c0,24.6,2.1,47-32.6,51.1
	c-26.3,3.1-33.9,22.6-17.3,44.8c22.7,30.3-0.9,43.8-17.3,61.7c-15.8,17.2-29.7,28.2-53.7,9.8c-23.4-17.9-42.7-10-46.4,20.1
	c-4.1,32.3-24.6,29.6-46,28.4c-21.8-1.1-48.3,9.6-53.5-28.3c-4.1-30.2-20.6-35.7-46.5-21C121.7,395.8,114.5,399.8,107.7,403.6z
	 M342.5,384c17.9-6.1,26.9-20.6,38-32.3c9.7-10.2-2.1-17.1-6.4-24.3c-18.1-30.4-7.3-60.7,27.4-67.3c23.6-4.5,22.3-18.6,22.7-35.9
	c0.4-18.8-2.4-30.5-25.3-33.6c-29.9-4.1-44.4-38.7-27.1-63.2c11.1-15.8,15.3-26.2-2-40.8c-14.6-12.4-25-22.3-45.5-8.9
	C297.2,95.5,263,81.3,259,49.5c-3.2-25.5-17.7-22.6-34.5-23.3c-17.9-0.7-30.1-0.1-33.7,23.7c-4.8,32.5-38.9,46.6-65.5,27.2
	c-21.5-15.8-30.3-2.1-44.1,9.4c-16.5,13.7-15.5,24.3-3.3,41c17.4,23.9,2.3,58.7-27.2,63.1c-21.2,3.2-27.3,12.2-26.9,32.5
	c0.4,19.6,1.7,33.2,26,37.4c32.4,5.6,46,39,26.7,65c-12.3,16.5-9.5,25.9,4.4,37.9c13.1,11.3,21.8,27,43.8,10.8
	c26.2-19.3,61.9-5.9,65.8,25.4c3.3,26.2,17.2,25.3,36,25.8c18.8,0.4,29.9-1.8,32.6-25.1c3.6-30.6,38.9-43.6,65.8-27.4
	C331,376.7,336.8,380.5,342.5,384z"/>
<path fill="#FFFFFF" stroke="#FFFFFF" stroke-width="9.7525" stroke-miterlimit="10" d="M311.4,224.1c1,47.1-36.3,86.4-83.2,87.8
	c-48.4,1.5-89.6-37-90.6-84.8c-1-45.8,37.5-85.9,84.1-87.6C270.7,137.8,310.4,175.1,311.4,224.1z M293.8,228.5
	c1.4-38.8-28.4-71.3-66.7-72.8c-37.2-1.4-70.4,30.7-71,68.7c-0.6,37.9,31.4,71.2,68.7,71.3C260.5,295.9,292.4,264.8,293.8,228.5z"/>
</svg>
