<?xml version="1.0" encoding="utf-8"?>
<!-- Generator: Adobe Illustrator 16.0.0, SVG Export Plug-In . SVG Version: 6.00 Build 0)  -->
<!DOCTYPE svg PUBLIC "-//W3C//DTD SVG 1.1//EN" "http://www.w3.org/Graphics/SVG/1.1/DTD/svg11.dtd">
<svg version="1.1" id="Layer_1" xmlns="http://www.w3.org/2000/svg" xmlns:xlink="http://www.w3.org/1999/xlink" x="0px" y="0px"
	 width="450px" height="450px" viewBox="0 0 450 450" enable-background="new 0 0 450 450" xml:space="preserve">
<path fill-rule="evenodd" clip-rule="evenodd" fill="#FFFFFF" d="M105.107,408.709c-26.142-7.399-39.413-29.09-55.899-46.068
	c-13.034-13.418-1.708-26.368,5.969-38.928c14.539-23.802,7.831-42.733-19.346-45.767c-39.244-4.386-31.997-31.543-32.729-56.391
	c-0.686-23.184-0.606-42.934,31.107-46.547c28.167-3.217,37.182-22.71,21.018-45.031c-23.39-32.292-1.172-49.663,17.109-70.618
	c18.691-21.429,36.049-17.771,56.406-2.641c22.867,16.998,40.911,7.893,44.229-17.693C177.374,5.119,197.344,3.038,224.2,3.401
	c27.112,0.365,49.719-0.707,53.905,36.569c2.823,25.01,22.742,34.393,44.595,16.396c25.155-20.722,40.59-7.067,58.507,10.45
	c19.395,18.968,36.07,35.064,13.883,64.082c-16.108,21.075-7.261,41.178,18.469,43.564c36.129,3.343,34.318,25.843,34.318,51.312
	c0,25.244,2.178,48.22-33.376,52.442c-27.018,3.212-34.77,23.13-17.702,45.907c23.313,31.086-0.889,44.941-17.694,63.272
	c-16.213,17.678-30.436,28.953-55.059,10.097c-24.036-18.405-43.733-10.282-47.604,20.594
	c-4.157,33.166-25.253,30.308-47.136,29.171c-22.306-1.17-49.513,9.818-54.819-29.026c-4.221-30.944-21.108-36.584-47.676-21.564
	C119.493,400.792,112.122,404.821,105.107,408.709z M345.904,388.679c18.31-6.22,27.603-21.098,38.993-33.089
	c9.895-10.43-2.173-17.509-6.559-24.886c-18.563-31.204-7.484-62.286,28.124-69.013c24.205-4.57,22.89-19.074,23.281-36.761
	c0.426-19.281-2.485-31.279-25.951-34.482c-30.667-4.181-45.486-39.688-27.75-64.837c11.429-16.201,15.676-26.865-2.051-41.872
	c-15.018-12.723-25.651-22.9-46.643-9.168c-27.925,18.283-62.998,3.734-67.045-28.863c-3.239-26.125-18.19-23.202-35.378-23.863
	c-18.304-0.697-30.908-0.091-34.521,24.312c-4.931,33.303-39.929,47.815-67.118,27.907c-22.072-16.168-31.042-2.109-45.172,9.675
	c-16.901,14.088-15.868,24.874-3.352,42.025c17.859,24.47,2.397,60.21-27.91,64.741c-21.756,3.255-27.997,12.533-27.617,33.372
	c0.363,20.137,1.773,34.055,26.674,38.39c33.197,5.79,47.207,40.015,27.366,66.691c-12.616,16.959-9.711,26.566,4.515,38.827
	c13.455,11.601,22.314,27.656,44.864,11.044c26.899-19.81,63.49-6.042,67.507,25.998c3.369,26.876,17.589,25.987,36.921,26.414
	c19.326,0.42,30.614-1.816,33.46-25.729c3.714-31.326,39.905-44.718,67.421-28.054C334.066,381.144,340.061,385.013,345.904,388.679
	z"/>
<path fill-rule="evenodd" clip-rule="evenodd" fill="#FFFFFF" d="M314.033,224.688c1.007,48.293-37.17,88.596-85.324,90.072
	c-49.646,1.516-91.854-37.974-92.949-86.982c-1.054-47.005,38.408-88.09,86.256-89.81
	C272.33,136.158,313.004,174.481,314.033,224.688z M295.936,229.232c1.463-39.788-29.103-73.148-68.404-74.653
	c-38.124-1.476-72.156,31.469-72.805,70.48c-0.645,38.875,32.248,73.03,70.429,73.152
	C261.867,298.322,294.576,266.458,295.936,229.232z"/>
</svg>
