<?xml version="1.0" encoding="utf-8"?>
<!-- Generator: Adobe Illustrator 17.1.0, SVG Export Plug-In . SVG Version: 6.00 Build 0)  -->
<!DOCTYPE svg PUBLIC "-//W3C//DTD SVG 1.0//EN" "http://www.w3.org/TR/2001/REC-SVG-20010904/DTD/svg10.dtd">
<svg version="1.0" id="Camada_1" xmlns="http://www.w3.org/2000/svg" xmlns:xlink="http://www.w3.org/1999/xlink" x="0px" y="0px"
	 viewBox="0 0 250 250" enable-background="new 0 0 250 250" xml:space="preserve">
<g id="Rounded_Rectangle_5_copy">
	<path fill="#FFFFFF" d="M116.5,45.1V27.7H99H40.6c-19.3,0-35,15.7-35,35v140c0,19.3,15.7,35,35,35h140c19.3,0,35-15.7,35-35
		c0,0,0-29.9,0-70l-17.5,0v70c0,9.7-7.9,17.5-17.5,17.5h-140c-9.7,0-17.5-7.9-17.5-17.5v-140c0-9.7,7.9-17.5,17.5-17.5h51.6
		 M92.3,45.2"/>
</g>
<g id="_x31_60">
	<g>
		<path fill-rule="evenodd" clip-rule="evenodd" fill="#FFFFFF" d="M240.8,61.8l-63.3-48.7c-3-2.3-7.6-3-11.5-1.7
			c-1.3,0.4-2.5,1-3.4,1.8c-2,1.5-3.1,3.6-3.1,5.8l-0.1,27.7c-50.7,5.9-89.4,35.6-89.4,71.3c0,20.5,13.1,40.2,36,54
			c1.8,1.1,3.9,1.6,6,1.6c2.4,0,4.9-0.7,6.7-2c3.4-2.5,3.7-6.6,0.6-9.3c-8.8-7.9-13.4-16.7-13.4-25.7c0-19.9,21.8-36.9,53.2-45.4
			l-0.1,25.6c0,3.3,2.5,6.2,6.5,7.5c3.9,1.2,8.5,0.5,11.5-1.8l63.8-49C244.8,70.2,244.9,65,240.8,61.8z M177.2,103.3l0.1-10.3
			c0-4.6-3-8.8-8.1-11.5c-3.2-1.7-7-2.5-10.9-2.5c-2.2,0-4.4,0.3-6.5,0.8c-33.3,8.9-56.2,25.6-63.3,45.3c-0.2-1.7-0.4-3.5-0.4-5.3
			c0-28.4,30.9-52.6,73.4-57.6c9.2-1.1,16-6.9,16-13.7l0.1-12.8l43.8,33.6L177.2,103.3z"/>
	</g>
</g>
</svg>
