<?xml version="1.0" encoding="utf-8"?>
<!-- Generator: Adobe Illustrator 17.1.0, SVG Export Plug-In . SVG Version: 6.00 Build 0)  -->
<!DOCTYPE svg PUBLIC "-//W3C//DTD SVG 1.0//EN" "http://www.w3.org/TR/2001/REC-SVG-20010904/DTD/svg10.dtd">
<svg version="1.0" id="Camada_1" xmlns="http://www.w3.org/2000/svg" xmlns:xlink="http://www.w3.org/1999/xlink" x="0px" y="0px"
	 viewBox="0 0 147 147" enable-background="new 0 0 147 147" xml:space="preserve">
<g id="Ellipse_6_copy_4">
	<g>
		<ellipse fill-rule="evenodd" clip-rule="evenodd" fill="#C4C300" cx="73.8" cy="73.5" rx="72.2" ry="72.5"/>
	</g>
</g>
<g id="Shape_17">
	<g>
		<path fill-rule="evenodd" clip-rule="evenodd" fill="#FFFFFF" d="M109.4,37.2c-8.8-7.9-20.2-12.2-32-12.2C51,25,29.5,46.5,29.5,73
			s21.5,48,47.9,48c10.9,0,21.2-3.6,29.8-10.4c0.9-0.7,1.2-2,0.7-3.1c-0.5-1.1-1.7-1.6-2.8-1.4c-2.4,0.5-4.9,0.8-7.4,0.8
			C81.7,107,67.9,95.5,65,79.6c-0.2-1.4-1.6-2.3-2.9-2c-1.4,0.3-2.3,1.6-2,2.9C63.2,98,78,110.9,95.6,112c-5.6,2.6-11.7,4-18.1,4
			c-23.7,0-42.9-19.3-42.9-42.9s19.2-42.9,42.9-42.9c7.2,0,14.1,1.8,20.3,5.1c-11,0-21.4,4.7-28.7,12.9c-0.9,1-0.8,2.6,0.2,3.6
			c1,0.9,2.6,0.8,3.6-0.2c6.3-7.1,15.4-11.2,24.9-11.2c3.1,0,6.2,0.4,9.3,1.3c1.1,0.3,2.3-0.2,2.9-1.2
			C110.5,39.3,110.3,38,109.4,37.2z M71.1,82.7c0.4,0.9,1.3,1.6,2.3,1.6h14.1c1.4,0,2.5-1.1,2.5-2.5s-1.1-2.5-2.5-2.5h-8l8.8-8.8
			c0.7-0.7,0.9-1.8,0.5-2.8c-0.4-0.9-1.3-1.6-2.3-1.6H73.4c-1.4,0-2.5,1.1-2.5,2.5c0,1.4,1.1,2.5,2.5,2.5h7l-8.8,8.8
			C70.9,80.7,70.7,81.8,71.1,82.7z M106.7,86.9h-6l6.9-6.9c0.7-0.7,0.9-1.8,0.5-2.8c-0.4-0.9-1.3-1.6-2.3-1.6H94.6
			c-1.4,0-2.5,1.1-2.5,2.5s1.1,2.5,2.5,2.5h5.2l-6.9,6.9c-0.7,0.7-0.9,1.8-0.5,2.8c0.4,0.9,1.3,1.6,2.3,1.6h12.1
			c1.4,0,2.5-1.1,2.5-2.5S108.1,86.9,106.7,86.9z M45.9,73.6c0.4,0.9,1.3,1.6,2.3,1.6h19.2c1.4,0,2.5-1.1,2.5-2.5
			c0-1.4-1.1-2.5-2.5-2.5H54.3l13.5-13.5c0.7-0.7,0.9-1.8,0.5-2.8c-0.4-0.9-1.3-1.6-2.3-1.6H48.2c-1.4,0-2.5,1.1-2.5,2.5
			c0,1.4,1.1,2.5,2.5,2.5h11.7L46.4,70.9C45.7,71.6,45.5,72.7,45.9,73.6z"/>
	</g>
</g>
</svg>
