<?xml version="1.0" encoding="utf-8"?>
<!-- Generator: Adobe Illustrator 17.1.0, SVG Export Plug-In . SVG Version: 6.00 Build 0)  -->
<!DOCTYPE svg PUBLIC "-//W3C//DTD SVG 1.0//EN" "http://www.w3.org/TR/2001/REC-SVG-20010904/DTD/svg10.dtd">
<svg version="1.0" id="Camada_1" xmlns="http://www.w3.org/2000/svg" xmlns:xlink="http://www.w3.org/1999/xlink" x="0px" y="0px"
	 viewBox="0 0 147 147" enable-background="new 0 0 147 147" xml:space="preserve">
<g id="Ellipse_6_copy_6">
	<g>
		<ellipse fill-rule="evenodd" clip-rule="evenodd" fill="#D988C0" cx="73.8" cy="73.5" rx="72.2" ry="72.5"/>
	</g>
</g>
<g id="Shape_19">
	<g>
		<path fill-rule="evenodd" clip-rule="evenodd" fill="#FFFFFF" d="M120.6,67.9c-3.2-2.3-7.6-1.6-9.9,1.6
			c-13.6,18.9-27,28-39.9,27.2c-20-1.3-33.8-26.2-33.9-26.5c-1.9-3.4-6.2-4.7-9.6-2.9c-3.5,1.9-4.8,6.2-2.9,9.6
			c0.7,1.3,17.6,32.1,45.5,33.9c0.9,0.1,1.7,0.1,2.6,0.1c17.2,0,33.9-11.1,49.8-33.2C124.5,74.6,123.8,70.2,120.6,67.9z M60.2,62.7
			c5.2,0,9.4-4.2,9.4-9.3c0-5.2-4.2-9.3-9.4-9.3c-5.2,0-9.4,4.2-9.4,9.3C50.8,58.5,55,62.7,60.2,62.7z M86.9,62.7
			c5.2,0,9.4-4.2,9.4-9.3c0-5.2-4.2-9.3-9.4-9.3c-5.2,0-9.4,4.2-9.4,9.3C77.5,58.5,81.7,62.7,86.9,62.7z"/>
	</g>
</g>
</svg>
