<?xml version="1.0" encoding="utf-8"?>
<!-- Generator: Adobe Illustrator 17.1.0, SVG Export Plug-In . SVG Version: 6.00 Build 0)  -->
<!DOCTYPE svg PUBLIC "-//W3C//DTD SVG 1.0//EN" "http://www.w3.org/TR/2001/REC-SVG-20010904/DTD/svg10.dtd">
<svg version="1.0" id="Camada_1" xmlns="http://www.w3.org/2000/svg" xmlns:xlink="http://www.w3.org/1999/xlink" x="0px" y="0px"
	 viewBox="0 0 500 400" enable-background="new 0 0 500 400" xml:space="preserve">
<g id="Shape_2">
	<g>
		<path fill-rule="evenodd" clip-rule="evenodd" fill="#FFFFFF" d="M152.5,162.2c-7.2-7.5-19.1-7.7-26.5-0.3L102.6,185
			c-0.5,0.8-1.8,1.9-3.2,3.2c4.4-72.3,57.3-131.6,128.9-142.7C283.6,37,338.9,59.8,372.7,105c3.7,4.9,9.8,7.4,15.8,6.5
			c2.7-0.4,5.3-1.5,7.5-3.2c4.9-3.8,7.3-9.9,6.4-16c-0.4-2.8-1.5-5.4-3.2-7.7C358.1,29.4,290.7,1.6,223.3,12.1
			c-88,13.6-153,87-157.4,176.1c-0.5-0.5-0.9-1-1.1-1.4l-25-26c-7.2-7.5-19.1-7.7-26.5-0.4c-7.4,7.3-7.6,19.4-0.3,26.9l55.6,57.9
			c3.8,3.9,8.9,5.9,13.9,5.7c4.6-0.1,9.1-1.9,12.6-5.4l57.1-56.4C159.6,181.8,159.7,169.8,152.5,162.2z M83.1,213.6
			c0.2,0,0.4,0,0.7,0C83.5,213.9,83.3,213.9,83.1,213.6z M486.6,212.9L430.9,155c-3.8-3.9-8.9-5.9-13.9-5.7
			c-4.6,0.1-9.1,1.9-12.6,5.4l-57.1,56.4c-7.4,7.3-7.6,19.4-0.3,26.9c7.2,7.5,19.1,7.7,26.5,0.3l23.4-23.1c0.5-0.7,1.6-1.7,2.9-2.9
			C394.9,284,342.1,342.8,271,353.8c-55.3,8.5-110.6-14.3-144.4-59.5c-3.7-5-9.8-7.4-15.8-6.5c-2.7,0.4-5.3,1.5-7.5,3.2
			c-4.9,3.8-7.3,9.9-6.4,16.1c0.4,2.8,1.5,5.4,3.2,7.7c41.2,55.2,108.7,82.9,176.1,72.5c87.8-13.6,152.6-86.6,157.4-175.5
			c0.6,0.6,1.1,1.2,1.4,1.7l25,26c7.2,7.5,19.1,7.7,26.5,0.4C493.7,232.5,493.8,220.4,486.6,212.9z M208.3,208.9
			c0,22.9,18.6,41.4,41.4,41.4s41.4-18.6,41.4-41.4c0-22.9-18.6-41.4-41.4-41.4S208.3,186,208.3,208.9z"/>
	</g>
</g>
</svg>
