<?xml version="1.0" encoding="utf-8"?>
<!-- Generator: Adobe Illustrator 17.1.0, SVG Export Plug-In . SVG Version: 6.00 Build 0)  -->
<!DOCTYPE svg PUBLIC "-//W3C//DTD SVG 1.0//EN" "http://www.w3.org/TR/2001/REC-SVG-20010904/DTD/svg10.dtd">
<svg version="1.0" id="Camada_1" xmlns="http://www.w3.org/2000/svg" xmlns:xlink="http://www.w3.org/1999/xlink" x="0px" y="0px"
	 viewBox="0 0 150 150" enable-background="new 0 0 150 150" xml:space="preserve">
<g id="_x31_43">
	<g>
		<path fill-rule="evenodd" clip-rule="evenodd" fill="#ffffff" d="M106.2,101c-3.2-3.2-8.4-3.2-11.7,0l-0.9,0.9
			c-11.8,11.8-31.1,11.8-43-0.2c-3.8-3.8-6.2-8.3-7.6-13.1l11.8,0c1.6,0,3.1-1,3.7-2.5c0.6-1.5,0.3-3.2-0.9-4.4L33.2,57.5
			c-1.6-1.6-4.1-1.6-5.7,0L3.4,81.6c-1.1,1.1-1.5,2.9-0.9,4.4C2.7,86.5,3,87,3.4,87.3c0.7,0.7,1.8,1.2,2.9,1.2l12.7,0
			c1.8,10.9,6.6,21.4,15,29.8c21.1,21.1,55.2,21.3,76.2,0.5l1.1-1.1c3.2-3.2,3.2-8.4,0-11.7L106.2,101z M147.5,67.2
			c-0.2-0.5-0.5-0.9-0.9-1.3c-0.7-0.7-1.8-1.2-2.9-1.2l-12.2,0c-1.2-12-6.2-23.7-15.4-33C95,10.6,60.9,10.4,39.9,31.2l-1.1,1.1
			c-3.2,3.2-3.2,8.4,0,11.7l5.1,5.1c3.2,3.2,8.4,3.2,11.7,0l0.9-0.9c11.8-11.8,31.1-11.8,43,0.2c4.6,4.6,7.3,10.3,8.4,16.3l-12.6,0
			c-1.6,0-3.1,1-3.7,2.5c-0.6,1.5-0.3,3.2,0.9,4.4l24.3,24.3c1.6,1.6,4.1,1.6,5.7,0l24.1-24.1C147.8,70.4,148.1,68.7,147.5,67.2z"/>
	</g>
</g>
</svg>
