<?xml version="1.0" encoding="utf-8"?>
<!-- Generator: Adobe Illustrator 17.1.0, SVG Export Plug-In . SVG Version: 6.00 Build 0)  -->
<!DOCTYPE svg PUBLIC "-//W3C//DTD SVG 1.0//EN" "http://www.w3.org/TR/2001/REC-SVG-20010904/DTD/svg10.dtd">
<svg version="1.0" id="_x35_8_1_" xmlns="http://www.w3.org/2000/svg" xmlns:xlink="http://www.w3.org/1999/xlink" x="0px" y="0px"
	 viewBox="0 0 500 500" enable-background="new 0 0 500 500" xml:space="preserve">
<g id="_x31_5">
	<g>
		<path fill-rule="evenodd" clip-rule="evenodd" fill="#00AEAD" d="M462,224.4L276.8,35.1c-11.6-11.7-26.7-18.7-42.7-19.9
			c-1.2-0.1-3.6-0.1-3.7-0.1c0,0-143.5,0.2-144.1,0.2c-17.5,0-34.4,7.3-47.6,20.5C25.4,49.4,18.3,67.9,19.1,86.9l0,144.3
			c0,1.2,0,2.4,0.1,3.6c1.2,16.2,8.2,31.5,19.5,43L223.8,465c12.7,12.9,29.7,20,47.7,20c18,0,34.9-7.1,47.7-19.9L462,320.7
			C488.3,294.2,488.3,251,462,224.4z M56.6,93.2c0-21.8,17.4-39.5,38.9-39.5c21.5,0,38.9,17.7,38.9,39.5c0,21.8-17.4,39.5-38.9,39.5
			C74,132.7,56.6,115,56.6,93.2z M419.9,291.8L291.2,422.3c-7.5,7.7-19.8,7.7-27.3,0L119.3,275.5c-7.5-7.7-7.5-20.1,0-27.7
			l128.6-130.5c7.5-7.7,19.8-7.7,27.3,0L419.9,264C427.4,271.7,427.4,284.1,419.9,291.8z"/>
	</g>
</g>
</svg>
