<?xml version="1.0" encoding="utf-8"?>
<!-- Generator: Adobe Illustrator 17.1.0, SVG Export Plug-In . SVG Version: 6.00 Build 0)  -->
<!DOCTYPE svg PUBLIC "-//W3C//DTD SVG 1.0//EN" "http://www.w3.org/TR/2001/REC-SVG-20010904/DTD/svg10.dtd">
<svg version="1.0" id="_x35_8_1_" xmlns="http://www.w3.org/2000/svg" xmlns:xlink="http://www.w3.org/1999/xlink" x="0px" y="0px"
	 viewBox="0 0 250 250" enable-background="new 0 0 250 250" xml:space="preserve">
<path fill="#FFFFFF" d="M144.6,123.7h-17.9v-18.1c0-0.8-0.7-1.5-1.5-1.5s-1.5,0.7-1.5,1.5v18.1h-18.3c-0.8,0-1.5,0.7-1.5,1.5
	c0,0.8,0.7,1.5,1.5,1.5h18.3v18.1c0,0.8,0.7,1.5,1.5,1.5s1.5-0.7,1.5-1.5v-18.1h17.9c0.8,0,1.5-0.7,1.5-1.5
	C146.1,124.3,145.4,123.7,144.6,123.7z"/>
<g>
	<path fill="#FFFFFF" d="M241.5,32.6v28h3v-28c0-14.9-12.1-27-27-27h-25.5v3h25.5C230.8,8.6,241.5,19.4,241.5,32.6z"/>
	<path fill="#FFFFFF" d="M241.5,194.9v22.9c0,13.2-10.8,24-24,24h-25.5v3h25.5c14.9,0,27-12.1,27-27v-22.9H241.5z"/>
</g>
<g>
	<path fill="#FFFFFF" d="M8.5,60.7v-28c0-13.2,10.8-24,24-24h25.5v-3H32.4c-14.9,0-27,12.1-27,27v28C5.5,60.7,8.5,60.7,8.5,60.7z"/>
	<path fill="#FFFFFF" d="M8.5,217.7v-22.9h-3v22.9c0,14.9,12.1,27,27,27h25.5v-3H32.4C19.2,241.7,8.5,231,8.5,217.7z"/>
</g>
</svg>
