<?xml version="1.0" encoding="utf-8"?>
<!-- Generator: Adobe Illustrator 17.1.0, SVG Export Plug-In . SVG Version: 6.00 Build 0)  -->
<!DOCTYPE svg PUBLIC "-//W3C//DTD SVG 1.0//EN" "http://www.w3.org/TR/2001/REC-SVG-20010904/DTD/svg10.dtd">
<svg version="1.0" id="_x35_8_1_" xmlns="http://www.w3.org/2000/svg" xmlns:xlink="http://www.w3.org/1999/xlink" x="0px" y="0px"
	 viewBox="0 0 250 250" enable-background="new 0 0 250 250" xml:space="preserve">
<g id="TIMELINE">
	<g>
		<path fill-rule="evenodd" clip-rule="evenodd" fill="#FFFFFF" d="M193.7,86.4h-29.2c-5.4,0-9.7,4.4-9.7,9.7c0,5.4,4.4,9.7,9.7,9.7
			h29.2c5.4,0,9.7-4.4,9.7-9.7C203.4,90.8,199.1,86.4,193.7,86.4z M222.9,8.7H28.4C17.7,8.7,9,17.4,9,28.1v194.4
			c0,10.7,8.7,19.4,19.4,19.4h194.4c10.7,0,19.4-8.7,19.4-19.4V28.1C242.3,17.4,233.6,8.7,222.9,8.7z M222.9,212.8l-9.7,9.7h-175
			c-5.4,0-9.7-4.4-9.7-9.7v-175c0-5.4,4.4-9.7,9.7-9.7h175c5.4,0,9.7,4.4,9.7,9.7V212.8z M193.7,164.2h-29.2c-5.4,0-9.7,4.4-9.7,9.7
			c0,5.4,4.4,9.7,9.7,9.7h29.2c5.4,0,9.7-4.4,9.7-9.7C203.4,168.6,199.1,164.2,193.7,164.2z M125.7,67h-19.4
			c-10.7,0-19.4,8.7-19.4,19.4H67.3V57.3c0-5.4-4.4-9.7-9.7-9.7c-5.4,0-9.7,4.4-9.7,9.7v116.7c0,5.4,4.4,9.7,9.7,9.7h29.2
			c0,10.7,8.7,19.4,19.4,19.4h19.4c10.7,0,19.4-8.7,19.4-19.4v-19.4c0-10.7-8.7-19.4-19.4-19.4h-19.4c-10.7,0-19.4,8.7-19.4,19.4
			H67.3v-58.3h19.4c0,10.7,8.7,19.4,19.4,19.4h19.4c10.7,0,19.4-8.7,19.4-19.4V86.4C145.1,75.7,136.4,67,125.7,67z M115.9,164.2
			c5.4,0,9.7,4.4,9.7,9.7c0,5.4-4.4,9.7-9.7,9.7c-5.4,0-9.7-4.4-9.7-9.7C106.2,168.6,110.6,164.2,115.9,164.2z M115.9,105.9
			c-5.4,0-9.7-4.4-9.7-9.7c0-5.4,4.4-9.7,9.7-9.7c5.4,0,9.7,4.4,9.7,9.7C125.7,101.5,121.3,105.9,115.9,105.9z"/>
	</g>
</g>
</svg>
