<?xml version="1.0" encoding="utf-8"?>
<!-- Generator: Adobe Illustrator 17.1.0, SVG Export Plug-In . SVG Version: 6.00 Build 0)  -->
<!DOCTYPE svg PUBLIC "-//W3C//DTD SVG 1.0//EN" "http://www.w3.org/TR/2001/REC-SVG-20010904/DTD/svg10.dtd">
<svg version="1.0" id="_x35_8_1_" xmlns="http://www.w3.org/2000/svg" xmlns:xlink="http://www.w3.org/1999/xlink" x="0px" y="0px"
	 viewBox="0 0 250 250" enable-background="new 0 0 250 250" xml:space="preserve">
<g id="TIMELINE">
	<g>
		<path fill="#FFFFFF" d="M194.4,86h-29.6c-5.5,0-9.8,4.4-9.8,9.8c0,5.5,4.4,9.8,9.8,9.8h29.6c5.5,0,9.8-4.4,9.8-9.8
			C204.2,90.5,199.8,86,194.4,86z M223.9,7.6H27.5c-10.8,0-19.6,8.8-19.6,19.6v196.2c0,10.8,8.8,19.6,19.6,19.6h196.2
			c10.8,0,19.6-8.8,19.6-19.6V27.2C243.5,16.5,234.6,7.6,223.9,7.6z M223.9,213.6l-9.8,9.8H37.5c-5.5,0-9.8-4.4-9.8-9.8V37.1
			c0-5.5,4.4-9.8,9.8-9.8h176.7c5.5,0,9.8,4.4,9.8,9.8L223.9,213.6L223.9,213.6z M194.4,164.7h-29.6c-5.5,0-9.8,4.4-9.8,9.8
			c0,5.5,4.4,9.8,9.8,9.8h29.6c5.5,0,9.8-4.4,9.8-9.8C204.2,169.1,199.8,164.7,194.4,164.7z M125.7,66.5h-19.5
			c-10.8,0-19.6,8.8-19.6,19.6H66.8V56.7c0-5.5-4.4-9.8-9.8-9.8c-5.5,0-9.8,4.4-9.8,9.8v117.8c0,5.5,4.4,9.8,9.8,9.8h29.6
			c0,10.8,8.8,19.6,19.6,19.6h19.6c10.8,0,19.6-8.8,19.6-19.6v-19.6c0-10.8-8.8-19.6-19.6-19.6h-19.6c-10.8,0-19.6,8.8-19.6,19.6
			H66.8v-58.9h19.6c0,10.8,8.8,19.6,19.6,19.6h19.6c10.8,0,19.6-8.8,19.6-19.6V85.9C145.3,75.3,136.6,66.5,125.7,66.5z M115.9,164.7
			c5.5,0,9.8,4.4,9.8,9.8c0,5.5-4.4,9.8-9.8,9.8c-5.5,0-9.8-4.4-9.8-9.8C106.1,169,110.5,164.7,115.9,164.7z M115.9,105.8
			c-5.5,0-9.8-4.4-9.8-9.8c0-5.5,4.4-9.8,9.8-9.8c5.5,0,9.8,4.4,9.8,9.8C125.7,101.3,121.3,105.8,115.9,105.8z"/>
	</g>
</g>
</svg>
