<?xml version="1.0" encoding="utf-8"?>
<!-- Generator: Adobe Illustrator 17.1.0, SVG Export Plug-In . SVG Version: 6.00 Build 0)  -->
<!DOCTYPE svg PUBLIC "-//W3C//DTD SVG 1.0//EN" "http://www.w3.org/TR/2001/REC-SVG-20010904/DTD/svg10.dtd">
<svg version="1.0" id="Camada_1" xmlns="http://www.w3.org/2000/svg" xmlns:xlink="http://www.w3.org/1999/xlink" x="0px" y="0px"
	 viewBox="0 0 250 250" enable-background="new 0 0 250 250" xml:space="preserve">
<g id="_x34_0">
	<g>
		<path fill-rule="evenodd" clip-rule="evenodd" fill="#666766" d="M125.6,98.8c-5.8,0-10.4,4.7-10.4,10.4V203
			c0,5.8,4.7,10.4,10.4,10.4c5.8,0,10.4-4.7,10.4-10.4v-93.8C136.1,103.5,131.4,98.8,125.6,98.8z M84,98.8
			c-5.8,0-10.4,4.7-10.4,10.4V203c0,5.8,4.7,10.4,10.4,10.4c5.8,0,10.4-4.7,10.4-10.4v-93.8C94.4,103.5,89.7,98.8,84,98.8z
			 M167.3,98.8c-5.8,0-10.4,4.7-10.4,10.4V203c0,5.8,4.7,10.4,10.4,10.4c5.8,0,10.4-4.7,10.4-10.4v-93.8
			C177.7,103.5,173.1,98.8,167.3,98.8z M219.4,25.9h-62.5c0-11.5-9.3-20.8-20.8-20.8h-20.8c-11.5,0-20.8,9.3-20.8,20.8H31.9
			C20.4,25.9,11,35.2,11,46.7v20.8c0,9.7,6.6,17.8,15.6,20.1c-0.1,1.5-0.2,3.1,0,4.7l13.9,134.9c1,9.7,11.1,17.5,22.6,17.5h125
			c11.5,0,21.6-7.7,22.6-17.5l13.9-134.9c0.2-1.6,0.1-3.1,0-4.7c9-2.3,15.6-10.4,15.6-20.1V46.7C240.2,35.2,230.9,25.9,219.4,25.9z
			 M199,100.1l-8.8,114c-0.4,5-5.5,9-11.3,9H72.4c-5.9,0-11-4-11.3-9l-8.8-114c-0.5-6.2,4.1-11.1,10.4-11.7h125.9
			C194.9,89,199.4,93.9,199,100.1z M209,67.6H42.3c-5.8,0-10.4-4.7-10.4-10.4c0-5.8,4.7-10.4,10.4-10.4H209
			c5.8,0,10.4,4.7,10.4,10.4C219.4,62.9,214.7,67.6,209,67.6z"/>
	</g>
</g>
</svg>
