<?xml version="1.0" encoding="utf-8"?>
<!-- Generator: Adobe Illustrator 17.1.0, SVG Export Plug-In . SVG Version: 6.00 Build 0)  -->
<!DOCTYPE svg PUBLIC "-//W3C//DTD SVG 1.0//EN" "http://www.w3.org/TR/2001/REC-SVG-20010904/DTD/svg10.dtd">
<svg version="1.0" id="Camada_1" xmlns="http://www.w3.org/2000/svg" xmlns:xlink="http://www.w3.org/1999/xlink" x="0px" y="0px"
	 viewBox="0 0 250 250" enable-background="new 0 0 250 250" xml:space="preserve">
<g>
	<g id="Shape_19">
		<g>
			<path fill="#FFFFFF" stroke="#FFFFFF" stroke-width="4" stroke-miterlimit="10" d="M185.6,70.9c-10.7-9.3-23.8-12.1-36.9-8
				c-7.4-20.4-21.2-26.1-29.3-27.7c-16.1-3.2-34.8,5.1-45.5,20.1c-8.4,11.9-10.2,25.4-5.5,38C48,106.9,41.1,134,47.9,153.4
				c4.3,12,14.8,23.1,32.4,23.1c3.8,0,7.9-0.5,12.5-1.6c3.8-1,6.3-5,5.3-8.9s-5-6.3-8.8-5.3c-13.8,3.5-23.6-0.8-27.6-12.2
				c-5.3-14.9,1.4-37.2,19.3-45.5c1.8-0.9,3.2-2.4,3.8-4.5c0.6-1.9,0.4-4.1-0.7-5.9c-7.3-12.7-2.1-23.6,1.7-29
				c7.3-10.3,20.3-16.3,30.8-14.3c9.9,1.9,16.9,10.5,20.4,24.9c0.5,2.2,2,4.1,4.1,5c2,0.9,4.5,0.8,6.4-0.2c13-6.9,22.7-2.2,28.6,2.8
				c13.7,11.8,19.7,35.8,13.5,53.5c-5.3,15.2-18.4,23.5-38,24.2c-4.1,0.1-7.2,3.5-7,7.6c0.1,4.1,3.5,7.2,7.5,7
				c34.6-1.2,46.9-21.8,51.3-34C211.4,116.9,203.7,86.5,185.6,70.9z M142.1,152.9c0.9-5.7,3-13,7.6-15.2c4.5-2.2,10.4,0.8,10.6,0.9
				c3.5,1.9,7.9,0.7,9.8-2.8s0.7-8-2.8-9.9c-1.2-0.7-12.7-6.8-23.9-1.3c-8.3,4-13.6,12.8-15.7,26c-5.2,31.2,1.6,62,1.9,63.3
				c0.8,3.3,3.7,5.7,7.1,5.7c0.5,0,1.1-0.1,1.6-0.2c4-0.9,6.4-4.8,5.5-8.7C143.7,210.3,137.3,181.2,142.1,152.9z M102.1,114.9
				c-8.7-5.3-16.9-3.1-17.8-2.9v0.1c-2.7,1-4.7,3.6-4.7,6.8c0,4.1,3.2,7.3,7.3,7.3c0.4,0,0.8-0.1,1.2-0.1l0,0c0.1,0,3.2-0.7,6.7,1.4
				c4.3,2.7,7.5,9.1,9.3,18.2c0,0.1,0,0.2,0.1,0.2c7,29.7-5.9,64.7-6,65c-1.4,3.7,0.5,8,4.3,9.4c0.8,0.3,1.7,0.5,2.5,0.5
				c2.9,0,5.7-1.8,6.8-4.8c0.6-1.6,14.6-39.4,6.6-73.4C115.7,129.2,110.2,119.7,102.1,114.9z"/>
		</g>
	</g>
	<g id="Rounded_Rectangle_7">
		<g>
			<path fill="#FFFFFF" stroke="#FFFFFF" stroke-width="4" stroke-miterlimit="10" d="M180.5,17.2c28.6,0,51.9,23.3,51.9,51.9v111.1
				c0,28.6-23.3,51.9-51.9,51.9H69.4c-28.6,0-51.9-23.3-51.9-51.9V69.1c0-28.6,23.3-51.9,51.9-51.9H180.5 M180.5,6.1H69.4
				c-34.7,0-63,28.2-63,63v111.1c0,34.7,28.2,63,63,63h111.1c34.7,0,63-28.2,63-63V69.1C243.4,34.2,215.2,6.1,180.5,6.1L180.5,6.1z"
				/>
		</g>
	</g>
</g>
</svg>
