<?xml version="1.0" encoding="utf-8"?>
<!-- Generator: Adobe Illustrator 17.1.0, SVG Export Plug-In . SVG Version: 6.00 Build 0)  -->
<!DOCTYPE svg PUBLIC "-//W3C//DTD SVG 1.0//EN" "http://www.w3.org/TR/2001/REC-SVG-20010904/DTD/svg10.dtd">
<svg version="1.0" id="Camada_1" xmlns="http://www.w3.org/2000/svg" xmlns:xlink="http://www.w3.org/1999/xlink" x="0px" y="0px"
	 viewBox="0 0 150 150" enable-background="new 0 0 150 150" xml:space="preserve">
<g id="Shape_24">
	<g>
		<path fill-rule="evenodd" clip-rule="evenodd" fill="#FFFFFF" d="M136.9,47.4c-12.8-5.1-22.5-20.1-34.4-28.2
			c-5,5.8-1.8,14.1-4,20.8c-47.8,2.6-94.2,49.9-86.2,90.7c13.3-21.6,51.4-66.4,88.2-60.7c1.5,9.2,3.7,13.7,8.7,21.6
			c11.5-9.9,15.3-22.3,29.4-31.4C137.7,55.9,135.7,51.1,136.9,47.4z M104.6,77.9c-2.5-7.3-2.3-13.8-3.3-20.7
			c-38.8,0.1-77.7,39.3-87.6,66.6C8.2,90.2,56.2,38.7,102,41.9c-1.8-7.1,0-13.1-0.4-19.7c11.9,5.3,21,19.7,32.4,26.7
			C123.9,58.5,113.3,67.9,104.6,77.9z"/>
	</g>
</g>
</svg>
